<svg width="65" height="72" viewBox="0 0 83 91" fill="none" xmlns="http://www.w3.org/2000/svg">
<mask id="path-1-outside-1_38_129" maskUnits="userSpaceOnUse" x="0" y="0" width="83" height="91" fill="black">
<rect fill="white" width="83" height="91"/>
<path fill-rule="evenodd" clip-rule="evenodd" d="M45.8841 14.6138C45.2367 16.0971 44.5903 17.5781 43.9813 18.9188C43.7956 18.9137 43.6166 18.9124 43.4446 18.915C43.2769 18.9172 43.1022 18.9218 42.9208 18.9286L42.908 18.9287C41.0922 18.9434 38.509 19.2628 35.5562 19.7625C35.1664 19.8234 34.7706 19.8869 34.3695 19.953C33.3842 19.4038 32.5959 19.0205 32.1769 18.9287C32.045 18.8989 31.8741 18.8819 31.6697 18.8761L31.5715 18.7912L31.5239 18.7501C26.1235 14.0927 19.1195 8.05226 14.0303 9.30029C12.8402 9.59225 11.9641 10.202 11.3384 11.0336L11.3281 11.0474C8.94124 14.2429 10.2233 20.688 11.5891 24.9915C11.0473 25.1511 10.5486 25.3047 10.0992 25.451C9.68416 25.5261 7.99043 25.8631 7.41274 26.4527C6.98858 26.8854 6.83129 28.6468 7.25274 33.3608C7.89923 42.107 10.4379 56.9354 12.2417 65.4754L12.2555 65.4891C12.58 67.0476 12.8826 68.3963 13.1457 69.46C7.44771 71.214 4 73.5019 4 76.0047C4 81.5275 20.7893 86.0047 41.5 86.0047C62.2107 86.0047 79 81.5275 79 76.0047C79 73.5747 75.7498 71.3472 70.3455 69.6143C71.1902 66.9205 72.229 62.3257 73.2303 57.1811C75.5051 45.5903 77.5889 31.2566 76.8303 29.7845L76.8349 29.7814C76.9049 29.7321 76.8032 29.6216 76.5521 29.4599C75.4554 28.4771 71.6843 26.7528 66.9761 24.9796C66.9548 24.9624 66.943 24.9534 66.943 24.9534L66.9152 24.9567C66.7466 24.8933 66.5767 24.8298 66.4058 24.7663C69.2173 21.1409 76.1477 10.3337 72.9139 7.33334C72.57 7.00322 72.1022 6.71437 71.5106 6.43927L71.478 6.44404C66.059 3.86567 52.6876 3.25012 50.7087 4.96749C49.7149 5.8369 47.7951 10.2354 45.8841 14.6138Z"/>
</mask>
<path fill-rule="evenodd" clip-rule="evenodd" d="M45.8841 14.6138C45.2367 16.0971 44.5903 17.5781 43.9813 18.9188C43.7956 18.9137 43.6166 18.9124 43.4446 18.915C43.2769 18.9172 43.1022 18.9218 42.9208 18.9286L42.908 18.9287C41.0922 18.9434 38.509 19.2628 35.5562 19.7625C35.1664 19.8234 34.7706 19.8869 34.3695 19.953C33.3842 19.4038 32.5959 19.0205 32.1769 18.9287C32.045 18.8989 31.8741 18.8819 31.6697 18.8761L31.5715 18.7912L31.5239 18.7501C26.1235 14.0927 19.1195 8.05226 14.0303 9.30029C12.8402 9.59225 11.9641 10.202 11.3384 11.0336L11.3281 11.0474C8.94124 14.2429 10.2233 20.688 11.5891 24.9915C11.0473 25.1511 10.5486 25.3047 10.0992 25.451C9.68416 25.5261 7.99043 25.8631 7.41274 26.4527C6.98858 26.8854 6.83129 28.6468 7.25274 33.3608C7.89923 42.107 10.4379 56.9354 12.2417 65.4754L12.2555 65.4891C12.58 67.0476 12.8826 68.3963 13.1457 69.46C7.44771 71.214 4 73.5019 4 76.0047C4 81.5275 20.7893 86.0047 41.5 86.0047C62.2107 86.0047 79 81.5275 79 76.0047C79 73.5747 75.7498 71.3472 70.3455 69.6143C71.1902 66.9205 72.229 62.3257 73.2303 57.1811C75.5051 45.5903 77.5889 31.2566 76.8303 29.7845L76.8349 29.7814C76.9049 29.7321 76.8032 29.6216 76.5521 29.4599C75.4554 28.4771 71.6843 26.7528 66.9761 24.9796C66.9548 24.9624 66.943 24.9534 66.943 24.9534L66.9152 24.9567C66.7466 24.8933 66.5767 24.8298 66.4058 24.7663C69.2173 21.1409 76.1477 10.3337 72.9139 7.33334C72.57 7.00322 72.1022 6.71437 71.5106 6.43927L71.478 6.44404C66.059 3.86567 52.6876 3.25012 50.7087 4.96749C49.7149 5.8369 47.7951 10.2354 45.8841 14.6138Z" fill="white"/>
<path d="M43.9813 18.9188L43.8712 22.9173L46.525 22.9903L47.6231 20.5732L43.9813 18.9188ZM45.8841 14.6138L49.5501 16.2139V16.2139L45.8841 14.6138ZM43.4446 18.915L43.4986 22.9146L43.5053 22.9145L43.4446 18.915ZM42.9208 18.9286L42.9506 22.9285L43.0108 22.9281L43.071 22.9258L42.9208 18.9286ZM42.908 18.9287L42.8783 14.9288L42.8758 14.9289L42.908 18.9287ZM35.5562 19.7625L36.1739 23.7145L36.1987 23.7106L36.2235 23.7064L35.5562 19.7625ZM34.3695 19.953L32.4223 23.447L33.6417 24.1266L35.0192 23.8998L34.3695 19.953ZM32.1769 18.9287L31.2952 22.8303L31.3079 22.8332L31.3207 22.836L32.1769 18.9287ZM31.6697 18.8761L29.0533 21.9017L30.1316 22.8342L31.5566 22.8745L31.6697 18.8761ZM31.5715 18.7912L34.188 15.7656L34.1839 15.762L31.5715 18.7912ZM31.5239 18.7501L28.9116 21.7792L28.9116 21.7793L31.5239 18.7501ZM14.0303 9.30029L13.0776 5.4154L13.0772 5.41549L14.0303 9.30029ZM11.3384 11.0336L8.14215 8.62859L8.13791 8.63424L11.3384 11.0336ZM11.3281 11.0474L8.12757 8.64802L8.12334 8.65368L11.3281 11.0474ZM11.5891 24.9915L12.7194 28.8284L16.637 27.6743L15.4017 23.7815L11.5891 24.9915ZM10.0992 25.451L10.8117 29.387L11.0787 29.3386L11.3368 29.2547L10.0992 25.451ZM7.41274 26.4527L10.2693 29.2527L10.2699 29.2521L7.41274 26.4527ZM7.25274 33.3608L11.2419 33.066L11.2396 33.0353L11.2368 33.0046L7.25274 33.3608ZM12.2417 65.4754L8.32809 66.302L8.57351 67.4639L9.41322 68.3037L12.2417 65.4754ZM12.2555 65.4891L16.1715 64.6737L15.9282 63.505L15.084 62.6608L12.2555 65.4891ZM13.1457 69.46L14.3225 73.283L17.9366 72.1705L17.0287 68.4996L13.1457 69.46ZM70.3455 69.6143L66.5288 68.4175L65.3396 72.2098L69.1242 73.4233L70.3455 69.6143ZM73.2303 57.1811L69.3052 56.4108L69.304 56.4169L73.2303 57.1811ZM76.8303 29.7845L74.5903 26.4705L71.6477 28.4594L73.2746 31.6167L76.8303 29.7845ZM76.8349 29.7814L79.0749 33.0954L79.1053 33.0748L79.1353 33.0537L76.8349 29.7814ZM76.5521 29.4599L73.8825 32.4387L74.1191 32.6508L74.3863 32.8228L76.5521 29.4599ZM66.9761 24.9796L64.4561 28.086L64.9596 28.4945L65.5663 28.723L66.9761 24.9796ZM66.943 24.9534L69.3682 21.7724L68.0762 20.7874L66.4632 20.9823L66.943 24.9534ZM66.9152 24.9567L65.5073 28.7008L66.4234 29.0453L67.395 28.9279L66.9152 24.9567ZM66.4058 24.7663L63.2449 22.3151L59.907 26.6192L65.0129 28.516L66.4058 24.7663ZM72.9139 7.33334L70.1441 10.2192L70.1685 10.2426L70.1933 10.2656L72.9139 7.33334ZM71.5106 6.43927L73.1972 2.81224L72.1139 2.30848L70.9317 2.48138L71.5106 6.43927ZM71.478 6.44404L69.7594 10.056L70.8557 10.5776L72.0569 10.4019L71.478 6.44404ZM50.7087 4.96749L48.0869 1.94654L48.081 1.95171L48.075 1.9569L50.7087 4.96749ZM47.6231 20.5732C48.2467 19.2003 48.9055 17.6908 49.5501 16.2139L42.2181 13.0137C41.5679 14.5035 40.9338 15.9559 40.3394 17.2644L47.6231 20.5732ZM43.5053 22.9145C43.615 22.9128 43.7369 22.9136 43.8712 22.9173L44.0913 14.9203C43.8543 14.9138 43.6181 14.9119 43.3839 14.9154L43.5053 22.9145ZM43.071 22.9258C43.2235 22.9201 43.366 22.9164 43.4986 22.9146L43.3905 14.9153C43.1878 14.9181 42.9809 14.9236 42.7707 14.9315L43.071 22.9258ZM42.9378 22.9286L42.9506 22.9285L42.8911 14.9287L42.8783 14.9288L42.9378 22.9286ZM36.2235 23.7064C39.138 23.2132 41.4599 22.9405 42.9403 22.9286L42.8758 14.9289C40.7246 14.9462 37.88 15.3124 34.8888 15.8185L36.2235 23.7064ZM35.0192 23.8998C35.4102 23.8355 35.7954 23.7736 36.1739 23.7145L34.9384 15.8104C34.5375 15.8731 34.131 15.9384 33.7199 16.0061L35.0192 23.8998ZM31.3207 22.836C31.1461 22.7978 31.062 22.7605 31.1127 22.7801C31.1463 22.7932 31.2237 22.8254 31.353 22.8864C31.6132 23.0093 31.9706 23.1952 32.4223 23.447L36.3168 16.4589C35.7832 16.1615 35.2537 15.8813 34.7687 15.6523C34.3602 15.4594 33.7131 15.1704 33.0331 15.0214L31.3207 22.836ZM31.5566 22.8745C31.5823 22.8752 31.5751 22.8759 31.5415 22.8724C31.5118 22.8694 31.4234 22.8593 31.2952 22.8303L33.0586 15.0271C32.5689 14.9164 32.1092 14.8869 31.7829 14.8777L31.5566 22.8745ZM28.9551 21.8168L29.0533 21.9017L34.2861 15.8505L34.188 15.7656L28.9551 21.8168ZM28.9116 21.7793L28.9592 21.8203L34.1839 15.762L34.1363 15.721L28.9116 21.7793ZM14.983 13.1852C15.7921 12.9868 17.5414 13.3064 20.5226 15.1915C23.2881 16.9401 26.1603 19.4065 28.9116 21.7792L34.1363 15.721C31.4871 13.4363 28.1571 10.5537 24.7981 8.42982C21.655 6.44236 17.3576 4.3658 13.0776 5.4154L14.983 13.1852ZM14.5347 13.4386C14.5859 13.3705 14.6282 13.3344 14.6684 13.3081C14.709 13.2814 14.8003 13.23 14.9833 13.1851L13.0772 5.41549C11.0027 5.92443 9.32969 7.05034 8.14215 8.62859L14.5347 13.4386ZM14.5286 13.4467L14.5389 13.4329L8.13791 8.63424L8.12758 8.64802L14.5286 13.4467ZM15.4017 23.7815C14.7703 21.792 14.2009 19.4289 14.0399 17.3021C13.865 14.991 14.2405 13.8324 14.5328 13.4411L8.12334 8.65368C6.02879 11.4579 5.85189 15.1196 6.06276 17.9058C6.28756 20.8762 7.0421 23.8875 7.77644 26.2014L15.4017 23.7815ZM11.3368 29.2547C11.7437 29.1223 12.2059 28.9797 12.7194 28.8284L10.4587 21.1545C9.88883 21.3224 9.35358 21.4872 8.86165 21.6472L11.3368 29.2547ZM10.2699 29.2521C10.0773 29.4486 9.91269 29.5615 9.83894 29.6088C9.79677 29.6359 9.76488 29.654 9.74634 29.664C9.72753 29.6742 9.71725 29.679 9.71711 29.6791C9.71679 29.6792 9.72327 29.6762 9.73733 29.6704C9.75127 29.6646 9.77045 29.657 9.7952 29.6479C9.84571 29.6292 9.90952 29.6076 9.98608 29.5842C10.142 29.5366 10.312 29.4931 10.4715 29.4569C10.6281 29.4213 10.7525 29.3977 10.8117 29.387L9.38667 21.5149C9.11065 21.5649 8.41029 21.7005 7.64785 21.9335C7.26718 22.0499 6.79515 22.2132 6.31858 22.4369C5.89563 22.6353 5.18653 23.0093 4.5556 23.6532L10.2699 29.2521ZM11.2368 33.0046C11.0306 30.6978 10.9826 29.2772 11.013 28.4475C11.0284 28.0266 11.0602 27.8936 11.0509 27.9346C11.0447 27.9617 11.0116 28.1042 10.9197 28.3101C10.8304 28.5104 10.6392 28.8753 10.2693 29.2527L4.55619 23.6526C3.6663 24.5605 3.36918 25.6341 3.24818 26.1688C3.10329 26.8091 3.04256 27.4922 3.01831 28.155C2.96935 29.4927 3.05342 31.3098 3.26863 33.717L11.2368 33.0046ZM16.1554 64.6487C14.366 56.1771 11.869 41.5502 11.2419 33.066L3.26362 33.6557C3.92948 42.6639 6.50984 57.6936 8.32809 66.302L16.1554 64.6487ZM15.084 62.6608L15.0703 62.647L9.41322 68.3037L9.42698 68.3174L15.084 62.6608ZM17.0287 68.4996C16.7813 67.4996 16.4899 66.2025 16.1715 64.6737L8.3395 66.3045C8.6702 67.8927 8.98382 69.293 9.26269 70.4204L17.0287 68.4996ZM8 76.0047C8 76.7267 7.52523 76.5734 8.73296 75.7264C9.82189 74.9626 11.6628 74.1017 14.3225 73.283L11.9689 65.637C8.93063 66.5723 6.19866 67.7323 4.13924 69.1767C2.19862 70.5378 0 72.7799 0 76.0047H8ZM41.5 82.0047C31.3892 82.0047 22.377 80.9075 16.0141 79.2108C12.8034 78.3546 10.4932 77.4043 9.08023 76.5135C7.4672 75.4965 8 75.2238 8 76.0047H0C0 79.5469 2.63147 81.9049 4.81365 83.2807C7.19591 84.7827 10.3774 85.9872 13.9528 86.9407C21.1623 88.8632 30.9001 90.0047 41.5 90.0047V82.0047ZM75 76.0047C75 75.2238 75.5328 75.4965 73.9198 76.5135C72.5068 77.4043 70.1966 78.3546 66.9859 79.2108C60.623 80.9075 51.6108 82.0047 41.5 82.0047V90.0047C52.0999 90.0047 61.8377 88.8632 69.0472 86.9407C72.6226 85.9872 75.8041 84.7827 78.1864 83.2807C80.3685 81.9049 83 79.5469 83 76.0047H75ZM69.1242 73.4233C71.6346 74.2282 73.3503 75.0617 74.3538 75.7882C75.4563 76.5863 75 76.7085 75 76.0047H83C83 72.8708 80.9186 70.6643 79.0449 69.3079C77.0723 67.88 74.4608 66.7332 71.5668 65.8053L69.1242 73.4233ZM69.304 56.4169C68.3049 61.5503 67.3011 65.9545 66.5288 68.4175L74.1623 70.8112C75.0794 67.8865 76.1532 63.101 77.1567 57.9454L69.304 56.4169ZM73.2746 31.6167C73.117 31.3109 73.0471 31.0639 73.0201 30.9594C72.9893 30.8402 72.9787 30.7634 72.9769 30.7504C72.974 30.7296 72.9836 30.797 72.9875 30.9894C72.9951 31.3689 72.9763 31.9573 72.918 32.7701C72.8025 34.3794 72.5548 36.576 72.2044 39.1485C71.5058 44.2781 70.4296 50.6819 69.3052 56.4108L77.1555 57.9515C78.3059 52.0896 79.409 45.5311 80.1312 40.2281C80.4913 37.5843 80.7645 35.197 80.8975 33.3424C80.9634 32.4234 81.0006 31.5599 80.9859 30.8284C80.9786 30.4654 80.9574 30.0625 80.9028 29.6644C80.8607 29.3566 80.753 28.6645 80.386 27.9522L73.2746 31.6167ZM74.5949 26.4674L74.5903 26.4705L79.0703 33.0985L79.0749 33.0954L74.5949 26.4674ZM74.3863 32.8228C74.3845 32.8217 74.3374 32.7916 74.2637 32.7346C74.2069 32.6906 74.03 32.5513 73.8266 32.3228C73.7068 32.1884 73.118 31.5331 72.9205 30.4511C72.8048 29.8171 72.8228 29.0144 73.1734 28.1919C73.5187 27.3816 74.0638 26.8399 74.5345 26.509L79.1353 33.0537C79.6235 32.7105 80.1808 32.1546 80.533 31.3282C80.8903 30.4896 80.9099 29.6689 80.7906 29.0151C80.5859 27.8934 79.9691 27.1913 79.8013 27.0028C79.3685 26.5168 78.8861 26.2053 78.7179 26.097L74.3863 32.8228ZM65.5663 28.723C67.8601 29.5868 69.8818 30.4226 71.4323 31.1434C72.2092 31.5045 72.8306 31.8196 73.2916 32.0794C73.8064 32.3695 73.9405 32.4907 73.8825 32.4387L79.2217 26.4811C78.165 25.5341 76.4101 24.6352 74.8046 23.8889C73.0183 23.0585 70.8003 22.1456 68.3858 21.2363L65.5663 28.723ZM66.943 24.9534C64.5178 28.1343 64.5177 28.1343 64.5176 28.1342C64.5176 28.1342 64.5175 28.1341 64.5174 28.1341C64.5173 28.134 64.5172 28.1339 64.5171 28.1338C64.5169 28.1336 64.5166 28.1334 64.5164 28.1333C64.516 28.1329 64.5155 28.1326 64.5151 28.1322C64.5142 28.1315 64.5133 28.1309 64.5124 28.1302C64.5106 28.1288 64.5089 28.1275 64.5072 28.1262C64.5038 28.1236 64.5006 28.1211 64.4975 28.1188C64.4913 28.114 64.4857 28.1096 64.4807 28.1056C64.4705 28.0976 64.4624 28.0911 64.4561 28.086L69.4961 21.8733C69.4685 21.8509 69.4439 21.8313 69.4225 21.8145C69.4118 21.8061 69.4019 21.7984 69.3928 21.7914C69.3883 21.7879 69.384 21.7845 69.3799 21.7814C69.3778 21.7798 69.3758 21.7783 69.3739 21.7768C69.3729 21.776 69.372 21.7753 69.371 21.7746C69.3705 21.7742 69.3701 21.7739 69.3696 21.7735C69.3694 21.7733 69.3691 21.7731 69.3689 21.773C69.3688 21.7729 69.3687 21.7728 69.3686 21.7727C69.3685 21.7727 69.3684 21.7726 69.3684 21.7726C69.3683 21.7725 69.3682 21.7724 66.943 24.9534ZM67.395 28.9279L67.4228 28.9245L66.4632 20.9823L66.4354 20.9856L67.395 28.9279ZM65.0129 28.516C65.1789 28.5776 65.3437 28.6392 65.5073 28.7008L68.3232 21.2127C68.1494 21.1474 67.9746 21.082 67.7987 21.0167L65.0129 28.516ZM70.1933 10.2656C69.4843 9.60774 69.8859 9.06336 69.707 10.1806C69.5562 11.1218 69.0898 12.4682 68.3149 14.0966C66.7865 17.3086 64.5191 20.672 63.2449 22.3151L69.5667 27.2176C71.104 25.2352 73.7076 21.3823 75.5387 17.5342C76.4436 15.6326 77.2792 13.4881 77.6063 11.4457C77.9052 9.57953 77.9605 6.55912 75.6346 4.40108L70.1933 10.2656ZM69.824 10.0663C70.0045 10.1502 70.1117 10.2113 70.1676 10.2467C70.2231 10.2817 70.2031 10.2758 70.1441 10.2192L75.6837 4.44748C74.8959 3.6913 73.9909 3.1813 73.1972 2.81224L69.824 10.0663ZM72.0569 10.4019L72.0895 10.3972L70.9317 2.48138L70.8991 2.48614L72.0569 10.4019ZM53.3305 7.98845C52.8414 8.41297 52.5013 8.41747 52.9242 8.31091C53.2134 8.23805 53.6931 8.15645 54.3804 8.09543C55.743 7.97447 57.5603 7.96492 59.5586 8.08737C63.7099 8.34176 67.77 9.10947 69.7594 10.056L73.1966 2.83204C69.767 1.20023 64.4318 0.370989 60.0479 0.102351C57.7787 -0.0367064 55.5434 -0.0392799 53.673 0.126774C52.7438 0.209267 51.8118 0.34119 50.9698 0.553312C50.2616 0.731739 49.0708 1.09267 48.0869 1.94654L53.3305 7.98845ZM49.5501 16.2139C50.5148 14.0037 51.441 11.8829 52.2462 10.2063C52.6494 9.3666 52.9909 8.70457 53.2649 8.23197C53.6209 7.61788 53.6439 7.71437 53.3424 7.97808L48.075 1.9569C47.2767 2.65532 46.687 3.62766 46.3438 4.21963C45.9186 4.95309 45.4744 5.82736 45.0346 6.74325C44.1536 8.57784 43.1644 10.8455 42.2181 13.0137L49.5501 16.2139Z" fill="white" mask="url(#path-1-outside-1_38_129)"/>
<ellipse cx="41.5" cy="76" rx="37.5" ry="10" fill="#513E8D"/>
<g clip-path="url(#clip0_38_129)">
<path d="M73.2305 57.1765C71.7446 64.8105 70.1762 71.234 69.282 72.0318C67.0394 74.04 43.8024 81.0413 40.3217 81C36.8409 80.9725 16.3279 74.769 13.9616 72.0318C13.6727 71.7017 13.0261 69.1845 12.2556 65.4845C12.2419 65.4707 12.2419 65.4707 12.2419 65.4707C9.64162 53.1601 5.51426 27.7822 7.72928 26.393C10.6184 24.5911 35.3 19.0204 43.4447 18.9103C51.6031 18.7865 75.528 27.5071 76.8213 29.7629C77.6055 31.1384 75.5143 45.5398 73.2305 57.1765Z" fill="url(#paint0_linear_38_129)"/>
<path opacity="0.5" d="M7.75682 26.393C3.90462 28.4425 32.9887 37.9609 38.8358 37.9609C44.6829 37.9609 75.9545 30.3957 76.835 29.7767C77.7155 29.1577 51.438 18.8553 42.9082 18.9241C34.3783 18.9929 8.91248 25.7878 7.75682 26.393Z" fill="white"/>
<path opacity="0.3" d="M40.3353 81C36.9233 80.5736 37.8451 41.207 38.8357 39.5564C39.8262 37.9058 74.2071 30.9046 75.5967 31.221C76.9862 31.5373 70.5062 70.0373 69.2956 72.018C68.0849 73.9987 41.9037 81.1926 40.3353 81Z" fill="#731F5E"/>
<path opacity="0.74" d="M73.2305 57.1765C71.7446 64.7967 70.1762 71.234 69.282 72.0318C67.0394 74.04 43.8024 81.0413 40.3217 81C36.8409 80.9725 16.3279 74.769 13.9616 72.0318C13.6727 71.7017 13.0261 69.1845 12.2556 65.4845C12.5033 65.8421 13.6039 71.0689 16.9608 72.8296C18.3916 73.5861 34.3783 79.3494 39.9227 79.2394C45.4809 79.1431 65.4573 75.4568 68.3464 70.9039C71.1805 66.461 73.1617 57.5341 73.2305 57.1765Z" fill="#CA2790"/>
<path d="M40.3354 81C39.0696 78.4003 50.7638 58.9371 53.653 57.1902C56.5421 55.4296 62.6231 53.3526 64.5492 54.6318C66.4753 55.911 69.2819 72.0456 69.2819 72.0456C69.2819 72.0456 66.5166 56.2962 65.1821 54.4805L76.835 30.1206C76.835 30.1206 65.4572 52.5548 64.9757 53.3526C64.4942 54.1504 59.5001 53.9166 52.5248 56.5575L39.276 39.2538C39.276 39.2538 38.9596 39.1438 38.822 39.5702C38.6982 39.9966 50.7088 53.9853 50.7501 57.1902C50.7913 60.3951 39.7438 76.7497 39.2622 78.194C38.8082 79.6245 40.3354 81 40.3354 81Z" fill="#C2258A"/>
<path d="M52.5111 58.2494C52.0984 59.7074 63.5724 55.4984 64.5492 54.6318C65.5398 53.7515 56.3358 54.1779 52.5111 58.2494Z" fill="#FF6D6D"/>
<path opacity="0.2" d="M42.7566 77.8639C42.7566 77.8639 50.406 60.5602 53.8179 59.0609C57.2299 57.5616 63.9712 55.6222 65.2507 56.1174C66.5302 56.6125 69.1029 70.6563 68.6764 71.8805C68.2499 73.1047 51.5204 79.033 46.4025 79.6795C41.2845 80.326 42.7566 77.8639 42.7566 77.8639Z" fill="#731F5E"/>
<path d="M18.5979 32.5689C18.5979 32.5689 34.6671 39.0062 37.5562 39.3226C40.4454 39.639 72.4462 31.7161 74.4135 30.8358C76.3809 29.9555 76.6423 29.8592 76.6423 29.8592C76.6423 29.8592 44.9992 37.5895 39.2347 37.0806C29.329 36.214 18.5979 32.5689 18.5979 32.5689Z" fill="#FF9292"/>
<path d="M34.5984 38.2635C36.8272 38.6624 37.6939 67.5064 37.9278 68.4555C38.1617 69.4184 37.1023 44.577 38.8358 39.5565L34.5984 38.2635Z" fill="#FF9292"/>
<path d="M35.1485 38.7174C31.6403 36.6266 46.0723 36.9568 46.4988 37.3281C46.9252 37.6858 37.6387 40.9044 35.1485 38.7174Z" fill="#FFD6D6"/>
<path opacity="0.2" d="M8.15575 31.221C8.62351 28.415 29.6868 38.1397 33.3051 45.0722C36.9234 51.9909 37.3499 74.3426 36.7171 76.901C36.0842 79.4594 17.5248 74.5214 14.7595 69.3633C11.9942 64.1915 7.289 36.4753 8.15575 31.221Z" fill="#C68EC5"/>
<path d="M30.8975 78.813C30.8975 78.813 29.2053 79.542 28.1734 79.3907C27.1278 79.2256 21.5284 78.2215 20.9643 77.6025C20.4002 76.9836 12.2006 33.2704 13.425 30.5745C14.6494 27.8785 37.4875 24.5911 38.8495 24.99C40.2116 25.3889 42.7705 26.8332 42.7705 26.8332C42.7705 26.8332 26.1785 32.115 24.335 33.7106C22.4914 35.3199 28.5036 77.7813 28.5862 78.0977C28.655 78.4141 30.8975 78.813 30.8975 78.813Z" fill="url(#paint1_linear_38_129)"/>
<path d="M49.2367 79.1018C49.2367 79.1018 51.8231 79.707 52.4973 79.7896C53.1714 79.8721 60.7795 77.5475 61.7426 76.901C62.7056 76.2545 66.544 35.3199 66.2276 32.8303C65.9112 30.3406 43.3758 24.99 42.5366 24.9487C41.6974 24.9075 39.3723 25.3889 38.2579 26.2692C37.1297 27.1495 53.4878 33.0779 54.6022 35.4025C55.7304 37.727 52.8825 77.8364 52.4835 78.1252C52.1121 78.3866 49.2367 79.1018 49.2367 79.1018Z" fill="url(#paint2_linear_38_129)"/>
<path d="M39.6611 27.4521C37.1434 26.7369 21.9135 22.5003 21.9135 22.5003L17.4009 23.4494C17.4009 23.4494 18.0613 21.455 18.5841 21.2074C19.1069 20.9735 30.1682 18.4702 32.1768 18.9241C34.1855 19.3642 44.6827 26.503 44.6827 26.503L39.6611 27.4521Z" fill="url(#paint3_linear_38_129)"/>
<path d="M66.2551 24.7149C66.2551 24.7149 66.2414 23.752 65.9112 23.1743C65.5947 22.5829 55.8954 19.8594 54.9324 19.7769C53.9693 19.6943 38.8357 25.4714 38.8357 25.4714C38.8357 25.4714 41.3259 26.5718 43.0456 26.8194C44.7653 27.067 63.5173 23.7796 63.9163 23.7796C64.3153 23.7796 66.2551 24.7149 66.2551 24.7149Z" fill="url(#paint4_linear_38_129)"/>
<path opacity="0.74" d="M55.1526 79.0605C55.1526 79.0605 56.2119 37.3969 57.5327 36.0902C58.8535 34.7697 64.4529 34.4809 65.2371 34.5909C66.0213 34.701 62.0728 75.6631 61.5087 76.4609C60.9584 77.2724 55.1526 79.0605 55.1526 79.0605Z" fill="#E8B72D"/>
<path opacity="0.74" d="M30.8973 78.813C30.8973 78.813 28.3246 79.4182 27.5817 79.2944C26.8388 79.1568 21.542 36.0077 21.9685 33.6281C22.395 31.2485 40.0876 27.6997 40.0876 27.6997C40.0876 27.6997 53.3227 33.2154 54.4921 34.1783C55.6615 35.1411 54.8498 40.2167 54.8498 40.2167C54.8498 40.2167 54.3545 36.0352 53.3777 35.0723C52.4009 34.1095 44.669 30.0656 40.9268 30.2306C38.643 30.3269 36.483 34.1095 33.2499 35.2649C31.1863 36.0077 26.0958 33.6831 25.3667 34.8798C23.4956 37.9746 28.8887 78.0427 29.3152 78.3591C29.783 78.6617 30.8973 78.813 30.8973 78.813Z" fill="#E8B72D"/>
<path d="M14.0716 30.1068C13.5351 31.386 19.8912 32.624 21.2807 32.5139C22.6703 32.4039 37.8452 28.0573 38.2167 27.4521C38.5881 26.8469 32.0256 25.8841 30.017 25.9391C28.0221 25.9941 15.9014 28.8414 14.0716 30.1068Z" fill="white"/>
<path opacity="0.74" d="M42.9217 29.0477C42.9217 29.0477 55.4552 30.2719 63.3109 29.2265C71.1666 28.1674 66.943 24.9487 66.943 24.9487L40.8718 28.0986L42.9217 29.0477Z" fill="#E8B72D"/>
<path opacity="0.5" d="M13.425 30.5607C12.7371 30.6433 18.0476 32.5827 19.4096 32.8991C20.7717 33.2154 20.9367 33.6143 21.8585 33.0504C22.7665 32.5139 14.1129 30.4782 13.425 30.5607Z" fill="white"/>
<path opacity="0.5" d="M56.8586 35.0723C54.3684 34.6734 63.0221 33.0779 64.6318 32.9541C66.2415 32.8303 62.5956 35.9939 56.8586 35.0723Z" fill="white"/>
<path opacity="0.4" d="M14.0441 33.0779C14.2505 31.6336 20.9781 34.6047 21.5284 35.485C22.0787 36.3515 24.4175 62.6509 24.0874 64.0815C23.7709 65.5257 18.3641 65.0993 18.1852 64.0815C17.9926 63.0636 13.8515 34.4396 14.0441 33.0779Z" fill="#C68EC5"/>
<path opacity="0.74" d="M49.2366 79.1018C49.2366 79.1018 51.1489 77.9739 51.6304 77.2174C52.112 76.4746 54.8773 40.2029 54.8773 40.2029C54.8773 40.2029 53.419 76.4196 52.7999 78.0702C52.1945 79.7345 49.2366 79.1018 49.2366 79.1018Z" fill="#CA2790"/>
<path d="M44.1188 27.4659C44.105 27.4659 44.0913 27.4521 44.0913 27.4521H44.0775C44.0225 27.4384 43.8849 27.4659 43.651 27.5347C43.5547 27.5622 43.4171 27.6172 43.2796 27.6722C40.4042 28.8276 30.8012 33.7931 29.1365 34.0957C28.7375 34.1783 27.8708 34.0407 26.7289 33.7794C22.3263 32.8028 13.9203 29.928 13.3012 29.2265C12.517 28.3462 5.84442 11.3039 14.0303 9.29564C19.1345 8.04394 26.1648 14.1236 31.5716 18.7865C34.8322 21.6063 37.515 23.9171 38.8358 23.8071C38.8358 23.8071 40.8307 25.1413 42.3715 26.1867C42.3853 26.1867 42.3853 26.1867 42.3853 26.2004C42.6329 26.3655 42.8806 26.5443 43.1007 26.6956C43.4171 26.9019 43.6923 27.1083 43.8711 27.232C44.0225 27.3558 44.1188 27.4384 44.1188 27.4659Z" fill="url(#paint5_linear_38_129)"/>
<path opacity="0.5" d="M29.0263 33.0779C26.1922 34.1783 24.3211 19.4605 24.8577 17.0947C25.3942 14.7288 34.7496 26.7506 40.5554 26.8332C46.3612 26.9019 29.6454 32.844 29.0263 33.0779Z" fill="#731F5E"/>
<path opacity="0.74" d="M44.1187 26.8332L43.8573 27.2458L43.8022 27.3283L43.6647 27.5484L43.2932 27.686C40.4178 28.8414 30.8148 33.8069 29.1501 34.1095C28.7511 34.192 27.8844 34.0545 26.7425 33.7931C24.6788 29.5979 20.0149 11.7578 26.4261 15.8017C27.9945 16.7921 29.7692 17.8099 31.5853 18.8003C34.8459 21.62 37.5287 23.9309 38.8494 23.8208C38.8494 23.8208 39.1658 23.2019 40.693 24.261C39.7987 23.3119 40.9819 24.2197 40.8856 24.0134C42.1788 24.8112 43.1831 25.5402 43.7059 26.1317C43.9398 26.3792 44.0912 26.6131 44.1187 26.8332Z" fill="#E8B72D"/>
<path d="M65.5811 25.7465C63.8751 27.5209 46.1963 28.3737 44.0363 27.6997C43.8712 27.6447 43.7061 27.5759 43.5548 27.4934C43.541 27.4934 43.541 27.4796 43.5273 27.4796H43.5135C43.431 27.4384 43.3622 27.3971 43.2796 27.3558C43.0595 27.2183 42.8531 27.0532 42.6468 26.9019V26.8882C42.4404 26.7094 42.2615 26.5168 42.0964 26.3242C42.0964 26.3105 42.0964 26.3105 42.0827 26.3105C41.3398 25.4439 40.927 24.4673 40.8582 24.2885C40.8445 24.261 40.8445 24.261 40.8445 24.261C42.4266 24.2472 48.6177 6.79224 50.7089 4.96284C52.69 3.24347 66.0902 3.86245 71.497 6.44837C72.0886 6.72347 72.5564 7.01232 72.9003 7.34244C76.5461 10.6986 67.3559 23.9171 65.5811 25.7465Z" fill="url(#paint6_linear_38_129)"/>
<path opacity="0.5" d="M44.0637 26.5993C44.0637 26.5993 50.3235 24.935 55.5791 22.2665C63.4348 18.2776 67.2182 10.0521 70.5063 9.68077C73.9183 9.29563 68.7728 23.4494 62.513 25.3751C56.8035 27.122 44.0637 26.5993 44.0637 26.5993Z" fill="#731F5E"/>
<path opacity="0.74" d="M65.5811 25.7465C63.8751 27.5209 46.1963 28.3737 44.0363 27.6997C43.8712 27.6447 43.7061 27.5759 43.5547 27.4934C43.541 27.4934 43.541 27.4796 43.5272 27.4796H43.5135C43.4722 27.4659 43.3484 27.4934 43.1558 27.5622L42.9081 27.9748L42.8393 27.6997L42.6467 26.9019V26.8882C42.6605 26.8469 42.6605 26.8056 42.688 26.7781C42.7568 26.5856 42.9356 26.4067 43.2108 26.2279C45.302 24.8112 53.199 23.1606 58.2894 18.2776C64.9207 11.8953 67.1082 7.06734 71.5107 6.43462C72.1023 6.70971 72.5701 6.99857 72.914 7.32869C76.5461 10.6986 67.3559 23.9171 65.5811 25.7465Z" fill="#E8B72D"/>
<path d="M37.9277 23.6145C37.9277 23.6145 42.8118 22.3628 45.6872 23.6145C48.5763 24.8662 47.9297 27.0257 47.6133 27.9748C47.2968 28.9239 41.5323 28.4425 41.5323 28.4425C41.5323 28.4425 41.8762 27.3421 41.3947 25.774C40.9132 24.2197 37.9277 23.6145 37.9277 23.6145Z" fill="url(#paint7_linear_38_129)"/>
<path opacity="0.3" d="M38.8357 23.4219C38.8357 23.4219 41.9587 24.9762 42.4403 25.3476C42.9218 25.7052 46.8153 24.8662 46.9253 24.6736C47.0354 24.4811 44.8341 23.1881 42.7567 23.1743C40.6792 23.1468 38.8357 23.4219 38.8357 23.4219Z" fill="white"/>
<path opacity="0.74" d="M42.7017 23.3394C42.7017 23.3394 45.9348 16.4069 48.59 11.1938C51.4654 5.54054 61.8388 8.0852 61.6325 12.5555C61.4261 16.8746 49.0715 23.4219 47.1867 23.7108C45.3569 23.9996 42.7017 23.3394 42.7017 23.3394Z" fill="#E8B72D"/>
<path opacity="0.74" d="M24.1147 32.679C26.2472 32.679 21.1155 16.4344 16.8505 13.6559C12.5718 10.8774 11.0722 13.3121 10.5494 15.1965C10.0266 17.0809 13.0259 28.6075 14.0439 29.6529C15.0483 30.7258 24.1147 32.679 24.1147 32.679Z" fill="#E8B72D"/>
<path opacity="0.74" d="M44.669 23.697C44.669 23.697 47.8333 23.0093 49.4843 20.9873C51.1903 18.8828 50.2685 12.2529 49.0303 12.5005C47.8058 12.7481 42.7017 23.3394 42.7017 23.3394L44.669 23.697Z" fill="#E8B72D"/>
<path opacity="0.3" d="M11.2925 11.0975C10.6459 12.2804 18.5154 12.363 20.359 14.9214C22.2025 17.4798 23.2894 15.1965 24.7752 14.9214C26.2611 14.6463 19.3684 10.0384 15.64 9.95587C11.9116 9.87334 11.2925 11.0975 11.2925 11.0975Z" fill="white"/>
<path opacity="0.3" d="M49.553 7.39746C48.9339 8.41532 55.9642 6.33833 59.4587 8.07145C63.0632 9.84583 66.3376 8.33279 67.6996 6.97106C69.1029 5.56806 52.5522 2.48696 49.553 7.39746Z" fill="white"/>
<path opacity="0.74" d="M61.4674 18.0162C58.2481 21.2899 63.3522 24.935 64.2603 24.6874C65.182 24.426 71.8133 16.4757 71.0704 11.9641C70.3275 7.35619 67.3833 12.0191 61.4674 18.0162Z" fill="#E8B72D"/>
<path opacity="0.74" d="M25.5044 25.4302C25.7796 26.6819 38.0516 26.9982 38.8358 26.8332C39.6062 26.6543 33.4702 23.9859 29.9482 20.2996C26.4262 16.6133 25.1742 16.5582 24.8716 17.0947C24.5551 17.6311 25.2981 24.4811 25.5044 25.4302Z" fill="#E8B72D"/>
<path d="M8.66462 45.0997C8.66462 45.0997 7.05495 32.734 8.05927 29.6529C9.0636 26.5718 10.1917 25.4301 10.1917 25.4301C10.1917 25.4301 8.07303 25.774 7.41266 26.448C6.73852 27.1358 6.73852 31.1797 8.66462 45.0997Z" fill="#FF9292"/>
<path d="M7.39896 26.9432C7.454 27.9335 8.38953 28.1261 8.5959 27.9198C8.80227 27.7135 9.54519 25.9253 9.54519 25.9253C9.54519 25.9253 7.34393 26.0354 7.39896 26.9432Z" fill="#FFD6D6"/>
</g>
<defs>
<linearGradient id="paint0_linear_38_129" x1="42.0562" y1="80.9961" x2="42.0562" y2="18.912" gradientUnits="userSpaceOnUse">
<stop stop-color="#AB0000"/>
<stop offset="1" stop-color="#FF2929"/>
</linearGradient>
<linearGradient id="paint1_linear_38_129" x1="28.0257" y1="79.404" x2="28.0257" y2="24.9469" gradientUnits="userSpaceOnUse">
<stop stop-color="#FFFF00"/>
<stop offset="1" stop-color="#FFBE3B"/>
</linearGradient>
<linearGradient id="paint2_linear_38_129" x1="52.2385" y1="79.7835" x2="52.2385" y2="24.9439" gradientUnits="userSpaceOnUse">
<stop stop-color="#FFFF00"/>
<stop offset="1" stop-color="#FFBE3B"/>
</linearGradient>
<linearGradient id="paint3_linear_38_129" x1="31.049" y1="27.4551" x2="31.049" y2="18.8737" gradientUnits="userSpaceOnUse">
<stop stop-color="#E8CD1D"/>
<stop offset="1" stop-color="#FFFF3B"/>
</linearGradient>
<linearGradient id="paint4_linear_38_129" x1="52.5493" y1="26.8267" x2="52.5493" y2="19.7719" gradientUnits="userSpaceOnUse">
<stop stop-color="#E82E86"/>
<stop offset="1" stop-color="#FF003B"/>
</linearGradient>
<linearGradient id="paint5_linear_38_129" x1="27.0592" y1="34.1238" x2="27.0592" y2="9.13141" gradientUnits="userSpaceOnUse">
<stop stop-color="#FFFF00"/>
<stop offset="1" stop-color="#FFBE3B"/>
</linearGradient>
<linearGradient id="paint6_linear_38_129" x1="57.3142" y1="27.9296" x2="57.3142" y2="4" gradientUnits="userSpaceOnUse">
<stop stop-color="#FFFF00"/>
<stop offset="1" stop-color="#FFBE3B"/>
</linearGradient>
<linearGradient id="paint7_linear_38_129" x1="42.9235" y1="28.5689" x2="42.9235" y2="23.0562" gradientUnits="userSpaceOnUse">
<stop stop-color="#FFFF00"/>
<stop offset="1" stop-color="#FFBE3B"/>
</linearGradient>
<clipPath id="clip0_38_129">
<rect width="70" height="77" fill="white" transform="translate(7 4)"/>
</clipPath>
</defs>
</svg>
