<svg width="24" height="24" viewBox="0 0 24 24" fill="none" xmlns="http://www.w3.org/2000/svg">
<path d="M11.9918 1.00016C8.46872 0.977976 5.2243 3.25025 4.26668 6.69738C4.05045 7.47559 3.9964 8.24122 4.00018 8.97475C4.01352 11.5779 5.45594 13.8268 7.08394 16.01C8.71194 18.1932 10.5461 20.342 11.5238 22.6933C11.6043 22.8791 11.7921 23 12 23C12.2079 23 12.3957 22.8791 12.4762 22.6933C13.4539 20.342 15.2881 18.1936 16.9161 16.01C18.5441 13.8263 19.9864 11.5777 19.9998 8.97475C20.0036 8.24127 19.9495 7.47563 19.7333 6.69738C18.7758 3.25034 15.5311 0.978249 12.0082 1.00016C12.0028 1.00016 11.9974 0.999986 11.992 1.00016H11.9918ZM11.9918 2.00178H12.008C15.0737 1.97628 17.8958 3.94478 18.7321 6.95532C18.9157 7.61596 18.9697 8.29498 18.9661 8.97448C18.9548 11.2167 17.6751 13.2789 16.0763 15.423C14.6815 17.2935 13.0962 19.2178 11.9997 21.3706C10.9033 19.2178 9.31798 17.2935 7.92315 15.423C6.32435 13.2789 5.04466 11.2167 5.03332 8.97448C5.02971 8.29498 5.08377 7.61596 5.26738 6.95532C6.10364 3.94465 8.9259 1.97629 11.9915 2.00178H11.9918ZM11.9836 5.47642C10.1591 5.47415 8.66367 6.91825 8.66602 8.68502C8.66836 10.4518 10.1672 11.8913 11.9918 11.8936C13.8166 11.8962 15.3038 10.4597 15.3015 8.69289C15.2991 6.92612 13.8084 5.4787 11.9836 5.47642ZM11.9836 6.47821C13.2496 6.47961 14.2666 7.46727 14.2682 8.69284C14.2699 9.91842 13.2496 10.8935 11.9836 10.892C10.7178 10.8904 9.70086 9.91059 9.69925 8.68497C9.69763 7.45935 10.7178 6.47661 11.9836 6.47817V6.47821Z" fill="url(#paint0_linear_882_1531)"/>
<defs>
<linearGradient id="paint0_linear_882_1531" x1="-0.439307" y1="-24.4" x2="19.4364" y2="-22.4055" gradientUnits="userSpaceOnUse">
<stop stop-color="#FF8D8D"/>
<stop offset="1" stop-color="#F7FC0E"/>
</linearGradient>
</defs>
</svg>
