<svg width="34" height="39" viewBox="0 0 34 39" fill="none" xmlns="http://www.w3.org/2000/svg">
<path d="M32.1667 26.2452C31.445 30.0126 30.6832 33.1827 30.2489 33.5764C29.1597 34.5675 17.8731 38.0227 16.1825 38.0023C14.4918 37.9887 4.52837 34.9273 3.37899 33.5764C3.23866 33.4135 2.92459 32.1713 2.55038 30.3453C2.5437 30.3385 2.5437 30.3385 2.5437 30.3385C1.28072 24.2631 -0.723993 11.739 0.351872 11.0534C1.75517 10.1641 13.7434 7.41493 17.6994 7.36063C21.662 7.29954 33.2827 11.6032 33.9108 12.7165C34.2917 13.3953 33.276 20.5025 32.1667 26.2452Z" fill="url(#paint0_linear_115_1496)"/>
<path opacity="0.5" d="M0.36523 11.0534C-1.50584 12.0648 12.6207 16.7622 15.4607 16.7622C18.3008 16.7622 33.4898 13.0287 33.9175 12.7233C34.3452 12.4178 21.5818 7.33348 17.4387 7.36742C13.2957 7.40136 0.926551 10.7547 0.36523 11.0534Z" fill="white"/>
<path opacity="0.3" d="M16.1891 38.0023C14.5319 37.7919 14.9796 18.3642 15.4608 17.5496C15.9419 16.7351 32.6412 13.2799 33.3161 13.436C33.991 13.5922 30.8436 32.5922 30.2556 33.5697C29.6675 34.5471 16.9509 38.0973 16.1891 38.0023Z" fill="#912790"/>
<path opacity="0.74" d="M32.1667 26.2452C31.445 30.0059 30.6832 33.1827 30.2489 33.5764C29.1597 34.5675 17.8731 38.0227 16.1825 38.0023C14.4918 37.9887 4.52837 34.9273 3.379 33.5764C3.23867 33.4135 2.9246 32.1713 2.55038 30.3453C2.67067 30.5218 3.20526 33.1013 4.83576 33.9701C5.53073 34.3435 13.2957 37.1877 15.9887 37.1334C18.6884 37.0859 28.3912 35.2667 29.7945 33.0198C31.1711 30.8272 32.1333 26.4217 32.1667 26.2452Z" fill="#CA2790"/>
<path opacity="0.5" d="M16.1891 38.0023C15.5744 36.7193 21.2544 27.1141 22.6577 26.252C24.061 25.3831 27.0146 24.3581 27.9501 24.9894C28.8857 25.6207 30.2489 33.5832 30.2489 33.5832C30.2489 33.5832 28.9057 25.8108 28.2575 24.9147L33.9175 12.8929C33.9175 12.8929 28.3912 23.9644 28.1573 24.3581C27.9234 24.7518 25.4977 24.6364 22.1097 25.9397L15.6746 17.4003C15.6746 17.4003 15.5209 17.346 15.4541 17.5564C15.3939 17.7668 21.2277 24.6704 21.2477 26.252C21.2678 27.8336 15.9018 35.9047 15.6679 36.6175C15.4474 37.3235 16.1891 38.0023 16.1891 38.0023Z" fill="#CA2790"/>
<path d="M22.1031 26.7747C21.9026 27.4942 27.4757 25.4171 27.9501 24.9894C28.4313 24.555 23.9608 24.7654 22.1031 26.7747Z" fill="#6D8EFF"/>
<path opacity="0.2" d="M17.3653 36.4546C17.3653 36.4546 21.0807 27.9151 22.7379 27.1752C24.3951 26.4353 27.6695 25.4782 28.291 25.7226C28.9124 25.967 30.162 32.8976 29.9549 33.5018C29.7477 34.1059 21.6219 37.0316 19.1361 37.3507C16.6502 37.6697 17.3653 36.4546 17.3653 36.4546Z" fill="#912790"/>
<path d="M5.63095 14.1012C5.63095 14.1012 13.436 17.2781 14.8393 17.4342C16.2426 17.5903 31.7858 13.6804 32.7414 13.2459C33.697 12.8115 33.824 12.764 33.824 12.764C33.824 12.764 18.4545 16.5789 15.6545 16.3277C10.8432 15.9001 5.63095 14.1012 5.63095 14.1012Z" fill="#C992FF"/>
<path d="M13.4026 16.9116C14.4851 17.1084 14.9061 31.3431 15.0197 31.8115C15.1333 32.2867 14.6188 20.0273 15.4608 17.5496L13.4026 16.9116Z" fill="#C992FF"/>
<path d="M13.6699 17.1356C11.9659 16.1038 18.9757 16.2667 19.1828 16.45C19.39 16.6264 14.8794 18.2149 13.6699 17.1356Z" fill="#EDD6FF"/>
<path opacity="0.2" d="M0.55904 13.436C0.786241 12.0513 11.017 16.8505 12.7744 20.2717C14.5319 23.6861 14.7391 34.7169 14.4317 35.9795C14.1243 37.242 5.10975 34.8051 3.76659 32.2596C2.42343 29.714 0.13805 16.0291 0.55904 13.436Z" fill="#C68EC5"/>
<path d="M11.605 36.923C11.605 36.923 10.7831 37.2827 10.2819 37.2081C9.77404 37.1266 7.0543 36.6311 6.78032 36.3256C6.50635 36.0202 2.52364 14.4475 3.11838 13.117C3.71311 11.7865 14.8059 10.1641 15.4674 10.361C16.129 10.5578 17.3719 11.2706 17.3719 11.2706C17.3719 11.2706 9.31295 13.8772 8.41751 14.6647C7.52207 15.4589 10.4423 36.4139 10.4824 36.57C10.5158 36.7261 11.605 36.923 11.605 36.923Z" fill="url(#paint1_linear_115_1496)"/>
<path d="M20.5126 37.0655C20.5126 37.0655 21.7689 37.3642 22.0964 37.4049C22.4238 37.4457 26.1192 36.2985 26.5869 35.9794C27.0547 35.6604 28.9191 15.4589 28.7654 14.2302C28.6117 13.0016 17.6659 10.361 17.2583 10.3406C16.8507 10.3203 15.7214 10.5578 15.1801 10.9923C14.6321 11.4267 22.5775 14.3524 23.1188 15.4996C23.6667 16.6468 22.2835 36.441 22.0897 36.5836C21.9093 36.7125 20.5126 37.0655 20.5126 37.0655Z" fill="url(#paint2_linear_115_1496)"/>
<path d="M15.8617 11.5761C14.6388 11.2231 7.24142 9.13234 7.24142 9.13234L5.04959 9.60072C5.04959 9.60072 5.37035 8.61644 5.62428 8.49425C5.87821 8.37886 11.2508 7.14341 12.2265 7.36742C13.2021 7.58464 18.3008 11.1077 18.3008 11.1077L15.8617 11.5761Z" fill="url(#paint3_linear_115_1496)"/>
<path d="M28.7788 10.2252C28.7788 10.2252 28.7721 9.75005 28.6117 9.46494C28.458 9.17305 23.7469 7.829 23.2792 7.78827C22.8114 7.74755 15.4608 10.5986 15.4608 10.5986C15.4608 10.5986 16.6703 11.1416 17.5056 11.2638C18.3409 11.386 27.449 9.76362 27.6428 9.76362C27.8365 9.76362 28.7788 10.2252 28.7788 10.2252Z" fill="url(#paint4_linear_115_1496)"/>
<path opacity="0.74" d="M23.3861 37.0451C23.3861 37.0451 23.9006 16.4839 24.5421 15.839C25.1836 15.1873 27.9034 15.0448 28.2843 15.0991C28.6652 15.1534 26.7473 35.3685 26.4733 35.7622C26.206 36.1627 23.3861 37.0451 23.3861 37.0451Z" fill="#E8B72D"/>
<path opacity="0.74" d="M11.605 36.923C11.605 36.923 10.3554 37.2216 9.99455 37.1606C9.6337 37.0927 7.06098 15.7983 7.26814 14.6239C7.47529 13.4496 16.0688 11.6982 16.0688 11.6982C16.0688 11.6982 22.4973 14.4203 23.0653 14.8955C23.6333 15.3706 23.239 17.8754 23.239 17.8754C23.239 17.8754 22.9985 15.8119 22.524 15.3367C22.0496 14.8615 18.2941 12.8658 16.4765 12.9473C15.3672 12.9948 14.3181 14.8615 12.7477 15.4317C11.7453 15.7983 9.27285 14.6511 8.91869 15.2417C8.00988 16.769 10.6294 36.5428 10.8365 36.699C11.0637 36.8483 11.605 36.923 11.605 36.923Z" fill="#771B87"/>
<path d="M3.43244 12.8862C3.17183 13.5175 6.25909 14.1284 6.93402 14.0741C7.60894 14.0198 14.9796 11.8747 15.16 11.5761C15.3405 11.2774 12.153 10.8022 11.1773 10.8294C10.2084 10.8565 4.3212 12.2617 3.43244 12.8862Z" fill="white"/>
<path opacity="0.74" d="M17.4454 12.3635C17.4454 12.3635 23.5331 12.9676 27.3487 12.4517C31.1644 11.9291 29.1129 10.3406 29.1129 10.3406L16.4498 11.8951L17.4454 12.3635Z" fill="#771B87"/>
<path opacity="0.5" d="M3.11837 13.1102C2.78425 13.1509 5.36366 14.108 6.02521 14.2642C6.68677 14.4203 6.76696 14.6171 7.21468 14.3388C7.6624 14.0605 3.45249 13.0694 3.11837 13.1102Z" fill="white"/>
<path opacity="0.5" d="M24.2147 15.3367C23.0052 15.1398 27.2084 14.3524 27.9902 14.2913C28.7721 14.2302 27.0013 15.7915 24.2147 15.3367Z" fill="white"/>
<path opacity="0.4" d="M3.41909 14.3524C3.51932 13.6396 6.78701 15.1059 7.05431 15.5403C7.3216 15.968 8.45761 28.9469 8.29723 29.6529C8.14354 30.3656 5.51736 30.1552 5.43049 29.6529C5.33693 29.1505 3.32553 15.0244 3.41909 14.3524Z" fill="#C68EC5"/>
<path opacity="0.74" d="M20.5126 37.0655C20.5126 37.0655 21.4415 36.5089 21.6754 36.1355C21.9093 35.769 23.2524 17.8687 23.2524 17.8687C23.2524 17.8687 22.5441 35.7418 22.2434 36.5564C21.9427 37.371 20.5126 37.0655 20.5126 37.0655Z" fill="#CA2790"/>
<path d="M18.0268 11.5828C18.0201 11.5828 18.0134 11.576 18.0134 11.576H18.0067C17.98 11.5693 17.9132 11.5828 17.7996 11.6168C17.7528 11.6304 17.686 11.6575 17.6192 11.6847C16.2225 12.2549 11.5582 14.7054 10.7497 14.8547C10.5559 14.8954 10.1349 14.8276 9.58024 14.6986C7.44188 14.2166 3.35894 12.7979 3.05823 12.4517C2.67733 12.0173 -0.563625 3.60677 3.4124 2.6157C5.89156 1.99798 9.30626 4.99834 11.9324 7.29952C13.5162 8.69109 14.8192 9.8315 15.4607 9.77719C15.4607 9.77719 16.4297 10.4356 17.1781 10.9515C17.1848 10.9515 17.1848 10.9515 17.1848 10.9583C17.3051 11.0398 17.4254 11.128 17.5323 11.2027C17.686 11.3045 17.8196 11.4063 17.9065 11.4674C17.98 11.5285 18.0268 11.5693 18.0268 11.5828Z" fill="url(#paint5_linear_115_1496)"/>
<path opacity="0.5" d="M10.6962 14.3524C9.31964 14.8955 8.41083 7.63218 8.67144 6.46462C8.93206 5.29706 13.4761 11.2299 16.2961 11.2706C19.116 11.3046 10.9969 14.237 10.6962 14.3524Z" fill="#912790"/>
<path opacity="0.74" d="M18.0268 11.2706L17.8998 11.4742L17.8731 11.515L17.8063 11.6236L17.6259 11.6915C16.2292 12.2617 11.5649 14.7122 10.7564 14.8615C10.5626 14.9022 10.1416 14.8344 9.58695 14.7054C8.58459 12.635 6.31926 3.83079 9.43326 5.8265C10.195 6.31525 11.0571 6.81757 11.9392 7.30632C13.5229 8.69788 14.8259 9.83829 15.4675 9.78399C15.4675 9.78399 15.6211 9.47852 16.3629 10.0012C15.9285 9.53282 16.5032 9.98084 16.4564 9.87902C17.0846 10.2727 17.5724 10.6325 17.8263 10.9244C17.9399 11.0466 18.0134 11.162 18.0268 11.2706Z" fill="#E8B72D"/>
<path d="M28.4513 10.7343C27.6227 11.61 19.0359 12.0309 17.9867 11.6983C17.9065 11.6711 17.8263 11.6372 17.7528 11.5964C17.7461 11.5964 17.7461 11.5896 17.7395 11.5896H17.7328C17.6927 11.5693 17.6593 11.5489 17.6192 11.5286C17.5123 11.4607 17.412 11.3792 17.3118 11.3045V11.2978C17.2116 11.2095 17.1247 11.1145 17.0445 11.0194C17.0445 11.0127 17.0445 11.0127 17.0378 11.0127C16.677 10.585 16.4765 10.103 16.4431 10.0148C16.4364 10.0012 16.4364 10.0012 16.4364 10.0012C17.2049 9.99443 20.212 1.38029 21.2277 0.477464C22.1899 -0.371053 28.6986 -0.0655872 31.3248 1.21058C31.6121 1.34635 31.8393 1.4889 32.0064 1.65181C33.7772 3.30812 29.3134 9.83152 28.4513 10.7343Z" fill="url(#paint6_linear_115_1496)"/>
<path opacity="0.5" d="M18.0001 11.1552C18.0001 11.1552 21.0405 10.3339 23.5932 9.01696C27.4089 7.0484 29.2465 2.98909 30.8436 2.80581C32.5008 2.61574 30.0016 9.60074 26.9611 10.5511C24.188 11.4132 18.0001 11.1552 18.0001 11.1552Z" fill="#912790"/>
<path opacity="0.74" d="M28.4513 10.7343C27.6227 11.61 19.0358 12.0309 17.9867 11.6983C17.9065 11.6711 17.8263 11.6372 17.7528 11.5964C17.7461 11.5964 17.7461 11.5896 17.7394 11.5896H17.7328C17.7127 11.5829 17.6526 11.5964 17.559 11.6304L17.4387 11.834L17.4053 11.6983L17.3118 11.3045V11.2978C17.3184 11.2774 17.3185 11.257 17.3318 11.2435C17.3652 11.1484 17.4521 11.0602 17.5857 10.9719C18.6015 10.2727 22.4372 9.45817 24.9096 7.04838C28.1306 3.89869 29.1931 1.51605 31.3314 1.2038C31.6188 1.33956 31.846 1.48211 32.013 1.64503C33.7772 3.30812 29.3133 9.83152 28.4513 10.7343Z" fill="#E8B72D"/>
<path d="M15.0197 9.6822C15.0197 9.6822 17.392 9.06448 18.7886 9.6822C20.1919 10.2999 19.8778 11.3657 19.7241 11.834C19.5704 12.3024 16.7705 12.0648 16.7705 12.0648C16.7705 12.0648 16.9376 11.5218 16.7037 10.7479C16.4698 9.98087 15.0197 9.6822 15.0197 9.6822Z" fill="url(#paint7_linear_115_1496)"/>
<path opacity="0.3" d="M15.4608 9.58713C15.4608 9.58713 16.9777 10.3542 17.2115 10.5375C17.4454 10.714 19.3365 10.2999 19.39 10.2049C19.4435 10.1098 18.3743 9.47173 17.3652 9.46494C16.3562 9.45137 15.4608 9.58713 15.4608 9.58713Z" fill="white"/>
<path opacity="0.74" d="M17.3385 9.54644C17.3385 9.54644 18.9089 6.12522 20.1986 3.55251C21.5952 0.762587 26.6337 2.01839 26.5335 4.22454C26.4332 6.35601 20.4324 9.58717 19.517 9.72972C18.6282 9.87227 17.3385 9.54644 17.3385 9.54644Z" fill="#E8B72D"/>
<path opacity="0.74" d="M8.3106 14.1556C9.34637 14.1556 6.85384 6.13879 4.7823 4.76759C2.70408 3.39639 1.9757 4.59789 1.72176 5.52786C1.46783 6.45784 2.9246 12.1463 3.41241 12.6622C3.90691 13.1917 8.3106 14.1556 8.3106 14.1556Z" fill="#E8B72D"/>
<path opacity="0.74" d="M18.2941 9.72291C18.2941 9.72291 19.831 9.3835 20.6329 8.38565C21.4615 7.34706 21.0138 4.07518 20.4124 4.19736C19.8177 4.31955 17.3385 9.54642 17.3385 9.54642L18.2941 9.72291Z" fill="#E8B72D"/>
<path opacity="0.3" d="M2.08262 3.50496C1.76855 4.08874 5.59088 4.12947 6.48632 5.39206C7.38176 6.65466 7.90967 5.52783 8.63137 5.39206C9.35306 5.2563 6.00519 2.98227 4.19426 2.94155C2.38333 2.90082 2.08262 3.50496 2.08262 3.50496Z" fill="white"/>
<path opacity="0.3" d="M20.6663 1.67896C20.3656 2.18129 23.7803 1.15628 25.4777 2.01158C27.2284 2.88725 28.8188 2.14056 29.4804 1.46853C30.162 0.776142 22.1231 -0.744402 20.6663 1.67896Z" fill="white"/>
<path opacity="0.74" d="M26.4533 6.91938C24.8896 8.53496 27.3688 10.3338 27.8098 10.2116C28.2575 10.0827 31.4784 6.15911 31.1176 3.9326C30.7567 1.65858 29.3267 3.95976 26.4533 6.91938Z" fill="#E8B72D"/>
<path opacity="0.74" d="M8.98551 10.5782C9.11916 11.1959 15.0798 11.352 15.4607 11.2706C15.835 11.1823 12.8546 9.86544 11.1439 8.04622C9.43323 6.227 8.82513 6.19985 8.67812 6.46458C8.52442 6.72932 8.88527 10.1098 8.98551 10.5782Z" fill="#E8B72D"/>
<path d="M0.806277 20.2852C0.806277 20.2852 0.0244375 14.1827 0.512252 12.6621C1.00007 11.1416 1.54802 10.5782 1.54802 10.5782C1.54802 10.5782 0.518934 10.7479 0.19818 11.0805C-0.129258 11.4199 -0.129257 13.4156 0.806277 20.2852Z" fill="#C992FF"/>
<path d="M0.191502 11.3249C0.218232 11.8136 0.672635 11.9087 0.77287 11.8069C0.873106 11.705 1.23396 10.8226 1.23396 10.8226C1.23396 10.8226 0.164773 10.8769 0.191502 11.3249Z" fill="#EDD6FF"/>
<defs>
<linearGradient id="paint0_linear_115_1496" x1="17.025" y1="38.0004" x2="17.025" y2="7.36144" gradientUnits="userSpaceOnUse">
<stop stop-color="#5A2BE0"/>
<stop offset="1" stop-color="#A66BFF"/>
</linearGradient>
<linearGradient id="paint1_linear_115_1496" x1="10.2101" y1="37.2147" x2="10.2101" y2="10.3397" gradientUnits="userSpaceOnUse">
<stop stop-color="#FFFF00"/>
<stop offset="1" stop-color="#FFBE3B"/>
</linearGradient>
<linearGradient id="paint2_linear_115_1496" x1="21.9707" y1="37.4019" x2="21.9707" y2="10.3383" gradientUnits="userSpaceOnUse">
<stop stop-color="#FFFF00"/>
<stop offset="1" stop-color="#FFBE3B"/>
</linearGradient>
<linearGradient id="paint3_linear_115_1496" x1="11.6787" y1="11.5776" x2="11.6787" y2="7.34258" gradientUnits="userSpaceOnUse">
<stop stop-color="#E8CD1D"/>
<stop offset="1" stop-color="#FFFF3B"/>
</linearGradient>
<linearGradient id="paint4_linear_115_1496" x1="22.1216" y1="11.2674" x2="22.1216" y2="7.78583" gradientUnits="userSpaceOnUse">
<stop stop-color="#E82E86"/>
<stop offset="1" stop-color="#FF003B"/>
</linearGradient>
<linearGradient id="paint5_linear_115_1496" x1="9.74069" y1="14.8686" x2="9.74069" y2="2.53465" gradientUnits="userSpaceOnUse">
<stop stop-color="#FFFF00"/>
<stop offset="1" stop-color="#FFBE3B"/>
</linearGradient>
<linearGradient id="paint6_linear_115_1496" x1="24.436" y1="11.8117" x2="24.436" y2="0.0022947" gradientUnits="userSpaceOnUse">
<stop stop-color="#FFFF00"/>
<stop offset="1" stop-color="#FFBE3B"/>
</linearGradient>
<linearGradient id="paint7_linear_115_1496" x1="17.4462" y1="12.1272" x2="17.4462" y2="9.40667" gradientUnits="userSpaceOnUse">
<stop stop-color="#FFFF00"/>
<stop offset="1" stop-color="#FFBE3B"/>
</linearGradient>
</defs>
</svg>
