<svg width="390" height="476" viewBox="0 0 390 476" fill="none" xmlns="http://www.w3.org/2000/svg">
<g filter="url(#filter0_d_171_2251)">
<path d="M5 39C5 33.4772 9.47715 29 15 29H369C374.523 29 379 33.4772 379 39V449C379 454.523 374.523 459 369 459H15C9.47716 459 5 454.523 5 449V39Z" fill="white"/>
<path d="M15 29.75H369C374.109 29.75 378.25 33.8914 378.25 39V449C378.25 454.109 374.109 458.25 369 458.25H15C9.89137 458.25 5.75 454.109 5.75 449V39C5.75 33.8914 9.89137 29.75 15 29.75Z" stroke="#FFBE3B" stroke-width="1.5"/>
</g>
<path d="M277.53 73.51C277.53 75.21 276.15 76.59 274.45 76.59C272.75 76.59 271.37 75.21 271.37 73.51C271.37 71.81 272.75 70.43 274.45 70.43C276.15 70.43 277.53 71.81 277.53 73.51Z" fill="url(#paint0_linear_171_2251)"/>
<path d="M226.53 111.51C226.53 113.21 225.15 114.59 223.45 114.59C221.75 114.59 220.37 113.21 220.37 111.51C220.37 109.81 221.75 108.43 223.45 108.43C225.15 108.43 226.53 109.81 226.53 111.51Z" fill="url(#paint1_linear_171_2251)"/>
<path d="M120.92 65C120.92 65.73 120.33 66.31 119.6 66.31C118.87 66.31 118.29 65.72 118.29 65" fill="url(#paint2_linear_171_2251)"/>
<path d="M212.06 77.03C212.06 78.15 211.15 79.06 210.03 79.06C208.91 79.06 208 78.15 208 77.03C208 75.91 208.91 75 210.03 75C211.15 75 212.06 75.91 212.06 77.03Z" fill="url(#paint3_linear_171_2251)"/>
<path d="M161.06 105.03C161.06 106.15 160.15 107.06 159.03 107.06C157.91 107.06 157 106.15 157 105.03C157 103.91 157.91 103 159.03 103C160.15 103 161.06 103.91 161.06 105.03Z" fill="url(#paint4_linear_171_2251)"/>
<path d="M179.62 75.49C177.09 77.34 170.94 72 170.94 72C171.34 74.78 168 77.07 168 77.07" fill="url(#paint5_linear_171_2251)"/>
<path d="M275.06 98C275.06 99.12 274.15 100.03 273.03 100.03C271.91 100.03 271 99.12 271 98" fill="url(#paint6_linear_171_2251)"/>
<path d="M186.06 85C186.06 86.12 185.15 87.03 184.03 87.03C182.91 87.03 182 86.12 182 85" fill="url(#paint7_linear_171_2251)"/>
<path d="M305.06 91C305.06 92.12 304.15 93.03 303.03 93.03C301.91 93.03 301 92.12 301 91" fill="url(#paint8_linear_171_2251)"/>
<path d="M156.06 93C156.06 94.12 155.15 95.03 154.03 95.03C152.91 95.03 152 94.12 152 93" fill="url(#paint9_linear_171_2251)"/>
<path d="M243.06 40.03C243.06 41.15 242.15 42.06 241.03 42.06C239.91 42.06 239 41.15 239 40.03C239 38.91 239.91 38 241.03 38C242.15 38 243.06 38.91 243.06 40.03Z" fill="url(#paint10_linear_171_2251)"/>
<path d="M205.06 64C205.06 65.12 204.15 66.03 203.03 66.03C201.91 66.03 201 65.12 201 64" fill="url(#paint11_linear_171_2251)"/>
<path d="M154.06 92C154.06 93.12 153.15 94.03 152.03 94.03C150.91 94.03 150 93.12 150 92" fill="url(#paint12_linear_171_2251)"/>
<path d="M131.562 51L108 71.8052C119.544 62.4886 135.737 65.7326 135.737 65.7326L131.562 51Z" fill="url(#paint13_linear_171_2251)"/>
<path d="M126.281 65.3725C114.458 65.7465 108 71.8052 108 71.8052C115.4 63.5357 123.699 56.2692 123.699 56.2692C125.83 55.5738 129.268 58.2001 129.268 58.2001L126.281 65.3725Z" fill="url(#paint14_linear_171_2251)"/>
<path opacity="0.6" d="M108.285 71.5558C113.452 65.2035 121.267 62.7573 128.672 59.6296L126.281 65.3725C115.893 65.7021 109.648 70.4172 108.285 71.5558Z" fill="#FBCC28"/>
<path d="M131.562 51L129.016 55.7013L123.699 56.2692L127.384 60.1421L126.281 65.3725L131.102 63.0676L135.737 65.7326L135.033 60.433L139 56.8482L133.745 55.8813L131.562 51Z" fill="url(#paint15_linear_171_2251)"/>
<path d="M131.534 51.6981L129.232 55.9478L124.425 56.4603L127.758 59.9648L126.761 64.6937L131.121 62.6077L135.31 65.0179L134.675 60.2252L138.26 56.9867L133.506 56.1085L131.534 51.6981Z" fill="url(#paint16_linear_171_2251)"/>
<path d="M269.59 75.5486C273.48 63.4072 285.926 57.0559 296 56.8737C285.016 48.9321 261.727 51.3446 261.727 51.3446L269.59 75.5486Z" fill="url(#paint17_linear_171_2251)"/>
<path opacity="0.6" d="M267.119 67.9369L269.595 75.5536C273.475 63.4368 285.882 57.0854 295.946 56.8836C285.789 56.5291 274.42 60.2168 267.119 67.9369Z" fill="#FBCC28"/>
<path opacity="0.6" d="M296 56.8786C285.016 48.937 261.727 51.3495 261.727 51.3495L264.603 60.1971C274.115 57.0854 288.29 53.2845 296 56.8786Z" fill="#FBCC28"/>
<path d="M261.727 51.3446L265.661 59.3158L274.45 60.591L268.088 66.7946L269.59 75.5486L261.727 71.4178L253.864 75.5486L255.366 66.7946L249 60.591L257.793 59.3158L261.727 51.3446Z" fill="url(#paint18_linear_171_2251)"/>
<path d="M261.727 52.5066L265.282 59.7097L273.234 60.8667L267.478 66.4746L268.837 74.3916L261.727 70.6547L254.618 74.3916L255.972 66.4746L250.221 60.8667L258.173 59.7097L261.727 52.5066Z" fill="url(#paint19_linear_171_2251)"/>
<path d="M159.267 113.839C153.577 100.816 140.577 99.8345 127.753 107.846C118.898 113.373 103.491 112.319 103.949 94.3371C106.438 97.3483 110.484 92.8872 110.484 92.8872C109.056 114.182 124.265 111.055 131.937 108.042C139.737 104.985 154.28 105.147 154.778 117.373L155.032 111.896L159.267 113.839Z" fill="url(#paint20_linear_171_2251)"/>
<path d="M100.007 79.67C100.027 78.84 99.9416 78.06 99.7516 77.33C99.5716 76.59 99.2416 75.995 98.7616 75.545C98.2816 75.085 97.5966 74.855 96.7066 74.855C95.4166 74.855 94.4966 75.455 93.9466 76.655C93.4066 77.855 93.1366 79.59 93.1366 81.86C93.1366 84 93.4916 85.605 94.2016 86.675C94.9216 87.735 95.9366 88.265 97.2466 88.265C98.2866 88.265 99.2216 88.045 100.052 87.605C100.882 87.165 101.647 86.685 102.347 86.165C102.817 86.475 103.277 86.93 103.727 87.53C104.177 88.12 104.452 88.695 104.552 89.255C103.972 89.825 103.252 90.355 102.392 90.845C101.542 91.325 100.602 91.71 99.5716 92C98.5416 92.3 97.4716 92.45 96.3616 92.45C94.7916 92.45 93.4716 92.145 92.4016 91.535C91.3416 90.915 90.4966 90.095 89.8666 89.075C89.2366 88.045 88.7816 86.905 88.5016 85.655C88.2316 84.395 88.0966 83.12 88.0966 81.83C88.0966 79.31 88.4966 77.26 89.2966 75.68C90.0966 74.09 91.1566 72.92 92.4766 72.17C93.8066 71.42 95.2716 71.045 96.8716 71.045C98.4216 71.045 99.7716 71.32 100.922 71.87C102.082 72.42 102.977 73.165 103.607 74.105C104.247 75.045 104.567 76.105 104.567 77.285C104.567 78.225 104.322 78.9 103.832 79.31C103.352 79.72 102.682 79.925 101.822 79.925C101.482 79.925 101.167 79.9 100.877 79.85C100.587 79.8 100.297 79.74 100.007 79.67ZM119.911 84.515C119.911 86.115 119.646 87.51 119.116 88.7C118.586 89.89 117.806 90.815 116.776 91.475C115.756 92.125 114.491 92.45 112.981 92.45C111.461 92.45 110.186 92.12 109.156 91.46C108.126 90.8 107.351 89.875 106.831 88.685C106.311 87.495 106.051 86.105 106.051 84.515C106.051 82.905 106.311 81.51 106.831 80.33C107.361 79.14 108.141 78.22 109.171 77.57C110.201 76.91 111.471 76.58 112.981 76.58C114.501 76.58 115.776 76.91 116.806 77.57C117.836 78.23 118.611 79.155 119.131 80.345C119.651 81.525 119.911 82.915 119.911 84.515ZM110.866 84.515C110.866 85.335 110.911 86.08 111.001 86.75C111.101 87.42 111.301 87.955 111.601 88.355C111.911 88.745 112.371 88.94 112.981 88.94C113.601 88.94 114.061 88.745 114.361 88.355C114.661 87.955 114.856 87.42 114.946 86.75C115.046 86.08 115.096 85.335 115.096 84.515C115.096 83.685 115.046 82.935 114.946 82.265C114.856 81.595 114.661 81.065 114.361 80.675C114.061 80.275 113.601 80.075 112.981 80.075C112.371 80.075 111.911 80.275 111.601 80.675C111.301 81.065 111.101 81.595 111.001 82.265C110.911 82.935 110.866 83.685 110.866 84.515ZM124.59 76.82C125.49 76.82 126.165 77.13 126.615 77.75C127.075 78.36 127.305 79.185 127.305 80.225V92C126.975 92.06 126.6 92.105 126.18 92.135C125.77 92.165 125.365 92.18 124.965 92.18C124.575 92.18 124.17 92.165 123.75 92.135C123.34 92.105 122.96 92.06 122.61 92V77.03L122.82 76.82H124.59ZM135.51 88.25C135.51 88.83 135.565 89.38 135.675 89.9C135.785 90.41 135.98 90.855 136.26 91.235C135.92 91.515 135.495 91.755 134.985 91.955C134.475 92.145 133.925 92.24 133.335 92.24C132.395 92.24 131.74 91.99 131.37 91.49C131 90.99 130.815 90.27 130.815 89.33V82.955C130.815 82.275 130.725 81.775 130.545 81.455C130.375 81.125 130.04 80.96 129.54 80.96C129.23 80.96 128.87 81.045 128.46 81.215C128.06 81.375 127.655 81.645 127.245 82.025C126.845 82.405 126.49 82.91 126.18 83.54V79.43C126.89 78.75 127.655 78.135 128.475 77.585C129.305 77.035 130.25 76.76 131.31 76.76C132.23 76.76 133 76.99 133.62 77.45C134.24 77.9 134.71 78.525 135.03 79.325C135.35 80.125 135.51 81.05 135.51 82.1V88.25ZM152.411 79.19C152.161 79.37 151.956 79.66 151.796 80.06C151.646 80.45 151.571 80.88 151.571 81.35V89.27C151.571 90.67 151.506 91.825 151.376 92.735C151.256 93.655 151.081 94.4 150.851 94.97C150.621 95.55 150.346 96.04 150.026 96.44C149.436 97.2 148.651 97.755 147.671 98.105C146.691 98.455 145.601 98.63 144.401 98.63C143.461 98.63 142.481 98.535 141.461 98.345C140.441 98.165 139.541 97.93 138.761 97.64C138.761 97.09 138.871 96.485 139.091 95.825C139.311 95.165 139.586 94.64 139.916 94.25C140.556 94.53 141.226 94.75 141.926 94.91C142.626 95.07 143.306 95.15 143.966 95.15C144.696 95.15 145.281 95.025 145.721 94.775C146.171 94.525 146.496 94.17 146.696 93.71C146.896 93.25 146.996 92.715 146.996 92.105V81.29C146.996 80.04 147.331 78.985 148.001 78.125C148.671 77.255 149.666 76.81 150.986 76.79C151.276 77.01 151.571 77.365 151.871 77.855C152.171 78.335 152.351 78.78 152.411 79.19ZM138.191 84.545C138.191 82.825 138.466 81.375 139.016 80.195C139.566 79.005 140.296 78.105 141.206 77.495C142.116 76.885 143.116 76.58 144.206 76.58C145.186 76.58 146.016 76.74 146.696 77.06C147.386 77.38 147.956 77.77 148.406 78.23C148.866 78.69 149.221 79.14 149.471 79.58L148.706 83.405C148.126 82.315 147.501 81.485 146.831 80.915C146.171 80.345 145.571 80.06 145.031 80.06C144.301 80.06 143.776 80.465 143.456 81.275C143.146 82.075 142.991 83.175 142.991 84.575C142.991 85.965 143.156 86.975 143.486 87.605C143.826 88.225 144.251 88.535 144.761 88.535C145.361 88.535 145.946 88.33 146.516 87.92C147.096 87.51 147.581 86.9 147.971 86.09L148.631 89.345C148.301 89.905 147.876 90.41 147.356 90.86C146.836 91.31 146.251 91.665 145.601 91.925C144.961 92.175 144.291 92.3 143.591 92.3C142.371 92.3 141.361 91.97 140.561 91.31C139.761 90.65 139.166 89.74 138.776 88.58C138.386 87.41 138.191 86.065 138.191 84.545ZM165.21 77.075C165.21 77.625 165.11 78.33 164.91 79.19C164.71 80.04 164.42 80.795 164.04 81.455C163.78 81.355 163.52 81.285 163.26 81.245C163.01 81.205 162.755 81.17 162.495 81.14C162.095 81.14 161.735 81.215 161.415 81.365C161.095 81.505 160.805 81.715 160.545 81.995C160.285 82.275 160.04 82.62 159.81 83.03C159.58 83.44 159.36 83.91 159.15 84.44L158.625 83.735C158.675 82.905 158.78 82.085 158.94 81.275C159.1 80.455 159.345 79.71 159.675 79.04C160.005 78.37 160.455 77.835 161.025 77.435C161.605 77.025 162.335 76.82 163.215 76.82C163.675 76.82 164.045 76.845 164.325 76.895C164.615 76.935 164.91 76.995 165.21 77.075ZM154.215 79.205C154.295 78.785 154.48 78.335 154.77 77.855C155.06 77.365 155.35 77.01 155.64 76.79C157.03 76.89 158.075 77.405 158.775 78.335C159.485 79.255 159.905 80.465 160.035 81.965V92C159.705 92.06 159.335 92.105 158.925 92.135C158.515 92.165 158.105 92.18 157.695 92.18C157.305 92.18 156.9 92.165 156.48 92.135C156.07 92.105 155.69 92.06 155.34 92V82.31C155.34 81.42 155.21 80.725 154.95 80.225C154.7 79.715 154.455 79.375 154.215 79.205ZM165.846 87.905C165.846 86.695 166.126 85.71 166.686 84.95C167.246 84.18 167.976 83.61 168.876 83.24C169.786 82.87 170.756 82.685 171.786 82.685C172.236 82.685 172.801 82.695 173.481 82.715C174.171 82.735 174.791 82.8 175.341 82.91V85.88C174.911 85.78 174.391 85.725 173.781 85.715C173.181 85.695 172.681 85.685 172.281 85.685C171.611 85.685 171.131 85.865 170.841 86.225C170.551 86.575 170.406 87.03 170.406 87.59C170.406 87.99 170.531 88.325 170.781 88.595C171.031 88.855 171.366 88.985 171.786 88.985C172.386 88.985 172.996 88.77 173.616 88.34C174.236 87.91 174.761 87.32 175.191 86.57L175.851 89.54C175.461 90 175.016 90.455 174.516 90.905C174.016 91.355 173.431 91.725 172.761 92.015C172.091 92.305 171.306 92.45 170.406 92.45C169.376 92.45 168.521 92.22 167.841 91.76C167.171 91.3 166.671 90.72 166.341 90.02C166.011 89.32 165.846 88.615 165.846 87.905ZM179.451 89.84C179.371 90.25 179.186 90.695 178.896 91.175C178.606 91.655 178.316 92.01 178.026 92.24C177.146 92.22 176.416 92.02 175.836 91.64C175.266 91.26 174.826 90.795 174.516 90.245C174.216 89.685 174.021 89.14 173.931 88.61V82.19C173.931 81.56 173.771 81.085 173.451 80.765C173.141 80.445 172.646 80.285 171.966 80.285C171.326 80.285 170.626 80.39 169.866 80.6C169.106 80.8 168.331 81.015 167.541 81.245C167.211 80.865 166.951 80.375 166.761 79.775C166.581 79.165 166.466 78.57 166.416 77.99C167.086 77.71 167.831 77.475 168.651 77.285C169.471 77.085 170.286 76.935 171.096 76.835C171.916 76.725 172.646 76.67 173.286 76.67C174.166 76.67 175.011 76.835 175.821 77.165C176.631 77.485 177.296 78.02 177.816 78.77C178.346 79.51 178.611 80.515 178.611 81.785V87.89C178.611 88.32 178.676 88.7 178.806 89.03C178.946 89.36 179.161 89.63 179.451 89.84ZM182.508 75.335C182.508 74.295 182.698 73.565 183.078 73.145C183.468 72.725 184.123 72.515 185.043 72.515H186.873L187.083 72.725V87.17C187.083 87.62 187.183 87.97 187.383 88.22C187.593 88.46 187.938 88.58 188.418 88.58H190.098C190.348 89.31 190.473 90.05 190.473 90.8C190.473 90.97 190.463 91.15 190.443 91.34C190.433 91.53 190.403 91.7 190.353 91.85C189.803 91.92 189.168 91.985 188.448 92.045C187.728 92.115 187.068 92.15 186.468 92.15C185.108 92.15 184.108 91.815 183.468 91.145C182.828 90.465 182.508 89.41 182.508 87.98V75.335ZM190.638 77C190.778 77.53 190.848 78.075 190.848 78.635C190.848 79.245 190.778 79.81 190.638 80.33L185.043 80.24L180.153 80.33C180.023 79.8 179.958 79.235 179.958 78.635C179.958 78.095 180.023 77.55 180.153 77L185.178 77.075L190.638 77ZM205.923 87.725C205.923 88.205 205.998 88.64 206.148 89.03C206.308 89.42 206.513 89.705 206.763 89.885C206.683 90.305 206.498 90.745 206.208 91.205C205.918 91.665 205.628 92.01 205.338 92.24C204.008 92.22 202.993 91.765 202.293 90.875C201.593 89.985 201.243 88.915 201.243 87.665V77.03C201.563 76.97 201.933 76.925 202.353 76.895C202.773 76.865 203.183 76.85 203.583 76.85C203.973 76.85 204.373 76.865 204.783 76.895C205.203 76.925 205.583 76.97 205.923 77.03V87.725ZM193.038 80.78C193.038 80.19 192.978 79.64 192.858 79.13C192.748 78.62 192.558 78.175 192.288 77.795C192.638 77.505 193.068 77.265 193.578 77.075C194.088 76.885 194.633 76.79 195.213 76.79C196.153 76.79 196.803 77.04 197.163 77.54C197.533 78.04 197.718 78.755 197.718 79.685V86.075C197.718 86.745 197.808 87.245 197.988 87.575C198.178 87.895 198.518 88.055 199.008 88.055C199.318 88.055 199.673 87.975 200.073 87.815C200.483 87.645 200.888 87.37 201.288 86.99C201.698 86.61 202.053 86.11 202.353 85.49V89.585C201.653 90.275 200.893 90.895 200.073 91.445C199.253 91.995 198.308 92.27 197.238 92.27C196.328 92.27 195.558 92.045 194.928 91.595C194.308 91.135 193.838 90.505 193.518 89.705C193.198 88.895 193.038 87.97 193.038 86.93V80.78ZM216.238 88.58C216.348 88.91 216.438 89.27 216.508 89.66C216.578 90.04 216.613 90.42 216.613 90.8C216.613 90.97 216.603 91.15 216.583 91.34C216.573 91.53 216.543 91.7 216.493 91.85C216.043 91.92 215.538 91.985 214.978 92.045C214.418 92.115 213.848 92.15 213.268 92.15C211.908 92.15 210.943 91.815 210.373 91.145C209.813 90.465 209.533 89.41 209.533 87.98V70.13L209.743 69.92H211.573C212.493 69.92 213.143 70.13 213.523 70.55C213.913 70.97 214.108 71.7 214.108 72.74V87.155C214.108 88.105 214.543 88.58 215.413 88.58H216.238ZM218.171 87.905C218.171 86.695 218.451 85.71 219.011 84.95C219.571 84.18 220.301 83.61 221.201 83.24C222.111 82.87 223.081 82.685 224.111 82.685C224.561 82.685 225.126 82.695 225.806 82.715C226.496 82.735 227.116 82.8 227.666 82.91V85.88C227.236 85.78 226.716 85.725 226.106 85.715C225.506 85.695 225.006 85.685 224.606 85.685C223.936 85.685 223.456 85.865 223.166 86.225C222.876 86.575 222.731 87.03 222.731 87.59C222.731 87.99 222.856 88.325 223.106 88.595C223.356 88.855 223.691 88.985 224.111 88.985C224.711 88.985 225.321 88.77 225.941 88.34C226.561 87.91 227.086 87.32 227.516 86.57L228.176 89.54C227.786 90 227.341 90.455 226.841 90.905C226.341 91.355 225.756 91.725 225.086 92.015C224.416 92.305 223.631 92.45 222.731 92.45C221.701 92.45 220.846 92.22 220.166 91.76C219.496 91.3 218.996 90.72 218.666 90.02C218.336 89.32 218.171 88.615 218.171 87.905ZM231.776 89.84C231.696 90.25 231.511 90.695 231.221 91.175C230.931 91.655 230.641 92.01 230.351 92.24C229.471 92.22 228.741 92.02 228.161 91.64C227.591 91.26 227.151 90.795 226.841 90.245C226.541 89.685 226.346 89.14 226.256 88.61V82.19C226.256 81.56 226.096 81.085 225.776 80.765C225.466 80.445 224.971 80.285 224.291 80.285C223.651 80.285 222.951 80.39 222.191 80.6C221.431 80.8 220.656 81.015 219.866 81.245C219.536 80.865 219.276 80.375 219.086 79.775C218.906 79.165 218.791 78.57 218.741 77.99C219.411 77.71 220.156 77.475 220.976 77.285C221.796 77.085 222.611 76.935 223.421 76.835C224.241 76.725 224.971 76.67 225.611 76.67C226.491 76.67 227.336 76.835 228.146 77.165C228.956 77.485 229.621 78.02 230.141 78.77C230.671 79.51 230.936 80.515 230.936 81.785V87.89C230.936 88.32 231.001 88.7 231.131 89.03C231.271 89.36 231.486 89.63 231.776 89.84ZM234.832 75.335C234.832 74.295 235.022 73.565 235.402 73.145C235.792 72.725 236.447 72.515 237.367 72.515H239.197L239.407 72.725V87.17C239.407 87.62 239.507 87.97 239.707 88.22C239.917 88.46 240.262 88.58 240.742 88.58H242.422C242.672 89.31 242.797 90.05 242.797 90.8C242.797 90.97 242.787 91.15 242.767 91.34C242.757 91.53 242.727 91.7 242.677 91.85C242.127 91.92 241.492 91.985 240.772 92.045C240.052 92.115 239.392 92.15 238.792 92.15C237.432 92.15 236.432 91.815 235.792 91.145C235.152 90.465 234.832 89.41 234.832 87.98V75.335ZM242.962 77C243.102 77.53 243.172 78.075 243.172 78.635C243.172 79.245 243.102 79.81 242.962 80.33L237.367 80.24L232.477 80.33C232.347 79.8 232.282 79.235 232.282 78.635C232.282 78.095 232.347 77.55 232.477 77L237.502 77.075L242.962 77ZM250.852 92C250.522 92.06 250.147 92.105 249.727 92.135C249.317 92.165 248.912 92.18 248.512 92.18C248.122 92.18 247.717 92.165 247.297 92.135C246.887 92.105 246.507 92.06 246.157 92V82.07C246.157 81.57 246.052 81.155 245.842 80.825C245.642 80.495 245.277 80.33 244.747 80.33H244.297C244.167 79.82 244.102 79.29 244.102 78.74C244.102 78.48 244.117 78.205 244.147 77.915C244.177 77.615 244.227 77.33 244.297 77.06C244.757 77.01 245.227 76.975 245.707 76.955C246.197 76.925 246.607 76.91 246.937 76.91H247.582C248.592 76.91 249.387 77.235 249.967 77.885C250.557 78.525 250.852 79.395 250.852 80.495V92ZM245.257 72.815C245.257 72.535 245.287 72.245 245.347 71.945C245.407 71.635 245.492 71.34 245.602 71.06C245.862 70.93 246.197 70.82 246.607 70.73C247.027 70.64 247.437 70.595 247.837 70.595C248.247 70.595 248.662 70.64 249.082 70.73C249.512 70.82 249.842 70.93 250.072 71.06C250.182 71.34 250.267 71.64 250.327 71.96C250.387 72.27 250.417 72.555 250.417 72.815C250.417 73.085 250.387 73.375 250.327 73.685C250.267 73.995 250.182 74.285 250.072 74.555C249.842 74.685 249.512 74.795 249.082 74.885C248.662 74.975 248.247 75.02 247.837 75.02C247.437 75.02 247.022 74.98 246.592 74.9C246.162 74.81 245.832 74.695 245.602 74.555C245.492 74.285 245.407 73.995 245.347 73.685C245.287 73.375 245.257 73.085 245.257 72.815ZM267.363 84.515C267.363 86.115 267.098 87.51 266.568 88.7C266.038 89.89 265.258 90.815 264.228 91.475C263.208 92.125 261.943 92.45 260.433 92.45C258.913 92.45 257.638 92.12 256.608 91.46C255.578 90.8 254.803 89.875 254.283 88.685C253.763 87.495 253.503 86.105 253.503 84.515C253.503 82.905 253.763 81.51 254.283 80.33C254.813 79.14 255.593 78.22 256.623 77.57C257.653 76.91 258.923 76.58 260.433 76.58C261.953 76.58 263.228 76.91 264.258 77.57C265.288 78.23 266.063 79.155 266.583 80.345C267.103 81.525 267.363 82.915 267.363 84.515ZM258.318 84.515C258.318 85.335 258.363 86.08 258.453 86.75C258.553 87.42 258.753 87.955 259.053 88.355C259.363 88.745 259.823 88.94 260.433 88.94C261.053 88.94 261.513 88.745 261.813 88.355C262.113 87.955 262.308 87.42 262.398 86.75C262.498 86.08 262.548 85.335 262.548 84.515C262.548 83.685 262.498 82.935 262.398 82.265C262.308 81.595 262.113 81.065 261.813 80.675C261.513 80.275 261.053 80.075 260.433 80.075C259.823 80.075 259.363 80.275 259.053 80.675C258.753 81.065 258.553 81.595 258.453 82.265C258.363 82.935 258.318 83.685 258.318 84.515ZM272.041 76.82C272.941 76.82 273.616 77.13 274.066 77.75C274.526 78.36 274.756 79.185 274.756 80.225V92C274.426 92.06 274.051 92.105 273.631 92.135C273.221 92.165 272.816 92.18 272.416 92.18C272.026 92.18 271.621 92.165 271.201 92.135C270.791 92.105 270.411 92.06 270.061 92V77.03L270.271 76.82H272.041ZM282.961 88.25C282.961 88.83 283.016 89.38 283.126 89.9C283.236 90.41 283.431 90.855 283.711 91.235C283.371 91.515 282.946 91.755 282.436 91.955C281.926 92.145 281.376 92.24 280.786 92.24C279.846 92.24 279.191 91.99 278.821 91.49C278.451 90.99 278.266 90.27 278.266 89.33V82.955C278.266 82.275 278.176 81.775 277.996 81.455C277.826 81.125 277.491 80.96 276.991 80.96C276.681 80.96 276.321 81.045 275.911 81.215C275.511 81.375 275.106 81.645 274.696 82.025C274.296 82.405 273.941 82.91 273.631 83.54V79.43C274.341 78.75 275.106 78.135 275.926 77.585C276.756 77.035 277.701 76.76 278.761 76.76C279.681 76.76 280.451 76.99 281.071 77.45C281.691 77.9 282.161 78.525 282.481 79.325C282.801 80.125 282.961 81.05 282.961 82.1V88.25ZM285.268 90.965C285.288 90.465 285.423 89.905 285.673 89.285C285.933 88.665 286.233 88.175 286.573 87.815C287.233 88.155 287.913 88.45 288.613 88.7C289.323 88.94 290.028 89.06 290.728 89.06C291.308 89.06 291.743 88.96 292.033 88.76C292.333 88.56 292.483 88.31 292.483 88.01C292.483 87.72 292.378 87.465 292.168 87.245C291.958 87.015 291.608 86.815 291.118 86.645L289.453 86.045C288.753 85.785 288.118 85.46 287.548 85.07C286.978 84.67 286.528 84.185 286.198 83.615C285.868 83.035 285.703 82.345 285.703 81.545C285.703 80.525 285.943 79.645 286.423 78.905C286.903 78.165 287.578 77.595 288.448 77.195C289.318 76.785 290.338 76.58 291.508 76.58C292.458 76.58 293.453 76.71 294.493 76.97C295.533 77.23 296.378 77.52 297.028 77.84C297.048 78.2 297.003 78.6 296.893 79.04C296.783 79.48 296.623 79.885 296.413 80.255C296.213 80.625 295.988 80.905 295.738 81.095C295.118 80.815 294.443 80.56 293.713 80.33C292.983 80.09 292.263 79.97 291.553 79.97C291.153 79.97 290.848 80.065 290.638 80.255C290.428 80.445 290.323 80.67 290.323 80.93C290.323 81.19 290.413 81.41 290.593 81.59C290.773 81.77 291.063 81.93 291.463 82.07L293.323 82.73C294.463 83.13 295.413 83.715 296.173 84.485C296.933 85.255 297.313 86.28 297.313 87.56C297.313 89.05 296.738 90.24 295.588 91.13C294.448 92.01 292.863 92.45 290.833 92.45C289.763 92.45 288.743 92.3 287.773 92C286.813 91.71 285.978 91.365 285.268 90.965Z" fill="#DF8E44"/>
<g filter="url(#filter1_d_171_2251)">
<circle cx="196.5" cy="27.5" r="27.5" fill="white"/>
<circle cx="196.5" cy="27.5" r="26.75" stroke="#EBB026" stroke-width="1.5"/>
</g>
<path d="M212.169 34.2429C211.447 38.0104 210.685 41.1804 210.251 41.5741C209.162 42.5652 197.875 46.0204 196.185 46C194.494 45.9864 184.531 42.925 183.381 41.5741C183.241 41.4112 182.927 40.169 182.553 38.343C182.546 38.3362 182.546 38.3362 182.546 38.3362C181.283 32.2608 179.278 19.7367 180.354 19.0511C181.757 18.1618 193.746 15.4126 197.702 15.3583C201.664 15.2972 213.285 19.6009 213.913 20.7142C214.294 21.393 213.278 28.5002 212.169 34.2429Z" fill="url(#paint21_linear_171_2251)"/>
<path opacity="0.5" d="M180.368 19.0511C178.496 20.0625 192.623 24.7599 195.463 24.7599C198.303 24.7599 213.492 21.0264 213.92 20.721C214.347 20.4155 201.584 15.3312 197.441 15.3651C193.298 15.3991 180.929 18.7524 180.368 19.0511Z" fill="white"/>
<path opacity="0.3" d="M196.191 46C194.534 45.7896 194.982 26.3619 195.463 25.5474C195.944 24.7328 212.643 21.2776 213.318 21.4337C213.993 21.5899 210.846 40.5899 210.258 41.5674C209.67 42.5449 196.953 46.0951 196.191 46Z" fill="#912790"/>
<path opacity="0.74" d="M212.169 34.243C211.447 38.0036 210.685 41.1804 210.251 41.5741C209.162 42.5652 197.875 46.0204 196.185 46C194.494 45.9864 184.53 42.925 183.381 41.5741C183.241 41.4112 182.927 40.169 182.552 38.343C182.673 38.5195 183.207 41.099 184.838 41.9679C185.533 42.3412 193.298 45.1854 195.991 45.1311C198.69 45.0836 208.393 43.2644 209.797 41.0175C211.173 38.8249 212.135 34.4194 212.169 34.243Z" fill="#CA2790"/>
<path opacity="0.5" d="M196.191 46C195.577 44.7171 201.257 35.1118 202.66 34.2497C204.063 33.3809 207.017 32.3559 207.952 32.9872C208.888 33.6184 210.251 41.5809 210.251 41.5809C210.251 41.5809 208.908 33.8085 208.26 32.9125L213.92 20.8907C213.92 20.8907 208.393 31.9621 208.159 32.3559C207.926 32.7496 205.5 32.6342 202.112 33.9375L195.677 25.398C195.677 25.398 195.523 25.3437 195.456 25.5541C195.396 25.7646 201.23 32.6681 201.25 34.2497C201.27 35.8314 195.904 43.9025 195.67 44.6152C195.45 45.3212 196.191 46 196.191 46Z" fill="#CA2790"/>
<path d="M202.105 34.7724C201.905 35.492 207.478 33.4148 207.952 32.9871C208.433 32.5527 203.963 32.7631 202.105 34.7724Z" fill="#6D8EFF"/>
<path opacity="0.2" d="M197.367 44.4523C197.367 44.4523 201.083 35.9128 202.74 35.1729C204.397 34.433 207.672 33.4759 208.293 33.7203C208.914 33.9646 210.164 40.8953 209.957 41.4995C209.75 42.1036 201.624 45.0293 199.138 45.3483C196.652 45.6674 197.367 44.4523 197.367 44.4523Z" fill="#912790"/>
<path d="M185.633 22.099C185.633 22.099 193.438 25.2758 194.841 25.432C196.245 25.5881 211.788 21.6781 212.744 21.2437C213.699 20.8092 213.826 20.7617 213.826 20.7617C213.826 20.7617 198.457 24.5767 195.657 24.3255C190.845 23.8978 185.633 22.099 185.633 22.099Z" fill="#C992FF"/>
<path d="M193.405 24.9093C194.487 25.1061 194.908 39.3409 195.022 39.8092C195.136 40.2844 194.621 28.025 195.463 25.5474L193.405 24.9093Z" fill="#C992FF"/>
<path d="M193.672 25.1333C191.968 24.1015 198.978 24.2644 199.185 24.4477C199.392 24.6242 194.882 26.2126 193.672 25.1333Z" fill="#EDD6FF"/>
<path opacity="0.2" d="M180.561 21.4337C180.788 20.0489 191.019 24.8482 192.777 28.2694C194.534 31.6838 194.741 42.7145 194.434 43.9771C194.126 45.2397 185.112 42.8028 183.769 40.2572C182.426 37.7117 180.14 24.0268 180.561 21.4337Z" fill="#C68EC5"/>
<path d="M191.607 44.9207C191.607 44.9207 190.785 45.2805 190.284 45.2058C189.776 45.1243 187.056 44.6288 186.782 44.3233C186.508 44.0179 182.526 22.4452 183.121 21.1147C183.715 19.7842 194.808 18.1618 195.47 18.3587C196.131 18.5556 197.374 19.2683 197.374 19.2683C197.374 19.2683 189.315 21.875 188.42 22.6624C187.524 23.4566 190.444 44.4116 190.485 44.5677C190.518 44.7238 191.607 44.9207 191.607 44.9207Z" fill="url(#paint22_linear_171_2251)"/>
<path d="M200.515 45.0632C200.515 45.0632 201.771 45.3619 202.099 45.4026C202.426 45.4434 206.121 44.2962 206.589 43.9771C207.057 43.6581 208.921 23.4566 208.768 22.2279C208.614 20.9993 197.668 18.3587 197.261 18.3383C196.853 18.318 195.724 18.5556 195.182 18.99C194.634 19.4244 202.58 22.3501 203.121 23.4973C203.669 24.6445 202.286 44.4387 202.092 44.5813C201.912 44.7103 200.515 45.0632 200.515 45.0632Z" fill="url(#paint23_linear_171_2251)"/>
<path d="M195.864 19.5738C194.641 19.2208 187.244 17.13 187.244 17.13L185.052 17.5984C185.052 17.5984 185.373 16.6142 185.626 16.492C185.88 16.3766 191.253 15.1411 192.229 15.3651C193.204 15.5824 198.303 19.1054 198.303 19.1054L195.864 19.5738Z" fill="url(#paint24_linear_171_2251)"/>
<path d="M208.781 18.223C208.781 18.223 208.774 17.7478 208.614 17.4627C208.46 17.1708 203.749 15.8267 203.281 15.786C202.814 15.7453 195.463 18.5963 195.463 18.5963C195.463 18.5963 196.672 19.1394 197.508 19.2615C198.343 19.3837 207.451 17.7614 207.645 17.7614C207.839 17.7614 208.781 18.223 208.781 18.223Z" fill="url(#paint25_linear_171_2251)"/>
<path opacity="0.74" d="M203.388 45.0429C203.388 45.0429 203.903 24.4816 204.544 23.8367C205.186 23.1851 207.905 23.0425 208.286 23.0968C208.667 23.1511 206.749 43.3662 206.475 43.7599C206.208 44.1604 203.388 45.0429 203.388 45.0429Z" fill="#E8B72D"/>
<path opacity="0.74" d="M191.607 44.9207C191.607 44.9207 190.358 45.2194 189.997 45.1583C189.636 45.0904 187.063 23.796 187.27 22.6216C187.478 21.4473 196.071 19.696 196.071 19.696C196.071 19.696 202.5 22.418 203.068 22.8932C203.636 23.3683 203.241 25.8732 203.241 25.8732C203.241 25.8732 203.001 23.8096 202.526 23.3344C202.052 22.8592 198.296 20.8635 196.479 20.945C195.369 20.9925 194.32 22.8592 192.75 23.4294C191.748 23.796 189.275 22.6488 188.921 23.2394C188.012 24.7667 190.632 44.5405 190.839 44.6967C191.066 44.846 191.607 44.9207 191.607 44.9207Z" fill="#771B87"/>
<path d="M183.435 20.8839C183.174 21.5152 186.261 22.1261 186.936 22.0718C187.611 22.0175 194.982 19.8724 195.162 19.5738C195.343 19.2751 192.155 18.7999 191.18 18.8271C190.211 18.8542 184.324 20.2594 183.435 20.8839Z" fill="white"/>
<path opacity="0.74" d="M197.448 20.3612C197.448 20.3612 203.535 20.9654 207.351 20.4495C211.167 19.9268 209.115 18.3383 209.115 18.3383L196.452 19.8928L197.448 20.3612Z" fill="#771B87"/>
<path opacity="0.5" d="M183.121 21.1079C182.786 21.1486 185.366 22.1058 186.027 22.2619C186.689 22.418 186.769 22.6149 187.217 22.3366C187.665 22.0582 183.455 21.0672 183.121 21.1079Z" fill="white"/>
<path opacity="0.5" d="M204.217 23.3344C203.007 23.1376 207.211 22.3501 207.992 22.289C208.774 22.2279 207.003 23.7892 204.217 23.3344Z" fill="white"/>
<path opacity="0.4" d="M183.421 22.3501C183.522 21.6374 186.789 23.1036 187.057 23.5381C187.324 23.9657 188.46 36.9446 188.3 37.6506C188.146 38.3634 185.52 38.1529 185.433 37.6506C185.339 37.1483 183.328 23.0222 183.421 22.3501Z" fill="#C68EC5"/>
<path opacity="0.74" d="M200.515 45.0632C200.515 45.0632 201.444 44.5066 201.678 44.1333C201.912 43.7667 203.255 25.8664 203.255 25.8664C203.255 25.8664 202.546 43.7396 202.246 44.5541C201.945 45.3687 200.515 45.0632 200.515 45.0632Z" fill="#CA2790"/>
<path d="M198.029 19.5806C198.022 19.5806 198.016 19.5738 198.016 19.5738H198.009C197.982 19.567 197.915 19.5806 197.802 19.6145C197.755 19.6281 197.688 19.6552 197.621 19.6824C196.225 20.2526 191.561 22.7031 190.752 22.8525C190.558 22.8932 190.137 22.8253 189.583 22.6963C187.444 22.2144 183.361 20.7957 183.061 20.4495C182.68 20.015 179.439 11.6045 183.415 10.6134C185.894 9.99573 189.309 12.9961 191.935 15.2973C193.518 16.6888 194.822 17.8292 195.463 17.7749C195.463 17.7749 196.432 18.4334 197.18 18.9493C197.187 18.9493 197.187 18.9493 197.187 18.9561C197.307 19.0375 197.428 19.1258 197.535 19.2004C197.688 19.3023 197.822 19.4041 197.909 19.4652C197.982 19.5263 198.029 19.567 198.029 19.5806Z" fill="url(#paint26_linear_171_2251)"/>
<path opacity="0.5" d="M190.698 22.3501C189.322 22.8932 188.413 15.6299 188.674 14.4623C188.934 13.2948 193.478 19.2276 196.298 19.2683C199.118 19.3023 190.999 22.2347 190.698 22.3501Z" fill="#912790"/>
<path opacity="0.74" d="M198.029 19.2683L197.902 19.472L197.875 19.5127L197.809 19.6213L197.628 19.6892C196.231 20.2594 191.567 22.7099 190.759 22.8593C190.565 22.9 190.144 22.8321 189.589 22.7031C188.587 20.6327 186.321 11.8285 189.435 13.8242C190.197 14.313 191.059 14.8153 191.941 15.3041C193.525 16.6956 194.828 17.836 195.47 17.7817C195.47 17.7817 195.623 17.4763 196.365 17.9989C195.931 17.5306 196.505 17.9786 196.459 17.8768C197.087 18.2705 197.575 18.6302 197.829 18.9221C197.942 19.0443 198.016 19.1597 198.029 19.2683Z" fill="#E8B72D"/>
<path d="M208.453 18.7321C207.625 19.6077 199.038 20.0286 197.989 19.696C197.909 19.6688 197.828 19.6349 197.755 19.5941C197.748 19.5941 197.748 19.5874 197.742 19.5874H197.735C197.695 19.567 197.661 19.5466 197.621 19.5263C197.514 19.4584 197.414 19.3769 197.314 19.3023V19.2955C197.214 19.2072 197.127 19.1122 197.047 19.0172C197.047 19.0104 197.047 19.0104 197.04 19.0104C196.679 18.5827 196.479 18.1008 196.445 18.0125C196.438 17.9989 196.438 17.9989 196.438 17.9989C197.207 17.9921 200.214 9.378 201.23 8.47518C202.192 7.62666 208.701 7.93212 211.327 9.20829C211.614 9.34406 211.841 9.48661 212.008 9.64952C213.779 11.3058 209.315 17.8292 208.453 18.7321Z" fill="url(#paint27_linear_171_2251)"/>
<path opacity="0.5" d="M198.002 19.1529C198.002 19.1529 201.043 18.3316 203.595 17.0147C207.411 15.0461 209.249 10.9868 210.846 10.8035C212.503 10.6135 210.004 17.5984 206.963 18.5488C204.19 19.4109 198.002 19.1529 198.002 19.1529Z" fill="#912790"/>
<path opacity="0.74" d="M208.454 18.7321C207.625 19.6077 199.038 20.0286 197.989 19.696C197.909 19.6688 197.829 19.6349 197.755 19.5941C197.748 19.5941 197.748 19.5874 197.742 19.5874H197.735C197.715 19.5806 197.655 19.5941 197.561 19.6281L197.441 19.8317L197.408 19.696L197.314 19.3023V19.2955C197.321 19.2751 197.321 19.2547 197.334 19.2412C197.367 19.1461 197.454 19.0579 197.588 18.9696C198.604 18.2705 202.439 17.4559 204.912 15.0461C208.133 11.8964 209.195 9.51376 211.334 9.20151C211.621 9.33727 211.848 9.47982 212.015 9.64274C213.779 11.3058 209.316 17.8292 208.454 18.7321Z" fill="#E8B72D"/>
<path d="M195.022 17.6799C195.022 17.6799 197.394 17.0622 198.791 17.6799C200.194 18.2976 199.88 19.3633 199.726 19.8317C199.573 20.3001 196.773 20.0625 196.773 20.0625C196.773 20.0625 196.94 19.5195 196.706 18.7456C196.472 17.9786 195.022 17.6799 195.022 17.6799Z" fill="url(#paint28_linear_171_2251)"/>
<path opacity="0.3" d="M195.463 17.5849C195.463 17.5849 196.98 18.3519 197.214 18.5352C197.448 18.7117 199.339 18.2976 199.392 18.2026C199.446 18.1076 198.376 17.4695 197.367 17.4627C196.358 17.4491 195.463 17.5849 195.463 17.5849Z" fill="white"/>
<path opacity="0.74" d="M197.341 17.5441C197.341 17.5441 198.911 14.1229 200.201 11.5502C201.598 8.76027 206.636 10.0161 206.536 12.2222C206.436 14.3537 200.435 17.5848 199.519 17.7274C198.631 17.8699 197.341 17.5441 197.341 17.5441Z" fill="#E8B72D"/>
<path opacity="0.74" d="M188.313 22.1533C189.349 22.1533 186.856 14.1365 184.785 12.7653C182.706 11.3941 181.978 12.5956 181.724 13.5255C181.47 14.4555 182.927 20.144 183.415 20.6599C183.909 21.1894 188.313 22.1533 188.313 22.1533Z" fill="#E8B72D"/>
<path opacity="0.74" d="M198.296 17.7206C198.296 17.7206 199.833 17.3812 200.635 16.3834C201.464 15.3448 201.016 12.0729 200.415 12.1951C199.82 12.3173 197.341 17.5441 197.341 17.5441L198.296 17.7206Z" fill="#E8B72D"/>
<path opacity="0.3" d="M182.085 11.5027C181.771 12.0865 185.593 12.1272 186.488 13.3898C187.384 14.6524 187.912 13.5255 188.633 13.3898C189.355 13.254 186.007 10.98 184.196 10.9393C182.385 10.8985 182.085 11.5027 182.085 11.5027Z" fill="white"/>
<path opacity="0.3" d="M200.669 9.67668C200.368 10.179 203.783 9.15399 205.48 10.0093C207.231 10.885 208.821 10.1383 209.483 9.46624C210.164 8.77385 202.125 7.25331 200.669 9.67668Z" fill="white"/>
<path opacity="0.74" d="M206.456 14.9171C204.892 16.5327 207.371 18.3316 207.812 18.2094C208.26 18.0804 211.481 14.1569 211.12 11.9303C210.759 9.65632 209.329 11.9575 206.456 14.9171Z" fill="#E8B72D"/>
<path opacity="0.74" d="M188.988 18.5759C189.121 19.1937 195.082 19.3498 195.463 19.2683C195.837 19.1801 192.857 17.8632 191.146 16.044C189.436 14.2247 188.827 14.1976 188.68 14.4623C188.527 14.7271 188.888 18.1076 188.988 18.5759Z" fill="#E8B72D"/>
<path d="M180.808 28.283C180.808 28.283 180.027 22.1804 180.514 20.6599C181.002 19.1393 181.55 18.5759 181.55 18.5759C181.55 18.5759 180.521 18.7456 180.2 19.0782C179.873 19.4177 179.873 21.4134 180.808 28.283Z" fill="#C992FF"/>
<path d="M180.194 19.3226C180.22 19.8114 180.675 19.9064 180.775 19.8046C180.875 19.7028 181.236 18.8203 181.236 18.8203C181.236 18.8203 180.167 18.8746 180.194 19.3226Z" fill="#EDD6FF"/>
<defs>
<filter id="filter0_d_171_2251" x="0" y="29" width="390" height="447" filterUnits="userSpaceOnUse" color-interpolation-filters="sRGB">
<feFlood flood-opacity="0" result="BackgroundImageFix"/>
<feColorMatrix in="SourceAlpha" type="matrix" values="0 0 0 0 0 0 0 0 0 0 0 0 0 0 0 0 0 0 127 0" result="hardAlpha"/>
<feOffset dx="3" dy="9"/>
<feGaussianBlur stdDeviation="4"/>
<feComposite in2="hardAlpha" operator="out"/>
<feColorMatrix type="matrix" values="0 0 0 0 0 0 0 0 0 0 0 0 0 0 0 0 0 0 0.25 0"/>
<feBlend mode="normal" in2="BackgroundImageFix" result="effect1_dropShadow_171_2251"/>
<feBlend mode="normal" in="SourceGraphic" in2="effect1_dropShadow_171_2251" result="shape"/>
</filter>
<filter id="filter1_d_171_2251" x="165" y="0" width="63" height="63" filterUnits="userSpaceOnUse" color-interpolation-filters="sRGB">
<feFlood flood-opacity="0" result="BackgroundImageFix"/>
<feColorMatrix in="SourceAlpha" type="matrix" values="0 0 0 0 0 0 0 0 0 0 0 0 0 0 0 0 0 0 127 0" result="hardAlpha"/>
<feOffset dy="4"/>
<feGaussianBlur stdDeviation="2"/>
<feComposite in2="hardAlpha" operator="out"/>
<feColorMatrix type="matrix" values="0 0 0 0 0 0 0 0 0 0 0 0 0 0 0 0 0 0 0.25 0"/>
<feBlend mode="normal" in2="BackgroundImageFix" result="effect1_dropShadow_171_2251"/>
<feBlend mode="normal" in="SourceGraphic" in2="effect1_dropShadow_171_2251" result="shape"/>
</filter>
<linearGradient id="paint0_linear_171_2251" x1="271.365" y1="73.5132" x2="277.53" y2="73.5132" gradientUnits="userSpaceOnUse">
<stop stop-color="#D10037"/>
<stop offset="0.5498" stop-color="#EF2459"/>
<stop offset="0.9075" stop-color="#FF366B"/>
</linearGradient>
<linearGradient id="paint1_linear_171_2251" x1="220.365" y1="111.513" x2="226.53" y2="111.513" gradientUnits="userSpaceOnUse">
<stop stop-color="#D10037"/>
<stop offset="0.5498" stop-color="#EF2459"/>
<stop offset="0.9075" stop-color="#FF366B"/>
</linearGradient>
<linearGradient id="paint2_linear_171_2251" x1="118.292" y1="65.6575" x2="120.921" y2="65.6575" gradientUnits="userSpaceOnUse">
<stop stop-color="#FBCC28"/>
<stop offset="0.2712" stop-color="#FCDD71"/>
<stop offset="0.5785" stop-color="#FEEFBD"/>
<stop offset="0.7984" stop-color="#FFFBED"/>
<stop offset="0.9075" stop-color="white"/>
</linearGradient>
<linearGradient id="paint3_linear_171_2251" x1="207.99" y1="77.0351" x2="212.055" y2="77.0351" gradientUnits="userSpaceOnUse">
<stop stop-color="#D10037"/>
<stop offset="0.5498" stop-color="#EF2459"/>
<stop offset="0.9075" stop-color="#FF366B"/>
</linearGradient>
<linearGradient id="paint4_linear_171_2251" x1="156.99" y1="105.035" x2="161.055" y2="105.035" gradientUnits="userSpaceOnUse">
<stop stop-color="#D10037"/>
<stop offset="0.5498" stop-color="#EF2459"/>
<stop offset="0.9075" stop-color="#FF366B"/>
</linearGradient>
<linearGradient id="paint5_linear_171_2251" x1="172.184" y1="71.5735" x2="174.21" y2="77.4447" gradientUnits="userSpaceOnUse">
<stop stop-color="#FBCC28"/>
<stop offset="0.2712" stop-color="#FCDD71"/>
<stop offset="0.5785" stop-color="#FEEFBD"/>
<stop offset="0.7984" stop-color="#FFFBED"/>
<stop offset="0.9075" stop-color="white"/>
</linearGradient>
<linearGradient id="paint6_linear_171_2251" x1="270.99" y1="99.0183" x2="275.056" y2="99.0183" gradientUnits="userSpaceOnUse">
<stop stop-color="#FBCC28"/>
<stop offset="0.2712" stop-color="#FCDD71"/>
<stop offset="0.5785" stop-color="#FEEFBD"/>
<stop offset="0.7984" stop-color="#FFFBED"/>
<stop offset="0.9075" stop-color="white"/>
</linearGradient>
<linearGradient id="paint7_linear_171_2251" x1="181.99" y1="86.0183" x2="186.056" y2="86.0183" gradientUnits="userSpaceOnUse">
<stop stop-color="#FBCC28"/>
<stop offset="0.2712" stop-color="#FCDD71"/>
<stop offset="0.5785" stop-color="#FEEFBD"/>
<stop offset="0.7984" stop-color="#FFFBED"/>
<stop offset="0.9075" stop-color="white"/>
</linearGradient>
<linearGradient id="paint8_linear_171_2251" x1="300.99" y1="92.0183" x2="305.056" y2="92.0183" gradientUnits="userSpaceOnUse">
<stop stop-color="#FBCC28"/>
<stop offset="0.2712" stop-color="#FCDD71"/>
<stop offset="0.5785" stop-color="#FEEFBD"/>
<stop offset="0.7984" stop-color="#FFFBED"/>
<stop offset="0.9075" stop-color="white"/>
</linearGradient>
<linearGradient id="paint9_linear_171_2251" x1="151.99" y1="94.0183" x2="156.056" y2="94.0183" gradientUnits="userSpaceOnUse">
<stop stop-color="#FBCC28"/>
<stop offset="0.2712" stop-color="#FCDD71"/>
<stop offset="0.5785" stop-color="#FEEFBD"/>
<stop offset="0.7984" stop-color="#FFFBED"/>
<stop offset="0.9075" stop-color="white"/>
</linearGradient>
<linearGradient id="paint10_linear_171_2251" x1="238.998" y1="40.0342" x2="243.063" y2="40.0342" gradientUnits="userSpaceOnUse">
<stop stop-color="#FBCC28"/>
<stop offset="0.2712" stop-color="#FCDD71"/>
<stop offset="0.5785" stop-color="#FEEFBD"/>
<stop offset="0.7984" stop-color="#FFFBED"/>
<stop offset="0.9075" stop-color="white"/>
</linearGradient>
<linearGradient id="paint11_linear_171_2251" x1="200.991" y1="65.0143" x2="205.058" y2="65.0143" gradientUnits="userSpaceOnUse">
<stop stop-color="#D10037"/>
<stop offset="0.5498" stop-color="#EF2459"/>
<stop offset="0.9075" stop-color="#FF366B"/>
</linearGradient>
<linearGradient id="paint12_linear_171_2251" x1="149.991" y1="93.0143" x2="154.058" y2="93.0143" gradientUnits="userSpaceOnUse">
<stop stop-color="#D10037"/>
<stop offset="0.5498" stop-color="#EF2459"/>
<stop offset="0.9075" stop-color="#FF366B"/>
</linearGradient>
<linearGradient id="paint13_linear_171_2251" x1="145.404" y1="52.6459" x2="119.244" y2="65.3755" gradientUnits="userSpaceOnUse">
<stop stop-color="#FBCC28"/>
<stop offset="0.2712" stop-color="#FCDD71"/>
<stop offset="0.5785" stop-color="#FEEFBD"/>
<stop offset="0.7984" stop-color="#FFFBED"/>
<stop offset="0.9075" stop-color="white"/>
</linearGradient>
<linearGradient id="paint14_linear_171_2251" x1="132.223" y1="55.7018" x2="113.527" y2="68.9335" gradientUnits="userSpaceOnUse">
<stop stop-color="#FBCC28"/>
<stop offset="0.2712" stop-color="#FCDD71"/>
<stop offset="0.5785" stop-color="#FEEFBD"/>
<stop offset="0.7984" stop-color="#FFFBED"/>
<stop offset="0.9075" stop-color="white"/>
</linearGradient>
<linearGradient id="paint15_linear_171_2251" x1="138.935" y1="58.5665" x2="123.634" y2="57.9862" gradientUnits="userSpaceOnUse">
<stop stop-color="#FBCC28"/>
<stop offset="0.2712" stop-color="#FCDD71"/>
<stop offset="0.5785" stop-color="#FEEFBD"/>
<stop offset="0.7984" stop-color="#FFFBED"/>
<stop offset="0.9075" stop-color="white"/>
</linearGradient>
<linearGradient id="paint16_linear_171_2251" x1="138.202" y1="58.5388" x2="124.367" y2="58.0141" gradientUnits="userSpaceOnUse">
<stop stop-color="#FBCC28"/>
<stop offset="0.3111" stop-color="#FDA330"/>
<stop offset="0.7088" stop-color="#FE7339"/>
<stop offset="0.9075" stop-color="#FF613D"/>
</linearGradient>
<linearGradient id="paint17_linear_171_2251" x1="261.727" y1="63.2766" x2="295.999" y2="63.2766" gradientUnits="userSpaceOnUse">
<stop stop-color="#FBCC28"/>
<stop offset="0.2712" stop-color="#FCDD71"/>
<stop offset="0.5785" stop-color="#FEEFBD"/>
<stop offset="0.7984" stop-color="#FFFBED"/>
<stop offset="0.9075" stop-color="white"/>
</linearGradient>
<linearGradient id="paint18_linear_171_2251" x1="249.002" y1="63.4484" x2="274.452" y2="63.4484" gradientUnits="userSpaceOnUse">
<stop stop-color="#FBCC28"/>
<stop offset="0.2712" stop-color="#FCDD71"/>
<stop offset="0.5785" stop-color="#FEEFBD"/>
<stop offset="0.7984" stop-color="#FFFBED"/>
<stop offset="0.9075" stop-color="white"/>
</linearGradient>
<linearGradient id="paint19_linear_171_2251" x1="250.221" y1="63.4484" x2="273.233" y2="63.4484" gradientUnits="userSpaceOnUse">
<stop stop-color="#FBCC28"/>
<stop offset="0.3111" stop-color="#FDA330"/>
<stop offset="0.7088" stop-color="#FE7339"/>
<stop offset="0.9075" stop-color="#FF613D"/>
</linearGradient>
<linearGradient id="paint20_linear_171_2251" x1="103.011" y1="100.879" x2="159.959" y2="109.067" gradientUnits="userSpaceOnUse">
<stop stop-color="#FBCC28"/>
<stop offset="0.2712" stop-color="#FCDD71"/>
<stop offset="0.5785" stop-color="#FEEFBD"/>
<stop offset="0.7984" stop-color="#FFFBED"/>
<stop offset="0.9075" stop-color="white"/>
</linearGradient>
<linearGradient id="paint21_linear_171_2251" x1="197.027" y1="45.9981" x2="197.027" y2="15.3592" gradientUnits="userSpaceOnUse">
<stop stop-color="#5A2BE0"/>
<stop offset="1" stop-color="#A66BFF"/>
</linearGradient>
<linearGradient id="paint22_linear_171_2251" x1="190.212" y1="45.2124" x2="190.212" y2="18.3375" gradientUnits="userSpaceOnUse">
<stop stop-color="#FFFF00"/>
<stop offset="1" stop-color="#FFBE3B"/>
</linearGradient>
<linearGradient id="paint23_linear_171_2251" x1="201.973" y1="45.3997" x2="201.973" y2="18.336" gradientUnits="userSpaceOnUse">
<stop stop-color="#FFFF00"/>
<stop offset="1" stop-color="#FFBE3B"/>
</linearGradient>
<linearGradient id="paint24_linear_171_2251" x1="191.681" y1="19.5753" x2="191.681" y2="15.3403" gradientUnits="userSpaceOnUse">
<stop stop-color="#E8CD1D"/>
<stop offset="1" stop-color="#FFFF3B"/>
</linearGradient>
<linearGradient id="paint25_linear_171_2251" x1="202.124" y1="19.2651" x2="202.124" y2="15.7836" gradientUnits="userSpaceOnUse">
<stop stop-color="#E82E86"/>
<stop offset="1" stop-color="#FF003B"/>
</linearGradient>
<linearGradient id="paint26_linear_171_2251" x1="189.743" y1="22.8663" x2="189.743" y2="10.5324" gradientUnits="userSpaceOnUse">
<stop stop-color="#FFFF00"/>
<stop offset="1" stop-color="#FFBE3B"/>
</linearGradient>
<linearGradient id="paint27_linear_171_2251" x1="204.438" y1="19.8094" x2="204.438" y2="8.00001" gradientUnits="userSpaceOnUse">
<stop stop-color="#FFFF00"/>
<stop offset="1" stop-color="#FFBE3B"/>
</linearGradient>
<linearGradient id="paint28_linear_171_2251" x1="197.448" y1="20.1249" x2="197.448" y2="17.4043" gradientUnits="userSpaceOnUse">
<stop stop-color="#FFFF00"/>
<stop offset="1" stop-color="#FFBE3B"/>
</linearGradient>
</defs>
</svg>
