<svg width="20" height="15" viewBox="0 0 25 17" fill="none" xmlns="http://www.w3.org/2000/svg">
<rect width="25" height="17" rx="5" fill="#FFC042"/>
<path d="M6 8.5C5.72386 8.5 5.5 8.72386 5.5 9C5.5 9.27614 5.72386 9.5 6 9.5V8.5ZM19.3536 9.35355C19.5488 9.15829 19.5488 8.84171 19.3536 8.64645L16.1716 5.46447C15.9763 5.2692 15.6597 5.2692 15.4645 5.46447C15.2692 5.65973 15.2692 5.97631 15.4645 6.17157L18.2929 9L15.4645 11.8284C15.2692 12.0237 15.2692 12.3403 15.4645 12.5355C15.6597 12.7308 15.9763 12.7308 16.1716 12.5355L19.3536 9.35355ZM6 9.5L19 9.5V8.5L6 8.5V9.5Z" fill="#493B83"/>
</svg>
