<svg width="20" height="20" viewBox="0 0 23 28" fill="none" xmlns="http://www.w3.org/2000/svg">
<path d="M17.7588 26.7168C15.7322 27.6619 13.6853 27.7582 11.6181 27.0058C9.55084 26.2534 8.04472 24.8638 7.0997 22.8372L0.628359 8.9594C-0.0495908 7.50553 -0.112292 6.01954 0.440256 4.50143C0.992804 2.98332 1.99601 1.88528 3.44988 1.20733C4.90375 0.529384 6.38974 0.466683 7.90785 1.01923C9.42597 1.57178 10.524 2.57499 11.2019 4.02886L17.057 16.585C17.4884 17.5102 17.5336 18.4411 17.1927 19.3778C16.8518 20.3146 16.2187 20.9986 15.2935 21.43C14.3683 21.8615 13.4374 21.9067 12.5007 21.5658C11.564 21.2248 10.8799 20.5918 10.4485 19.6666L5.05569 8.10172C4.92216 7.81535 4.90568 7.53501 5.00625 7.26069C5.10554 6.98591 5.29836 6.78175 5.58473 6.64821C5.8711 6.51467 6.15188 6.49799 6.42708 6.59815C6.70099 6.69785 6.90471 6.89088 7.03824 7.17725L12.431 18.7421C12.6057 19.1166 12.8788 19.3711 13.2505 19.5057C13.6217 19.6415 13.9946 19.6221 14.369 19.4475C14.7435 19.2729 14.9985 18.9995 15.1339 18.6274C15.2689 18.2566 15.249 17.884 15.0744 17.5095L9.2194 4.95333C8.78798 4.02815 8.10391 3.39508 7.1672 3.05415C6.2305 2.71322 5.29955 2.75846 4.37436 3.18988C3.44917 3.62131 2.81611 4.30537 2.47517 5.24208C2.13424 6.17879 2.17948 7.10974 2.61091 8.03493L9.08225 21.9128C9.7602 23.3666 10.8582 24.3698 12.3763 24.9224C13.8945 25.4749 15.3805 25.4122 16.8343 24.7343C18.2882 24.0563 19.2914 22.9583 19.8439 21.4402C20.3965 19.9221 20.3338 18.4361 19.6558 16.9822L13.6467 4.09565C13.5132 3.80929 13.4967 3.52894 13.5973 3.25463C13.6966 2.97984 13.8894 2.77568 14.1758 2.64214C14.4621 2.50861 14.7429 2.49192 15.0181 2.59208C15.292 2.69178 15.4957 2.88481 15.6293 3.17118L21.6384 16.0577C22.5834 18.0843 22.6797 20.1313 21.9273 22.1985C21.1749 24.2657 19.7854 25.7718 17.7588 26.7168Z" fill="white"/>
</svg>
