<svg width="9" height="17" viewBox="0 0 9 17" fill="none" xmlns="http://www.w3.org/2000/svg">
<path d="M6.8104 16.3348C6.63611 16.3354 6.4639 16.2969 6.30642 16.2222C6.14894 16.1475 6.01021 16.0385 5.9004 15.9031L0.265403 8.90313C0.0938073 8.69437 0 8.43252 0 8.16229C0 7.89207 0.0938073 7.63022 0.265403 7.42146L6.09874 0.421461C6.29676 0.183208 6.58133 0.0333798 6.88982 0.00493675C7.19832 -0.0235063 7.50548 0.071766 7.74374 0.269794C7.98199 0.467823 8.13182 0.752386 8.16026 1.06088C8.1887 1.36938 8.09343 1.67654 7.8954 1.91479L2.6804 8.16813L7.7204 14.4215C7.86307 14.5927 7.95369 14.8012 7.98155 15.0224C8.00941 15.2435 7.97334 15.468 7.87761 15.6693C7.78187 15.8706 7.63049 16.0402 7.44136 16.1582C7.25223 16.2761 7.03328 16.3374 6.8104 16.3348Z" fill="white"/>
</svg>
