<svg width="22" height="22" viewBox="0 0 24 24" fill="none" xmlns="http://www.w3.org/2000/svg">
<rect width="24" height="24" fill="white"/>
<path d="M20.2717 5.86572H19.8831L18.849 2.19884C18.7227 1.7485 18.4103 1.3733 17.9903 1.16754C17.5703 0.961767 17.0823 0.944745 16.649 1.12088L4.52735 5.86562H3.72806C3.00634 5.86759 2.31475 6.15455 1.80373 6.66433C1.2927 7.17393 1.00394 7.86477 1 8.58649V19.2791C1.00196 20.0015 1.29022 20.6935 1.80159 21.2036C2.31295 21.7137 3.00567 22 3.72806 22H20.2719C20.9943 22 21.687 21.7137 22.1984 21.2036C22.7098 20.6935 22.998 20.0015 23 19.2791V8.58649C22.9961 7.86473 22.7073 7.17393 22.1963 6.66433C21.6852 6.15457 20.9934 5.86769 20.2717 5.86572ZM17.1991 2.51427C17.2462 2.49545 17.2987 2.49545 17.3457 2.51427C17.3899 2.53801 17.4238 2.57713 17.4412 2.62428L18.3578 5.85851L8.57522 5.85835L17.1991 2.51427ZM21.5332 15.0328H18.644C18.2509 15.0328 17.8879 14.8231 17.6913 14.4828C17.4949 14.1424 17.4949 13.723 17.6913 13.3827C17.8879 13.0424 18.2509 12.8327 18.644 12.8327H21.5332V15.0328ZM18.644 11.3659C17.727 11.3659 16.8796 11.8552 16.4212 12.6493C15.9628 13.4436 15.9628 14.422 16.4212 15.2162C16.8796 16.0104 17.727 16.4996 18.644 16.4996H21.5332V19.279C21.5313 19.6123 21.3975 19.9313 21.1612 20.1663C20.925 20.4014 20.6051 20.5331 20.2718 20.5331H3.72796C3.39469 20.5331 3.07484 20.4014 2.83862 20.1663C2.60225 19.9314 2.46852 19.6123 2.46655 19.279V8.58638C2.46852 8.25243 2.60193 7.93271 2.83813 7.69652C3.07417 7.46047 3.39403 7.32689 3.72793 7.32492H20.2718C20.6057 7.32689 20.9256 7.46047 21.1616 7.69652C21.3978 7.93274 21.5312 8.25246 21.5332 8.58638V11.3585L18.644 11.3659Z" fill="#493B83"/>
</svg>
