<svg width="543" height="598" viewBox="0 0 543 598" fill="none" xmlns="http://www.w3.org/2000/svg">
<g filter="url(#filter0_f_194_3064)">
<path d="M262.69 518C358.616 518 436.38 449.469 436.38 364.931C436.38 280.393 358.616 211.862 262.69 211.862C166.764 211.862 89 280.393 89 364.931C89 449.469 166.764 518 262.69 518Z" fill="#4D3A9D"/>
</g>
<g filter="url(#filter1_f_194_3064)">
<path d="M442.725 346.69C442.725 429.913 366.204 497.379 271.811 497.379C177.418 497.379 100.897 429.913 100.897 346.69C100.897 263.466 177.418 196 271.811 196C366.204 196 442.725 263.466 442.725 346.69Z" fill="white" fill-opacity="0.35"/>
</g>
<path opacity="0.3" d="M171.273 387.575L259.944 422.692C260.81 423.037 261.773 423.037 262.638 422.692L352.107 387.202C355.875 385.705 354.803 380.081 350.753 380.096L172.606 380.468C168.571 380.468 167.512 386.085 171.273 387.575Z" fill="#4F3147"/>
<path d="M352.272 286.14V267.573L261.697 237.175V246.172L352.272 286.14Z" fill="#7F3352"/>
<path d="M171.115 286.14V267.573L261.697 237.175V246.172L171.115 286.14Z" fill="#6D2956"/>
<path d="M261.696 240.749L174.594 270.002V382.765L261.696 341.721V240.749Z" fill="#723372"/>
<path d="M261.697 240.749L348.793 270.002V382.765L261.697 341.721V240.749Z" fill="#5B2B59"/>
<path opacity="0.3" d="M261.696 266.048L174.594 295.302L260.548 339.734L348.793 295.302L261.696 266.048Z" fill="#4F3147"/>
<path d="M261.697 417.476L348.793 382.793V270.03L261.697 304.713V417.476Z" fill="#EF5E71"/>
<path opacity="0.3" d="M292.398 405.25L328.977 390.686V279.22L292.398 293.792V405.25Z" fill="#4F3147"/>
<path d="M261.696 417.476L174.594 382.793V270.03L261.696 304.713V417.476Z" fill="#A34066"/>
<path opacity="0.3" d="M202.152 393.763L238.732 408.328V298.276L202.152 283.704V393.763Z" fill="#4F3147"/>
<path d="M197.682 391.983L234.262 406.548V293.792L197.682 279.22V391.983Z" fill="#EBB026"/>
<path d="M325.711 391.983L289.131 406.548V293.792L325.711 279.22V391.983Z" fill="#EBB026"/>
<path opacity="0.3" d="M348.793 273.562L261.67 308.004L174.594 273.562V300.214L261.696 330.772L348.793 300.214V273.562Z" fill="#4F3147"/>
<path d="M171.115 267.601V294.253L261.697 325.77V299.173L171.115 267.601Z" fill="#5B2B59"/>
<path d="M352.272 267.601V294.253L261.697 325.832V299.173L352.272 267.601Z" fill="#723372"/>
<path d="M261.697 237.175L171.115 267.601L261.69 299.179L352.272 267.601L261.697 237.175ZM261.697 294.95L181.799 267.594L261.697 241.398L341.594 267.594L261.697 294.95Z" fill="#B765A8"/>
<path d="M261.811 294.942L339.24 263.27L491 0L41 2.6393L183.522 263.27L261.811 294.942Z" fill="url(#paint0_linear_194_3064)"/>
<path opacity="0.5" d="M237.914 251.74L237.584 250.318L238.993 250.69L240.244 249.939L240.32 251.401L241.42 252.36L240.058 252.885L239.495 254.23L238.574 253.099L237.123 252.968L237.914 251.74Z" fill="#EBB026"/>
<path opacity="0.3" d="M222.113 274.287L222.608 273.549L223.034 274.335L223.887 274.576L223.274 275.225L223.309 276.115L222.505 275.729L221.672 276.039L221.79 275.148L221.239 274.452L222.113 274.287Z" fill="#EBB026"/>
<path opacity="0.3" d="M234.647 264.096L235.142 263.351L235.562 264.137L236.421 264.379L235.809 265.028L235.843 265.924L235.039 265.531L234.207 265.841L234.324 264.959L233.767 264.255L234.647 264.096Z" fill="#EBB026"/>
<path opacity="0.3" d="M211.352 270.733L211.847 269.996L212.273 270.782L213.132 271.023L212.513 271.672L212.549 272.562L211.75 272.176L210.912 272.486L211.029 271.602L210.478 270.899L211.352 270.733Z" fill="#EBB026"/>
<path opacity="0.3" d="M248.654 269.526L249.149 268.788L249.575 269.575L250.434 269.816L249.815 270.464L249.849 271.354L249.052 270.968L248.213 271.279L248.33 270.395L247.78 269.691L248.654 269.526Z" fill="#EBB026"/>
<path opacity="0.3" d="M288.018 270.995L288.513 270.25L288.939 271.037L289.798 271.279L289.179 271.928L289.214 272.824L288.416 272.43L287.577 272.741L287.695 271.858L287.144 271.155L288.018 270.995Z" fill="#EBB026"/>
<path opacity="0.3" d="M277.966 269.009L278.461 268.271L278.88 269.057L279.739 269.298L279.127 269.947L279.161 270.837L278.358 270.451L277.525 270.761L277.642 269.878L277.085 269.174L277.966 269.009Z" fill="#EBB026"/>
<path opacity="0.3" d="M263.87 270.306L264.365 269.56L264.785 270.347L265.644 270.588L265.033 271.237L265.067 272.134L264.262 271.741L263.43 272.052L263.547 271.168L262.99 270.464L263.87 270.306Z" fill="#EBB026"/>
<path opacity="0.3" d="M254.628 260.212L255.123 259.474L255.542 260.26L256.403 260.501L255.79 261.15L255.825 262.04L255.02 261.654L254.188 261.964L254.305 261.075L253.755 260.377L254.628 260.212Z" fill="#EBB026"/>
<path opacity="0.3" d="M308.198 249.594L308.694 248.849L309.112 249.635L309.973 249.877L309.36 250.525L309.395 251.416L308.59 251.029L307.758 251.339L307.876 250.457L307.319 249.753L308.198 249.594Z" fill="#EBB026"/>
<path opacity="0.3" d="M236.016 276.314L235.933 275.425L236.758 275.77L237.576 275.418L237.501 276.308L238.092 276.984L237.226 277.191L236.766 277.956L236.304 277.191L235.438 276.998L236.016 276.314Z" fill="#EBB026"/>
<path opacity="0.3" d="M252.689 279.247L252.607 278.357L253.432 278.703L254.25 278.351L254.174 279.241L254.766 279.916L253.899 280.123L253.439 280.889L252.978 280.123L252.111 279.931L252.689 279.247Z" fill="#EBB026"/>
<path opacity="0.3" d="M267.356 276.502L267.871 275.777L268.27 276.578L269.116 276.847L268.483 277.475L268.49 278.372L267.699 277.957L266.854 278.233L266.999 277.357L266.468 276.632L267.356 276.502Z" fill="#EBB026"/>
<path opacity="0.3" d="M280.159 280.213L280.681 279.489L281.072 280.283L281.926 280.558L281.286 281.179L281.293 282.076L280.502 281.662L279.656 281.944L279.808 281.062L279.279 280.345L280.159 280.213Z" fill="#EBB026"/>
<path opacity="0.15" d="M246.308 283.898L246.247 283.249L246.852 283.497L247.443 283.242L247.395 283.891L247.822 284.38L247.188 284.532L246.858 285.091L246.522 284.532L245.882 284.387L246.308 283.898Z" fill="#EBB026"/>
<path opacity="0.15" d="M256.093 288.623L256.037 287.975L256.635 288.223L257.234 287.968L257.179 288.617L257.605 289.106L256.973 289.259L256.643 289.817L256.305 289.265L255.673 289.12L256.093 288.623Z" fill="#EBB026"/>
<path opacity="0.15" d="M261.126 283.953L260.796 283.394L261.443 283.366L261.876 282.877L262.103 283.484L262.701 283.746L262.193 284.152L262.131 284.801L261.587 284.442L260.955 284.581L261.126 283.953Z" fill="#EBB026"/>
<path opacity="0.15" d="M294.206 279.171L293.876 278.612L294.522 278.577L294.956 278.088L295.183 278.701L295.781 278.957L295.271 279.365L295.209 280.012L294.673 279.661L294.035 279.799L294.206 279.171Z" fill="#EBB026"/>
<path opacity="0.15" d="M300.367 273.003L300.037 272.445L300.683 272.41L301.109 271.92L301.343 272.534L301.934 272.789L301.433 273.196L301.371 273.845L300.827 273.487L300.195 273.632L300.367 273.003Z" fill="#EBB026"/>
<path opacity="0.15" d="M268.765 288.403L268.435 287.837L269.081 287.809L269.514 287.32L269.741 287.927L270.339 288.189L269.831 288.595L269.769 289.244L269.232 288.886L268.593 289.031L268.765 288.403Z" fill="#EBB026"/>
<path opacity="0.5" d="M218.771 265.421L217.946 264.214L219.397 264.048L220.284 262.888L220.889 264.22L222.264 264.718L221.185 265.704L221.143 267.16L219.878 266.441L218.482 266.856L218.771 265.421Z" fill="#EBB026"/>
<path opacity="0.5" d="M271.371 261.109L270.546 259.901L271.997 259.736L272.883 258.577L273.489 259.908L274.864 260.405L273.785 261.391L273.743 262.847L272.478 262.13L271.082 262.544L271.371 261.109Z" fill="#EBB026"/>
<path opacity="0.5" d="M318.815 246.275L317.99 245.068L319.44 244.902L320.327 243.743L320.932 245.075L322.307 245.572L321.227 246.558L321.186 248.014L319.922 247.296L318.526 247.71L318.815 246.275Z" fill="#EBB026"/>
<path opacity="0.5" d="M323.345 254.672L323.071 253.237L324.466 253.664L325.738 252.96L325.766 254.416L326.832 255.417L325.449 255.893L324.838 257.217L323.958 256.051L322.514 255.872L323.345 254.672Z" fill="#EBB026"/>
<path opacity="0.5" d="M292.143 262.986L291.015 262.068L292.349 261.496L292.872 260.129L293.827 261.227L295.286 261.302L294.536 262.557L294.921 263.966L293.497 263.641L292.281 264.441L292.143 262.986Z" fill="#EBB026"/>
<path opacity="0.5" d="M308.926 264.158L309.243 262.737L310.35 263.689L311.801 263.551L311.237 264.904L311.815 266.249L310.364 266.125L309.271 267.09L308.934 265.669L307.682 264.923L308.926 264.158Z" fill="#EBB026"/>
<path opacity="0.75" d="M220.654 253.423L219.294 251.83L221.329 251.367L222.408 249.573L223.481 251.374L225.516 251.857L224.141 253.43L224.313 255.52L222.394 254.693L220.47 255.507L220.654 253.423Z" fill="#EBB026"/>
<path opacity="0.75" d="M288.472 251.264L287.103 249.676L289.138 249.208L290.224 247.421L291.297 249.221L293.326 249.697L291.951 251.277L292.129 253.361L290.205 252.539L288.279 253.347L288.472 251.264Z" fill="#EBB026"/>
<path opacity="0.75" d="M256.155 248.504L254.786 246.917L256.821 246.448L257.908 244.661L258.98 246.461L261.009 246.937L259.633 248.517L259.813 250.601L257.887 249.78L255.962 250.587L256.155 248.504Z" fill="#EBB026"/>
<path opacity="0.9" d="M214.37 236.995L213.627 233.925L216.681 234.705L219.363 233.049L219.562 236.195L221.961 238.244L219.039 239.41L217.842 242.335L215.828 239.907L212.693 239.666L214.37 236.995Z" fill="#EBB026"/>
<path opacity="0.9" d="M242.898 236.457L241.249 233.767L244.391 233.56L246.426 231.152L247.595 234.091L250.504 235.291L248.083 237.305L247.85 240.459L245.181 238.776L242.129 239.521L242.898 236.457Z" fill="#EBB026"/>
<path opacity="0.9" d="M274.259 241.48L271.605 239.782L274.342 238.223L275.133 235.167L277.457 237.299L280.599 237.113L279.292 239.983L280.447 242.929L277.319 242.57L274.886 244.578L274.259 241.48Z" fill="#EBB026"/>
<path opacity="0.9" d="M264.461 223.597L262.721 220.961L265.856 220.651L267.816 218.181L269.075 221.078L272.024 222.182L269.672 224.28L269.535 227.433L266.819 225.833L263.787 226.681L264.461 223.597Z" fill="#EBB026"/>
<path opacity="0.9" d="M300.188 234.54L298.599 231.814L301.748 231.683L303.839 229.324L304.939 232.283L307.82 233.56L305.351 235.52L305.036 238.658L302.416 236.912L299.342 237.582L300.188 234.54Z" fill="#EBB026"/>
<path d="M187.444 228.081L187.761 223.224L191.901 225.777L196.603 224.584L195.455 229.316L198.047 233.436L193.207 233.801L190.099 237.547L188.256 233.042L183.745 231.235L187.444 228.081Z" fill="#EBB026"/>
<path d="M330.476 223.749L334.004 220.395L335.303 225.087L339.573 227.419L335.523 230.11L334.636 234.905L330.834 231.869L326.021 232.505L327.712 227.944L325.629 223.542L330.476 223.749Z" fill="#EBB026"/>
<path opacity="0.9" d="M198.714 254.465L195.675 252.229L199.065 250.587L200.248 246.999L202.847 249.725L206.609 249.745L204.834 253.071L205.975 256.666L202.276 255.996L199.224 258.204L198.714 254.465Z" fill="#EBB026"/>
<path opacity="0.19" d="M348.759 382.835L348.793 380.089V300.214V295.468L352.272 294.253V286.14V275.176L288.733 233.953L306.672 309.963L340.962 385.87L348.759 382.835Z" fill="#443140"/>
<path d="M343.856 310.736L320.362 319.45L286.566 230.475L310.061 221.761L343.856 310.736Z" fill="#5B2B59"/>
<path d="M310.151 292.556L333.789 284.229L320.753 249.918L297.115 258.246L310.151 292.556Z" fill="#E09424"/>
<path d="M343.856 310.736L320.361 319.45L383.049 382.427L406.543 373.714L343.856 310.736Z" fill="#723372"/>
<path d="M372.48 284.421L310.068 221.768L310.061 221.761L343.856 310.736L406.543 373.714L372.48 284.421Z" fill="#964096"/>
<path d="M366.822 366.124L390.639 357.735L361.967 328.93L338.156 337.319L366.822 366.124Z" fill="#E09424"/>
<path d="M320.753 249.918L383.206 312.523L396.36 346.916L333.789 284.229L320.753 249.918Z" fill="#EBB026"/>
<path d="M327.526 239.314L361.967 328.93L390.639 357.735L356.26 268.139L327.526 239.314Z" fill="#EBB026"/>
<path d="M365.034 298.944C365.034 298.944 356.363 262.944 367.248 258.031C375.484 254.312 379.438 262.882 379.438 262.882C379.438 262.882 389.951 262.033 390.983 271.865C392.014 281.697 365.034 298.944 365.034 298.944Z" fill="#EBB026"/>
<path d="M365.034 298.944C365.034 298.944 378.545 267.705 370.383 262.344C362.215 256.976 363.005 287.312 365.034 298.944Z" fill="#C1701F"/>
<path d="M370.383 262.337C368.493 261.095 367.082 261.771 366.051 263.689C367.709 263.544 370.802 264.317 370.768 272.14C370.72 282.82 365.034 298.938 365.034 298.938C365.034 298.938 378.545 267.697 370.383 262.337Z" fill="#844B17"/>
<path d="M383.536 263.296C381.302 262.737 379.432 262.882 379.432 262.882C379.432 262.882 385.585 273.59 369.496 292.921C369.496 292.921 391.718 274.583 383.536 263.296Z" fill="#E09424"/>
<path d="M368.643 296.509C386.912 279.44 390.977 274.666 389.223 266.939C388.659 266.151 388.006 265.517 387.304 265C390.11 273.051 387.957 276.549 368.127 295.122C373.188 285.933 380.209 270.761 378.689 261.612C378.207 260.888 377.479 259.963 376.517 259.142C380.587 267.304 371.208 287.658 364.854 298.172C364.965 298.669 365.034 298.944 365.034 298.944C365.034 298.944 366.464 298.027 368.643 296.509Z" fill="#FFE0A1"/>
<path d="M365.095 298.91C365.095 298.91 331.149 313.454 324.521 303.505C319.502 295.971 327.271 290.638 327.271 290.638C327.271 290.638 324.693 280.379 334.188 277.722C343.67 275.065 365.095 298.91 365.095 298.91Z" fill="#EBB026"/>
<path d="M365.096 298.91C365.096 298.91 332.153 290.72 328.234 299.69C324.322 308.652 353.998 302.843 365.096 298.91Z" fill="#C1701F"/>
<path d="M328.235 299.69C327.327 301.767 328.227 303.05 330.283 303.746C329.864 302.132 330.112 298.938 337.812 297.676C348.318 295.951 365.096 298.91 365.096 298.91C365.096 298.91 332.147 290.72 328.235 299.69Z" fill="#844B17"/>
<path d="M326.989 286.512C326.811 288.817 327.265 290.638 327.265 290.638C327.265 290.638 336.767 282.773 358.432 295.488C358.432 295.488 336.726 276.542 326.989 286.512Z" fill="#E09424"/>
<path d="M362.097 295.737C342.295 280.49 336.933 277.26 329.623 280.275C328.942 280.958 328.427 281.718 328.042 282.497C335.488 278.391 339.283 279.937 360.826 296.475C350.952 292.991 334.883 288.561 326.144 291.576C325.512 292.176 324.728 293.046 324.075 294.136C331.418 288.755 352.981 294.661 364.367 299.207C364.834 299.014 365.096 298.904 365.096 298.904C365.096 298.904 363.961 297.648 362.097 295.737Z" fill="#FFE0A1"/>
<path d="M365.096 298.91C365.096 298.91 331.109 284.456 333.66 272.761C335.592 263.903 344.805 265.82 344.805 265.82C344.805 265.82 350.389 256.844 358.873 261.861C367.351 266.89 365.096 298.91 365.096 298.91Z" fill="#EBB026"/>
<path d="M365.096 298.91C365.096 298.91 348.126 269.415 338.975 272.803C329.816 276.19 354.576 293.611 365.096 298.91Z" fill="#C1701F"/>
<path d="M338.975 272.803C336.85 273.59 336.554 275.129 337.476 277.095C338.349 275.673 340.81 273.638 347.054 278.329C355.573 284.725 365.089 298.91 365.089 298.91C365.089 298.91 348.127 269.415 338.975 272.803Z" fill="#844B17"/>
<path d="M347.57 262.764C345.788 264.234 344.798 265.828 344.798 265.828C344.798 265.828 357.031 267.242 362.93 291.728C362.93 291.721 361.479 262.888 347.57 262.764Z" fill="#E09424"/>
<path d="M365.295 294.55C362.51 269.663 361.107 263.544 353.874 260.35C352.911 260.336 352.011 260.48 351.179 260.743C359.292 263.281 360.812 267.097 363.871 294.136C359.526 284.581 351.563 269.891 343.333 265.669C342.466 265.628 341.298 265.662 340.061 265.952C349.02 267.532 359.726 287.216 364.359 298.6C364.82 298.807 365.081 298.917 365.081 298.917C365.081 298.917 365.212 297.213 365.295 294.55Z" fill="#FFE0A1"/>
<path d="M365.034 298.944C365.034 298.944 390.879 325.39 400.787 318.726C408.295 313.681 403.139 305.783 403.139 305.783C403.139 305.783 409.424 297.283 401.661 291.196C393.898 285.104 365.034 298.944 365.034 298.944Z" fill="#EBB026"/>
<path d="M365.034 298.944C365.034 298.944 398.601 303.989 398.808 313.779C399.014 323.562 373.793 306.824 365.034 298.944Z" fill="#C1701F"/>
<path d="M398.808 313.771C398.855 316.042 397.536 316.883 395.37 316.738C396.366 315.406 397.356 312.357 390.722 308.245C381.666 302.629 365.034 298.938 365.034 298.938C365.034 298.938 398.601 303.988 398.808 313.771Z" fill="#844B17"/>
<path d="M404.968 302.07C404.26 304.271 403.146 305.783 403.146 305.783C403.146 305.783 397.356 294.874 372.494 298.331C372.487 298.331 399.757 289.127 404.968 302.07Z" fill="#E09424"/>
<path d="M369.001 297.157C393.101 290.645 399.289 289.714 404.9 295.302C405.264 296.192 405.457 297.089 405.519 297.958C400.196 291.307 396.099 291.286 369.902 298.331C380.353 298.889 396.889 300.953 403.82 307.086C404.178 307.88 404.57 308.983 404.756 310.246C400.011 302.463 377.836 299.669 365.584 299.504C365.226 299.145 365.027 298.944 365.027 298.944C365.027 298.944 366.561 298.206 369.001 297.157Z" fill="#FFE0A1"/>
<path d="M365.096 298.91C365.096 298.91 334.822 320.099 339.723 331.013C343.437 339.279 352.059 335.491 352.059 335.491C352.059 335.491 359.368 343.115 366.636 336.443C373.904 329.765 365.096 298.91 365.096 298.91Z" fill="#EBB026"/>
<path d="M365.096 298.91C365.096 298.91 354.575 331.289 344.921 329.874C335.261 328.454 355.896 306.272 365.096 298.91Z" fill="#C1701F"/>
<path d="M344.915 329.868C342.68 329.536 342.068 328.095 342.563 325.977C343.711 327.19 346.538 328.667 351.681 322.783C358.7 314.751 365.088 298.904 365.088 298.904C365.088 298.904 354.568 331.289 344.915 329.868Z" fill="#844B17"/>
<path d="M355.393 337.906C353.352 336.836 352.052 335.484 352.052 335.484C352.052 335.484 363.727 331.565 364.456 306.383C364.456 306.389 368.98 334.898 355.393 337.906Z" fill="#E09424"/>
<path d="M366.189 303.133C368.589 328.061 368.478 334.338 362.063 338.961C361.122 339.175 360.214 339.217 359.347 339.134C366.767 334.966 367.467 330.916 364.89 303.829C362.607 314.082 357.841 330.102 350.663 335.946C349.824 336.166 348.669 336.373 347.404 336.346C355.841 332.944 362.262 311.467 364.456 299.365C364.869 299.068 365.096 298.904 365.096 298.904C365.096 298.904 365.556 300.539 366.189 303.133Z" fill="#FFE0A1"/>
<path d="M365.096 298.91C365.096 298.91 359.313 335.491 370.548 339.513C379.053 342.563 382.313 333.704 382.313 333.704C382.313 333.704 392.86 333.711 393.108 323.824C393.355 313.937 365.096 298.91 365.096 298.91Z" fill="#EBB026"/>
<path d="M365.095 298.91C365.095 298.91 381.047 328.971 373.332 334.966C365.617 340.962 363.995 310.666 365.095 298.91Z" fill="#C1701F"/>
<path d="M373.332 334.966C371.545 336.353 370.087 335.794 368.911 333.966C370.575 333.98 373.6 332.959 372.94 325.162C372.047 314.524 365.096 298.91 365.096 298.91C365.096 298.91 381.041 328.971 373.332 334.966Z" fill="#844B17"/>
<path d="M386.369 332.965C384.183 333.704 382.313 333.704 382.313 333.704C382.313 333.704 387.593 322.54 370.025 304.554C370.025 304.554 393.63 321.057 386.369 332.965Z" fill="#E09424"/>
<path d="M368.883 301.049C388.445 316.6 392.88 321.036 391.746 328.881C391.251 329.709 390.645 330.399 389.986 330.965C392.138 322.713 389.718 319.395 368.478 302.478C374.253 311.24 382.45 325.791 381.666 335.036C381.24 335.794 380.593 336.774 379.692 337.671C383.103 329.212 372.135 309.673 364.964 299.696C365.033 299.194 365.081 298.917 365.081 298.917C365.081 298.917 366.587 299.704 368.883 301.049Z" fill="#FFE0A1"/>
<path d="M359.657 301.959C358.832 300.469 359.169 298.607 360.448 297.496L364.546 293.95C366.265 292.466 368.912 292.936 370.012 294.93L371.078 296.861C372.179 298.855 371.181 301.353 369.009 302.029L363.845 303.643C362.229 304.154 360.482 303.443 359.657 301.959Z" fill="#EBB026"/>
<path d="M369.277 295.343L370.342 297.275C371.243 298.91 370.714 300.877 369.304 301.904C371.256 301.097 372.13 298.758 371.078 296.861L370.012 294.93C368.967 293.032 366.526 292.535 364.807 293.771C366.43 293.115 368.375 293.709 369.277 295.343Z" fill="#FFE0A1"/>
<path d="M366.704 302.057C365.089 302.56 363.335 301.856 362.51 300.366C361.686 298.876 362.022 297.012 363.301 295.902L366.526 293.115C365.824 293.184 365.123 293.446 364.539 293.95L360.441 297.496C359.154 298.607 358.824 300.469 359.649 301.959C360.475 303.45 362.221 304.154 363.845 303.65L369.007 302.036C369.75 301.808 370.335 301.353 370.768 300.787L366.704 302.057Z" fill="#C1701F"/>
<path d="M369.874 301.56L364.71 303.174C363.095 303.678 361.341 302.974 360.516 301.483C359.691 299.993 360.028 298.131 361.307 297.02L365.405 293.474C365.467 293.418 365.529 293.384 365.591 293.335C365.22 293.474 364.869 293.673 364.545 293.95L360.448 297.495C359.161 298.607 358.831 300.469 359.657 301.959C360.482 303.45 362.228 304.154 363.851 303.65L369.015 302.036C369.42 301.912 369.778 301.711 370.087 301.47C370.018 301.498 369.95 301.532 369.874 301.56Z" fill="#844B17"/>
<defs>
<filter id="filter0_f_194_3064" x="39" y="161.862" width="447.38" height="406.138" filterUnits="userSpaceOnUse" color-interpolation-filters="sRGB">
<feFlood flood-opacity="0" result="BackgroundImageFix"/>
<feBlend mode="normal" in="SourceGraphic" in2="BackgroundImageFix" result="shape"/>
<feGaussianBlur stdDeviation="25" result="effect1_foregroundBlur_194_3064"/>
</filter>
<filter id="filter1_f_194_3064" x="0.897217" y="96" width="541.828" height="501.379" filterUnits="userSpaceOnUse" color-interpolation-filters="sRGB">
<feFlood flood-opacity="0" result="BackgroundImageFix"/>
<feBlend mode="normal" in="SourceGraphic" in2="BackgroundImageFix" result="shape"/>
<feGaussianBlur stdDeviation="50" result="effect1_foregroundBlur_194_3064"/>
</filter>
<linearGradient id="paint0_linear_194_3064" x1="261.382" y1="294.939" x2="259.402" y2="60.0441" gradientUnits="userSpaceOnUse">
<stop stop-color="white" stop-opacity="0.7"/>
<stop offset="0.203125" stop-color="white" stop-opacity="0.25"/>
<stop offset="1" stop-color="white" stop-opacity="0"/>
</linearGradient>
</defs>
</svg>
