<svg width="22" height="22" viewBox="0 0 24 24" fill="none" xmlns="http://www.w3.org/2000/svg">
<rect width="24" height="24" fill="white"/>
<path d="M22.9998 8.94022C22.9998 7.3105 22.3652 5.77834 21.2134 4.62629C20.0624 3.47308 18.5298 2.83794 16.8978 2.83794C15.2658 2.83794 13.733 3.47308 12.5822 4.62579L11.9997 5.20845L11.4174 4.62612C10.2664 3.47291 8.73377 2.83778 7.10178 2.83778C5.47107 2.83778 3.93911 3.47291 2.78868 4.62546C1.6353 5.778 1 7.31017 1 8.94022C1 10.5701 1.6353 12.1024 2.78851 13.2546L9.95289 20.4206C10.4995 20.9674 11.2266 21.2687 11.9999 21.2688H12C12.7733 21.2688 13.5 20.9676 14.0468 20.4208L21.2133 13.2547H21.2131C22.3655 12.1025 23 10.5703 23 8.94038L22.9998 8.94022ZM20.394 12.4358L13.228 19.6018C12.8999 19.9301 12.4639 20.1107 12 20.1107H11.9999C11.5359 20.1105 11.0996 19.9298 10.7717 19.6017L3.60734 12.4356C2.67285 11.502 2.15821 10.2607 2.15821 8.94022C2.15821 7.61982 2.67285 6.37861 3.608 5.44445C4.54006 4.51046 5.78097 3.99615 7.10199 3.99615C8.42433 3.99615 9.66603 4.5105 10.5986 5.44478L11.5907 6.43692C11.8078 6.65418 12.1921 6.65402 12.4095 6.43692L13.4018 5.44445C14.3339 4.51046 15.5756 3.99615 16.8979 3.99615C18.2203 3.99615 19.462 4.5105 20.3945 5.44478C21.328 6.37845 21.8422 7.61986 21.8422 8.94022C21.8422 10.2608 21.328 11.5021 20.3945 12.4358H20.3944H20.394Z" fill="#493B83"/>
<path d="M19.4102 6.42591C18.7405 5.75487 17.8481 5.38547 16.8974 5.38547C16.337 5.38547 15.8022 5.51098 15.3079 5.75861C15.022 5.90189 14.9063 6.24968 15.0494 6.53559C15.1927 6.82151 15.5407 6.93684 15.8264 6.79404C16.1584 6.62767 16.5186 6.5435 16.8974 6.5435C17.5383 6.5435 18.1399 6.79227 18.591 7.24439C19.2029 7.85629 19.4377 8.75539 19.2037 9.591C19.1176 9.89889 19.2974 10.2184 19.6053 10.3047C19.6575 10.3192 19.71 10.3262 19.7617 10.3262C20.0148 10.3262 20.2474 10.1588 20.319 9.90311C20.6653 8.66509 20.3169 7.33279 19.4102 6.42592L19.4102 6.42591Z" fill="#493B83"/>
</svg>
