<svg width="24" height="24" viewBox="0 0 24 24" fill="none" xmlns="http://www.w3.org/2000/svg">
<path d="M22.9998 8.94021C22.9998 7.31049 22.3652 5.77833 21.2134 4.62628C20.0624 3.47307 18.5298 2.83793 16.8978 2.83793C15.2658 2.83793 13.733 3.47307 12.5822 4.62578L11.9997 5.20844L11.4174 4.62611C10.2664 3.47291 8.73377 2.83777 7.10178 2.83777C5.47107 2.83777 3.93911 3.47291 2.78868 4.62545C1.6353 5.778 1 7.31016 1 8.94021C1 10.5701 1.6353 12.1024 2.78851 13.2545L9.95289 20.4206C10.4995 20.9674 11.2266 21.2686 11.9999 21.2688H12C12.7733 21.2688 13.5 20.9676 14.0468 20.4208L21.2133 13.2547H21.2131C22.3655 12.1025 23 10.5703 23 8.94037L22.9998 8.94021ZM20.394 12.4358L13.228 19.6018C12.8999 19.9301 12.4639 20.1107 12 20.1107H11.9999C11.5359 20.1105 11.0996 19.9298 10.7717 19.6017L3.60734 12.4356C2.67285 11.502 2.15821 10.2607 2.15821 8.94021C2.15821 7.61981 2.67285 6.37861 3.608 5.44445C4.54006 4.51045 5.78097 3.99614 7.10199 3.99614C8.42433 3.99614 9.66603 4.51049 10.5986 5.44478L11.5907 6.43691C11.8078 6.65418 12.1921 6.65402 12.4095 6.43691L13.4018 5.44445C14.3339 4.51045 15.5756 3.99614 16.8979 3.99614C18.2203 3.99614 19.462 4.51049 20.3945 5.44478C21.328 6.37844 21.8422 7.61985 21.8422 8.94021C21.8422 10.2608 21.328 11.5021 20.3945 12.4358H20.3944H20.394Z" fill="url(#paint0_linear_882_1525)"/>
<path d="M19.4105 6.42587C18.7408 5.75484 17.8483 5.38544 16.8976 5.38544C16.3373 5.38544 15.8025 5.51095 15.3081 5.75858C15.0222 5.90186 14.9065 6.24964 15.0497 6.53556C15.1929 6.82148 15.5409 6.93681 15.8266 6.79401C16.1586 6.62763 16.5188 6.54347 16.8976 6.54347C17.5386 6.54347 18.1401 6.79224 18.5913 7.24436C19.2032 7.85626 19.4379 8.75535 19.204 9.59097C19.1179 9.89886 19.2977 10.2184 19.6055 10.3046C19.6577 10.3192 19.7102 10.3261 19.7619 10.3261C20.015 10.3261 20.2476 10.1588 20.3192 9.90308C20.6656 8.66506 20.3171 7.33276 19.4104 6.42589L19.4105 6.42587Z" fill="url(#paint1_linear_882_1525)"/>
<defs>
<linearGradient id="paint0_linear_882_1525" x1="-5.10405" y1="-18.4417" x2="21.7713" y2="-14.0154" gradientUnits="userSpaceOnUse">
<stop stop-color="#FF8D8D"/>
<stop offset="1" stop-color="#F7FC0E"/>
</linearGradient>
<linearGradient id="paint1_linear_882_1525" x1="13.4726" y1="-0.318809" x2="20.1709" y2="0.703047" gradientUnits="userSpaceOnUse">
<stop stop-color="#FF8D8D"/>
<stop offset="1" stop-color="#F7FC0E"/>
</linearGradient>
</defs>
</svg>
