<svg width="24" height="25" viewBox="0 0 26 28" fill="none" xmlns="http://www.w3.org/2000/svg">
<path fill-rule="evenodd" clip-rule="evenodd" d="M3.65779 3.3718H17.5816C19.5946 3.3718 21.2387 4.94957 21.2387 6.86064V24.2569C21.2387 26.1692 19.5952 27.7293 17.5816 27.7293H3.65779C1.64351 27.7293 0 26.1706 0 24.2569V6.86064C0 4.94891 1.64351 3.3718 3.65779 3.3718Z" fill="#79DFB0"/>
<path fill-rule="evenodd" clip-rule="evenodd" d="M4.76476 25.8005H13.2867L18.5203 20.5998V7.34717C18.518 6.80679 18.3012 6.28942 17.9176 5.90885C17.5339 5.52828 17.0148 5.31567 16.4744 5.31777H4.76476C4.49713 5.31664 4.2319 5.36824 3.98422 5.46962C3.73653 5.571 3.51124 5.72017 3.3212 5.90862C3.13117 6.09707 2.98011 6.3211 2.87666 6.56793C2.7732 6.81476 2.71938 7.07954 2.71826 7.34717V23.754C2.72051 24.2961 2.93685 24.8153 3.32015 25.1986C3.70346 25.5819 4.22269 25.7982 4.76476 25.8005Z" fill="#F2F2F2"/>
<path fill-rule="evenodd" clip-rule="evenodd" d="M18.5203 20.6486H15.4003C15.1314 20.6461 14.8646 20.6967 14.6153 20.7974C14.366 20.8981 14.139 21.047 13.9473 21.2356C13.7557 21.4241 13.603 21.6487 13.4983 21.8963C13.3935 22.1439 13.3386 22.4098 13.3367 22.6787V25.7987L18.5203 20.6486Z" fill="#5EC97F"/>
<path fill-rule="evenodd" clip-rule="evenodd" d="M10.6197 6.06488e-05C11.5152 -0.00522843 12.3781 0.335603 13.0284 0.951397C13.6786 1.56719 14.0658 2.41035 14.1092 3.30483H15.6021V7.85078H10.6197V4.12658C10.8249 4.13792 11.0304 4.10728 11.2234 4.03653C11.4164 3.96578 11.593 3.85641 11.7423 3.71511C11.8916 3.5738 12.0106 3.40353 12.0919 3.2147C12.1732 3.02587 12.2151 2.82244 12.2151 2.61686C12.2151 2.41127 12.1732 2.20785 12.0919 2.01901C12.0106 1.83018 11.8916 1.65991 11.7423 1.51861C11.593 1.3773 11.4164 1.26793 11.2234 1.19718C11.0304 1.12643 10.8249 1.09579 10.6197 1.10713V6.06488e-05ZM5.63721 3.30483H7.11374C7.16374 2.4098 7.55526 1.56807 8.20756 0.953184C8.85987 0.338304 9.72324 -0.00285039 10.6197 6.06488e-05V1.10713C10.4144 1.09579 10.209 1.12643 10.0159 1.19718C9.82292 1.26793 9.64634 1.3773 9.49702 1.51861C9.34769 1.65991 9.22875 1.83018 9.14747 2.01901C9.06618 2.20785 9.02426 2.41127 9.02426 2.61686C9.02426 2.82244 9.06618 3.02587 9.14747 3.2147C9.22875 3.40353 9.34769 3.5738 9.49702 3.71511C9.64634 3.85641 9.82292 3.96578 10.0159 4.03653C10.209 4.10728 10.4144 4.13792 10.6197 4.12658V7.85078H5.63721V3.30483Z" fill="#5EC97F"/>
<path fill-rule="evenodd" clip-rule="evenodd" d="M11.3238 18.1844L9.76383 19.7451C9.54199 19.9712 9.41772 20.2754 9.41772 20.5922C9.41772 20.9089 9.54199 21.2131 9.76383 21.4392L13.7398 25.4145L15.1821 26.8569L15.4846 27.1593C16.2734 27.9482 17.3128 27.9482 17.9505 26.9746C20.2994 23.2339 22.5635 19.0706 25.7512 16.0202C26.2377 15.5509 25.9524 14.712 25.3989 14.359L23.5535 13.1678C22.9829 12.8154 22.3459 13.0672 21.8929 13.5366C19.947 15.5495 18.3535 17.9149 16.8967 20.1961C16.0578 21.4879 16.2254 21.4208 15.1355 20.3276L13.0167 18.1844C12.5657 17.7144 11.7939 17.7315 11.3238 18.1844Z" fill="#4AB46B"/>
</svg>
