<svg width="200" height="85" viewBox="0 0 219 99" fill="none" xmlns="http://www.w3.org/2000/svg">
<path d="M190.53 35.51C190.53 37.21 189.15 38.59 187.45 38.59C185.75 38.59 184.37 37.21 184.37 35.51C184.37 33.81 185.75 32.43 187.45 32.43C189.15 32.43 190.53 33.81 190.53 35.51Z" fill="url(#paint0_linear_115_1544)"/>
<path d="M139.53 73.5099C139.53 75.2099 138.15 76.5899 136.45 76.5899C134.75 76.5899 133.37 75.2099 133.37 73.5099C133.37 71.8099 134.75 70.4299 136.45 70.4299C138.15 70.4299 139.53 71.8099 139.53 73.5099Z" fill="url(#paint1_linear_115_1544)"/>
<path d="M33.92 27C33.92 27.73 33.3301 28.31 32.6001 28.31C31.8701 28.31 31.29 27.72 31.29 27" fill="url(#paint2_linear_115_1544)"/>
<path d="M125.06 39.03C125.06 40.15 124.15 41.06 123.03 41.06C121.91 41.06 121 40.15 121 39.03C121 37.91 121.91 37 123.03 37C124.15 37 125.06 37.91 125.06 39.03Z" fill="url(#paint3_linear_115_1544)"/>
<path d="M74.06 67.03C74.06 68.15 73.15 69.06 72.03 69.06C70.91 69.06 70 68.15 70 67.03C70 65.91 70.91 65 72.03 65C73.15 65 74.06 65.91 74.06 67.03Z" fill="url(#paint4_linear_115_1544)"/>
<path d="M92.62 37.49C90.09 39.34 83.94 34 83.94 34C84.34 36.78 81 39.07 81 39.07" fill="url(#paint5_linear_115_1544)"/>
<path d="M188.06 60C188.06 61.12 187.15 62.03 186.03 62.03C184.91 62.03 184 61.12 184 60" fill="url(#paint6_linear_115_1544)"/>
<path d="M99.06 47C99.06 48.12 98.15 49.03 97.03 49.03C95.91 49.03 95 48.12 95 47" fill="url(#paint7_linear_115_1544)"/>
<path d="M218.06 53C218.06 54.12 217.15 55.03 216.03 55.03C214.91 55.03 214 54.12 214 53" fill="url(#paint8_linear_115_1544)"/>
<path d="M69.06 55C69.06 56.12 68.15 57.03 67.03 57.03C65.91 57.03 65 56.12 65 55" fill="url(#paint9_linear_115_1544)"/>
<path d="M156.06 2.03C156.06 3.15 155.15 4.06 154.03 4.06C152.91 4.06 152 3.15 152 2.03C152 0.909999 152.91 0 154.03 0C155.15 0 156.06 0.909999 156.06 2.03Z" fill="url(#paint10_linear_115_1544)"/>
<path d="M118.06 26C118.06 27.12 117.15 28.03 116.03 28.03C114.91 28.03 114 27.12 114 26" fill="url(#paint11_linear_115_1544)"/>
<path d="M67.06 54C67.06 55.12 66.15 56.03 65.03 56.03C63.91 56.03 63 55.12 63 54" fill="url(#paint12_linear_115_1544)"/>
<path d="M44.5617 13L21 33.8052C32.544 24.4886 48.7365 27.7326 48.7365 27.7326L44.5617 13Z" fill="url(#paint13_linear_115_1544)"/>
<path d="M39.2813 27.3725C27.4576 27.7465 20.9999 33.8052 20.9999 33.8052C28.3995 25.5357 36.6994 18.2692 36.6994 18.2692C38.8298 17.5738 42.2678 20.2001 42.2678 20.2001L39.2813 27.3725Z" fill="url(#paint14_linear_115_1544)"/>
<path opacity="0.6" d="M21.2853 33.5559C26.452 27.2035 34.2671 24.7573 41.6722 21.6296L39.2814 27.3725C28.8926 27.7021 22.6483 32.4172 21.2853 33.5559Z" fill="#FBCC28"/>
<path d="M44.5617 13L42.0157 17.7013L36.6995 18.2692L40.384 22.1421L39.2814 27.3725L44.1018 25.0676L48.7366 27.7326L48.0329 22.433L52 18.8482L46.7447 17.8813L44.5617 13Z" fill="url(#paint15_linear_115_1544)"/>
<path d="M44.534 13.6981L42.2318 17.9478L37.4253 18.4603L40.758 21.9648L39.7607 26.6937L44.1212 24.6077L48.3099 27.0179L47.6755 22.2252L51.2603 18.9867L46.5065 18.1085L44.534 13.6981Z" fill="url(#paint16_linear_115_1544)"/>
<path d="M182.59 37.5486C186.48 25.4072 198.926 19.0559 209 18.8737C198.016 10.9321 174.727 13.3446 174.727 13.3446L182.59 37.5486Z" fill="url(#paint17_linear_115_1544)"/>
<path opacity="0.6" d="M180.119 29.9369L182.595 37.5535C186.475 25.4368 198.882 19.0854 208.946 18.8835C198.789 18.5291 187.42 22.2168 180.119 29.9369Z" fill="#FBCC28"/>
<path opacity="0.6" d="M209 18.8787C198.016 10.937 174.727 13.3495 174.727 13.3495L177.603 22.1971C187.115 19.0855 201.29 15.2845 209 18.8787Z" fill="#FBCC28"/>
<path d="M174.727 13.3446L178.661 21.3158L187.45 22.591L181.088 28.7946L182.59 37.5486L174.727 33.4178L166.864 37.5486L168.366 28.7946L162 22.591L170.793 21.3158L174.727 13.3446Z" fill="url(#paint18_linear_115_1544)"/>
<path d="M174.727 14.5065L178.282 21.7096L186.234 22.8667L180.478 28.4746L181.837 36.3916L174.727 32.6546L167.618 36.3916L168.972 28.4746L163.221 22.8667L171.173 21.7096L174.727 14.5065Z" fill="url(#paint19_linear_115_1544)"/>
<path d="M72.2672 75.8394C66.5766 62.8162 53.5772 61.8345 40.7529 69.8456C31.8978 75.3727 16.4911 74.319 16.9488 56.3371C19.4378 59.3483 23.4841 54.8872 23.4841 54.8872C22.0557 76.182 37.2652 73.0551 44.9369 70.0424C52.7371 66.9851 67.2802 67.1467 67.7777 79.3733L68.0315 73.8959L72.2672 75.8394Z" fill="url(#paint20_linear_115_1544)"/>
<path d="M13.0066 41.67C13.0266 40.84 12.9416 40.06 12.7516 39.33C12.5716 38.59 12.2416 37.995 11.7616 37.545C11.2816 37.085 10.5966 36.855 9.7066 36.855C8.4166 36.855 7.4966 37.455 6.9466 38.655C6.4066 39.855 6.1366 41.59 6.1366 43.86C6.1366 46 6.4916 47.605 7.2016 48.675C7.9216 49.735 8.9366 50.265 10.2466 50.265C11.2866 50.265 12.2216 50.045 13.0516 49.605C13.8816 49.165 14.6466 48.685 15.3466 48.165C15.8166 48.475 16.2766 48.93 16.7266 49.53C17.1766 50.12 17.4516 50.695 17.5516 51.255C16.9716 51.825 16.2516 52.355 15.3916 52.845C14.5416 53.325 13.6016 53.71 12.5716 54C11.5416 54.3 10.4716 54.45 9.3616 54.45C7.7916 54.45 6.4716 54.145 5.4016 53.535C4.3416 52.915 3.4966 52.095 2.8666 51.075C2.2366 50.045 1.7816 48.905 1.5016 47.655C1.2316 46.395 1.0966 45.12 1.0966 43.83C1.0966 41.31 1.4966 39.26 2.2966 37.68C3.0966 36.09 4.1566 34.92 5.4766 34.17C6.8066 33.42 8.2716 33.045 9.8716 33.045C11.4216 33.045 12.7716 33.32 13.9216 33.87C15.0816 34.42 15.9766 35.165 16.6066 36.105C17.2466 37.045 17.5666 38.105 17.5666 39.285C17.5666 40.225 17.3216 40.9 16.8316 41.31C16.3516 41.72 15.6816 41.925 14.8216 41.925C14.4816 41.925 14.1666 41.9 13.8766 41.85C13.5866 41.8 13.2966 41.74 13.0066 41.67ZM32.9114 46.515C32.9114 48.115 32.6464 49.51 32.1164 50.7C31.5864 51.89 30.8064 52.815 29.7764 53.475C28.7564 54.125 27.4914 54.45 25.9814 54.45C24.4614 54.45 23.1864 54.12 22.1564 53.46C21.1264 52.8 20.3514 51.875 19.8314 50.685C19.3114 49.495 19.0514 48.105 19.0514 46.515C19.0514 44.905 19.3114 43.51 19.8314 42.33C20.3614 41.14 21.1414 40.22 22.1714 39.57C23.2014 38.91 24.4714 38.58 25.9814 38.58C27.5014 38.58 28.7764 38.91 29.8064 39.57C30.8364 40.23 31.6114 41.155 32.1314 42.345C32.6514 43.525 32.9114 44.915 32.9114 46.515ZM23.8664 46.515C23.8664 47.335 23.9114 48.08 24.0014 48.75C24.1014 49.42 24.3014 49.955 24.6014 50.355C24.9114 50.745 25.3714 50.94 25.9814 50.94C26.6014 50.94 27.0614 50.745 27.3614 50.355C27.6614 49.955 27.8564 49.42 27.9464 48.75C28.0464 48.08 28.0964 47.335 28.0964 46.515C28.0964 45.685 28.0464 44.935 27.9464 44.265C27.8564 43.595 27.6614 43.065 27.3614 42.675C27.0614 42.275 26.6014 42.075 25.9814 42.075C25.3714 42.075 24.9114 42.275 24.6014 42.675C24.3014 43.065 24.1014 43.595 24.0014 44.265C23.9114 44.935 23.8664 45.685 23.8664 46.515ZM37.5902 38.82C38.4902 38.82 39.1652 39.13 39.6152 39.75C40.0752 40.36 40.3052 41.185 40.3052 42.225V54C39.9752 54.06 39.6002 54.105 39.1802 54.135C38.7702 54.165 38.3652 54.18 37.9652 54.18C37.5752 54.18 37.1702 54.165 36.7502 54.135C36.3402 54.105 35.9602 54.06 35.6102 54V39.03L35.8202 38.82H37.5902ZM48.5102 50.25C48.5102 50.83 48.5652 51.38 48.6752 51.9C48.7852 52.41 48.9802 52.855 49.2602 53.235C48.9202 53.515 48.4952 53.755 47.9852 53.955C47.4752 54.145 46.9252 54.24 46.3352 54.24C45.3952 54.24 44.7402 53.99 44.3702 53.49C44.0002 52.99 43.8152 52.27 43.8152 51.33V44.955C43.8152 44.275 43.7252 43.775 43.5452 43.455C43.3752 43.125 43.0402 42.96 42.5402 42.96C42.2302 42.96 41.8702 43.045 41.4602 43.215C41.0602 43.375 40.6552 43.645 40.2452 44.025C39.8452 44.405 39.4902 44.91 39.1802 45.54V41.43C39.8902 40.75 40.6552 40.135 41.4752 39.585C42.3052 39.035 43.2502 38.76 44.3102 38.76C45.2302 38.76 46.0002 38.99 46.6202 39.45C47.2402 39.9 47.7102 40.525 48.0302 41.325C48.3502 42.125 48.5102 43.05 48.5102 44.1V50.25ZM65.4114 41.19C65.1614 41.37 64.9564 41.66 64.7964 42.06C64.6464 42.45 64.5714 42.88 64.5714 43.35V51.27C64.5714 52.67 64.5064 53.825 64.3764 54.735C64.2564 55.655 64.0814 56.4 63.8514 56.97C63.6214 57.55 63.3464 58.04 63.0264 58.44C62.4364 59.2 61.6514 59.755 60.6714 60.105C59.6914 60.455 58.6014 60.63 57.4014 60.63C56.4614 60.63 55.4814 60.535 54.4614 60.345C53.4414 60.165 52.5414 59.93 51.7614 59.64C51.7614 59.09 51.8714 58.485 52.0914 57.825C52.3114 57.165 52.5864 56.64 52.9164 56.25C53.5564 56.53 54.2264 56.75 54.9264 56.91C55.6264 57.07 56.3064 57.15 56.9664 57.15C57.6964 57.15 58.2814 57.025 58.7214 56.775C59.1714 56.525 59.4964 56.17 59.6964 55.71C59.8964 55.25 59.9964 54.715 59.9964 54.105V43.29C59.9964 42.04 60.3314 40.985 61.0014 40.125C61.6714 39.255 62.6664 38.81 63.9864 38.79C64.2764 39.01 64.5714 39.365 64.8714 39.855C65.1714 40.335 65.3514 40.78 65.4114 41.19ZM51.1914 46.545C51.1914 44.825 51.4664 43.375 52.0164 42.195C52.5664 41.005 53.2964 40.105 54.2064 39.495C55.1164 38.885 56.1164 38.58 57.2064 38.58C58.1864 38.58 59.0164 38.74 59.6964 39.06C60.3864 39.38 60.9564 39.77 61.4064 40.23C61.8664 40.69 62.2214 41.14 62.4714 41.58L61.7064 45.405C61.1264 44.315 60.5014 43.485 59.8314 42.915C59.1714 42.345 58.5714 42.06 58.0314 42.06C57.3014 42.06 56.7764 42.465 56.4564 43.275C56.1464 44.075 55.9914 45.175 55.9914 46.575C55.9914 47.965 56.1564 48.975 56.4864 49.605C56.8264 50.225 57.2514 50.535 57.7614 50.535C58.3614 50.535 58.9464 50.33 59.5164 49.92C60.0964 49.51 60.5814 48.9 60.9714 48.09L61.6314 51.345C61.3014 51.905 60.8764 52.41 60.3564 52.86C59.8364 53.31 59.2514 53.665 58.6014 53.925C57.9614 54.175 57.2914 54.3 56.5914 54.3C55.3714 54.3 54.3614 53.97 53.5614 53.31C52.7614 52.65 52.1664 51.74 51.7764 50.58C51.3864 49.41 51.1914 48.065 51.1914 46.545ZM78.2104 39.075C78.2104 39.625 78.1104 40.33 77.9104 41.19C77.7104 42.04 77.4204 42.795 77.0404 43.455C76.7804 43.355 76.5204 43.285 76.2604 43.245C76.0104 43.205 75.7554 43.17 75.4954 43.14C75.0954 43.14 74.7354 43.215 74.4154 43.365C74.0954 43.505 73.8054 43.715 73.5454 43.995C73.2854 44.275 73.0404 44.62 72.8104 45.03C72.5804 45.44 72.3604 45.91 72.1504 46.44L71.6254 45.735C71.6754 44.905 71.7804 44.085 71.9404 43.275C72.1004 42.455 72.3454 41.71 72.6754 41.04C73.0054 40.37 73.4554 39.835 74.0254 39.435C74.6054 39.025 75.3354 38.82 76.2154 38.82C76.6754 38.82 77.0454 38.845 77.3254 38.895C77.6154 38.935 77.9104 38.995 78.2104 39.075ZM67.2154 41.205C67.2954 40.785 67.4804 40.335 67.7704 39.855C68.0604 39.365 68.3504 39.01 68.6404 38.79C70.0304 38.89 71.0754 39.405 71.7754 40.335C72.4854 41.255 72.9054 42.465 73.0354 43.965V54C72.7054 54.06 72.3354 54.105 71.9254 54.135C71.5154 54.165 71.1054 54.18 70.6954 54.18C70.3054 54.18 69.9004 54.165 69.4804 54.135C69.0704 54.105 68.6904 54.06 68.3404 54V44.31C68.3404 43.42 68.2104 42.725 67.9504 42.225C67.7004 41.715 67.4554 41.375 67.2154 41.205ZM78.8463 49.905C78.8463 48.695 79.1263 47.71 79.6863 46.95C80.2463 46.18 80.9763 45.61 81.8763 45.24C82.7863 44.87 83.7563 44.685 84.7863 44.685C85.2363 44.685 85.8013 44.695 86.4813 44.715C87.1713 44.735 87.7913 44.8 88.3413 44.91V47.88C87.9113 47.78 87.3913 47.725 86.7813 47.715C86.1813 47.695 85.6813 47.685 85.2813 47.685C84.6113 47.685 84.1313 47.865 83.8413 48.225C83.5513 48.575 83.4063 49.03 83.4063 49.59C83.4063 49.99 83.5313 50.325 83.7813 50.595C84.0313 50.855 84.3663 50.985 84.7863 50.985C85.3863 50.985 85.9963 50.77 86.6163 50.34C87.2363 49.91 87.7613 49.32 88.1913 48.57L88.8513 51.54C88.4613 52 88.0163 52.455 87.5163 52.905C87.0163 53.355 86.4313 53.725 85.7613 54.015C85.0913 54.305 84.3063 54.45 83.4063 54.45C82.3763 54.45 81.5213 54.22 80.8413 53.76C80.1713 53.3 79.6713 52.72 79.3413 52.02C79.0113 51.32 78.8463 50.615 78.8463 49.905ZM92.4513 51.84C92.3713 52.25 92.1863 52.695 91.8963 53.175C91.6063 53.655 91.3163 54.01 91.0263 54.24C90.1463 54.22 89.4163 54.02 88.8363 53.64C88.2663 53.26 87.8263 52.795 87.5163 52.245C87.2163 51.685 87.0213 51.14 86.9313 50.61V44.19C86.9313 43.56 86.7713 43.085 86.4513 42.765C86.1413 42.445 85.6463 42.285 84.9663 42.285C84.3263 42.285 83.6263 42.39 82.8663 42.6C82.1063 42.8 81.3313 43.015 80.5413 43.245C80.2113 42.865 79.9513 42.375 79.7613 41.775C79.5813 41.165 79.4663 40.57 79.4163 39.99C80.0863 39.71 80.8313 39.475 81.6513 39.285C82.4713 39.085 83.2863 38.935 84.0963 38.835C84.9163 38.725 85.6463 38.67 86.2863 38.67C87.1663 38.67 88.0113 38.835 88.8213 39.165C89.6313 39.485 90.2963 40.02 90.8163 40.77C91.3463 41.51 91.6113 42.515 91.6113 43.785V49.89C91.6113 50.32 91.6763 50.7 91.8063 51.03C91.9463 51.36 92.1613 51.63 92.4513 51.84ZM95.5078 37.335C95.5078 36.295 95.6978 35.565 96.0778 35.145C96.4678 34.725 97.1228 34.515 98.0428 34.515H99.8728L100.083 34.725V49.17C100.083 49.62 100.183 49.97 100.383 50.22C100.593 50.46 100.938 50.58 101.418 50.58H103.098C103.348 51.31 103.473 52.05 103.473 52.8C103.473 52.97 103.463 53.15 103.443 53.34C103.433 53.53 103.403 53.7 103.353 53.85C102.803 53.92 102.168 53.985 101.448 54.045C100.728 54.115 100.068 54.15 99.4678 54.15C98.1078 54.15 97.1078 53.815 96.4678 53.145C95.8278 52.465 95.5078 51.41 95.5078 49.98V37.335ZM103.638 39C103.778 39.53 103.848 40.075 103.848 40.635C103.848 41.245 103.778 41.81 103.638 42.33L98.0428 42.24L93.1528 42.33C93.0228 41.8 92.9578 41.235 92.9578 40.635C92.9578 40.095 93.0228 39.55 93.1528 39L98.1778 39.075L103.638 39ZM118.923 49.725C118.923 50.205 118.998 50.64 119.148 51.03C119.308 51.42 119.513 51.705 119.763 51.885C119.683 52.305 119.498 52.745 119.208 53.205C118.918 53.665 118.628 54.01 118.338 54.24C117.008 54.22 115.993 53.765 115.293 52.875C114.593 51.985 114.243 50.915 114.243 49.665V39.03C114.563 38.97 114.933 38.925 115.353 38.895C115.773 38.865 116.183 38.85 116.583 38.85C116.973 38.85 117.373 38.865 117.783 38.895C118.203 38.925 118.583 38.97 118.923 39.03V49.725ZM106.038 42.78C106.038 42.19 105.978 41.64 105.858 41.13C105.748 40.62 105.558 40.175 105.288 39.795C105.638 39.505 106.068 39.265 106.578 39.075C107.088 38.885 107.633 38.79 108.213 38.79C109.153 38.79 109.803 39.04 110.163 39.54C110.533 40.04 110.718 40.755 110.718 41.685V48.075C110.718 48.745 110.808 49.245 110.988 49.575C111.178 49.895 111.518 50.055 112.008 50.055C112.318 50.055 112.673 49.975 113.073 49.815C113.483 49.645 113.888 49.37 114.288 48.99C114.698 48.61 115.053 48.11 115.353 47.49V51.585C114.653 52.275 113.893 52.895 113.073 53.445C112.253 53.995 111.308 54.27 110.238 54.27C109.328 54.27 108.558 54.045 107.928 53.595C107.308 53.135 106.838 52.505 106.518 51.705C106.198 50.895 106.038 49.97 106.038 48.93V42.78ZM129.238 50.58C129.348 50.91 129.438 51.27 129.508 51.66C129.578 52.04 129.613 52.42 129.613 52.8C129.613 52.97 129.603 53.15 129.583 53.34C129.573 53.53 129.543 53.7 129.493 53.85C129.043 53.92 128.538 53.985 127.978 54.045C127.418 54.115 126.848 54.15 126.268 54.15C124.908 54.15 123.943 53.815 123.373 53.145C122.813 52.465 122.533 51.41 122.533 49.98V32.13L122.743 31.92H124.573C125.493 31.92 126.143 32.13 126.523 32.55C126.913 32.97 127.108 33.7 127.108 34.74V49.155C127.108 50.105 127.543 50.58 128.413 50.58H129.238ZM131.171 49.905C131.171 48.695 131.451 47.71 132.011 46.95C132.571 46.18 133.301 45.61 134.201 45.24C135.111 44.87 136.081 44.685 137.111 44.685C137.561 44.685 138.126 44.695 138.806 44.715C139.496 44.735 140.116 44.8 140.666 44.91V47.88C140.236 47.78 139.716 47.725 139.106 47.715C138.506 47.695 138.006 47.685 137.606 47.685C136.936 47.685 136.456 47.865 136.166 48.225C135.876 48.575 135.731 49.03 135.731 49.59C135.731 49.99 135.856 50.325 136.106 50.595C136.356 50.855 136.691 50.985 137.111 50.985C137.711 50.985 138.321 50.77 138.941 50.34C139.561 49.91 140.086 49.32 140.516 48.57L141.176 51.54C140.786 52 140.341 52.455 139.841 52.905C139.341 53.355 138.756 53.725 138.086 54.015C137.416 54.305 136.631 54.45 135.731 54.45C134.701 54.45 133.846 54.22 133.166 53.76C132.496 53.3 131.996 52.72 131.666 52.02C131.336 51.32 131.171 50.615 131.171 49.905ZM144.776 51.84C144.696 52.25 144.511 52.695 144.221 53.175C143.931 53.655 143.641 54.01 143.351 54.24C142.471 54.22 141.741 54.02 141.161 53.64C140.591 53.26 140.151 52.795 139.841 52.245C139.541 51.685 139.346 51.14 139.256 50.61V44.19C139.256 43.56 139.096 43.085 138.776 42.765C138.466 42.445 137.971 42.285 137.291 42.285C136.651 42.285 135.951 42.39 135.191 42.6C134.431 42.8 133.656 43.015 132.866 43.245C132.536 42.865 132.276 42.375 132.086 41.775C131.906 41.165 131.791 40.57 131.741 39.99C132.411 39.71 133.156 39.475 133.976 39.285C134.796 39.085 135.611 38.935 136.421 38.835C137.241 38.725 137.971 38.67 138.611 38.67C139.491 38.67 140.336 38.835 141.146 39.165C141.956 39.485 142.621 40.02 143.141 40.77C143.671 41.51 143.936 42.515 143.936 43.785V49.89C143.936 50.32 144.001 50.7 144.131 51.03C144.271 51.36 144.486 51.63 144.776 51.84ZM147.832 37.335C147.832 36.295 148.022 35.565 148.402 35.145C148.792 34.725 149.447 34.515 150.367 34.515H152.197L152.407 34.725V49.17C152.407 49.62 152.507 49.97 152.707 50.22C152.917 50.46 153.262 50.58 153.742 50.58H155.422C155.672 51.31 155.797 52.05 155.797 52.8C155.797 52.97 155.787 53.15 155.767 53.34C155.757 53.53 155.727 53.7 155.677 53.85C155.127 53.92 154.492 53.985 153.772 54.045C153.052 54.115 152.392 54.15 151.792 54.15C150.432 54.15 149.432 53.815 148.792 53.145C148.152 52.465 147.832 51.41 147.832 49.98V37.335ZM155.962 39C156.102 39.53 156.172 40.075 156.172 40.635C156.172 41.245 156.102 41.81 155.962 42.33L150.367 42.24L145.477 42.33C145.347 41.8 145.282 41.235 145.282 40.635C145.282 40.095 145.347 39.55 145.477 39L150.502 39.075L155.962 39ZM163.852 54C163.522 54.06 163.147 54.105 162.727 54.135C162.317 54.165 161.912 54.18 161.512 54.18C161.122 54.18 160.717 54.165 160.297 54.135C159.887 54.105 159.507 54.06 159.157 54V44.07C159.157 43.57 159.052 43.155 158.842 42.825C158.642 42.495 158.277 42.33 157.747 42.33H157.297C157.167 41.82 157.102 41.29 157.102 40.74C157.102 40.48 157.117 40.205 157.147 39.915C157.177 39.615 157.227 39.33 157.297 39.06C157.757 39.01 158.227 38.975 158.707 38.955C159.197 38.925 159.607 38.91 159.937 38.91H160.582C161.592 38.91 162.387 39.235 162.967 39.885C163.557 40.525 163.852 41.395 163.852 42.495V54ZM158.257 34.815C158.257 34.535 158.287 34.245 158.347 33.945C158.407 33.635 158.492 33.34 158.602 33.06C158.862 32.93 159.197 32.82 159.607 32.73C160.027 32.64 160.437 32.595 160.837 32.595C161.247 32.595 161.662 32.64 162.082 32.73C162.512 32.82 162.842 32.93 163.072 33.06C163.182 33.34 163.267 33.64 163.327 33.96C163.387 34.27 163.417 34.555 163.417 34.815C163.417 35.085 163.387 35.375 163.327 35.685C163.267 35.995 163.182 36.285 163.072 36.555C162.842 36.685 162.512 36.795 162.082 36.885C161.662 36.975 161.247 37.02 160.837 37.02C160.437 37.02 160.022 36.98 159.592 36.9C159.162 36.81 158.832 36.695 158.602 36.555C158.492 36.285 158.407 35.995 158.347 35.685C158.287 35.375 158.257 35.085 158.257 34.815ZM180.363 46.515C180.363 48.115 180.098 49.51 179.568 50.7C179.038 51.89 178.258 52.815 177.228 53.475C176.208 54.125 174.943 54.45 173.433 54.45C171.913 54.45 170.638 54.12 169.608 53.46C168.578 52.8 167.803 51.875 167.283 50.685C166.763 49.495 166.503 48.105 166.503 46.515C166.503 44.905 166.763 43.51 167.283 42.33C167.813 41.14 168.593 40.22 169.623 39.57C170.653 38.91 171.923 38.58 173.433 38.58C174.953 38.58 176.228 38.91 177.258 39.57C178.288 40.23 179.063 41.155 179.583 42.345C180.103 43.525 180.363 44.915 180.363 46.515ZM171.318 46.515C171.318 47.335 171.363 48.08 171.453 48.75C171.553 49.42 171.753 49.955 172.053 50.355C172.363 50.745 172.823 50.94 173.433 50.94C174.053 50.94 174.513 50.745 174.813 50.355C175.113 49.955 175.308 49.42 175.398 48.75C175.498 48.08 175.548 47.335 175.548 46.515C175.548 45.685 175.498 44.935 175.398 44.265C175.308 43.595 175.113 43.065 174.813 42.675C174.513 42.275 174.053 42.075 173.433 42.075C172.823 42.075 172.363 42.275 172.053 42.675C171.753 43.065 171.553 43.595 171.453 44.265C171.363 44.935 171.318 45.685 171.318 46.515ZM185.041 38.82C185.941 38.82 186.616 39.13 187.066 39.75C187.526 40.36 187.756 41.185 187.756 42.225V54C187.426 54.06 187.051 54.105 186.631 54.135C186.221 54.165 185.816 54.18 185.416 54.18C185.026 54.18 184.621 54.165 184.201 54.135C183.791 54.105 183.411 54.06 183.061 54V39.03L183.271 38.82H185.041ZM195.961 50.25C195.961 50.83 196.016 51.38 196.126 51.9C196.236 52.41 196.431 52.855 196.711 53.235C196.371 53.515 195.946 53.755 195.436 53.955C194.926 54.145 194.376 54.24 193.786 54.24C192.846 54.24 192.191 53.99 191.821 53.49C191.451 52.99 191.266 52.27 191.266 51.33V44.955C191.266 44.275 191.176 43.775 190.996 43.455C190.826 43.125 190.491 42.96 189.991 42.96C189.681 42.96 189.321 43.045 188.911 43.215C188.511 43.375 188.106 43.645 187.696 44.025C187.296 44.405 186.941 44.91 186.631 45.54V41.43C187.341 40.75 188.106 40.135 188.926 39.585C189.756 39.035 190.701 38.76 191.761 38.76C192.681 38.76 193.451 38.99 194.071 39.45C194.691 39.9 195.161 40.525 195.481 41.325C195.801 42.125 195.961 43.05 195.961 44.1V50.25ZM198.268 52.965C198.288 52.465 198.423 51.905 198.673 51.285C198.933 50.665 199.233 50.175 199.573 49.815C200.233 50.155 200.913 50.45 201.613 50.7C202.323 50.94 203.028 51.06 203.728 51.06C204.308 51.06 204.743 50.96 205.033 50.76C205.333 50.56 205.483 50.31 205.483 50.01C205.483 49.72 205.378 49.465 205.168 49.245C204.958 49.015 204.608 48.815 204.118 48.645L202.453 48.045C201.753 47.785 201.118 47.46 200.548 47.07C199.978 46.67 199.528 46.185 199.198 45.615C198.868 45.035 198.703 44.345 198.703 43.545C198.703 42.525 198.943 41.645 199.423 40.905C199.903 40.165 200.578 39.595 201.448 39.195C202.318 38.785 203.338 38.58 204.508 38.58C205.458 38.58 206.453 38.71 207.493 38.97C208.533 39.23 209.378 39.52 210.028 39.84C210.048 40.2 210.003 40.6 209.893 41.04C209.783 41.48 209.623 41.885 209.413 42.255C209.213 42.625 208.988 42.905 208.738 43.095C208.118 42.815 207.443 42.56 206.713 42.33C205.983 42.09 205.263 41.97 204.553 41.97C204.153 41.97 203.848 42.065 203.638 42.255C203.428 42.445 203.323 42.67 203.323 42.93C203.323 43.19 203.413 43.41 203.593 43.59C203.773 43.77 204.063 43.93 204.463 44.07L206.323 44.73C207.463 45.13 208.413 45.715 209.173 46.485C209.933 47.255 210.313 48.28 210.313 49.56C210.313 51.05 209.738 52.24 208.588 53.13C207.448 54.01 205.863 54.45 203.833 54.45C202.763 54.45 201.743 54.3 200.773 54C199.813 53.71 198.978 53.365 198.268 52.965Z" fill="#DF8E44"/>
<defs>
<linearGradient id="paint0_linear_115_1544" x1="184.365" y1="35.5132" x2="190.53" y2="35.5132" gradientUnits="userSpaceOnUse">
<stop stop-color="#D10037"/>
<stop offset="0.5498" stop-color="#EF2459"/>
<stop offset="0.9075" stop-color="#FF366B"/>
</linearGradient>
<linearGradient id="paint1_linear_115_1544" x1="133.365" y1="73.5131" x2="139.53" y2="73.5131" gradientUnits="userSpaceOnUse">
<stop stop-color="#D10037"/>
<stop offset="0.5498" stop-color="#EF2459"/>
<stop offset="0.9075" stop-color="#FF366B"/>
</linearGradient>
<linearGradient id="paint2_linear_115_1544" x1="31.292" y1="27.6575" x2="33.9214" y2="27.6575" gradientUnits="userSpaceOnUse">
<stop stop-color="#FBCC28"/>
<stop offset="0.2712" stop-color="#FCDD71"/>
<stop offset="0.5785" stop-color="#FEEFBD"/>
<stop offset="0.7984" stop-color="#FFFBED"/>
<stop offset="0.9075" stop-color="white"/>
</linearGradient>
<linearGradient id="paint3_linear_115_1544" x1="120.99" y1="39.0351" x2="125.055" y2="39.0351" gradientUnits="userSpaceOnUse">
<stop stop-color="#D10037"/>
<stop offset="0.5498" stop-color="#EF2459"/>
<stop offset="0.9075" stop-color="#FF366B"/>
</linearGradient>
<linearGradient id="paint4_linear_115_1544" x1="69.9897" y1="67.0351" x2="74.0551" y2="67.0351" gradientUnits="userSpaceOnUse">
<stop stop-color="#D10037"/>
<stop offset="0.5498" stop-color="#EF2459"/>
<stop offset="0.9075" stop-color="#FF366B"/>
</linearGradient>
<linearGradient id="paint5_linear_115_1544" x1="85.1841" y1="33.5735" x2="87.2101" y2="39.4447" gradientUnits="userSpaceOnUse">
<stop stop-color="#FBCC28"/>
<stop offset="0.2712" stop-color="#FCDD71"/>
<stop offset="0.5785" stop-color="#FEEFBD"/>
<stop offset="0.7984" stop-color="#FFFBED"/>
<stop offset="0.9075" stop-color="white"/>
</linearGradient>
<linearGradient id="paint6_linear_115_1544" x1="183.99" y1="61.0183" x2="188.056" y2="61.0183" gradientUnits="userSpaceOnUse">
<stop stop-color="#FBCC28"/>
<stop offset="0.2712" stop-color="#FCDD71"/>
<stop offset="0.5785" stop-color="#FEEFBD"/>
<stop offset="0.7984" stop-color="#FFFBED"/>
<stop offset="0.9075" stop-color="white"/>
</linearGradient>
<linearGradient id="paint7_linear_115_1544" x1="94.99" y1="48.0183" x2="99.0564" y2="48.0183" gradientUnits="userSpaceOnUse">
<stop stop-color="#FBCC28"/>
<stop offset="0.2712" stop-color="#FCDD71"/>
<stop offset="0.5785" stop-color="#FEEFBD"/>
<stop offset="0.7984" stop-color="#FFFBED"/>
<stop offset="0.9075" stop-color="white"/>
</linearGradient>
<linearGradient id="paint8_linear_115_1544" x1="213.99" y1="54.0183" x2="218.056" y2="54.0183" gradientUnits="userSpaceOnUse">
<stop stop-color="#FBCC28"/>
<stop offset="0.2712" stop-color="#FCDD71"/>
<stop offset="0.5785" stop-color="#FEEFBD"/>
<stop offset="0.7984" stop-color="#FFFBED"/>
<stop offset="0.9075" stop-color="white"/>
</linearGradient>
<linearGradient id="paint9_linear_115_1544" x1="64.99" y1="56.0183" x2="69.0564" y2="56.0183" gradientUnits="userSpaceOnUse">
<stop stop-color="#FBCC28"/>
<stop offset="0.2712" stop-color="#FCDD71"/>
<stop offset="0.5785" stop-color="#FEEFBD"/>
<stop offset="0.7984" stop-color="#FFFBED"/>
<stop offset="0.9075" stop-color="white"/>
</linearGradient>
<linearGradient id="paint10_linear_115_1544" x1="151.998" y1="2.0342" x2="156.063" y2="2.0342" gradientUnits="userSpaceOnUse">
<stop stop-color="#FBCC28"/>
<stop offset="0.2712" stop-color="#FCDD71"/>
<stop offset="0.5785" stop-color="#FEEFBD"/>
<stop offset="0.7984" stop-color="#FFFBED"/>
<stop offset="0.9075" stop-color="white"/>
</linearGradient>
<linearGradient id="paint11_linear_115_1544" x1="113.991" y1="27.0143" x2="118.058" y2="27.0143" gradientUnits="userSpaceOnUse">
<stop stop-color="#D10037"/>
<stop offset="0.5498" stop-color="#EF2459"/>
<stop offset="0.9075" stop-color="#FF366B"/>
</linearGradient>
<linearGradient id="paint12_linear_115_1544" x1="62.9913" y1="55.0143" x2="67.0577" y2="55.0143" gradientUnits="userSpaceOnUse">
<stop stop-color="#D10037"/>
<stop offset="0.5498" stop-color="#EF2459"/>
<stop offset="0.9075" stop-color="#FF366B"/>
</linearGradient>
<linearGradient id="paint13_linear_115_1544" x1="58.4044" y1="14.6459" x2="32.2437" y2="27.3755" gradientUnits="userSpaceOnUse">
<stop stop-color="#FBCC28"/>
<stop offset="0.2712" stop-color="#FCDD71"/>
<stop offset="0.5785" stop-color="#FEEFBD"/>
<stop offset="0.7984" stop-color="#FFFBED"/>
<stop offset="0.9075" stop-color="white"/>
</linearGradient>
<linearGradient id="paint14_linear_115_1544" x1="45.2227" y1="17.7018" x2="26.527" y2="30.9335" gradientUnits="userSpaceOnUse">
<stop stop-color="#FBCC28"/>
<stop offset="0.2712" stop-color="#FCDD71"/>
<stop offset="0.5785" stop-color="#FEEFBD"/>
<stop offset="0.7984" stop-color="#FFFBED"/>
<stop offset="0.9075" stop-color="white"/>
</linearGradient>
<linearGradient id="paint15_linear_115_1544" x1="51.9353" y1="20.5665" x2="36.6341" y2="19.9862" gradientUnits="userSpaceOnUse">
<stop stop-color="#FBCC28"/>
<stop offset="0.2712" stop-color="#FCDD71"/>
<stop offset="0.5785" stop-color="#FEEFBD"/>
<stop offset="0.7984" stop-color="#FFFBED"/>
<stop offset="0.9075" stop-color="white"/>
</linearGradient>
<linearGradient id="paint16_linear_115_1544" x1="51.2026" y1="20.5388" x2="37.3673" y2="20.0141" gradientUnits="userSpaceOnUse">
<stop stop-color="#FBCC28"/>
<stop offset="0.3111" stop-color="#FDA330"/>
<stop offset="0.7088" stop-color="#FE7339"/>
<stop offset="0.9075" stop-color="#FF613D"/>
</linearGradient>
<linearGradient id="paint17_linear_115_1544" x1="174.727" y1="25.2766" x2="208.999" y2="25.2766" gradientUnits="userSpaceOnUse">
<stop stop-color="#FBCC28"/>
<stop offset="0.2712" stop-color="#FCDD71"/>
<stop offset="0.5785" stop-color="#FEEFBD"/>
<stop offset="0.7984" stop-color="#FFFBED"/>
<stop offset="0.9075" stop-color="white"/>
</linearGradient>
<linearGradient id="paint18_linear_115_1544" x1="162.002" y1="25.4484" x2="187.452" y2="25.4484" gradientUnits="userSpaceOnUse">
<stop stop-color="#FBCC28"/>
<stop offset="0.2712" stop-color="#FCDD71"/>
<stop offset="0.5785" stop-color="#FEEFBD"/>
<stop offset="0.7984" stop-color="#FFFBED"/>
<stop offset="0.9075" stop-color="white"/>
</linearGradient>
<linearGradient id="paint19_linear_115_1544" x1="163.221" y1="25.4483" x2="186.233" y2="25.4483" gradientUnits="userSpaceOnUse">
<stop stop-color="#FBCC28"/>
<stop offset="0.3111" stop-color="#FDA330"/>
<stop offset="0.7088" stop-color="#FE7339"/>
<stop offset="0.9075" stop-color="#FF613D"/>
</linearGradient>
<linearGradient id="paint20_linear_115_1544" x1="16.0109" y1="62.879" x2="72.9592" y2="71.0675" gradientUnits="userSpaceOnUse">
<stop stop-color="#FBCC28"/>
<stop offset="0.2712" stop-color="#FCDD71"/>
<stop offset="0.5785" stop-color="#FEEFBD"/>
<stop offset="0.7984" stop-color="#FFFBED"/>
<stop offset="0.9075" stop-color="white"/>
</linearGradient>
</defs>
</svg>
