<svg width="39" height="39" viewBox="0 0 39 39" fill="none" xmlns="http://www.w3.org/2000/svg">
<g clip-path="url(#clip0_882_1922)">
<g filter="url(#filter0_d_882_1922)">
<circle cx="19.5" cy="19.5" r="17.5" fill="url(#paint0_linear_882_1922)" shape-rendering="crispEdges"/>
<circle cx="19.5" cy="19.5" r="17" stroke="url(#paint1_linear_882_1922)" shape-rendering="crispEdges"/>
</g>
<path d="M25.5029 20.218L26.2458 20.3213L26.2458 20.3213L25.5029 20.218ZM25.2613 21.9542L26.0042 22.0575L26.0042 22.0575L25.2613 21.9542ZM13.7392 21.9542L14.482 21.8508L14.482 21.8508L13.7392 21.9542ZM13.4976 20.218L12.7547 20.3213L12.7547 20.3213L13.4976 20.218ZM16.9062 28.4681L16.6147 29.1591L16.6147 29.1591L16.9062 28.4681ZM14.4115 25.5424L15.1155 25.2838L15.1155 25.2838L14.4115 25.5424ZM24.589 25.5424L25.293 25.8011L25.293 25.8011L24.589 25.5424ZM22.0943 28.4681L21.8027 27.7771L21.8027 27.7771L22.0943 28.4681ZM13.7995 16.6659C13.7603 16.2535 13.3943 15.951 12.9819 15.9902C12.5696 16.0294 12.2671 16.3954 12.3063 16.8078L13.7995 16.6659ZM26.6943 16.8078C26.7334 16.3954 26.4309 16.0294 26.0186 15.9902C25.6062 15.951 25.2402 16.2535 25.201 16.6659L26.6943 16.8078ZM26.8687 15.6447C27.2829 15.6447 27.6187 15.309 27.6187 14.8947C27.6187 14.4805 27.2829 14.1447 26.8687 14.1447V15.6447ZM12.1318 14.1447C11.7176 14.1447 11.3818 14.4805 11.3818 14.8947C11.3818 15.309 11.7176 15.6447 12.1318 15.6447V14.1447ZM16.9082 25.0263C16.9082 25.4405 17.2439 25.7763 17.6582 25.7763C18.0724 25.7763 18.4082 25.4405 18.4082 25.0263H16.9082ZM18.4082 17.6579C18.4082 17.2437 18.0724 16.9079 17.6582 16.9079C17.2439 16.9079 16.9082 17.2437 16.9082 17.6579H18.4082ZM20.5924 25.0263C20.5924 25.4405 20.9281 25.7763 21.3424 25.7763C21.7566 25.7763 22.0924 25.4405 22.0924 25.0263H20.5924ZM22.0924 17.6579C22.0924 17.2437 21.7566 16.9079 21.3424 16.9079C20.9281 16.9079 20.5924 17.2437 20.5924 17.6579H22.0924ZM23.1845 14.8947V15.6447H23.9345V14.8947H23.1845ZM15.816 14.8947H15.066V15.6447H15.816V14.8947ZM24.7601 20.1146L24.5185 21.8508L26.0042 22.0575L26.2458 20.3213L24.7601 20.1146ZM14.482 21.8508L14.2404 20.1146L12.7547 20.3213L12.9964 22.0575L14.482 21.8508ZM19.5003 27.9605C18.0865 27.9605 17.5988 27.9463 17.1978 27.7771L16.6147 29.1591C17.3625 29.4747 18.2212 29.4605 19.5003 29.4605V27.9605ZM12.9964 22.0575C13.2536 23.9056 13.3944 24.9487 13.7075 25.8011L15.1155 25.2838C14.8719 24.6206 14.7501 23.7767 14.482 21.8508L12.9964 22.0575ZM17.1978 27.7771C16.3675 27.4267 15.5868 26.5664 15.1155 25.2838L13.7075 25.8011C14.2775 27.3524 15.2967 28.603 16.6147 29.1591L17.1978 27.7771ZM24.5185 21.8508C24.2505 23.7767 24.1287 24.6206 23.885 25.2838L25.293 25.8011C25.6062 24.9487 25.747 23.9056 26.0042 22.0575L24.5185 21.8508ZM19.5003 29.4605C20.7793 29.4605 21.638 29.4747 22.3859 29.1591L21.8027 27.7771C21.4017 27.9463 20.914 27.9605 19.5003 27.9605V29.4605ZM23.885 25.2838C23.4137 26.5664 22.633 27.4267 21.8027 27.7771L22.3859 29.1591C23.7038 28.603 24.723 27.3524 25.293 25.8011L23.885 25.2838ZM14.2404 20.1146C14.0358 18.644 13.8832 17.5467 13.7995 16.6659L12.3063 16.8078C12.3937 17.7286 12.5519 18.8635 12.7547 20.3213L14.2404 20.1146ZM26.2458 20.3213C26.4487 18.8635 26.6068 17.7286 26.6943 16.8078L25.201 16.6659C25.1173 17.5467 24.9648 18.644 24.7601 20.1146L26.2458 20.3213ZM26.8687 14.1447H12.1318V15.6447H26.8687V14.1447ZM18.4082 25.0263V17.6579H16.9082V25.0263H18.4082ZM22.0924 25.0263V17.6579H20.5924V25.0263H22.0924ZM22.4345 13.9737V14.8947H23.9345V13.9737H22.4345ZM23.1845 14.1447H15.816V15.6447H23.1845V14.1447ZM16.566 14.8947V13.9737H15.066V14.8947H16.566ZM19.5003 11.0395C21.1208 11.0395 22.4345 12.3532 22.4345 13.9737H23.9345C23.9345 11.5247 21.9492 9.53947 19.5003 9.53947V11.0395ZM19.5003 9.53947C17.0513 9.53947 15.066 11.5247 15.066 13.9737H16.566C16.566 12.3532 17.8797 11.0395 19.5003 11.0395V9.53947Z" fill="url(#paint2_linear_882_1922)"/>
</g>
<defs>
<filter id="filter0_d_882_1922" x="-2" y="0" width="43" height="43" filterUnits="userSpaceOnUse" color-interpolation-filters="sRGB">
<feFlood flood-opacity="0" result="BackgroundImageFix"/>
<feColorMatrix in="SourceAlpha" type="matrix" values="0 0 0 0 0 0 0 0 0 0 0 0 0 0 0 0 0 0 127 0" result="hardAlpha"/>
<feOffset dy="2"/>
<feGaussianBlur stdDeviation="2"/>
<feComposite in2="hardAlpha" operator="out"/>
<feColorMatrix type="matrix" values="0 0 0 0 0.14902 0 0 0 0 0.152941 0 0 0 0 0.235294 0 0 0 0.2 0"/>
<feBlend mode="normal" in2="BackgroundImageFix" result="effect1_dropShadow_882_1922"/>
<feBlend mode="normal" in="SourceGraphic" in2="effect1_dropShadow_882_1922" result="shape"/>
</filter>
<linearGradient id="paint0_linear_882_1922" x1="34.7731" y1="2" x2="47.5369" y2="42.0868" gradientUnits="userSpaceOnUse">
<stop stop-color="#161A42"/>
<stop offset="1" stop-color="#161A42" stop-opacity="0"/>
</linearGradient>
<linearGradient id="paint1_linear_882_1922" x1="2" y1="19.5" x2="37" y2="19.5" gradientUnits="userSpaceOnUse">
<stop stop-color="#EC008C"/>
<stop offset="1" stop-color="#FC6767"/>
</linearGradient>
<linearGradient id="paint2_linear_882_1922" x1="12.1318" y1="19.5" x2="26.8687" y2="19.5" gradientUnits="userSpaceOnUse">
<stop stop-color="#EC008C"/>
<stop offset="1" stop-color="#FC6767"/>
</linearGradient>
<clipPath id="clip0_882_1922">
<rect width="39" height="39" fill="white"/>
</clipPath>
</defs>
</svg>
