<svg width="40" height="40" viewBox="0 0 43 43" fill="none" xmlns="http://www.w3.org/2000/svg">
<g filter="url(#filter0_d_296_950)">
<circle cx="21.5" cy="19.5" r="17.5" fill="#FF6464"/>
</g>
<path d="M27.5027 20.218L28.2455 20.3213L27.5027 20.218ZM27.2611 21.9542L28.0039 22.0575L27.2611 21.9542ZM15.739 21.9542L16.4818 21.8508L15.739 21.9542ZM15.4973 20.218L14.7545 20.3213L15.4973 20.218ZM18.906 28.4681L18.6144 29.1591L18.6144 29.1591L18.906 28.4681ZM16.4113 25.5424L17.1153 25.2838L16.4113 25.5424ZM26.5888 25.5424L27.2927 25.8011H27.2927L26.5888 25.5424ZM24.094 28.4681L23.8024 27.7771L24.094 28.4681ZM15.7993 16.6659C15.7601 16.2535 15.3941 15.951 14.9817 15.9902C14.5693 16.0294 14.2668 16.3954 14.306 16.8078L15.7993 16.6659ZM28.694 16.8078C28.7332 16.3954 28.4307 16.0294 28.0183 15.9902C27.606 15.951 27.2399 16.2535 27.2007 16.6659L28.694 16.8078ZM28.8684 15.6447C29.2826 15.6447 29.6184 15.309 29.6184 14.8947C29.6184 14.4805 29.2826 14.1447 28.8684 14.1447V15.6447ZM14.1316 14.1447C13.7174 14.1447 13.3816 14.4805 13.3816 14.8947C13.3816 15.309 13.7174 15.6447 14.1316 15.6447V14.1447ZM18.9079 25.0263C18.9079 25.4405 19.2437 25.7763 19.6579 25.7763C20.0721 25.7763 20.4079 25.4405 20.4079 25.0263H18.9079ZM20.4079 17.6579C20.4079 17.2437 20.0721 16.9079 19.6579 16.9079C19.2437 16.9079 18.9079 17.2437 18.9079 17.6579H20.4079ZM22.5921 25.0263C22.5921 25.4405 22.9279 25.7763 23.3421 25.7763C23.7563 25.7763 24.0921 25.4405 24.0921 25.0263H22.5921ZM24.0921 17.6579C24.0921 17.2437 23.7563 16.9079 23.3421 16.9079C22.9279 16.9079 22.5921 17.2437 22.5921 17.6579H24.0921ZM25.1842 14.8947V15.6447H25.9342V14.8947H25.1842ZM17.8158 14.8947H17.0658V15.6447H17.8158V14.8947ZM26.7599 20.1146L26.5182 21.8508L28.0039 22.0575L28.2455 20.3213L26.7599 20.1146ZM16.4818 21.8508L16.2402 20.1146L14.7545 20.3213L14.9961 22.0575L16.4818 21.8508ZM21.5 27.9605C20.0863 27.9605 19.5986 27.9463 19.1976 27.7771L18.6144 29.1591C19.3623 29.4747 20.221 29.4605 21.5 29.4605V27.9605ZM14.9961 22.0575C15.2533 23.9056 15.3941 24.9487 15.7073 25.8011L17.1153 25.2838C16.8716 24.6206 16.7498 23.7767 16.4818 21.8508L14.9961 22.0575ZM19.1976 27.7771C18.3672 27.4267 17.5865 26.5664 17.1153 25.2838L15.7073 25.8011C16.2773 27.3524 17.2965 28.603 18.6144 29.1591L19.1976 27.7771ZM26.5182 21.8508C26.2502 23.7767 26.1284 24.6206 25.8848 25.2838L27.2927 25.8011C27.6059 24.9487 27.7467 23.9056 28.0039 22.0575L26.5182 21.8508ZM21.5 29.4605C22.779 29.4605 23.6378 29.4747 24.3856 29.1591L23.8024 27.7771C23.4015 27.9463 22.9138 27.9605 21.5 27.9605V29.4605ZM25.8848 25.2838C25.4135 26.5664 24.6328 27.4267 23.8024 27.7771L24.3856 29.1591C25.7035 28.603 26.7228 27.3524 27.2927 25.8011L25.8848 25.2838ZM16.2402 20.1146C16.0355 18.644 15.883 17.5467 15.7993 16.6659L14.306 16.8078C14.3935 17.7286 14.5516 18.8635 14.7545 20.3213L16.2402 20.1146ZM28.2455 20.3213C28.4484 18.8635 28.6065 17.7286 28.694 16.8078L27.2007 16.6659C27.1171 17.5467 26.9645 18.644 26.7599 20.1146L28.2455 20.3213ZM28.8684 14.1447H14.1316V15.6447H28.8684V14.1447ZM20.4079 25.0263V17.6579H18.9079V25.0263H20.4079ZM24.0921 25.0263V17.6579H22.5921V25.0263H24.0921ZM24.4342 13.9737V14.8947H25.9342V13.9737H24.4342ZM25.1842 14.1447H17.8158V15.6447H25.1842V14.1447ZM18.5658 14.8947V13.9737H17.0658V14.8947H18.5658ZM21.5 11.0395C23.1205 11.0395 24.4342 12.3532 24.4342 13.9737H25.9342C25.9342 11.5247 23.949 9.53947 21.5 9.53947V11.0395ZM21.5 9.53947C19.0511 9.53947 17.0658 11.5247 17.0658 13.9737H18.5658C18.5658 12.3532 19.8795 11.0395 21.5 11.0395V9.53947Z" fill="white"/>
<defs>
<filter id="filter0_d_296_950" x="0" y="0" width="43" height="43" filterUnits="userSpaceOnUse" color-interpolation-filters="sRGB">
<feFlood flood-opacity="0" result="BackgroundImageFix"/>
<feColorMatrix in="SourceAlpha" type="matrix" values="0 0 0 0 0 0 0 0 0 0 0 0 0 0 0 0 0 0 127 0" result="hardAlpha"/>
<feOffset dy="2"/>
<feGaussianBlur stdDeviation="2"/>
<feComposite in2="hardAlpha" operator="out"/>
<feColorMatrix type="matrix" values="0 0 0 0 0.14902 0 0 0 0 0.152941 0 0 0 0 0.235294 0 0 0 0.2 0"/>
<feBlend mode="normal" in2="BackgroundImageFix" result="effect1_dropShadow_296_950"/>
<feBlend mode="normal" in="SourceGraphic" in2="effect1_dropShadow_296_950" result="shape"/>
</filter>
</defs>
</svg>
