<svg width="40" height="40" viewBox="0 0 43 43" fill="none" xmlns="http://www.w3.org/2000/svg">
<g filter="url(#filter0_d_296_1121)">
<circle cx="21.5" cy="19.5" r="17.5" fill="#66B6FF"/>
</g>
<path d="M15.3842 26.847L15.8251 26.2402L15.8251 26.2402L15.3842 26.847ZM14.4624 25.9252L13.8557 26.366H13.8557L14.4624 25.9252ZM26.9491 26.847L26.5083 26.2402V26.2402L26.9491 26.847ZM27.8709 25.9252L27.2641 25.4844L27.2641 25.4844L27.8709 25.9252ZM14.4624 14.3603L13.8557 13.9195H13.8557L14.4624 14.3603ZM15.3842 13.4385L15.8251 14.0453L15.3842 13.4385ZM19.509 13.3987C19.9232 13.3938 20.2549 13.054 20.2499 12.6398C20.245 12.2256 19.9052 11.8939 19.491 11.8988L19.509 13.3987ZM29.4106 21.8184C29.4156 21.4042 29.0838 21.0645 28.6697 21.0595C28.2555 21.0545 27.9157 21.3863 27.9107 21.8004L29.4106 21.8184ZM21.8313 23.4798L21.7485 22.7344L21.8313 23.4798ZM18.3981 23.2319L17.8678 23.7622H17.8678L18.3981 23.2319ZM18.1502 19.7988L18.8957 19.8816L18.1502 19.7988ZM19.1062 17.8098L18.5758 17.2795L19.1062 17.8098ZM18.3691 18.6798L17.6931 18.3549L17.6931 18.3549L18.3691 18.6798ZM23.8202 22.5239L24.3505 23.0542L23.8202 22.5239ZM22.9503 23.2609L23.2752 23.9369L22.9503 23.2609ZM21.1667 26.8928C19.5876 26.8928 18.4635 26.8917 17.5952 26.7977C16.7409 26.7051 16.2235 26.5297 15.8251 26.2402L14.9434 27.4538C15.6402 27.96 16.4517 28.1825 17.4336 28.2889C18.4015 28.3938 19.621 28.3928 21.1667 28.3928V26.8928ZM12.9167 20.1428C12.9167 21.6884 12.9156 22.908 13.0205 23.8758C13.1269 24.8577 13.3494 25.6692 13.8557 26.366L15.0692 25.4844C14.7797 25.0859 14.6043 24.5686 14.5118 23.7143C14.4177 22.8459 14.4167 21.7219 14.4167 20.1428H12.9167ZM15.8251 26.2402C15.535 26.0295 15.2799 25.7744 15.0692 25.4844L13.8557 26.366C14.1589 26.7834 14.526 27.1505 14.9434 27.4538L15.8251 26.2402ZM21.1667 28.3928C22.7123 28.3928 23.9319 28.3938 24.8997 28.2889C25.8817 28.1825 26.6931 27.96 27.3899 27.4538L26.5083 26.2402C26.1098 26.5297 25.5925 26.7051 24.7382 26.7977C23.8698 26.8917 22.7458 26.8928 21.1667 26.8928V28.3928ZM27.2641 25.4844C27.0534 25.7744 26.7983 26.0295 26.5083 26.2402L27.3899 27.4538C27.8073 27.1505 28.1744 26.7834 28.4777 26.366L27.2641 25.4844ZM14.4167 20.1428C14.4167 18.5637 14.4177 17.4396 14.5118 16.5713C14.6043 15.717 14.7797 15.1996 15.0692 14.8012L13.8557 13.9195C13.3494 14.6163 13.1269 15.4278 13.0205 16.4097C12.9156 17.3776 12.9167 18.5971 12.9167 20.1428H14.4167ZM14.9434 12.8318C14.526 13.135 14.1589 13.5021 13.8557 13.9195L15.0692 14.8012C15.2799 14.5111 15.535 14.256 15.8251 14.0453L14.9434 12.8318ZM19.491 11.8988C17.4751 11.923 16.046 12.0307 14.9434 12.8318L15.8251 14.0453C16.4833 13.567 17.4188 13.4238 19.509 13.3987L19.491 11.8988ZM27.9107 21.8004C27.8857 23.8906 27.7424 24.8261 27.2641 25.4844L28.4777 26.366C29.2788 25.2634 29.3864 23.8343 29.4106 21.8184L27.9107 21.8004ZM27.7664 17.5171L23.2899 21.9936L24.3505 23.0542L28.827 18.5777L27.7664 17.5171ZM19.6365 18.3402L24.113 13.8637L23.0523 12.803L18.5758 17.2795L19.6365 18.3402ZM21.7485 22.7344C20.7696 22.8432 20.1166 22.9139 19.6347 22.8983C19.1728 22.8834 19.0181 22.7913 18.9285 22.7016L17.8678 23.7622C18.3446 24.239 18.9509 24.377 19.5862 24.3975C20.2014 24.4174 20.9818 24.3288 21.9141 24.2252L21.7485 22.7344ZM17.4048 19.7159C17.3012 20.6482 17.2127 21.4286 17.2325 22.0438C17.2531 22.6791 17.3911 23.2855 17.8678 23.7622L18.9285 22.7016C18.8388 22.6119 18.7467 22.4573 18.7318 21.9954C18.7162 21.5134 18.7869 20.8604 18.8957 19.8816L17.4048 19.7159ZM18.5758 17.2795C18.2026 17.6528 17.8842 17.9573 17.6931 18.3549L19.0451 19.0047C19.0999 18.8905 19.1909 18.7857 19.6365 18.3402L18.5758 17.2795ZM18.8957 19.8816C18.9652 19.2553 18.9902 19.1188 19.0451 19.0047L17.6931 18.3549C17.5021 18.7524 17.4631 19.1913 17.4048 19.7159L18.8957 19.8816ZM23.2899 21.9936C22.8443 22.4391 22.7395 22.5301 22.6254 22.585L23.2752 23.9369C23.6727 23.7459 23.9773 23.4275 24.3505 23.0542L23.2899 21.9936ZM21.9141 24.2252C22.4387 24.1669 22.8776 24.128 23.2752 23.9369L22.6254 22.585C22.5113 22.6398 22.3747 22.6648 21.7485 22.7344L21.9141 24.2252ZM27.7664 13.8637C28.3369 14.4342 28.7104 14.8099 28.9505 15.1246C29.1773 15.4219 29.2134 15.5751 29.2134 15.6904H30.7134C30.7134 15.1153 30.4717 14.6455 30.143 14.2147C29.8275 13.8012 29.3676 13.3436 28.827 12.803L27.7664 13.8637ZM28.827 18.5777C29.3676 18.0371 29.8275 17.5795 30.143 17.166C30.4717 16.7352 30.7134 16.2655 30.7134 15.6904H29.2134C29.2134 15.8056 29.1773 15.9588 28.9505 16.2562C28.7104 16.5708 28.3369 16.9465 27.7664 17.5171L28.827 18.5777ZM28.827 12.803C28.2865 12.2624 27.8288 11.8025 27.4154 11.4871C26.9846 11.1584 26.5148 10.9167 25.9397 10.9167V12.4167C26.055 12.4167 26.2081 12.4527 26.5055 12.6796C26.8202 12.9197 27.1958 13.2931 27.7664 13.8637L28.827 12.803ZM24.113 13.8637C24.6836 13.2931 25.0592 12.9197 25.3739 12.6796C25.6713 12.4527 25.8244 12.4167 25.9397 12.4167V10.9167C25.3646 10.9167 24.8948 11.1584 24.464 11.4871C24.0506 11.8025 23.5929 12.2624 23.0523 12.803L24.113 13.8637ZM28.827 17.5171L24.113 12.803L23.0523 13.8637L27.7664 18.5777L28.827 17.5171Z" fill="white"/>
<defs>
<filter id="filter0_d_296_1121" x="0" y="0" width="43" height="43" filterUnits="userSpaceOnUse" color-interpolation-filters="sRGB">
<feFlood flood-opacity="0" result="BackgroundImageFix"/>
<feColorMatrix in="SourceAlpha" type="matrix" values="0 0 0 0 0 0 0 0 0 0 0 0 0 0 0 0 0 0 127 0" result="hardAlpha"/>
<feOffset dy="2"/>
<feGaussianBlur stdDeviation="2"/>
<feComposite in2="hardAlpha" operator="out"/>
<feColorMatrix type="matrix" values="0 0 0 0 0.14902 0 0 0 0 0.152941 0 0 0 0 0.235294 0 0 0 0.2 0"/>
<feBlend mode="normal" in2="BackgroundImageFix" result="effect1_dropShadow_296_1121"/>
<feBlend mode="normal" in="SourceGraphic" in2="effect1_dropShadow_296_1121" result="shape"/>
</filter>
</defs>
</svg>
