<svg width="39" height="39" viewBox="0 0 39 39" fill="none" xmlns="http://www.w3.org/2000/svg">
<g clip-path="url(#clip0_882_1923)">
<g filter="url(#filter0_d_882_1923)">
<circle cx="19.5" cy="19.5" r="17.5" fill="url(#paint0_linear_882_1923)" shape-rendering="crispEdges"/>
<circle cx="19.5" cy="19.5" r="17" stroke="url(#paint1_linear_882_1923)" shape-rendering="crispEdges"/>
</g>
<path d="M13.3846 26.847L13.8254 26.2402L13.8254 26.2402L13.3846 26.847ZM12.4628 25.9252L11.856 26.366L11.856 26.366L12.4628 25.9252ZM24.9494 26.847L24.5086 26.2402L24.5086 26.2402L24.9494 26.847ZM25.8712 25.9252L25.2645 25.4844L25.2645 25.4844L25.8712 25.9252ZM12.4628 14.3603L11.856 13.9195L11.856 13.9195L12.4628 14.3603ZM13.3846 13.4385L13.8254 14.0453L13.8254 14.0453L13.3846 13.4385ZM17.5093 13.3987C17.9235 13.3937 18.2552 13.054 18.2503 12.6398C18.2453 12.2256 17.9055 11.8939 17.4913 11.8988L17.5093 13.3987ZM27.4109 21.8184C27.4159 21.4042 27.0842 21.0644 26.67 21.0595C26.2558 21.0545 25.916 21.3863 25.911 21.8004L27.4109 21.8184ZM19.8316 23.4798L19.7488 22.7344L19.8316 23.4798ZM16.3985 23.2319L15.8681 23.7622L15.8681 23.7622L16.3985 23.2319ZM16.1506 19.7988L16.896 19.8816L16.1506 19.7988ZM17.1065 17.8098L16.5762 17.2795L16.5762 17.2795L17.1065 17.8098ZM16.3694 18.6798L15.6935 18.3549L15.6935 18.3549L16.3694 18.6798ZM21.8205 22.5239L22.3509 23.0542L22.3509 23.0542L21.8205 22.5239ZM20.9506 23.2609L21.2755 23.9369L21.2755 23.9369L20.9506 23.2609ZM19.167 26.8928C17.5879 26.8928 16.4638 26.8917 15.5955 26.7977C14.7412 26.7051 14.2239 26.5297 13.8254 26.2402L12.9437 27.4538C13.6405 27.96 14.452 28.1825 15.4339 28.2889C16.4018 28.3938 17.6213 28.3928 19.167 28.3928V26.8928ZM10.917 20.1428C10.917 21.6884 10.916 22.9079 11.0208 23.8758C11.1272 24.8577 11.3497 25.6692 11.856 26.366L13.0695 25.4844C12.78 25.0859 12.6047 24.5685 12.5121 23.7143C12.418 22.8459 12.417 21.7219 12.417 20.1428H10.917ZM13.8254 26.2402C13.5353 26.0295 13.2803 25.7744 13.0695 25.4844L11.856 26.366C12.1592 26.7834 12.5263 27.1505 12.9437 27.4538L13.8254 26.2402ZM19.167 28.3928C20.7127 28.3928 21.9322 28.3938 22.9001 28.2889C23.882 28.1825 24.6935 27.96 25.3903 27.4538L24.5086 26.2402C24.1101 26.5297 23.5928 26.7051 22.7385 26.7977C21.8702 26.8917 20.7461 26.8928 19.167 26.8928V28.3928ZM25.2645 25.4844C25.0537 25.7744 24.7986 26.0295 24.5086 26.2402L25.3903 27.4538C25.8077 27.1505 26.1747 26.7834 26.478 26.366L25.2645 25.4844ZM12.417 20.1428C12.417 18.5637 12.418 17.4396 12.5121 16.5713C12.6047 15.717 12.78 15.1996 13.0695 14.8012L11.856 13.9195C11.3497 14.6163 11.1272 15.4278 11.0208 16.4097C10.916 17.3776 10.917 18.5971 10.917 20.1428H12.417ZM12.9437 12.8318C12.5263 13.135 12.1592 13.5021 11.856 13.9195L13.0695 14.8012C13.2803 14.5111 13.5353 14.256 13.8254 14.0453L12.9437 12.8318ZM17.4913 11.8988C15.4754 11.923 14.0463 12.0307 12.9437 12.8318L13.8254 14.0453C14.4837 13.567 15.4191 13.4238 17.5093 13.3987L17.4913 11.8988ZM25.911 21.8004C25.886 23.8906 25.7427 24.8261 25.2645 25.4844L26.478 26.366C27.2791 25.2634 27.3868 23.8343 27.4109 21.8184L25.911 21.8004ZM25.7667 17.517L21.2902 21.9935L22.3509 23.0542L26.8274 18.5777L25.7667 17.517ZM17.6368 18.3402L22.1133 13.8637L21.0527 12.803L16.5762 17.2795L17.6368 18.3402ZM19.7488 22.7344C18.7699 22.8432 18.117 22.9138 17.635 22.8983C17.1731 22.8834 17.0185 22.7912 16.9288 22.7016L15.8681 23.7622C16.3449 24.239 16.9512 24.377 17.5866 24.3975C18.2018 24.4174 18.9822 24.3288 19.9144 24.2252L19.7488 22.7344ZM15.4052 19.7159C15.3016 20.6482 15.213 21.4286 15.2329 22.0438C15.2534 22.6791 15.3914 23.2855 15.8681 23.7622L16.9288 22.7016C16.8391 22.6119 16.747 22.4573 16.7321 21.9954C16.7165 21.5134 16.7872 20.8604 16.896 19.8816L15.4052 19.7159ZM16.5762 17.2795C16.2029 17.6527 15.8845 17.9573 15.6935 18.3549L17.0454 19.0047C17.1003 18.8905 17.1913 18.7857 17.6368 18.3402L16.5762 17.2795ZM16.896 19.8816C16.9656 19.2553 16.9906 19.1188 17.0454 19.0047L15.6935 18.3549C15.5024 18.7524 15.4635 19.1913 15.4052 19.7159L16.896 19.8816ZM21.2902 21.9935C20.8446 22.4391 20.7398 22.5301 20.6257 22.585L21.2755 23.9369C21.673 23.7459 21.9776 23.4275 22.3509 23.0542L21.2902 21.9935ZM19.9144 24.2252C20.4391 24.1669 20.878 24.128 21.2755 23.9369L20.6257 22.585C20.5116 22.6398 20.3751 22.6648 19.7488 22.7344L19.9144 24.2252ZM25.7667 13.8637C26.3373 14.4342 26.7107 14.8099 26.9508 15.1246C27.1777 15.4219 27.2137 15.5751 27.2137 15.6904H28.7137C28.7137 15.1153 28.472 14.6455 28.1433 14.2147C27.8278 13.8012 27.3679 13.3436 26.8274 12.803L25.7667 13.8637ZM26.8274 18.5777C27.3679 18.0371 27.8278 17.5795 28.1433 17.166C28.472 16.7352 28.7137 16.2655 28.7137 15.6904H27.2137C27.2137 15.8056 27.1777 15.9588 26.9508 16.2561C26.7107 16.5708 26.3373 16.9465 25.7667 17.517L26.8274 18.5777ZM26.8274 12.803C26.2868 12.2624 25.8292 11.8025 25.4157 11.4871C24.9849 11.1584 24.5151 10.9167 23.94 10.9167V12.4167C24.0553 12.4167 24.2085 12.4527 24.5058 12.6796C24.8205 12.9197 25.1962 13.2931 25.7667 13.8637L26.8274 12.803ZM22.1133 13.8637C22.6839 13.2931 23.0596 12.9197 23.3742 12.6796C23.6716 12.4527 23.8248 12.4167 23.94 12.4167V10.9167C23.3649 10.9167 22.8951 11.1584 22.4644 11.4871C22.0509 11.8025 21.5932 12.2624 21.0527 12.803L22.1133 13.8637ZM26.8274 17.517L22.1133 12.803L21.0527 13.8637L25.7667 18.5777L26.8274 17.517Z" fill="url(#paint2_linear_882_1923)"/>
</g>
<defs>
<filter id="filter0_d_882_1923" x="-2" y="0" width="43" height="43" filterUnits="userSpaceOnUse" color-interpolation-filters="sRGB">
<feFlood flood-opacity="0" result="BackgroundImageFix"/>
<feColorMatrix in="SourceAlpha" type="matrix" values="0 0 0 0 0 0 0 0 0 0 0 0 0 0 0 0 0 0 127 0" result="hardAlpha"/>
<feOffset dy="2"/>
<feGaussianBlur stdDeviation="2"/>
<feComposite in2="hardAlpha" operator="out"/>
<feColorMatrix type="matrix" values="0 0 0 0 0.14902 0 0 0 0 0.152941 0 0 0 0 0.235294 0 0 0 0.2 0"/>
<feBlend mode="normal" in2="BackgroundImageFix" result="effect1_dropShadow_882_1923"/>
<feBlend mode="normal" in="SourceGraphic" in2="effect1_dropShadow_882_1923" result="shape"/>
</filter>
<linearGradient id="paint0_linear_882_1923" x1="34.7731" y1="2" x2="47.5369" y2="42.0868" gradientUnits="userSpaceOnUse">
<stop stop-color="#161A42"/>
<stop offset="1" stop-color="#161A42" stop-opacity="0"/>
</linearGradient>
<linearGradient id="paint1_linear_882_1923" x1="-7.71098" y1="-38.4091" x2="35.3846" y2="-32.4628" gradientUnits="userSpaceOnUse">
<stop stop-color="#FF8D8D"/>
<stop offset="1" stop-color="#F7FC0E"/>
</linearGradient>
<linearGradient id="paint2_linear_882_1923" x1="7.14536" y1="-6.77846" x2="27.1963" y2="-3.95632" gradientUnits="userSpaceOnUse">
<stop stop-color="#FF8D8D"/>
<stop offset="1" stop-color="#F7FC0E"/>
</linearGradient>
<clipPath id="clip0_882_1923">
<rect width="39" height="39" fill="white"/>
</clipPath>
</defs>
</svg>
