<svg width="50" height="50" viewBox="0 0 63 63" fill="none" xmlns="http://www.w3.org/2000/svg">
<g filter="url(#filter0_d_56_819)">
<circle cx="31.5" cy="27.5" r="27.5" fill="white"/>
<circle cx="31.5" cy="27.5" r="26.75" stroke="#EBB026" stroke-width="1.5"/>
</g>
<path d="M47.1687 34.2429C46.447 38.0104 45.6852 41.1804 45.2508 41.5741C44.1616 42.5652 32.875 46.0204 31.1844 46C29.4937 45.9864 19.5303 42.925 18.3809 41.5741C18.2406 41.4112 17.9265 40.169 17.5523 38.343C17.5456 38.3362 17.5456 38.3362 17.5456 38.3362C16.2826 32.2608 14.2779 19.7367 15.3538 19.0511C16.7571 18.1618 28.7453 15.4126 32.7013 15.3583C36.6639 15.2972 48.2846 19.6009 48.9128 20.7142C49.2937 21.393 48.2779 28.5002 47.1687 34.2429Z" fill="url(#paint0_linear_56_819)"/>
<path opacity="0.5" d="M15.3673 19.0511C13.4962 20.0625 27.6228 24.7599 30.4628 24.7599C33.3028 24.7599 48.4919 21.0264 48.9196 20.721C49.3473 20.4155 36.5839 15.3312 32.4408 15.3651C28.2977 15.3991 15.9286 18.7524 15.3673 19.0511Z" fill="white"/>
<path opacity="0.3" d="M31.1911 46C29.5339 45.7896 29.9816 26.3619 30.4627 25.5473C30.9438 24.7328 47.6431 21.2776 48.3181 21.4337C48.993 21.5899 45.8456 40.5899 45.2575 41.5673C44.6695 42.5448 31.9529 46.095 31.1911 46Z" fill="#912790"/>
<path opacity="0.74" d="M47.1686 34.243C46.4469 38.0036 45.6851 41.1804 45.2508 41.5741C44.1615 42.5652 32.875 46.0204 31.1843 46C29.4937 45.9864 19.5302 42.925 18.3809 41.5741C18.2405 41.4112 17.9265 40.169 17.5522 38.343C17.6725 38.5195 18.2071 41.099 19.8376 41.9679C20.5326 42.3412 28.2975 45.1854 30.9905 45.1311C33.6902 45.0836 43.393 43.2644 44.7963 41.0175C46.1729 38.8249 47.1352 34.4194 47.1686 34.243Z" fill="#CA2790"/>
<path opacity="0.5" d="M31.1911 46C30.5763 44.7171 36.2563 35.1118 37.6596 34.2497C39.0629 33.3809 42.0166 32.3559 42.9521 32.9872C43.8876 33.6184 45.2508 41.5809 45.2508 41.5809C45.2508 41.5809 43.9077 33.8085 43.2595 32.9125L48.9195 20.8907C48.9195 20.8907 43.3931 31.9621 43.1592 32.3559C42.9254 32.7496 40.4997 32.6342 37.1117 33.9375L30.6765 25.398C30.6765 25.398 30.5229 25.3437 30.456 25.5541C30.3959 25.7646 36.2296 32.6681 36.2497 34.2497C36.2697 35.8314 30.9037 43.9025 30.6699 44.6152C30.4493 45.3212 31.1911 46 31.1911 46Z" fill="#CA2790"/>
<path d="M37.1049 34.7724C36.9044 35.492 42.4775 33.4148 42.952 32.9871C43.4331 32.5527 38.9626 32.7631 37.1049 34.7724Z" fill="#6D8EFF"/>
<path opacity="0.2" d="M32.3673 44.4523C32.3673 44.4523 36.0827 35.9128 37.74 35.1729C39.3972 34.433 42.6716 33.4759 43.293 33.7203C43.9145 33.9646 45.1641 40.8953 44.957 41.4995C44.7498 42.1036 36.624 45.0293 34.1382 45.3483C31.6523 45.6674 32.3673 44.4523 32.3673 44.4523Z" fill="#912790"/>
<path d="M20.6328 22.099C20.6328 22.099 28.4378 25.2758 29.8411 25.4319C31.2444 25.5881 46.7877 21.6781 47.7433 21.2437C48.6988 20.8092 48.8258 20.7617 48.8258 20.7617C48.8258 20.7617 33.4563 24.5766 30.6564 24.3255C25.8451 23.8978 20.6328 22.099 20.6328 22.099Z" fill="#C992FF"/>
<path d="M28.4043 24.9093C29.4868 25.1061 29.9078 39.3408 30.0214 39.8092C30.135 40.2844 29.6205 28.025 30.4625 25.5473L28.4043 24.9093Z" fill="#C992FF"/>
<path d="M28.672 25.1333C26.968 24.1015 33.9778 24.2644 34.185 24.4477C34.3921 24.6242 29.8815 26.2126 28.672 25.1333Z" fill="#EDD6FF"/>
<path opacity="0.2" d="M15.5607 21.4337C15.788 20.049 26.0187 24.8482 27.7762 28.2694C29.5336 31.6838 29.7408 42.7146 29.4334 43.9771C29.126 45.2397 20.1115 42.8028 18.7683 40.2572C17.4251 37.7117 15.1398 24.0268 15.5607 21.4337Z" fill="#C68EC5"/>
<path d="M26.6071 44.9207C26.6071 44.9207 25.7852 45.2805 25.284 45.2058C24.7762 45.1243 22.0564 44.6288 21.7825 44.3233C21.5085 44.0179 17.5258 22.4452 18.1205 21.1147C18.7152 19.7842 29.808 18.1618 30.4696 18.3587C31.1311 18.5556 32.374 19.2683 32.374 19.2683C32.374 19.2683 24.3151 21.875 23.4196 22.6624C22.5242 23.4566 25.4444 44.4116 25.4845 44.5677C25.5179 44.7238 26.6071 44.9207 26.6071 44.9207Z" fill="url(#paint1_linear_56_819)"/>
<path d="M35.5144 45.0632C35.5144 45.0632 36.7707 45.3619 37.0981 45.4026C37.4256 45.4434 41.1209 44.2962 41.5887 43.9771C42.0565 43.6581 43.9209 23.4566 43.7672 22.2279C43.6135 20.9993 32.6677 18.3587 32.2601 18.3383C31.8525 18.318 30.7231 18.5556 30.1819 18.99C29.6339 19.4244 37.5793 22.3501 38.1205 23.4973C38.6685 24.6445 37.2852 44.4387 37.0915 44.5813C36.911 44.7103 35.5144 45.0632 35.5144 45.0632Z" fill="url(#paint2_linear_56_819)"/>
<path d="M30.8639 19.5738C29.641 19.2208 22.2436 17.13 22.2436 17.13L20.0518 17.5984C20.0518 17.5984 20.3725 16.6142 20.6264 16.492C20.8804 16.3766 26.253 15.1411 27.2286 15.3651C28.2043 15.5824 33.3029 19.1054 33.3029 19.1054L30.8639 19.5738Z" fill="url(#paint3_linear_56_819)"/>
<path d="M43.7809 18.2229C43.7809 18.2229 43.7742 17.7478 43.6138 17.4627C43.4601 17.1708 38.7491 15.8267 38.2813 15.786C37.8135 15.7453 30.4629 18.5963 30.4629 18.5963C30.4629 18.5963 31.6724 19.1393 32.5077 19.2615C33.343 19.3837 42.4511 17.7613 42.6449 17.7613C42.8387 17.7613 43.7809 18.2229 43.7809 18.2229Z" fill="url(#paint4_linear_56_819)"/>
<path opacity="0.74" d="M38.3882 45.0429C38.3882 45.0429 38.9027 24.4816 39.5442 23.8367C40.1857 23.1851 42.9055 23.0425 43.2864 23.0968C43.6673 23.1511 41.7494 43.3662 41.4754 43.7599C41.2082 44.1604 38.3882 45.0429 38.3882 45.0429Z" fill="#E8B72D"/>
<path opacity="0.74" d="M26.607 44.9207C26.607 44.9207 25.3574 45.2194 24.9966 45.1583C24.6357 45.0904 22.063 23.796 22.2702 22.6217C22.4773 21.4473 31.0709 19.696 31.0709 19.696C31.0709 19.696 37.4993 22.418 38.0673 22.8932C38.6353 23.3684 38.2411 25.8732 38.2411 25.8732C38.2411 25.8732 38.0005 23.8096 37.526 23.3344C37.0516 22.8592 33.2961 20.8635 31.4785 20.945C30.3692 20.9925 29.3201 22.8592 27.7497 23.4294C26.7474 23.796 24.2749 22.6488 23.9207 23.2394C23.0119 24.7667 25.6314 44.5406 25.8385 44.6967C26.0657 44.846 26.607 44.9207 26.607 44.9207Z" fill="#771B87"/>
<path d="M18.4345 20.8839C18.1739 21.5152 21.2612 22.1261 21.9361 22.0718C22.611 22.0175 29.9817 19.8725 30.1621 19.5738C30.3425 19.2751 27.155 18.7999 26.1794 18.8271C25.2105 18.8542 19.3233 20.2594 18.4345 20.8839Z" fill="white"/>
<path opacity="0.74" d="M32.4473 20.3612C32.4473 20.3612 38.535 20.9653 42.3506 20.4494C46.1663 19.9268 44.1148 18.3383 44.1148 18.3383L31.4517 19.8928L32.4473 20.3612Z" fill="#771B87"/>
<path opacity="0.5" d="M18.1205 21.1079C17.7864 21.1486 20.3658 22.1058 21.0274 22.2619C21.6889 22.418 21.7691 22.6149 22.2168 22.3365C22.6646 22.0582 18.4547 21.0672 18.1205 21.1079Z" fill="white"/>
<path opacity="0.5" d="M39.2166 23.3344C38.0071 23.1376 42.2103 22.3501 42.9922 22.289C43.774 22.2279 42.0032 23.7892 39.2166 23.3344Z" fill="white"/>
<path opacity="0.4" d="M18.4211 22.3501C18.5214 21.6374 21.7891 23.1036 22.0564 23.5381C22.3236 23.9657 23.4597 36.9446 23.2993 37.6506C23.1456 38.3633 20.5194 38.1529 20.4325 37.6506C20.339 37.1483 18.3276 23.0222 18.4211 22.3501Z" fill="#C68EC5"/>
<path opacity="0.74" d="M35.5146 45.0632C35.5146 45.0632 36.4435 44.5066 36.6774 44.1333C36.9113 43.7667 38.2544 25.8664 38.2544 25.8664C38.2544 25.8664 37.5461 43.7396 37.2454 44.5541C36.9447 45.3687 35.5146 45.0632 35.5146 45.0632Z" fill="#CA2790"/>
<path d="M33.0288 19.5806C33.0221 19.5806 33.0155 19.5738 33.0155 19.5738H33.0088C32.982 19.567 32.9152 19.5806 32.8016 19.6145C32.7548 19.6281 32.688 19.6552 32.6212 19.6824C31.2246 20.2526 26.5603 22.7031 25.7517 22.8525C25.5579 22.8932 25.1369 22.8253 24.5823 22.6963C22.4439 22.2144 18.361 20.7957 18.0603 20.4495C17.6794 20.015 14.4384 11.6045 18.4144 10.6134C20.8936 9.99573 24.3083 12.9961 26.9345 15.2973C28.5182 16.6888 29.8213 17.8292 30.4628 17.7749C30.4628 17.7749 31.4317 18.4334 32.1802 18.9493C32.1868 18.9493 32.1868 18.9493 32.1868 18.9561C32.3071 19.0375 32.4274 19.1258 32.5343 19.2004C32.688 19.3023 32.8217 19.4041 32.9085 19.4652C32.982 19.5263 33.0288 19.567 33.0288 19.5806Z" fill="url(#paint5_linear_56_819)"/>
<path opacity="0.5" d="M25.6983 22.3501C24.3217 22.8932 23.4129 15.6299 23.6735 14.4623C23.9341 13.2948 28.4781 19.2276 31.2981 19.2683C34.1181 19.3023 25.999 22.2347 25.6983 22.3501Z" fill="#912790"/>
<path opacity="0.74" d="M33.0288 19.2683L32.9018 19.472L32.8751 19.5127L32.8083 19.6213L32.6278 19.6892C31.2312 20.2594 26.5669 22.7099 25.7584 22.8592C25.5646 22.9 25.1436 22.8321 24.5889 22.7031C23.5866 20.6327 21.3212 11.8285 24.4352 13.8242C25.197 14.313 26.0591 14.8153 26.9411 15.304C28.5249 16.6956 29.8279 17.836 30.4694 17.7817C30.4694 17.7817 30.6231 17.4762 31.3649 17.9989C30.9305 17.5306 31.5052 17.9786 31.4584 17.8767C32.0866 18.2705 32.5744 18.6302 32.8283 18.9221C32.9419 19.0443 33.0154 19.1597 33.0288 19.2683Z" fill="#E8B72D"/>
<path d="M43.4534 18.7321C42.6248 19.6077 34.0379 20.0286 32.9888 19.696C32.9086 19.6688 32.8284 19.6349 32.7549 19.5941C32.7482 19.5941 32.7482 19.5874 32.7415 19.5874H32.7349C32.6948 19.567 32.6614 19.5466 32.6213 19.5263C32.5143 19.4584 32.4141 19.3769 32.3139 19.3023V19.2955C32.2136 19.2072 32.1268 19.1122 32.0466 19.0172C32.0466 19.0104 32.0466 19.0104 32.0399 19.0104C31.679 18.5827 31.4786 18.1008 31.4452 18.0125C31.4385 17.9989 31.4385 17.9989 31.4385 17.9989C32.207 17.9921 35.214 9.378 36.2298 8.47518C37.192 7.62666 43.7007 7.93212 46.3268 9.20829C46.6142 9.34406 46.8414 9.48661 47.0084 9.64952C48.7793 11.3058 44.3154 17.8292 43.4534 18.7321Z" fill="url(#paint6_linear_56_819)"/>
<path opacity="0.5" d="M33.002 19.1529C33.002 19.1529 36.0424 18.3316 38.5951 17.0147C42.4108 15.0461 44.2484 10.9868 45.8455 10.8035C47.5027 10.6134 45.0035 17.5984 41.963 18.5488C39.1898 19.4109 33.002 19.1529 33.002 19.1529Z" fill="#912790"/>
<path opacity="0.74" d="M43.4535 18.7321C42.6249 19.6077 34.038 20.0286 32.9889 19.696C32.9087 19.6688 32.8285 19.6349 32.755 19.5941C32.7483 19.5941 32.7483 19.5874 32.7416 19.5874H32.735C32.7149 19.5806 32.6548 19.5941 32.5612 19.6281L32.4409 19.8317L32.4075 19.696L32.314 19.3023V19.2955C32.3206 19.2751 32.3206 19.2547 32.334 19.2412C32.3674 19.1461 32.4543 19.0579 32.5879 18.9696C33.6037 18.2705 37.4394 17.4559 39.9118 15.0461C43.1328 11.8964 44.1953 9.51376 46.3336 9.20151C46.621 9.33727 46.8482 9.47982 47.0152 9.64274C48.7794 11.3058 44.3155 17.8292 43.4535 18.7321Z" fill="#E8B72D"/>
<path d="M30.0215 17.6799C30.0215 17.6799 32.3937 17.0622 33.7904 17.6799C35.1937 18.2976 34.8796 19.3634 34.7259 19.8317C34.5722 20.3001 31.7723 20.0625 31.7723 20.0625C31.7723 20.0625 31.9393 19.5195 31.7054 18.7456C31.4716 17.9786 30.0215 17.6799 30.0215 17.6799Z" fill="url(#paint7_linear_56_819)"/>
<path opacity="0.3" d="M30.4629 17.5849C30.4629 17.5849 31.9798 18.3519 32.2137 18.5352C32.4476 18.7117 34.3387 18.2976 34.3921 18.2026C34.4456 18.1075 33.3764 17.4695 32.3674 17.4627C31.3583 17.4491 30.4629 17.5849 30.4629 17.5849Z" fill="white"/>
<path opacity="0.74" d="M32.3403 17.5441C32.3403 17.5441 33.9107 14.1229 35.2004 11.5502C36.597 8.76028 41.6355 10.0161 41.5353 12.2222C41.4351 14.3537 35.4343 17.5849 34.5188 17.7274C33.63 17.87 32.3403 17.5441 32.3403 17.5441Z" fill="#E8B72D"/>
<path opacity="0.74" d="M23.3126 22.1533C24.3484 22.1533 21.8559 14.1365 19.7843 12.7653C17.7061 11.3941 16.9777 12.5956 16.7238 13.5256C16.4699 14.4555 17.9266 20.144 18.4145 20.6599C18.909 21.1894 23.3126 22.1533 23.3126 22.1533Z" fill="#E8B72D"/>
<path opacity="0.74" d="M33.2959 17.7206C33.2959 17.7206 34.8329 17.3812 35.6347 16.3834C36.4634 15.3448 36.0156 12.0729 35.4142 12.1951C34.8195 12.3173 32.3403 17.5441 32.3403 17.5441L33.2959 17.7206Z" fill="#E8B72D"/>
<path opacity="0.3" d="M17.0847 11.5027C16.7706 12.0865 20.593 12.1272 21.4884 13.3898C22.3838 14.6524 22.9117 13.5256 23.6334 13.3898C24.3551 13.254 21.0073 10.98 19.1963 10.9393C17.3854 10.8985 17.0847 11.5027 17.0847 11.5027Z" fill="white"/>
<path opacity="0.3" d="M35.6685 9.67668C35.3678 10.179 38.7825 9.15399 40.4799 10.0093C42.2306 10.885 43.821 10.1383 44.4826 9.46624C45.1642 8.77385 37.1253 7.25331 35.6685 9.67668Z" fill="white"/>
<path opacity="0.74" d="M41.4554 14.9171C39.8917 16.5327 42.3708 18.3316 42.8119 18.2094C43.2596 18.0804 46.4805 14.1569 46.1197 11.9303C45.7588 9.65632 44.3288 11.9575 41.4554 14.9171Z" fill="#E8B72D"/>
<path opacity="0.74" d="M23.9876 18.5759C24.1212 19.1936 30.0819 19.3498 30.4628 19.2683C30.837 19.1801 27.8567 17.8632 26.146 16.0439C24.4353 14.2247 23.8272 14.1976 23.6802 14.4623C23.5265 14.727 23.8873 18.1075 23.9876 18.5759Z" fill="#E8B72D"/>
<path d="M15.8082 28.283C15.8082 28.283 15.0264 22.1804 15.5142 20.6599C16.002 19.1393 16.55 18.5759 16.55 18.5759C16.55 18.5759 15.5209 18.7456 15.2001 19.0782C14.8727 19.4177 14.8727 21.4134 15.8082 28.283Z" fill="#C992FF"/>
<path d="M15.1934 19.3226C15.2201 19.8114 15.6745 19.9064 15.7747 19.8046C15.875 19.7028 16.2358 18.8203 16.2358 18.8203C16.2358 18.8203 15.1666 18.8746 15.1934 19.3226Z" fill="#EDD6FF"/>
<defs>
<filter id="filter0_d_56_819" x="0" y="0" width="63" height="63" filterUnits="userSpaceOnUse" color-interpolation-filters="sRGB">
<feFlood flood-opacity="0" result="BackgroundImageFix"/>
<feColorMatrix in="SourceAlpha" type="matrix" values="0 0 0 0 0 0 0 0 0 0 0 0 0 0 0 0 0 0 127 0" result="hardAlpha"/>
<feOffset dy="4"/>
<feGaussianBlur stdDeviation="2"/>
<feComposite in2="hardAlpha" operator="out"/>
<feColorMatrix type="matrix" values="0 0 0 0 0 0 0 0 0 0 0 0 0 0 0 0 0 0 0.25 0"/>
<feBlend mode="normal" in2="BackgroundImageFix" result="effect1_dropShadow_56_819"/>
<feBlend mode="normal" in="SourceGraphic" in2="effect1_dropShadow_56_819" result="shape"/>
</filter>
<linearGradient id="paint0_linear_56_819" x1="32.0269" y1="45.9981" x2="32.0269" y2="15.3592" gradientUnits="userSpaceOnUse">
<stop stop-color="#5A2BE0"/>
<stop offset="1" stop-color="#A66BFF"/>
</linearGradient>
<linearGradient id="paint1_linear_56_819" x1="25.2123" y1="45.2124" x2="25.2123" y2="18.3375" gradientUnits="userSpaceOnUse">
<stop stop-color="#FFFF00"/>
<stop offset="1" stop-color="#FFBE3B"/>
</linearGradient>
<linearGradient id="paint2_linear_56_819" x1="36.9724" y1="45.3997" x2="36.9724" y2="18.336" gradientUnits="userSpaceOnUse">
<stop stop-color="#FFFF00"/>
<stop offset="1" stop-color="#FFBE3B"/>
</linearGradient>
<linearGradient id="paint3_linear_56_819" x1="26.6808" y1="19.5753" x2="26.6808" y2="15.3403" gradientUnits="userSpaceOnUse">
<stop stop-color="#E8CD1D"/>
<stop offset="1" stop-color="#FFFF3B"/>
</linearGradient>
<linearGradient id="paint4_linear_56_819" x1="37.1238" y1="19.2651" x2="37.1238" y2="15.7836" gradientUnits="userSpaceOnUse">
<stop stop-color="#E82E86"/>
<stop offset="1" stop-color="#FF003B"/>
</linearGradient>
<linearGradient id="paint5_linear_56_819" x1="24.7427" y1="22.8663" x2="24.7427" y2="10.5324" gradientUnits="userSpaceOnUse">
<stop stop-color="#FFFF00"/>
<stop offset="1" stop-color="#FFBE3B"/>
</linearGradient>
<linearGradient id="paint6_linear_56_819" x1="39.438" y1="19.8094" x2="39.438" y2="8.00001" gradientUnits="userSpaceOnUse">
<stop stop-color="#FFFF00"/>
<stop offset="1" stop-color="#FFBE3B"/>
</linearGradient>
<linearGradient id="paint7_linear_56_819" x1="32.448" y1="20.1249" x2="32.448" y2="17.4044" gradientUnits="userSpaceOnUse">
<stop stop-color="#FFFF00"/>
<stop offset="1" stop-color="#FFBE3B"/>
</linearGradient>
</defs>
</svg>
