<svg width="40" height="40" viewBox="0 0 40 40" fill="none" xmlns="http://www.w3.org/2000/svg">
<g filter="url(#filter0_d_390_3183)">
<circle cx="20" cy="18" r="16" fill="#EBECFF"/>
<path d="M20.9999 14.5V10H16.4999C16.1021 10 15.7205 10.158 15.4392 10.4393C15.1579 10.7206 14.9999 11.1022 14.9999 11.5V17.003C15.7155 17.03 16.4093 17.2565 17.0029 17.657C17.7969 17.1258 18.7599 16.9086 19.7051 17.0476C20.6502 17.1865 21.51 17.6717 22.1175 18.409C22.725 19.1462 23.0369 20.0829 22.9926 21.0371C22.9484 21.9914 22.5511 22.8952 21.8779 23.573L19.4499 26H25.4999C25.8977 26 26.2792 25.842 26.5606 25.5607C26.8419 25.2794 26.9999 24.8978 26.9999 24.5V16H22.4999C22.1021 16 21.7205 15.842 21.4392 15.5607C21.1579 15.2794 20.9999 14.8978 20.9999 14.5ZM21.9999 14.5V10.25L26.7499 15H22.4999C22.3673 15 22.2401 14.9473 22.1463 14.8536C22.0526 14.7598 21.9999 14.6326 21.9999 14.5ZM17.1369 18.835C17.4016 18.5703 17.7158 18.3604 18.0616 18.2171C18.4074 18.0739 18.7781 18.0002 19.1524 18.0002C19.5267 18.0002 19.8974 18.0739 20.2432 18.2171C20.589 18.3604 20.9032 18.5703 21.1679 18.835C21.4326 19.0997 21.6425 19.4139 21.7858 19.7597C21.929 20.1055 22.0027 20.4762 22.0027 20.8505C22.0027 21.2248 21.929 21.5955 21.7858 21.9413C21.6425 22.2871 21.4326 22.6013 21.1679 22.866L17.3539 26.68C17.2601 26.7737 17.133 26.8264 17.0004 26.8264C16.8678 26.8264 16.7407 26.7737 16.6469 26.68L12.8329 22.866C12.2984 22.3315 11.998 21.6065 11.998 20.8505C11.998 20.4762 12.0718 20.1055 12.215 19.7597C12.3583 19.4139 12.5682 19.0997 12.8329 18.835C13.0976 18.5703 13.4118 18.3604 13.7576 18.2171C14.1034 18.0739 14.4741 18.0002 14.8484 18.0002C15.6044 18.0002 16.3294 18.3005 16.8639 18.835L17.0009 18.971L17.1369 18.835ZM21.1679 22.866L20.8149 22.513L21.1679 22.866Z" fill="#9F9DF3"/>
</g>
<defs>
<filter id="filter0_d_390_3183" x="0" y="0" width="40" height="40" filterUnits="userSpaceOnUse" color-interpolation-filters="sRGB">
<feFlood flood-opacity="0" result="BackgroundImageFix"/>
<feColorMatrix in="SourceAlpha" type="matrix" values="0 0 0 0 0 0 0 0 0 0 0 0 0 0 0 0 0 0 127 0" result="hardAlpha"/>
<feOffset dy="2"/>
<feGaussianBlur stdDeviation="2"/>
<feComposite in2="hardAlpha" operator="out"/>
<feColorMatrix type="matrix" values="0 0 0 0 0.14902 0 0 0 0 0.152941 0 0 0 0 0.235294 0 0 0 0.2 0"/>
<feBlend mode="normal" in2="BackgroundImageFix" result="effect1_dropShadow_390_3183"/>
<feBlend mode="normal" in="SourceGraphic" in2="effect1_dropShadow_390_3183" result="shape"/>
</filter>
</defs>
</svg>
