<svg width="32" height="32" viewBox="0 0 32 32" fill="none" xmlns="http://www.w3.org/2000/svg">
<circle cx="16" cy="16" r="16" fill="#DAECFF"/>
<path d="M16.9999 12.5V8H12.4999C12.1021 8 11.7205 8.15804 11.4392 8.43934C11.1579 8.72064 10.9999 9.10218 10.9999 9.5V15.003C11.7155 15.03 12.4093 15.2565 13.0029 15.657C13.7969 15.1258 14.7599 14.9086 15.7051 15.0476C16.6502 15.1865 17.51 15.6717 18.1175 16.409C18.725 17.1462 19.0369 18.0829 18.9926 19.0371C18.9484 19.9914 18.5511 20.8952 17.8779 21.573L15.4499 24H21.4999C21.8977 24 22.2792 23.842 22.5606 23.5607C22.8419 23.2794 22.9999 22.8978 22.9999 22.5V14H18.4999C18.1021 14 17.7205 13.842 17.4392 13.5607C17.1579 13.2794 16.9999 12.8978 16.9999 12.5ZM17.9999 12.5V8.25L22.7499 13H18.4999C18.3673 13 18.2401 12.9473 18.1463 12.8536C18.0526 12.7598 17.9999 12.6326 17.9999 12.5ZM13.1369 16.835C13.4016 16.5703 13.7158 16.3604 14.0616 16.2171C14.4074 16.0739 14.7781 16.0002 15.1524 16.0002C15.5267 16.0002 15.8974 16.0739 16.2432 16.2171C16.589 16.3604 16.9032 16.5703 17.1679 16.835C17.4326 17.0997 17.6425 17.4139 17.7858 17.7597C17.929 18.1055 18.0027 18.4762 18.0027 18.8505C18.0027 19.2248 17.929 19.5955 17.7858 19.9413C17.6425 20.2871 17.4326 20.6013 17.1679 20.866L13.3539 24.68C13.2601 24.7737 13.133 24.8264 13.0004 24.8264C12.8678 24.8264 12.7407 24.7737 12.6469 24.68L8.83289 20.866C8.29835 20.3315 7.99805 19.6065 7.99805 18.8505C7.99805 18.4762 8.07177 18.1055 8.21502 17.7597C8.35826 17.4139 8.56822 17.0997 8.83289 16.835C9.09757 16.5703 9.41179 16.3604 9.75761 16.2171C10.1034 16.0739 10.4741 16.0002 10.8484 16.0002C11.6044 16.0002 12.3294 16.3005 12.8639 16.835L13.0009 16.971L13.1369 16.835Z" fill="url(#paint0_linear_882_1278)"/>
<defs>
<linearGradient id="paint0_linear_882_1278" x1="15.499" y1="8" x2="15.499" y2="24.8264" gradientUnits="userSpaceOnUse">
<stop stop-color="#3461FF"/>
<stop offset="1" stop-color="#8454EB"/>
</linearGradient>
</defs>
</svg>
