<svg width="30" height="30" viewBox="0 0 30 30" fill="none" xmlns="http://www.w3.org/2000/svg">
<path d="M7.86696 6.20695C4.53344 8.62889 2.86668 9.83986 2.21205 11.6286C2.15954 11.7721 2.1123 11.9175 2.07044 12.0645C1.54863 13.8964 2.18528 15.8558 3.45857 19.7746C4.73186 23.6934 5.36851 25.6528 6.86744 26.8281C6.98769 26.9224 7.11135 27.0122 7.23818 27.0975C7.77149 27.4558 8.35933 27.6933 9.06238 27.8507V23.5246C9.06238 20.2454 11.7207 17.5871 14.9999 17.5871C18.2791 17.5871 20.9374 20.2454 20.9374 23.5246V27.8507C21.6404 27.6933 22.2283 27.4558 22.7616 27.0975C22.8884 27.0122 23.0121 26.9224 23.1323 26.8281C24.6313 25.6528 25.2679 23.6934 26.5412 19.7746C27.8145 15.8558 28.4511 13.8964 27.9293 12.0645C27.8875 11.9175 27.8402 11.7721 27.7877 11.6286C27.1331 9.83987 25.4663 8.6289 22.1328 6.20696C18.7993 3.78502 17.1325 2.57403 15.229 2.5042C15.0763 2.4986 14.9235 2.4986 14.7708 2.5042C12.8672 2.57403 11.2005 3.78501 7.86696 6.20695Z" fill="#A9A9A9"/>
<path d="M19.0624 28.0915V23.5246C19.0624 21.2809 17.2435 19.4621 14.9999 19.4621C12.7562 19.4621 10.9374 21.2809 10.9374 23.5246V28.0915C12.0286 28.1598 13.3488 28.1598 14.9999 28.1598C16.6509 28.1598 17.9712 28.1598 19.0624 28.0915Z" fill="#A9A9A9"/>
</svg>
