<svg width="24" height="20" viewBox="0 0 26 19" fill="none" xmlns="http://www.w3.org/2000/svg">
<path d="M13 0H3.9C2.86599 0.00107542 1.87463 0.412312 1.14347 1.14347C0.412312 1.87463 0.00107542 2.86599 0 3.9L0 13C0.00107542 14.034 0.412312 15.0254 1.14347 15.7565C1.87463 16.4877 2.86599 16.8989 3.9 16.9H16.9V3.9C16.8989 2.86599 16.4877 1.87463 15.7565 1.14347C15.0254 0.412312 14.034 0.00107542 13 0Z" fill="#8CB6F4"/>
<path d="M25.5088 9.99789L23.5969 6.55594C23.259 5.94805 22.7647 5.44155 22.1653 5.08887C21.5658 4.7362 20.883 4.55018 20.1875 4.55008H16.8999V16.9001H22.0999C23.1339 16.899 24.1253 16.4878 24.8564 15.7566C25.5876 15.0254 25.9988 14.0341 25.9999 13.0001V11.892C25.9993 11.2293 25.8303 10.5775 25.5088 9.99789Z" fill="#C2DAFE"/>
<path d="M23.3593 10.5669L22.0172 8.15531C21.8486 7.85084 21.6016 7.59703 21.3019 7.42023C21.0021 7.24342 20.6605 7.15006 20.3125 7.14984H19.0328C18.9466 7.14984 18.8639 7.18408 18.803 7.24503C18.742 7.30598 18.7078 7.38865 18.7078 7.47484V10.7248C18.7078 10.811 18.742 10.8937 18.803 10.9547C18.8639 11.0156 18.9466 11.0498 19.0328 11.0498H23.0744C23.1311 11.05 23.1868 11.0353 23.2361 11.0073C23.2853 10.9792 23.3264 10.9388 23.3552 10.89C23.384 10.8412 23.3995 10.7857 23.4003 10.729C23.401 10.6723 23.3869 10.6164 23.3593 10.5669Z" fill="#5389F0"/>
<path d="M6.4999 18.8498C7.93584 18.8498 9.0999 17.6858 9.0999 16.2498C9.0999 14.8139 7.93584 13.6498 6.4999 13.6498C5.06396 13.6498 3.8999 14.8139 3.8999 16.2498C3.8999 17.6858 5.06396 18.8498 6.4999 18.8498Z" fill="#5389F0"/>
<path d="M20.8 18.8498C22.2359 18.8498 23.4 17.6858 23.4 16.2498C23.4 14.8139 22.2359 13.6498 20.8 13.6498C19.364 13.6498 18.2 14.8139 18.2 16.2498C18.2 17.6858 19.364 18.8498 20.8 18.8498Z" fill="#5389F0"/>
</svg>
