<svg width="32" height="32" viewBox="0 0 32 32" fill="none" xmlns="http://www.w3.org/2000/svg">
<circle cx="16" cy="16" r="16" fill="#DEF5E9"/>
<path d="M11.9755 11.2887C12.0197 11.2445 12.0418 11.2224 12.0612 11.2046C12.5394 10.7651 13.2745 10.7651 13.7527 11.2046C13.7722 11.2224 13.7943 11.2445 13.8384 11.2887L14.7498 12.2C15.2511 12.7013 15.3944 13.4583 15.1112 14.1082C14.8279 14.7581 14.9712 15.5151 15.4725 16.0164L16.9705 17.5144C17.4718 18.0157 18.2288 18.159 18.8787 17.8758C19.5286 17.5925 20.2856 17.7359 20.7869 18.2371L21.6983 19.1485C21.7424 19.1927 21.7645 19.2147 21.7824 19.2342C22.2218 19.7124 22.2218 20.4475 21.7824 20.9257C21.7645 20.9452 21.7424 20.9672 21.6983 21.0114L21.1443 21.5654C20.6932 22.0165 20.0428 22.2059 19.42 22.0675C15.1765 21.1245 11.8625 17.8104 10.9195 13.5669C10.7811 12.9441 10.9704 12.2938 11.4216 11.8426L11.9755 11.2887Z" stroke="#5FC88F" stroke-width="1.8"/>
</svg>
