<svg width="40" height="40" viewBox="0 0 40 40" fill="none" xmlns="http://www.w3.org/2000/svg">
<g filter="url(#filter0_d_390_3177)">
<circle cx="20" cy="18" r="16" fill="#DFF0FF"/>
<path fill-rule="evenodd" clip-rule="evenodd" d="M25.8333 12.1575V13C26.2754 13 26.6993 13.1756 27.0118 13.4882C27.3244 13.8007 27.5 14.2247 27.5 14.6667V23C27.5 23.442 27.3244 23.866 27.0118 24.1785C26.6993 24.4911 26.2754 24.6667 25.8333 24.6667H14.1667C13.7246 24.6667 13.3007 24.4911 12.9882 24.1785C12.6756 23.866 12.5 23.442 12.5 23V14.6667C12.5 13.7958 13.1958 13.0058 14.0108 12.7733L23.1775 10.1542C23.4876 10.0656 23.814 10.0501 24.131 10.1091C24.4481 10.1681 24.7471 10.2999 25.0046 10.4941C25.262 10.6883 25.4709 10.9396 25.6147 11.2283C25.7585 11.5169 25.8334 11.835 25.8333 12.1575V12.1575ZM22.9167 17.5833C22.5851 17.5833 22.2672 17.715 22.0328 17.9495C21.7984 18.1839 21.6667 18.5018 21.6667 18.8333C21.6667 19.1649 21.7984 19.4828 22.0328 19.7172C22.2672 19.9517 22.5851 20.0833 22.9167 20.0833C23.2482 20.0833 23.5661 19.9517 23.8005 19.7172C24.035 19.4828 24.1667 19.1649 24.1667 18.8333C24.1667 18.5018 24.035 18.1839 23.8005 17.9495C23.5661 17.715 23.2482 17.5833 22.9167 17.5833V17.5833ZM24.1667 12.1575C24.1667 12.0987 24.1543 12.0405 24.1302 11.9868C24.1062 11.9332 24.0711 11.8852 24.0271 11.8461C23.9832 11.8069 23.9315 11.7776 23.8754 11.7599C23.8193 11.7421 23.7601 11.7365 23.7017 11.7433L23.635 11.7567L19.2833 13H24.1667V12.1575Z" fill="#66B6FF"/>
</g>
<defs>
<filter id="filter0_d_390_3177" x="0" y="0" width="40" height="40" filterUnits="userSpaceOnUse" color-interpolation-filters="sRGB">
<feFlood flood-opacity="0" result="BackgroundImageFix"/>
<feColorMatrix in="SourceAlpha" type="matrix" values="0 0 0 0 0 0 0 0 0 0 0 0 0 0 0 0 0 0 127 0" result="hardAlpha"/>
<feOffset dy="2"/>
<feGaussianBlur stdDeviation="2"/>
<feComposite in2="hardAlpha" operator="out"/>
<feColorMatrix type="matrix" values="0 0 0 0 0.14902 0 0 0 0 0.152941 0 0 0 0 0.235294 0 0 0 0.2 0"/>
<feBlend mode="normal" in2="BackgroundImageFix" result="effect1_dropShadow_390_3177"/>
<feBlend mode="normal" in="SourceGraphic" in2="effect1_dropShadow_390_3177" result="shape"/>
</filter>
</defs>
</svg>
