<svg width="32" height="32" viewBox="0 0 32 32" fill="none" xmlns="http://www.w3.org/2000/svg">
<circle cx="16" cy="16" r="16" fill="#E8D5FF"/>
<path fill-rule="evenodd" clip-rule="evenodd" d="M21.8333 10.1575V11C22.2754 11 22.6993 11.1756 23.0118 11.4882C23.3244 11.8007 23.5 12.2247 23.5 12.6667V21C23.5 21.442 23.3244 21.866 23.0118 22.1785C22.6993 22.4911 22.2754 22.6667 21.8333 22.6667H10.1667C9.72464 22.6667 9.30072 22.4911 8.98816 22.1785C8.67559 21.866 8.5 21.442 8.5 21V12.6667C8.5 11.7958 9.19583 11.0058 10.0108 10.7733L19.1775 8.15418C19.4876 8.06556 19.814 8.05013 20.131 8.10912C20.4481 8.1681 20.7471 8.29989 21.0046 8.49409C21.262 8.6883 21.4709 8.93962 21.6147 9.22827C21.7585 9.51692 21.8334 9.83502 21.8333 10.1575V10.1575ZM18.9167 15.5833C18.5851 15.5833 18.2672 15.715 18.0328 15.9495C17.7984 16.1839 17.6667 16.5018 17.6667 16.8333C17.6667 17.1649 17.7984 17.4828 18.0328 17.7172C18.2672 17.9517 18.5851 18.0833 18.9167 18.0833C19.2482 18.0833 19.5661 17.9517 19.8005 17.7172C20.035 17.4828 20.1667 17.1649 20.1667 16.8333C20.1667 16.5018 20.035 16.1839 19.8005 15.9495C19.5661 15.715 19.2482 15.5833 18.9167 15.5833V15.5833ZM20.1667 10.1575C20.1667 10.0987 20.1543 10.0405 20.1302 9.98684C20.1062 9.93316 20.0711 9.88518 20.0271 9.84606C19.9832 9.80693 19.9315 9.77755 19.8754 9.75985C19.8193 9.74215 19.7601 9.73652 19.7017 9.74335L19.635 9.75668L15.2833 11H20.1667V10.1575Z" fill="url(#paint0_linear_882_1272)"/>
<defs>
<linearGradient id="paint0_linear_882_1272" x1="8.5" y1="15.3703" x2="23.5" y2="15.3703" gradientUnits="userSpaceOnUse">
<stop stop-color="#9733EE"/>
<stop offset="1" stop-color="#DA22FF"/>
</linearGradient>
</defs>
</svg>
