<svg width="30" height="30" viewBox="0 0 30 30" fill="none" xmlns="http://www.w3.org/2000/svg">
<path d="M10.7957 4.29904C11.6768 2.8666 13.2275 2 14.889 2C16.5504 2 18.1011 2.8666 18.9822 4.29904L20.9256 7.4443L22.285 6.64906C22.7079 6.39928 23.2365 6.43496 23.6242 6.73572C24.0119 7.03648 24.1831 7.54625 24.0572 8.02543L22.8791 12.4808C22.7079 13.1333 22.0433 13.5207 21.3989 13.3474L16.9985 12.1545C16.5253 12.0271 16.1779 11.6244 16.1124 11.135C16.047 10.6456 16.2836 10.1613 16.7065 9.91666L18.1364 9.08064L16.2483 6.02715C15.9563 5.55307 15.4428 5.2625 14.889 5.2625C14.3351 5.2625 13.8216 5.55307 13.5296 6.02715L12.6485 7.45449C12.1853 8.20895 11.2086 8.44854 10.4534 7.98975C9.68306 7.52076 9.43636 6.50123 9.91466 5.72639L10.7957 4.29904ZM23.6242 14.841C24.3794 14.3822 25.3562 14.6218 25.8193 15.3762L27.0478 17.3694C27.5211 18.1392 27.7728 19.0211 27.7829 19.9285C27.798 22.6353 25.6331 24.8426 22.9596 24.8426L18.1112 24.8375V26.4688C18.1112 26.9632 17.8192 27.4118 17.3661 27.6004C16.9129 27.789 16.3943 27.6871 16.047 27.3354L12.8247 24.0729C12.3515 23.5937 12.3515 22.8188 12.8247 22.3447L16.047 19.0822C16.3943 18.7305 16.9129 18.6286 17.3661 18.8172C17.8192 19.0058 18.1112 19.4544 18.1112 19.9488V21.5801H22.9546C23.8407 21.5801 24.5607 20.846 24.5556 19.9488C24.5556 19.6481 24.47 19.3524 24.314 19.0975L23.0855 17.1044C22.6072 16.3295 22.8489 15.31 23.6242 14.841ZM5.26761 13.2607L3.81258 12.4094C3.38966 12.1596 3.15303 11.6804 3.21848 11.1911C3.28393 10.7017 3.63133 10.299 4.10459 10.1715L8.50494 8.97869C9.14938 8.80537 9.81397 9.19279 9.98515 9.84529L11.1633 14.2955C11.2891 14.7747 11.118 15.2794 10.7303 15.5853C10.3426 15.8911 9.81397 15.9217 9.39105 15.6719L8.05685 14.892L5.46397 19.0924C5.30789 19.3473 5.2223 19.643 5.2223 19.9437C5.21727 20.8409 5.93723 21.575 6.82334 21.575H8.44452C9.33567 21.575 10.0556 22.304 10.0556 23.2062C10.0556 24.1085 9.33567 24.8375 8.44452 24.8375H6.82334C4.14991 24.8375 1.98497 22.6353 2.00008 19.9234C2.00511 19.016 2.25685 18.1341 2.73515 17.3643L5.26761 13.2607Z" fill="#A9A9A9"/>
</svg>
