<svg width="26" height="26" viewBox="0 0 30 30" fill="none" xmlns="http://www.w3.org/2000/svg">
<path d="M10.5286 5.22923C11.383 3.84028 12.8866 3 14.4976 3C16.1086 3 17.6122 3.84028 18.4665 5.22923L20.3509 8.27897L21.669 7.50788C22.079 7.26568 22.5916 7.30028 22.9675 7.59191C23.3434 7.88354 23.5094 8.37782 23.3874 8.84245L22.245 13.1625C22.079 13.7952 21.4346 14.1708 20.8098 14.0028L16.543 12.8462C16.0842 12.7226 15.7473 12.3321 15.6838 11.8576C15.6204 11.3831 15.8498 10.9135 16.2599 10.6762L17.6463 9.86562L15.8157 6.90485C15.5325 6.44517 15.0346 6.16343 14.4976 6.16343C13.9606 6.16343 13.4626 6.44517 13.1795 6.90485L12.3251 8.28885C11.876 9.02039 10.9289 9.25271 10.1967 8.80785C9.44975 8.35311 9.21054 7.36454 9.67431 6.61322L10.5286 5.22923ZM22.9675 15.451C23.6998 15.0062 24.6469 15.2385 25.096 15.97L26.2872 17.9027C26.7461 18.6491 26.9902 19.5042 26.9999 20.384C27.0146 23.0087 24.9154 25.1489 22.3231 25.1489L17.6219 25.144V26.7257C17.6219 27.2051 17.3388 27.6401 16.8994 27.823C16.4601 28.0059 15.9572 27.907 15.6204 27.566L12.496 24.4025C12.0371 23.9379 12.0371 23.1866 12.496 22.7269L15.6204 19.5635C15.9572 19.2224 16.4601 19.1236 16.8994 19.3065C17.3388 19.4894 17.6219 19.9243 17.6219 20.4038V21.9855H22.3182C23.1775 21.9855 23.8756 21.2737 23.8707 20.4038C23.8707 20.1122 23.7877 19.8255 23.6363 19.5783L22.4452 17.6457C21.9814 16.8944 22.2157 15.9058 22.9675 15.451ZM5.16838 13.9188L3.75753 13.0933C3.34746 12.8511 3.11802 12.3865 3.18148 11.912C3.24494 11.4374 3.58179 11.047 4.04068 10.9234L8.3074 9.76676C8.93227 9.59871 9.57667 9.97436 9.74266 10.607L10.885 14.9222C11.0071 15.3868 10.8411 15.8761 10.4652 16.1727C10.0893 16.4693 9.57668 16.4989 9.1666 16.2567L7.87292 15.5005L5.35878 19.5734C5.20744 19.8205 5.12445 20.1072 5.12445 20.3988C5.11957 21.2688 5.81767 21.9806 6.67687 21.9806H8.24882C9.1129 21.9806 9.811 22.6874 9.811 23.5623C9.811 24.4372 9.1129 25.144 8.24882 25.144H6.67687C4.08462 25.144 1.98543 23.0087 2.00008 20.3791C2.00496 19.4992 2.24905 18.6441 2.71282 17.8978L5.16838 13.9188Z" fill="#493B83"/>
</svg>
