<svg width="24" height="24" viewBox="0 0 24 24" fill="none" xmlns="http://www.w3.org/2000/svg">
<g clip-path="url(#clip0_882_1317)">
<path fill-rule="evenodd" clip-rule="evenodd" d="M10.4173 4.16659C6.96554 4.16659 4.16732 6.96481 4.16732 10.4166C4.16732 13.8684 6.96554 16.6666 10.4173 16.6666C13.8691 16.6666 16.6673 13.8684 16.6673 10.4166C16.6673 6.96481 13.8691 4.16659 10.4173 4.16659ZM2.08398 10.4166C2.08398 5.81421 5.81494 2.08325 10.4173 2.08325C15.0197 2.08325 18.7507 5.81421 18.7507 10.4166C18.7507 15.019 15.0197 18.7499 10.4173 18.7499C5.81494 18.7499 2.08398 15.019 2.08398 10.4166Z" fill="white"/>
<path fill-rule="evenodd" clip-rule="evenodd" d="M14.5628 10.4167C14.2867 10.4167 14.0664 10.1916 14.029 9.91797C13.8082 8.30342 12.5302 7.0255 10.9157 6.80466C10.6421 6.76723 10.417 6.54698 10.417 6.27083V5.1875C10.417 4.91136 10.6416 4.68522 10.9167 4.70899C13.6822 4.94796 15.8857 7.15149 16.1247 9.91693C16.1484 10.192 15.9223 10.4167 15.6462 10.4167H14.5628Z" fill="white"/>
<path fill-rule="evenodd" clip-rule="evenodd" d="M15.6547 15.5955C16.0452 15.205 16.6784 15.205 17.0689 15.5955L21.9047 20.4313C22.2952 20.8218 22.2952 21.455 21.9047 21.8455L21.8458 21.9045C21.4553 22.295 20.8221 22.295 20.4316 21.9045L15.5958 17.0687C15.2053 16.6781 15.2053 16.045 15.5958 15.6545L15.6547 15.5955Z" fill="white"/>
</g>
<defs>
<clipPath id="clip0_882_1317">
<rect width="24" height="24" fill="white"/>
</clipPath>
</defs>
</svg>
