<svg width="24" height="24" viewBox="0 0 24 24" fill="none" xmlns="http://www.w3.org/2000/svg">
<path fill-rule="evenodd" clip-rule="evenodd" d="M10.3333 4.08333C6.88155 4.08333 4.08333 6.88155 4.08333 10.3333C4.08333 13.7851 6.88155 16.5833 10.3333 16.5833C13.7851 16.5833 16.5833 13.7851 16.5833 10.3333C16.5833 6.88155 13.7851 4.08333 10.3333 4.08333ZM2 10.3333C2 5.73096 5.73096 2 10.3333 2C14.9357 2 18.6667 5.73096 18.6667 10.3333C18.6667 14.9357 14.9357 18.6667 10.3333 18.6667C5.73096 18.6667 2 14.9357 2 10.3333Z" fill="#9395A4"/>
<path fill-rule="evenodd" clip-rule="evenodd" d="M14.4793 10.3334C14.2032 10.3334 13.9829 10.1083 13.9455 9.83466C13.7247 8.2201 12.4467 6.94219 10.8322 6.72134C10.5586 6.68392 10.3335 6.46366 10.3335 6.18752V5.10419C10.3335 4.82804 10.5581 4.60191 10.8332 4.62568C13.5987 4.86464 15.8022 7.06818 16.0412 9.83361C16.0649 10.1087 15.8388 10.3334 15.5627 10.3334H14.4793Z" fill="#9395A4"/>
<path fill-rule="evenodd" clip-rule="evenodd" d="M15.5712 15.5122C15.9617 15.1217 16.5949 15.1217 16.9854 15.5122L21.8212 20.348C22.2117 20.7385 22.2117 21.3717 21.8212 21.7622L21.7623 21.8211C21.3718 22.2117 20.7386 22.2117 20.3481 21.8211L15.5123 16.9854C15.1218 16.5948 15.1218 15.9617 15.5123 15.5711L15.5712 15.5122Z" fill="#9395A4"/>
</svg>
