<svg width="25" height="25" viewBox="0 0 27 27" fill="none" xmlns="http://www.w3.org/2000/svg">
<path fill-rule="evenodd" clip-rule="evenodd" d="M11.0208 3.20829C6.70607 3.20829 3.20829 6.70607 3.20829 11.0208C3.20829 15.3355 6.70607 18.8333 11.0208 18.8333C15.3355 18.8333 18.8333 15.3355 18.8333 11.0208C18.8333 6.70607 15.3355 3.20829 11.0208 3.20829ZM0.604126 11.0208C0.604126 5.26783 5.26783 0.604126 11.0208 0.604126C16.7738 0.604126 21.4375 5.26783 21.4375 11.0208C21.4375 16.7738 16.7738 21.4375 11.0208 21.4375C5.26783 21.4375 0.604126 16.7738 0.604126 11.0208Z" fill="#493B83"/>
<path fill-rule="evenodd" clip-rule="evenodd" d="M16.078 11.0208C15.8019 11.0208 15.5809 10.7961 15.551 10.5216C15.3202 8.40351 13.6381 6.72134 11.52 6.49057C11.2454 6.46066 11.0208 6.23968 11.0208 5.96354V4.35938C11.0208 4.08323 11.2453 3.85756 11.5208 3.87656C15.0775 4.12189 17.9197 6.96412 18.165 10.5207C18.184 10.7962 17.9584 11.0208 17.6822 11.0208H16.078Z" fill="#493B83"/>
<path fill-rule="evenodd" clip-rule="evenodd" d="M17.7448 17.3176C18.1353 16.9271 18.7685 16.9271 19.159 17.3176L25.5573 23.7159C25.9478 24.1064 25.9478 24.7396 25.5573 25.1301L25.1301 25.5573C24.7396 25.9478 24.1064 25.9478 23.7159 25.5573L17.3176 19.159C16.9271 18.7685 16.9271 18.1353 17.3176 17.7448L17.7448 17.3176Z" fill="#493B83"/>
</svg>
