<svg width="21" height="21" viewBox="0 0 23 23" fill="none" xmlns="http://www.w3.org/2000/svg">
<rect x="0.75" y="0.75" width="21.2273" height="21.2273" rx="2.25" fill="url(#paint0_radial_834_4911)" stroke="url(#paint1_linear_834_4911)" stroke-width="1.5"/>
<path d="M9.59789 16.6496C9.40288 16.8435 9.08792 16.8435 8.8929 16.6496L4.35673 12.1405C4.16006 11.945 4.16006 11.6268 4.35673 11.4313L4.95885 10.8327C5.15387 10.6389 5.46883 10.6389 5.66384 10.8327L8.8929 14.0425C9.08792 14.2364 9.40288 14.2364 9.59789 14.0425L17.3362 6.35039C17.5312 6.15654 17.8461 6.15654 18.0411 6.35039L18.6433 6.94893C18.8399 7.14443 18.8399 7.46264 18.6433 7.65814L9.59789 16.6496Z" fill="url(#paint2_linear_834_4911)"/>
<defs>
<radialGradient id="paint0_radial_834_4911" cx="0" cy="0" r="1" gradientUnits="userSpaceOnUse" gradientTransform="translate(0.789142 1.9838) rotate(44.5491) scale(36.6897 62.6502)">
<stop stop-color="#4D0775"/>
<stop offset="0.227083" stop-color="#251337"/>
<stop offset="0.471875" stop-color="#040013"/>
<stop offset="0.652083" stop-color="#1A0229"/>
<stop offset="0.82411" stop-color="#2A033F"/>
</radialGradient>
<linearGradient id="paint1_linear_834_4911" x1="-6.30583" y1="-26.2397" x2="21.6783" y2="-22.3785" gradientUnits="userSpaceOnUse">
<stop stop-color="#FF8D8D"/>
<stop offset="1" stop-color="#F7FC0E"/>
</linearGradient>
<linearGradient id="paint2_linear_834_4911" x1="-0.16185" y1="29.7" x2="18.0158" y2="26.2798" gradientUnits="userSpaceOnUse">
<stop stop-color="#FF8D8D"/>
<stop offset="1" stop-color="#F7FC0E"/>
</linearGradient>
</defs>
</svg>
