<svg width="50" height="50" viewBox="0 0 53 53" fill="none" xmlns="http://www.w3.org/2000/svg">
<g filter="url(#filter0_d_390_3208)">
<circle cx="26.5" cy="24.5" r="22.5" fill="white"/>
</g>
<g clip-path="url(#clip0_390_3208)">
<path d="M18.25 20.25C18.25 17.9294 19.1719 15.7038 20.8128 14.0628C22.4538 12.4219 24.6794 11.5 27 11.5C29.3206 11.5 31.5462 12.4219 33.1872 14.0628C34.8281 15.7038 35.75 17.9294 35.75 20.25V21.5438C37.87 21.8475 39.5 23.6713 39.5 25.875V26.1875C39.5 28.4063 37.5863 30.3513 35.335 30.2475C34.41 32.8975 32.0575 34.6838 29.5188 35.1363C28.9313 35.3513 28.2363 35.25 27.625 35.25C27.1277 35.25 26.6508 35.0525 26.2992 34.7008C25.9475 34.3492 25.75 33.8723 25.75 33.375C25.75 32.8777 25.9475 32.4008 26.2992 32.0492C26.6508 31.6975 27.1277 31.5 27.625 31.5C28.6163 31.5 29.7138 31.3563 30.3838 32.2613C32.0038 31.49 33.25 29.8613 33.25 27.75V20.25C33.25 18.5924 32.5915 17.0027 31.4194 15.8306C30.2473 14.6585 28.6576 14 27 14C25.3424 14 23.7527 14.6585 22.5806 15.8306C21.4085 17.0027 20.75 18.5924 20.75 20.25V28.0625C20.75 28.6427 20.5195 29.1991 20.1093 29.6093C19.6991 30.0195 19.1427 30.25 18.5625 30.25C17.4851 30.25 16.4517 29.822 15.6899 29.0601C14.928 28.2983 14.5 27.2649 14.5 26.1875V25.875C14.4997 24.8228 14.8787 23.8057 15.5674 23.0102C16.2562 22.2147 17.2086 21.6941 18.25 21.5438V20.25Z" fill="#493B83"/>
</g>
<defs>
<filter id="filter0_d_390_3208" x="0" y="0" width="53" height="53" filterUnits="userSpaceOnUse" color-interpolation-filters="sRGB">
<feFlood flood-opacity="0" result="BackgroundImageFix"/>
<feColorMatrix in="SourceAlpha" type="matrix" values="0 0 0 0 0 0 0 0 0 0 0 0 0 0 0 0 0 0 127 0" result="hardAlpha"/>
<feOffset dy="2"/>
<feGaussianBlur stdDeviation="2"/>
<feComposite in2="hardAlpha" operator="out"/>
<feColorMatrix type="matrix" values="0 0 0 0 0.14902 0 0 0 0 0.152941 0 0 0 0 0.235294 0 0 0 0.2 0"/>
<feBlend mode="normal" in2="BackgroundImageFix" result="effect1_dropShadow_390_3208"/>
<feBlend mode="normal" in="SourceGraphic" in2="effect1_dropShadow_390_3208" result="shape"/>
</filter>
<clipPath id="clip0_390_3208">
<rect width="30" height="30" fill="white" transform="translate(12 9)"/>
</clipPath>
</defs>
</svg>
