<svg width="45" height="45" viewBox="0 0 45 45" fill="none" xmlns="http://www.w3.org/2000/svg">
<circle cx="22.5" cy="22.5" r="21.5" fill="url(#paint0_linear_882_1264)" stroke="url(#paint1_linear_882_1264)" stroke-width="2"/>
<g clip-path="url(#clip0_882_1264)">
<path d="M14.25 18.25C14.25 15.9294 15.1719 13.7038 16.8128 12.0628C18.4538 10.4219 20.6794 9.5 23 9.5C25.3206 9.5 27.5462 10.4219 29.1872 12.0628C30.8281 13.7038 31.75 15.9294 31.75 18.25V19.5438C33.87 19.8475 35.5 21.6713 35.5 23.875V24.1875C35.5 26.4063 33.5863 28.3513 31.335 28.2475C30.41 30.8975 28.0575 32.6838 25.5188 33.1363C24.9313 33.3513 24.2363 33.25 23.625 33.25C23.1277 33.25 22.6508 33.0525 22.2992 32.7008C21.9475 32.3492 21.75 31.8723 21.75 31.375C21.75 30.8777 21.9475 30.4008 22.2992 30.0492C22.6508 29.6975 23.1277 29.5 23.625 29.5C24.6163 29.5 25.7138 29.3563 26.3838 30.2613C28.0038 29.49 29.25 27.8613 29.25 25.75V18.25C29.25 16.5924 28.5915 15.0027 27.4194 13.8306C26.2473 12.6585 24.6576 12 23 12C21.3424 12 19.7527 12.6585 18.5806 13.8306C17.4085 15.0027 16.75 16.5924 16.75 18.25V26.0625C16.75 26.6427 16.5195 27.1991 16.1093 27.6093C15.6991 28.0195 15.1427 28.25 14.5625 28.25C13.4851 28.25 12.4517 27.822 11.6899 27.0601C10.928 26.2983 10.5 25.2649 10.5 24.1875V23.875C10.4997 22.8228 10.8787 21.8057 11.5674 21.0102C12.2562 20.2147 13.2086 19.6941 14.25 19.5438V18.25Z" fill="white"/>
</g>
<defs>
<linearGradient id="paint0_linear_882_1264" x1="-1.67638e-07" y1="22.5" x2="46.9149" y2="22.5" gradientUnits="userSpaceOnUse">
<stop stop-color="#370F75"/>
<stop offset="0.488811" stop-color="#59246C"/>
<stop offset="1" stop-color="#731581"/>
</linearGradient>
<linearGradient id="paint1_linear_882_1264" x1="-10.2" y1="62.4375" x2="54.2777" y2="57.684" gradientUnits="userSpaceOnUse">
<stop stop-color="#1D09BD"/>
<stop offset="1" stop-color="#EB01E3"/>
</linearGradient>
<clipPath id="clip0_882_1264">
<rect width="30" height="30" fill="white" transform="translate(8 7)"/>
</clipPath>
</defs>
</svg>
