<svg width="24" height="24" viewBox="0 0 24 24" fill="none" xmlns="http://www.w3.org/2000/svg">
<path d="M13.6765 22.4369H10.2931C9.69683 22.4369 9.12479 22.1999 8.70312 21.7783C8.28144 21.3566 8.04453 20.7846 8.04453 20.1882C8.04664 20.069 8.01656 19.9513 7.95746 19.8477C7.89818 19.7443 7.81216 19.6586 7.70838 19.5998C7.50222 19.4728 7.24208 19.4728 7.03588 19.5998C6.51923 19.9042 5.9018 19.9875 5.3231 19.831C4.7484 19.672 4.25832 19.295 3.9572 18.7803L2.26554 15.8487C1.96808 15.3329 1.88734 14.7204 2.04108 14.1452C2.19465 13.57 2.5702 13.0792 3.0851 12.7805C3.19082 12.7232 3.27912 12.6382 3.34016 12.5344C3.4012 12.4308 3.43304 12.3124 3.43181 12.1921C3.43322 12.0744 3.40278 11.9585 3.34351 11.8567C3.28423 11.755 3.19856 11.6711 3.09566 11.6143C2.57815 11.3152 2.20029 10.8234 2.04462 10.2462C1.88912 9.6693 1.96845 9.05412 2.26555 8.53558L3.95721 5.60393C4.25836 5.08922 4.74842 4.71226 5.32311 4.55325C5.90555 4.41148 6.52032 4.51403 7.02535 4.83699C7.16379 4.92547 7.32967 4.961 7.49219 4.93708C7.65491 4.91333 7.80337 4.83154 7.91067 4.707C8.01797 4.58246 8.07655 4.42344 8.07602 4.25897C8.07321 3.6609 8.30892 3.08621 8.73092 2.66228C9.15292 2.23835 9.72653 2 10.3246 2H13.708C14.3045 2 14.8763 2.23677 15.298 2.65859C15.7197 3.08023 15.9566 3.65208 15.9566 4.24861C15.9545 4.36787 15.9846 4.48538 16.0437 4.58899C16.103 4.6926 16.189 4.77826 16.2929 4.83701C16.4991 4.96401 16.7592 4.96401 16.9654 4.83701C17.4819 4.53252 18.0993 4.44914 18.678 4.60587C19.2527 4.76489 19.7428 5.14184 20.0439 5.65655L21.7356 8.5882L21.7358 8.58803C22.0331 9.10377 22.1138 9.71647 21.9602 10.2917C21.8065 10.8667 21.4311 11.3575 20.916 11.6563C20.8103 11.7135 20.722 11.7987 20.661 11.9023C20.5999 12.006 20.5683 12.1244 20.5693 12.2447C20.5679 12.3624 20.5985 12.4784 20.6576 12.58C20.7169 12.6819 20.8026 12.7656 20.9057 12.8226C21.423 13.1216 21.8008 13.6134 21.9565 14.1904C22.112 14.7676 22.0327 15.3827 21.7358 15.9013L20.0441 18.8329L20.0439 18.8327C19.7428 19.3475 19.2527 19.7244 18.678 19.8836C18.1028 20.0409 17.4884 19.9573 16.9758 19.6525C16.8373 19.564 16.6716 19.5283 16.5089 19.5522C16.3462 19.5761 16.1978 19.6577 16.0905 19.7823C15.9833 19.9068 15.9246 20.066 15.9251 20.2303C15.914 20.8194 15.6723 21.3806 15.2519 21.7932C14.8313 22.2059 14.2656 22.437 13.6765 22.4369L13.6765 22.4369ZM7.37207 17.9292C7.76698 17.9308 8.15468 18.0358 8.49647 18.234C8.83913 18.4295 9.12394 18.7123 9.32145 19.0539C9.51899 19.3953 9.62225 19.7832 9.62066 20.1778C9.62066 20.3572 9.6912 20.5292 9.81697 20.6571C9.94274 20.7848 10.1139 20.858 10.2931 20.8608H13.6765C13.8549 20.8608 14.0258 20.7899 14.152 20.6638C14.2781 20.5377 14.349 20.3667 14.349 20.1883C14.3467 19.7922 14.4496 19.4026 14.647 19.0592C14.8445 18.7158 15.1297 18.4311 15.4732 18.234C15.8138 18.0325 16.202 17.926 16.5976 17.926C16.9932 17.926 17.3814 18.0325 17.7218 18.234C17.8763 18.3255 18.061 18.3514 18.2346 18.306C18.4082 18.2606 18.5567 18.1477 18.6466 17.9924L20.3908 15.0607C20.4818 14.9078 20.5075 14.7249 20.4619 14.5529C20.4165 14.381 20.3038 14.2345 20.1491 14.1465C19.6902 13.8827 19.3391 13.4651 19.1577 12.9676C18.9763 12.4702 18.9764 11.9247 19.1577 11.4272C19.3391 10.9299 19.6902 10.5124 20.1491 10.2483C20.3045 10.1584 20.4174 10.0101 20.4628 9.8365C20.5082 9.6627 20.4823 9.47818 20.3908 9.32372L18.6466 6.39207C18.5565 6.23745 18.4095 6.12417 18.2367 6.07685C18.0656 6.03182 17.8835 6.05838 17.7324 6.15038C17.0356 6.55021 16.1792 6.55003 15.4828 6.14985C14.7862 5.74967 14.3545 5.00983 14.349 4.20664C14.349 4.02722 14.2785 3.85519 14.1527 3.72728C14.027 3.59958 13.8558 3.5264 13.6766 3.52359H10.2932C10.1148 3.52359 9.94386 3.59448 9.81771 3.7206C9.69157 3.84672 9.6207 4.01771 9.6207 4.19609C9.62299 4.59223 9.52008 4.98185 9.32272 5.32521C9.12518 5.66858 8.84002 5.95336 8.49648 6.15037C8.15593 6.35196 7.76768 6.45838 7.37208 6.45838C6.97648 6.45838 6.58826 6.35196 6.24787 6.15037C6.09342 6.0589 5.90872 6.03304 5.73509 6.07843C5.56147 6.12381 5.41301 6.23674 5.32312 6.39206L3.63146 9.32371C3.54052 9.47657 3.51484 9.65951 3.56022 9.83153C3.60578 10.0034 3.71854 10.1499 3.87316 10.2379C4.33208 10.5017 4.68319 10.9193 4.86457 11.4168C5.04593 11.9143 5.04593 12.4597 4.86457 12.9572C4.68322 13.4545 4.33212 13.8721 3.87316 14.1361C3.71607 14.2243 3.60086 14.3718 3.55336 14.5456C3.50604 14.7194 3.53032 14.905 3.62091 15.0607L5.31257 17.9924C5.40263 18.147 5.54986 18.2603 5.72243 18.3076C5.89358 18.3526 6.07565 18.326 6.22674 18.2341C6.57573 18.0351 6.9703 17.9301 7.37207 17.9292V17.9292Z" fill="url(#paint0_linear_882_1533)"/>
<path d="M11.9842 16.1325C10.9392 16.1325 9.93703 15.7174 9.19806 14.9784C8.45909 14.2394 8.04395 13.2373 8.04395 12.1922C8.04395 11.1472 8.45908 10.145 9.19806 9.40607C9.93704 8.6671 10.9392 8.25195 11.9842 8.25195C13.0293 8.25195 14.0314 8.66709 14.7704 9.40607C15.5093 10.145 15.9245 11.1472 15.9245 12.1922C15.9245 13.2373 15.5093 14.2394 14.7704 14.9784C14.0314 15.7173 13.0293 16.1325 11.9842 16.1325ZM11.9842 9.82806C11.3571 9.82806 10.7559 10.0771 10.3124 10.5204C9.86913 10.9639 9.62005 11.5651 9.62005 12.1922C9.62005 12.8193 9.86913 13.4206 10.3124 13.864C10.7559 14.3073 11.3571 14.5564 11.9842 14.5564C12.6113 14.5564 13.2125 14.3073 13.656 13.864C14.0993 13.4206 14.3484 12.8193 14.3484 12.1922C14.3484 11.5651 14.0993 10.9639 13.656 10.5204C13.2126 10.0771 12.6113 9.82806 11.9842 9.82806Z" fill="url(#paint1_linear_882_1533)"/>
<defs>
<linearGradient id="paint0_linear_882_1533" x1="-3.60413" y1="-21.5953" x2="21.1263" y2="-18.244" gradientUnits="userSpaceOnUse">
<stop stop-color="#FF8D8D"/>
<stop offset="1" stop-color="#F7FC0E"/>
</linearGradient>
<linearGradient id="paint1_linear_882_1533" x1="5.85744" y1="-0.846486" x2="15.5608" y2="0.492366" gradientUnits="userSpaceOnUse">
<stop stop-color="#FF8D8D"/>
<stop offset="1" stop-color="#F7FC0E"/>
</linearGradient>
</defs>
</svg>
