<svg width="22" height="22" viewBox="0 0 24 24" fill="none" xmlns="http://www.w3.org/2000/svg">
<rect width="24" height="24" fill="white"/>
<path d="M13.676 22.4369H10.2927C9.69634 22.4369 9.12431 22.1999 8.70263 21.7783C8.28095 21.3566 8.04404 20.7846 8.04404 20.1882C8.04615 20.069 8.01607 19.9513 7.95697 19.8477C7.89769 19.7443 7.81167 19.6586 7.70789 19.5998C7.50173 19.4728 7.24159 19.4728 7.03539 19.5998C6.51874 19.9042 5.90131 19.9875 5.32261 19.831C4.74791 19.672 4.25783 19.295 3.95671 18.7803L2.26505 15.8486C1.96759 15.3329 1.88686 14.7204 2.04059 14.1452C2.19416 13.57 2.56972 13.0792 3.08461 12.7805C3.19033 12.7232 3.27863 12.6382 3.33967 12.5344C3.40071 12.4308 3.43255 12.3124 3.43132 12.1921C3.43273 12.0744 3.4023 11.9585 3.34302 11.8567C3.28374 11.755 3.19807 11.6711 3.09517 11.6143C2.57766 11.3152 2.1998 10.8234 2.04413 10.2462C1.88863 9.6693 1.96796 9.05412 2.26506 8.53558L3.95672 5.60393C4.25787 5.08922 4.74793 4.71226 5.32262 4.55325C5.90506 4.41148 6.51983 4.51403 7.02486 4.83699C7.1633 4.92547 7.32918 4.961 7.49171 4.93708C7.65442 4.91333 7.80288 4.83154 7.91018 4.707C8.01749 4.58246 8.07606 4.42344 8.07554 4.25897C8.07272 3.6609 8.30844 3.08621 8.73043 2.66228C9.15243 2.23835 9.72604 2 10.3241 2H13.7075C14.304 2 14.8759 2.23677 15.2975 2.65859C15.7192 3.08023 15.9561 3.65208 15.9561 4.24861C15.954 4.36787 15.9841 4.48538 16.0432 4.58899C16.1025 4.6926 16.1885 4.77826 16.2925 4.83701C16.4986 4.96401 16.7588 4.96401 16.965 4.83701C17.4814 4.53252 18.0989 4.44914 18.6776 4.60587C19.2522 4.76489 19.7423 5.14184 20.0435 5.65655L21.7351 8.5882L21.7353 8.58803C22.0326 9.10377 22.1133 9.71647 21.9597 10.2917C21.806 10.8667 21.4306 11.3575 20.9156 11.6563C20.8098 11.7135 20.7215 11.7987 20.6605 11.9023C20.5994 12.006 20.5678 12.1244 20.5688 12.2447C20.5674 12.3624 20.598 12.4784 20.6571 12.58C20.7164 12.6819 20.8021 12.7656 20.9052 12.8226C21.4225 13.1216 21.8004 13.6134 21.956 14.1904C22.1115 14.7676 22.0322 15.3827 21.7353 15.9013L20.0436 18.8329L20.0434 18.8327C19.7423 19.3475 19.2522 19.7244 18.6775 19.8836C18.1023 20.0409 17.4879 19.9573 16.9753 19.6525C16.8369 19.564 16.6711 19.5283 16.5084 19.5522C16.3457 19.5761 16.1973 19.6577 16.09 19.7823C15.9828 19.9068 15.9241 20.066 15.9246 20.2303C15.9135 20.8194 15.6718 21.3806 15.2514 21.7932C14.8309 22.2059 14.2652 22.437 13.6761 22.4369L13.676 22.4369ZM7.37158 17.9292C7.76649 17.9308 8.15419 18.0358 8.49598 18.234C8.83864 18.4295 9.12345 18.7123 9.32096 19.0539C9.5185 19.3953 9.62176 19.7832 9.62017 20.1778C9.62017 20.3572 9.69071 20.5292 9.81648 20.6571C9.94226 20.7848 10.1134 20.858 10.2926 20.8608H13.676C13.8544 20.8608 14.0254 20.7899 14.1515 20.6638C14.2776 20.5377 14.3485 20.3667 14.3485 20.1883C14.3462 19.7922 14.4491 19.4026 14.6465 19.0592C14.844 18.7158 15.1292 18.4311 15.4727 18.234C15.8133 18.0325 16.2015 17.926 16.5971 17.926C16.9927 17.926 17.381 18.0325 17.7213 18.234C17.8758 18.3255 18.0605 18.3514 18.2341 18.306C18.4077 18.2606 18.5562 18.1477 18.6461 17.9924L20.3903 15.0607C20.4813 14.9078 20.507 14.7249 20.4614 14.5529C20.416 14.381 20.3033 14.2345 20.1487 14.1465C19.6897 13.8827 19.3386 13.4651 19.1572 12.9676C18.9758 12.4702 18.9759 11.9247 19.1572 11.4272C19.3386 10.9299 19.6897 10.5124 20.1487 10.2483C20.304 10.1584 20.4169 10.0101 20.4623 9.8365C20.5077 9.6627 20.4818 9.47818 20.3903 9.32372L18.6461 6.39207C18.556 6.23745 18.409 6.12417 18.2362 6.07685C18.0651 6.03182 17.883 6.05838 17.7319 6.15038C17.0351 6.55021 16.1787 6.55003 15.4823 6.14985C14.7857 5.74967 14.354 5.00983 14.3486 4.20664C14.3486 4.02722 14.278 3.85519 14.1522 3.72728C14.0265 3.59958 13.8553 3.5264 13.6761 3.52359H10.2927C10.1143 3.52359 9.94337 3.59448 9.81723 3.7206C9.69108 3.84672 9.62021 4.0177 9.62021 4.19609C9.6225 4.59223 9.51959 4.98185 9.32223 5.32521C9.12469 5.66858 8.83954 5.95336 8.49599 6.15037C8.15544 6.35196 7.7672 6.45838 7.37159 6.45838C6.97599 6.45838 6.58777 6.35196 6.24738 6.15037C6.09293 6.0589 5.90824 6.03304 5.7346 6.07843C5.56098 6.12381 5.41252 6.23674 5.32263 6.39206L3.63098 9.32371C3.54004 9.47657 3.51435 9.65951 3.55974 9.83153C3.60529 10.0034 3.71805 10.1499 3.87267 10.2379C4.33159 10.5017 4.6827 10.9193 4.86409 11.4168C5.04544 11.9143 5.04544 12.4597 4.86409 12.9572C4.68273 13.4545 4.33163 13.8721 3.87267 14.1361C3.71559 14.2243 3.60037 14.3718 3.55287 14.5456C3.50555 14.7194 3.52983 14.905 3.62042 15.0607L5.31208 17.9924C5.40214 18.147 5.54937 18.2603 5.72194 18.3076C5.8931 18.3526 6.07516 18.326 6.22625 18.2341C6.57524 18.0351 6.96981 17.9301 7.37158 17.9292V17.9292Z" fill="#493B83"/>
<path d="M11.9842 16.1325C10.9392 16.1325 9.93703 15.7173 9.19806 14.9783C8.45909 14.2394 8.04395 13.2372 8.04395 12.1922C8.04395 11.1471 8.45908 10.145 9.19806 9.40604C9.93704 8.66707 10.9392 8.25192 11.9842 8.25192C13.0293 8.25192 14.0314 8.66706 14.7704 9.40604C15.5093 10.145 15.9245 11.1471 15.9245 12.1922C15.9245 13.2372 15.5093 14.2394 14.7704 14.9783C14.0314 15.7173 13.0293 16.1325 11.9842 16.1325ZM11.9842 9.82803C11.3571 9.82803 10.7559 10.0771 10.3124 10.5204C9.86913 10.9639 9.62005 11.5651 9.62005 12.1922C9.62005 12.8193 9.86913 13.4205 10.3124 13.864C10.7559 14.3073 11.3571 14.5564 11.9842 14.5564C12.6113 14.5564 13.2125 14.3073 13.656 13.864C14.0993 13.4205 14.3484 12.8193 14.3484 12.1922C14.3484 11.5651 14.0993 10.9639 13.656 10.5204C13.2126 10.0771 12.6113 9.82803 11.9842 9.82803Z" fill="#493B83"/>
</svg>
