<svg width="65" height="72" viewBox="0 0 75 82" fill="none" xmlns="http://www.w3.org/2000/svg">
<ellipse cx="37.5" cy="72" rx="37.5" ry="10" fill="#513E8D"/>
<g clip-path="url(#clip0_115_2539)">
<path d="M69.2304 53.1765C67.7445 60.8105 66.1762 67.2341 65.2819 68.0318C63.0394 70.0401 39.8023 77.0413 36.3216 77C32.8409 76.9725 12.3279 70.7691 9.96153 68.0318C9.67261 67.7017 9.02599 65.1846 8.25555 61.4845C8.2418 61.4707 8.2418 61.4707 8.2418 61.4707C5.64156 49.1601 1.5142 23.7823 3.72922 22.393C6.61837 20.5911 31.3 15.0204 39.4446 14.9104C47.603 14.7866 71.528 23.5072 72.8212 25.763C73.6054 27.1385 71.5142 41.5399 69.2304 53.1765Z" fill="url(#paint0_linear_115_2539)"/>
<path opacity="0.5" d="M3.7567 22.393C-0.0955029 24.4425 28.9886 33.9609 34.8357 33.9609C40.6828 33.9609 71.9544 26.3957 72.8349 25.7767C73.7154 25.1578 47.4379 14.8553 38.908 14.9241C30.3782 14.9929 4.91236 21.7878 3.7567 22.393Z" fill="white"/>
<path opacity="0.3" d="M36.3353 77C32.9234 76.5736 33.8451 37.207 34.8357 35.5564C35.8263 33.9058 70.2072 26.9046 71.5967 27.221C72.9863 27.5373 66.5063 66.0373 65.2956 68.018C64.0849 69.9987 37.9037 77.1926 36.3353 77Z" fill="#731F5E"/>
<path opacity="0.74" d="M69.2304 53.1765C67.7445 60.7967 66.1762 67.234 65.2819 68.0318C63.0394 70.04 39.8023 77.0413 36.3216 77C32.8409 76.9725 12.3279 70.769 9.96153 68.0318C9.67261 67.7017 9.02599 65.1846 8.25555 61.4845C8.5032 61.8421 9.60382 67.069 12.9607 68.8296C14.3916 69.5861 30.3782 75.3494 35.9226 75.2394C41.4808 75.1431 61.4572 71.4568 64.3464 66.9039C67.1805 62.4611 69.1616 53.5341 69.2304 53.1765Z" fill="#CA2790"/>
<path d="M36.3353 77C35.0696 74.4003 46.7638 54.9371 49.6529 53.1903C52.5421 51.4296 58.623 49.3527 60.5491 50.6319C62.4752 51.9111 65.2818 68.0456 65.2818 68.0456C65.2818 68.0456 62.5165 52.2962 61.182 50.4806L72.8349 26.1206C72.8349 26.1206 61.4572 48.5549 60.9756 49.3527C60.4941 50.1504 55.5 49.9166 48.5248 52.5575L35.2759 35.2539C35.2759 35.2539 34.9595 35.1438 34.8219 35.5702C34.6981 35.9966 46.7087 49.9854 46.75 53.1903C46.7913 56.3952 35.7437 72.7498 35.2622 74.194C34.8082 75.6245 36.3353 77 36.3353 77Z" fill="#C2258A"/>
<path d="M48.5111 54.2494C48.0983 55.7074 59.5724 51.4984 60.5492 50.6319C61.5397 49.7516 52.3357 50.178 48.5111 54.2494Z" fill="#FF6D6D"/>
<path opacity="0.2" d="M38.7567 73.8639C38.7567 73.8639 46.4061 56.5602 49.818 55.0609C53.23 53.5616 59.9713 51.6222 61.2508 52.1174C62.5303 52.6126 65.103 66.6563 64.6765 67.8805C64.25 69.1047 47.5204 75.0331 42.4025 75.6795C37.2846 76.326 38.7567 73.8639 38.7567 73.8639Z" fill="#731F5E"/>
<path d="M14.5979 28.569C14.5979 28.569 30.6671 35.0063 33.5562 35.3226C36.4454 35.639 68.4462 27.7162 70.4135 26.8359C72.3809 25.9555 72.6423 25.8593 72.6423 25.8593C72.6423 25.8593 40.9992 33.5895 35.2347 33.0806C25.329 32.214 14.5979 28.569 14.5979 28.569Z" fill="#FF9292"/>
<path d="M30.5983 34.2635C32.827 34.6624 33.6938 63.5064 33.9277 64.4555C34.1616 65.4184 33.1022 40.577 34.8357 35.5565L30.5983 34.2635Z" fill="#FF9292"/>
<path d="M31.1486 34.7174C27.6404 32.6267 42.0724 32.9568 42.4989 33.3282C42.9254 33.6858 33.6388 36.9044 31.1486 34.7174Z" fill="#FFD6D6"/>
<path opacity="0.2" d="M4.15569 27.221C4.62345 24.415 25.6867 34.1397 29.3051 41.0722C32.9234 47.9909 33.3499 70.3426 32.717 72.901C32.0841 75.4595 13.5248 70.5215 10.7595 65.3634C7.99413 60.1915 3.28894 32.4754 4.15569 27.221Z" fill="#C68EC5"/>
<path d="M26.8974 74.813C26.8974 74.813 25.2052 75.542 24.1734 75.3907C23.1278 75.2256 17.5283 74.2215 16.9642 73.6025C16.4002 72.9836 8.20049 29.2704 9.42494 26.5745C10.6494 23.8785 33.4874 20.5911 34.8495 20.99C36.2115 21.3889 38.7705 22.8332 38.7705 22.8332C38.7705 22.8332 22.1785 28.115 20.3349 29.7106C18.4914 31.3199 24.5036 73.7813 24.5861 74.0977C24.6549 74.4141 26.8974 74.813 26.8974 74.813Z" fill="url(#paint1_linear_115_2539)"/>
<path d="M45.2367 75.1018C45.2367 75.1018 47.8231 75.707 48.4973 75.7896C49.1714 75.8721 56.7795 73.5475 57.7426 72.901C58.7056 72.2546 62.544 31.3199 62.2276 28.8303C61.9112 26.3407 39.3758 20.99 38.5366 20.9487C37.6974 20.9075 35.3723 21.3889 34.2579 22.2692C33.1297 23.1495 49.4878 29.0779 50.6022 31.4025C51.7304 33.7271 48.8825 73.8364 48.4835 74.1252C48.1121 74.3866 45.2367 75.1018 45.2367 75.1018Z" fill="url(#paint2_linear_115_2539)"/>
<path d="M35.6612 23.4521C33.1435 22.7369 17.9136 18.5004 17.9136 18.5004L13.401 19.4495C13.401 19.4495 14.0614 17.455 14.5842 17.2074C15.107 16.9736 26.1683 14.4702 28.1769 14.9241C30.1856 15.3643 40.6828 22.5031 40.6828 22.5031L35.6612 23.4521Z" fill="url(#paint3_linear_115_2539)"/>
<path d="M62.2551 20.7149C62.2551 20.7149 62.2414 19.752 61.9112 19.1743C61.5947 18.5829 51.8954 15.8594 50.9324 15.7769C49.9693 15.6943 34.8357 21.4714 34.8357 21.4714C34.8357 21.4714 37.3259 22.5718 39.0456 22.8194C40.7653 23.067 59.5173 19.7796 59.9163 19.7796C60.3153 19.7796 62.2551 20.7149 62.2551 20.7149Z" fill="url(#paint4_linear_115_2539)"/>
<path opacity="0.74" d="M51.1525 75.0605C51.1525 75.0605 52.2119 33.3969 53.5326 32.0902C54.8534 30.7697 60.4528 30.4809 61.237 30.5909C62.0212 30.701 58.0727 71.6631 57.5087 72.4609C56.9583 73.2724 51.1525 75.0605 51.1525 75.0605Z" fill="#E8B72D"/>
<path opacity="0.74" d="M26.8975 74.813C26.8975 74.813 24.3247 75.4182 23.5818 75.2944C22.8389 75.1568 17.5421 32.0077 17.9686 29.6281C18.3951 27.2485 36.0877 23.6997 36.0877 23.6997C36.0877 23.6997 49.3228 29.2154 50.4922 30.1783C51.6616 31.1411 50.8499 36.2167 50.8499 36.2167C50.8499 36.2167 50.3546 32.0352 49.3778 31.0723C48.401 30.1095 40.6691 26.0656 36.9269 26.2306C34.6431 26.3269 32.4832 30.1095 29.2501 31.2649C27.1864 32.0077 22.096 29.6831 21.3668 30.8798C19.4957 33.9746 24.8888 74.0427 25.3153 74.3591C25.7831 74.6617 26.8975 74.813 26.8975 74.813Z" fill="#E8B72D"/>
<path d="M10.0716 26.1068C9.535 27.386 15.8911 28.624 17.2807 28.5139C18.6702 28.4039 33.8451 24.0573 34.2166 23.4521C34.5881 22.8469 28.0256 21.8841 26.0169 21.9391C24.022 21.9941 11.9013 24.8414 10.0716 26.1068Z" fill="white"/>
<path opacity="0.74" d="M38.9218 25.0477C38.9218 25.0477 51.4552 26.2719 59.311 25.2265C67.1667 24.1674 62.943 20.9487 62.943 20.9487L36.8719 24.0986L38.9218 25.0477Z" fill="#E8B72D"/>
<path opacity="0.5" d="M9.42496 26.5607C8.73706 26.6433 14.0476 28.5827 15.4096 28.8991C16.7717 29.2154 16.9367 29.6143 17.8585 29.0504C18.7665 28.5139 10.1129 26.4782 9.42496 26.5607Z" fill="white"/>
<path opacity="0.5" d="M52.8585 31.0724C50.3684 30.6735 59.0221 29.0779 60.6317 28.9541C62.2414 28.8303 58.5956 31.9939 52.8585 31.0724Z" fill="white"/>
<path opacity="0.4" d="M10.0441 29.0779C10.2504 27.6336 16.978 30.6047 17.5283 31.485C18.0786 32.3516 20.4175 58.651 20.0873 60.0815C19.7709 61.5257 14.364 61.0993 14.1852 60.0815C13.9926 59.0636 9.85144 30.4396 10.0441 29.0779Z" fill="#C68EC5"/>
<path opacity="0.74" d="M45.2367 75.1018C45.2367 75.1018 47.149 73.9739 47.6306 73.2174C48.1121 72.4746 50.8774 36.2029 50.8774 36.2029C50.8774 36.2029 49.4191 72.4196 48.8 74.0702C48.1946 75.7346 45.2367 75.1018 45.2367 75.1018Z" fill="#CA2790"/>
<path d="M40.1187 23.4659C40.105 23.4659 40.0912 23.4521 40.0912 23.4521H40.0775C40.0224 23.4384 39.8848 23.4659 39.651 23.5347C39.5547 23.5622 39.4171 23.6172 39.2795 23.6722C36.4041 24.8276 26.8011 29.7931 25.1364 30.0957C24.7374 30.1783 23.8707 30.0407 22.7288 29.7794C18.3263 28.8028 9.92022 25.928 9.30112 25.2265C8.51692 24.3462 1.84436 7.30386 10.0303 5.29564C15.1345 4.04394 22.1647 10.1236 27.5716 14.7865C30.8322 17.6063 33.515 19.9171 34.8357 19.8071C34.8357 19.8071 36.8306 21.1413 38.3715 22.1867C38.3852 22.1867 38.3852 22.1867 38.3852 22.2004C38.6329 22.3655 38.8805 22.5443 39.1006 22.6956C39.4171 22.9019 39.6922 23.1083 39.8711 23.232C40.0224 23.3558 40.1187 23.4384 40.1187 23.4659Z" fill="url(#paint5_linear_115_2539)"/>
<path opacity="0.5" d="M25.0264 29.0779C22.1922 30.1783 20.3212 15.4605 20.8577 13.0947C21.3943 10.7288 30.7496 22.7506 36.5554 22.8332C42.3613 22.9019 25.6455 28.844 25.0264 29.0779Z" fill="#731F5E"/>
<path opacity="0.74" d="M40.1187 22.8332L39.8573 23.2458L39.8023 23.3284L39.6647 23.5484L39.2933 23.686C36.4179 24.8414 26.8149 29.8069 25.1502 30.1095C24.7512 30.1921 23.8845 30.0545 22.7426 29.7932C20.6789 25.5979 16.015 7.7578 22.4261 11.8017C23.9945 12.7921 25.7693 13.81 27.5853 14.8003C30.8459 17.6201 33.5287 19.9309 34.8495 19.8209C34.8495 19.8209 35.1659 19.2019 36.693 20.261C35.7988 19.3119 36.9819 20.2198 36.8856 20.0134C38.1789 20.8112 39.1832 21.5402 39.706 22.1317C39.9399 22.3793 40.0912 22.6131 40.1187 22.8332Z" fill="#E8B72D"/>
<path d="M61.581 21.7465C59.875 23.5209 42.1962 24.3737 40.0362 23.6997C39.8711 23.6447 39.706 23.5759 39.5547 23.4934C39.5409 23.4934 39.5409 23.4796 39.5271 23.4796H39.5134C39.4308 23.4384 39.362 23.3971 39.2795 23.3559C39.0594 23.2183 38.853 23.0532 38.6466 22.9019V22.8882C38.4403 22.7094 38.2614 22.5168 38.0963 22.3242C38.0963 22.3105 38.0963 22.3105 38.0826 22.3105C37.3396 21.4439 36.9269 20.4673 36.8581 20.2885C36.8444 20.261 36.8444 20.261 36.8444 20.261C38.4265 20.2472 44.6176 2.79226 46.7087 0.962854C48.6899 -0.75651 62.09 -0.137539 67.4969 2.44838C68.0885 2.72348 68.5562 3.01234 68.9002 3.34245C72.546 6.69865 63.3558 19.9171 61.581 21.7465Z" fill="url(#paint6_linear_115_2539)"/>
<path opacity="0.5" d="M40.0637 22.5994C40.0637 22.5994 46.3235 20.935 51.5791 18.2666C59.4348 14.2776 63.2182 6.05219 66.5063 5.68081C69.9183 5.29567 64.7728 19.4495 58.513 21.3752C52.8035 23.122 40.0637 22.5994 40.0637 22.5994Z" fill="#731F5E"/>
<path opacity="0.74" d="M61.581 21.7465C59.8751 23.5209 42.1962 24.3737 40.0362 23.6997C39.8711 23.6447 39.706 23.5759 39.5547 23.4934C39.5409 23.4934 39.5409 23.4796 39.5272 23.4796H39.5134C39.4721 23.4659 39.3483 23.4934 39.1557 23.5622L38.9081 23.9748L38.8393 23.6997L38.6467 22.9019V22.8882C38.6604 22.8469 38.6604 22.8057 38.6879 22.7781C38.7567 22.5856 38.9356 22.4068 39.2107 22.2279C41.3019 20.8112 49.1989 19.1606 54.2894 14.2776C60.9206 7.89533 63.1081 3.06736 67.5107 2.43463C68.1022 2.70973 68.57 2.99858 68.914 3.3287C72.546 6.69865 63.3558 19.9171 61.581 21.7465Z" fill="#E8B72D"/>
<path d="M33.9277 19.6145C33.9277 19.6145 38.8117 18.3628 41.6871 19.6145C44.5763 20.8662 43.9296 23.0258 43.6132 23.9748C43.2968 24.9239 37.5322 24.4425 37.5322 24.4425C37.5322 24.4425 37.8762 23.3421 37.3947 21.7741C36.9131 20.2198 33.9277 19.6145 33.9277 19.6145Z" fill="url(#paint7_linear_115_2539)"/>
<path opacity="0.3" d="M34.8357 19.4219C34.8357 19.4219 37.9587 20.9763 38.4403 21.3476C38.9218 21.7053 42.8153 20.8662 42.9253 20.6736C43.0354 20.4811 40.8341 19.1881 38.7567 19.1744C36.6792 19.1468 34.8357 19.4219 34.8357 19.4219Z" fill="white"/>
<path opacity="0.74" d="M38.7017 19.3394C38.7017 19.3394 41.9348 12.4069 44.59 7.19382C47.4654 1.54055 57.8388 4.08521 57.6325 8.55556C57.4261 12.8746 45.0715 19.4219 43.1867 19.7108C41.3569 19.9996 38.7017 19.3394 38.7017 19.3394Z" fill="#E8B72D"/>
<path opacity="0.74" d="M20.1148 28.679C22.2473 28.679 17.1156 12.4345 12.8507 9.65597C8.57197 6.87748 7.07236 9.3121 6.54957 11.1965C6.02677 13.0809 9.02598 24.6076 10.0441 25.6529C11.0484 26.7258 20.1148 28.679 20.1148 28.679Z" fill="#E8B72D"/>
<path opacity="0.74" d="M40.669 19.697C40.669 19.697 43.8333 19.0093 45.4843 16.9873C47.1903 14.8828 46.2685 8.25294 45.0303 8.50053C43.8058 8.74812 38.7017 19.3394 38.7017 19.3394L40.669 19.697Z" fill="#E8B72D"/>
<path opacity="0.3" d="M7.29248 7.09755C6.64586 8.28048 14.5154 8.36301 16.3589 10.9214C18.2025 13.4798 19.2893 11.1965 20.7752 10.9214C22.261 10.6463 15.3683 6.03843 11.64 5.9559C7.91159 5.87337 7.29248 7.09755 7.29248 7.09755Z" fill="white"/>
<path opacity="0.3" d="M45.5531 3.39748C44.934 4.41534 51.9642 2.33835 55.4587 4.07147C59.0633 5.84585 62.3377 4.33281 63.6997 2.97107C65.103 1.56807 48.5523 -1.51303 45.5531 3.39748Z" fill="white"/>
<path opacity="0.74" d="M57.4674 14.0163C54.2481 17.29 59.3522 20.935 60.2603 20.6874C61.182 20.4261 67.8133 12.4757 67.0704 7.96413C66.3275 3.35623 63.3833 8.01915 57.4674 14.0163Z" fill="#E8B72D"/>
<path opacity="0.74" d="M21.5044 21.4302C21.7795 22.6819 34.0515 22.9982 34.8357 22.8332C35.6062 22.6544 29.4702 19.9859 25.9482 16.2996C22.4261 12.6133 21.1742 12.5583 20.8715 13.0947C20.5551 13.6311 21.298 20.4811 21.5044 21.4302Z" fill="#E8B72D"/>
<path d="M4.66474 41.0997C4.66474 41.0997 3.05507 28.734 4.0594 25.6529C5.06372 22.5718 6.19187 21.4302 6.19187 21.4302C6.19187 21.4302 4.07315 21.774 3.41278 22.448C2.73864 23.1358 2.73864 27.1797 4.66474 41.0997Z" fill="#FF9292"/>
<path d="M3.39903 22.9432C3.45406 23.9336 4.38959 24.1261 4.59596 23.9198C4.80233 23.7135 5.54525 21.9254 5.54525 21.9254C5.54525 21.9254 3.34399 22.0354 3.39903 22.9432Z" fill="#FFD6D6"/>
</g>
<defs>
<linearGradient id="paint0_linear_115_2539" x1="38.0562" y1="76.9962" x2="38.0562" y2="14.912" gradientUnits="userSpaceOnUse">
<stop stop-color="#AB0000"/>
<stop offset="1" stop-color="#FF2929"/>
</linearGradient>
<linearGradient id="paint1_linear_115_2539" x1="24.0256" y1="75.404" x2="24.0256" y2="20.9469" gradientUnits="userSpaceOnUse">
<stop stop-color="#FFFF00"/>
<stop offset="1" stop-color="#FFBE3B"/>
</linearGradient>
<linearGradient id="paint2_linear_115_2539" x1="48.2385" y1="75.7835" x2="48.2385" y2="20.9439" gradientUnits="userSpaceOnUse">
<stop stop-color="#FFFF00"/>
<stop offset="1" stop-color="#FFBE3B"/>
</linearGradient>
<linearGradient id="paint3_linear_115_2539" x1="27.0491" y1="23.4552" x2="27.0491" y2="14.8738" gradientUnits="userSpaceOnUse">
<stop stop-color="#E8CD1D"/>
<stop offset="1" stop-color="#FFFF3B"/>
</linearGradient>
<linearGradient id="paint4_linear_115_2539" x1="48.5493" y1="22.8267" x2="48.5493" y2="15.7719" gradientUnits="userSpaceOnUse">
<stop stop-color="#E82E86"/>
<stop offset="1" stop-color="#FF003B"/>
</linearGradient>
<linearGradient id="paint5_linear_115_2539" x1="23.0591" y1="30.1238" x2="23.0591" y2="5.13141" gradientUnits="userSpaceOnUse">
<stop stop-color="#FFFF00"/>
<stop offset="1" stop-color="#FFBE3B"/>
</linearGradient>
<linearGradient id="paint6_linear_115_2539" x1="53.314" y1="23.9296" x2="53.314" y2="1.11079e-05" gradientUnits="userSpaceOnUse">
<stop stop-color="#FFFF00"/>
<stop offset="1" stop-color="#FFBE3B"/>
</linearGradient>
<linearGradient id="paint7_linear_115_2539" x1="38.9234" y1="24.5689" x2="38.9234" y2="19.0562" gradientUnits="userSpaceOnUse">
<stop stop-color="#FFFF00"/>
<stop offset="1" stop-color="#FFBE3B"/>
</linearGradient>
<clipPath id="clip0_115_2539">
<rect width="70" height="77" fill="white" transform="translate(3)"/>
</clipPath>
</defs>
</svg>
