<svg width="19" height="18" viewBox="0 0 19 18" fill="none" xmlns="http://www.w3.org/2000/svg">
<path d="M15.3357 11.5023C14.5828 11.503 13.8603 11.7989 13.3232 12.3265L5.75237 8.95317V8.31108L13.3232 4.92817C13.7974 5.39298 14.4179 5.67931 15.0792 5.73854C15.7406 5.79778 16.4021 5.62625 16.9513 5.2531C17.5006 4.87996 17.9037 4.32819 18.0923 3.69152C18.2809 3.05485 18.2433 2.37253 17.9859 1.76045C17.7285 1.14836 17.2671 0.644253 16.6802 0.333735C16.0932 0.0232173 15.4169 -0.0745623 14.7661 0.0570033C14.1152 0.188569 13.53 0.541368 13.1097 1.05548C12.6895 1.56959 12.4602 2.21332 12.4607 2.87733V3.20317L4.88987 6.5765C4.4858 6.17951 3.97346 5.91074 3.41717 5.80392C2.86087 5.69709 2.28542 5.75699 1.76305 5.97607C1.24068 6.19516 0.794663 6.56367 0.480999 7.03536C0.167335 7.50704 0 8.06088 0 8.62733C0 9.19379 0.167335 9.74762 0.480999 10.2193C0.794663 10.691 1.24068 11.0595 1.76305 11.2786C2.28542 11.4977 2.86087 11.5576 3.41717 11.4507C3.97346 11.3439 4.4858 11.0752 4.88987 10.6782L12.4607 14.0611V14.3773C12.4607 14.946 12.6293 15.5018 12.9452 15.9746C13.2611 16.4474 13.7102 16.8159 14.2355 17.0335C14.7608 17.2511 15.3389 17.308 15.8966 17.1971C16.4543 17.0862 16.9666 16.8123 17.3686 16.4103C17.7707 16.0082 18.0445 15.4959 18.1555 14.9382C18.2664 14.3805 18.2095 13.8025 17.9919 13.2771C17.7743 12.7518 17.4058 12.3028 16.933 11.9869C16.4602 11.6709 15.9043 11.5023 15.3357 11.5023Z" fill="#8064E1"/>
</svg>
