<svg width="40" height="40" viewBox="0 0 40 40" fill="none" xmlns="http://www.w3.org/2000/svg">
<g filter="url(#filter0_d_390_3180)">
<circle cx="20" cy="18" r="16" fill="#FFEBE4"/>
<path d="M26.4167 14.3333H24.3333V12.6667C24.3333 11.75 23.5833 11 22.6667 11H12.6667C11.75 11 11 11.75 11 12.6667V20.1667C11 21.0833 11.75 21.8333 12.6667 21.8333C12.6667 23.2167 13.7833 24.3333 15.1667 24.3333C16.55 24.3333 17.6667 23.2167 17.6667 21.8333H22.6667C22.6667 23.2167 23.7833 24.3333 25.1667 24.3333C26.55 24.3333 27.6667 23.2167 27.6667 21.8333H28.5C28.9583 21.8333 29.3333 21.4583 29.3333 21V18.225C29.3333 17.8667 29.2167 17.5167 29 17.225L27.0833 14.6667C26.925 14.4583 26.675 14.3333 26.4167 14.3333ZM15.1667 22.6667C14.7083 22.6667 14.3333 22.2917 14.3333 21.8333C14.3333 21.375 14.7083 21 15.1667 21C15.625 21 16 21.375 16 21.8333C16 22.2917 15.625 22.6667 15.1667 22.6667ZM26.4167 15.5833L28.05 17.6667H24.3333V15.5833H26.4167ZM25.1667 22.6667C24.7083 22.6667 24.3333 22.2917 24.3333 21.8333C24.3333 21.375 24.7083 21 25.1667 21C25.625 21 26 21.375 26 21.8333C26 22.2917 25.625 22.6667 25.1667 22.6667Z" fill="#F7931A"/>
</g>
<defs>
<filter id="filter0_d_390_3180" x="0" y="0" width="40" height="40" filterUnits="userSpaceOnUse" color-interpolation-filters="sRGB">
<feFlood flood-opacity="0" result="BackgroundImageFix"/>
<feColorMatrix in="SourceAlpha" type="matrix" values="0 0 0 0 0 0 0 0 0 0 0 0 0 0 0 0 0 0 127 0" result="hardAlpha"/>
<feOffset dy="2"/>
<feGaussianBlur stdDeviation="2"/>
<feComposite in2="hardAlpha" operator="out"/>
<feColorMatrix type="matrix" values="0 0 0 0 0.14902 0 0 0 0 0.152941 0 0 0 0 0.235294 0 0 0 0.2 0"/>
<feBlend mode="normal" in2="BackgroundImageFix" result="effect1_dropShadow_390_3180"/>
<feBlend mode="normal" in="SourceGraphic" in2="effect1_dropShadow_390_3180" result="shape"/>
</filter>
</defs>
</svg>
