<svg width="32" height="32" viewBox="0 0 32 32" fill="none" xmlns="http://www.w3.org/2000/svg">
<circle cx="16" cy="16" r="16" fill="#D5E9FF"/>
<path d="M22.4167 12.3333H20.3333V10.6667C20.3333 9.75 19.5833 9 18.6667 9H8.66667C7.75 9 7 9.75 7 10.6667V18.1667C7 19.0833 7.75 19.8333 8.66667 19.8333C8.66667 21.2167 9.78333 22.3333 11.1667 22.3333C12.55 22.3333 13.6667 21.2167 13.6667 19.8333H18.6667C18.6667 21.2167 19.7833 22.3333 21.1667 22.3333C22.55 22.3333 23.6667 21.2167 23.6667 19.8333H24.5C24.9583 19.8333 25.3333 19.4583 25.3333 19V16.225C25.3333 15.8667 25.2167 15.5167 25 15.225L23.0833 12.6667C22.925 12.4583 22.675 12.3333 22.4167 12.3333ZM11.1667 20.6667C10.7083 20.6667 10.3333 20.2917 10.3333 19.8333C10.3333 19.375 10.7083 19 11.1667 19C11.625 19 12 19.375 12 19.8333C12 20.2917 11.625 20.6667 11.1667 20.6667ZM22.4167 13.5833L24.05 15.6667H20.3333V13.5833H22.4167ZM21.1667 20.6667C20.7083 20.6667 20.3333 20.2917 20.3333 19.8333C20.3333 19.375 20.7083 19 21.1667 19C21.625 19 22 19.375 22 19.8333C22 20.2917 21.625 20.6667 21.1667 20.6667Z" fill="#F7931A"/>
</svg>
