<svg width="166" height="132" viewBox="0 0 166 132" fill="none" xmlns="http://www.w3.org/2000/svg">
<g clip-path="url(#clip0_390_3273)">
<path d="M80.5958 131.986C101.287 131.986 118.06 115.146 118.06 94.374C118.06 73.6016 101.287 56.7623 80.5958 56.7623C59.9048 56.7623 43.1313 73.6016 43.1313 94.374C43.1313 115.146 59.9048 131.986 80.5958 131.986Z" fill="#64AB69"/>
<path d="M99.0564 78.5133C99.543 78.9012 92.5309 88.3544 83.4295 99.6178C81.4833 101.988 79.623 104.258 77.9057 106.341L77.1473 107.261L76.3316 106.428C69.2193 99.0718 64.3538 93.5982 64.6973 93.2534C65.0407 92.9086 70.4786 97.7788 77.8199 104.933L76.26 105.02C77.9486 102.908 79.7661 100.609 81.6837 98.2242C90.7993 86.9321 98.5699 78.1254 99.0564 78.5133Z" fill="white"/>
<path d="M133.816 88.2316C132.7 84.2808 127.591 84.6687 127.591 84.6687L127.734 87.4127C130.696 86.8955 132.528 90.3866 132.528 90.3866L133.816 88.2316Z" fill="#64AB69"/>
<path d="M25.3007 96.5067C24.1845 92.5559 19.0757 92.9438 19.0757 92.9438L19.2188 95.6878C22.181 95.1706 24.0128 98.6473 24.0128 98.6473L25.3007 96.5067Z" fill="#E0E0E0"/>
<path d="M85.075 41.8562C91.0138 43.6664 94.7059 36.7849 94.7059 36.7849L91.0997 34.7161C89.3395 38.9255 83.415 38.437 83.415 38.437L85.075 41.8562Z" fill="#E0E0E0"/>
<path d="M52.1467 49.2551C49.3848 49.5425 49.0557 53.0335 49.0557 53.0335L50.9017 53.249C50.9017 51.209 53.4346 50.3614 53.4346 50.3614L52.1467 49.2551Z" fill="#64AB69"/>
<path d="M165.971 74.6984C166.372 71.94 163.095 70.762 163.095 70.762L162.422 72.5003C164.397 73.0031 164.569 75.6753 164.569 75.6753L165.971 74.6984Z" fill="#E0E0E0"/>
<path d="M68.2604 12.9364C68.6611 10.1781 65.384 9 65.384 9L64.7114 10.7384C66.6863 11.2412 66.8723 13.9134 66.8723 13.9134L68.2604 12.9364Z" fill="#64AB69"/>
<path d="M0.0286834 57.444C-0.472179 61.7683 5.23765 62.8171 5.23765 62.8171L6.26799 59.9869C2.84782 59.6708 2.34696 55.6338 2.34696 55.6338L0.0286834 57.444Z" fill="#64AB69"/>
<path d="M127.047 41.7702C129.824 41.9283 130.711 38.5521 130.711 38.5521L128.922 38.0349C128.593 40.0606 125.96 40.4629 125.96 40.4629L127.047 41.7702Z" fill="#64AB69"/>
<path d="M142.202 53.1198C142.202 53.2491 141.172 53.3497 139.912 53.3497C138.653 53.3497 137.623 53.2491 137.623 53.1198C137.623 52.9905 138.653 52.8899 139.912 52.8899C141.172 52.8899 142.202 52.9905 142.202 53.1198Z" fill="#E0E0E0"/>
<path d="M144.62 46.856C144.749 46.856 144.849 47.9047 144.849 49.1833C144.849 50.4763 144.749 51.5107 144.62 51.5107C144.492 51.5107 144.391 50.462 144.391 49.1833C144.406 47.9047 144.506 46.856 144.62 46.856Z" fill="#E0E0E0"/>
<path d="M147.21 52.9617C147.21 52.8324 148.241 52.7319 149.5 52.7319C150.759 52.7319 151.79 52.8324 151.79 52.9617C151.79 53.091 150.759 53.1916 149.5 53.1916C148.241 53.1916 147.21 53.091 147.21 52.9617Z" fill="#E0E0E0"/>
<path d="M144.778 59.2112C144.649 59.2112 144.549 58.1624 144.549 56.8838C144.549 55.5908 144.649 54.5564 144.778 54.5564C144.907 54.5564 145.007 55.6052 145.007 56.8838C145.007 58.1768 144.907 59.2112 144.778 59.2112Z" fill="#E0E0E0"/>
<path d="M148.484 56.539C148.384 56.6252 147.955 56.2517 147.497 55.7058C147.053 55.1598 146.767 54.657 146.853 54.5852C146.953 54.499 147.382 54.8725 147.84 55.4184C148.298 55.95 148.584 56.4528 148.484 56.539Z" fill="#E0E0E0"/>
<path d="M148.269 49.4419C148.355 49.5281 148.055 49.9879 147.583 50.462C147.11 50.9361 146.667 51.2521 146.581 51.1659C146.495 51.0797 146.795 50.62 147.268 50.1459C147.74 49.6718 148.184 49.3557 148.269 49.4419Z" fill="#E0E0E0"/>
<path d="M143.018 51.2521C142.932 51.3527 142.517 51.1228 142.073 50.7493C141.629 50.3758 141.329 50.0022 141.415 49.9017C141.501 49.8011 141.916 50.031 142.359 50.4045C142.803 50.778 143.103 51.1516 143.018 51.2521Z" fill="#E0E0E0"/>
<path d="M142.817 54.3697C142.903 54.4559 142.645 54.9012 142.216 55.361C141.787 55.8207 141.372 56.1367 141.286 56.0505C141.2 55.9643 141.458 55.519 141.887 55.0593C142.302 54.5995 142.731 54.2978 142.817 54.3697Z" fill="#E0E0E0"/>
<path d="M17.5305 40.3046C17.5305 40.4339 16.5001 40.5345 15.2408 40.5345C13.9815 40.5345 12.9512 40.4339 12.9512 40.3046C12.9512 40.1753 13.9815 40.0748 15.2408 40.0748C16.5001 40.0891 17.5305 40.1897 17.5305 40.3046Z" fill="#64AB69"/>
<path d="M19.9633 34.0552C20.0921 34.0552 20.1923 35.1039 20.1923 36.3826C20.1923 37.6755 20.0921 38.7099 19.9633 38.7099C19.8345 38.7099 19.7344 37.6612 19.7344 36.3826C19.7344 35.1039 19.8345 34.0552 19.9633 34.0552Z" fill="#64AB69"/>
<path d="M22.5532 40.161C22.5532 40.0317 23.5836 39.9311 24.8429 39.9311C26.1022 39.9311 27.1325 40.0317 27.1325 40.161C27.1325 40.2903 26.1022 40.3908 24.8429 40.3908C23.5693 40.3765 22.5532 40.2759 22.5532 40.161Z" fill="#64AB69"/>
<path d="M20.1206 46.4104C19.9918 46.4104 19.8916 45.3617 19.8916 44.083C19.8916 42.79 19.9918 41.7556 20.1206 41.7556C20.2494 41.7556 20.3495 42.8044 20.3495 44.083C20.3495 45.3617 20.2494 46.4104 20.1206 46.4104Z" fill="#64AB69"/>
<path d="M23.8126 43.7239C23.7124 43.8101 23.2831 43.4366 22.8252 42.8906C22.3816 42.3447 22.0954 41.8419 22.1812 41.77C22.2814 41.6838 22.7107 42.0574 23.1686 42.6033C23.6266 43.1492 23.9128 43.6521 23.8126 43.7239Z" fill="#64AB69"/>
<path d="M23.6124 36.6412C23.6983 36.7273 23.3978 37.1871 22.9255 37.6612C22.4533 38.1353 22.0097 38.4513 21.9238 38.3651C21.8379 38.2789 22.1385 37.8192 22.6107 37.3451C23.0686 36.8566 23.5122 36.555 23.6124 36.6412Z" fill="#64AB69"/>
<path d="M18.3606 38.4514C18.2747 38.5519 17.8597 38.3221 17.4161 37.9485C16.9725 37.575 16.672 37.2015 16.7578 37.1009C16.8437 37.0003 17.2587 37.2302 17.7023 37.6037C18.1459 37.9773 18.4321 38.3508 18.3606 38.4514Z" fill="#64AB69"/>
<path d="M18.1458 41.5689C18.2317 41.6551 17.9741 42.1004 17.5448 42.5602C17.1155 43.0199 16.7005 43.336 16.6146 43.2498C16.5287 43.1636 16.7863 42.7182 17.2156 42.2585C17.6449 41.7987 18.0599 41.4827 18.1458 41.5689Z" fill="#64AB69"/>
</g>
<defs>
<clipPath id="clip0_390_3273">
<rect width="166" height="132" fill="white"/>
</clipPath>
</defs>
</svg>
