<svg width="40" height="40" viewBox="0 0 40 40" fill="none" xmlns="http://www.w3.org/2000/svg">
<g filter="url(#filter0_d_390_3174)">
<circle cx="20" cy="18" r="16" fill="#FFDBDB"/>
<path fill-rule="evenodd" clip-rule="evenodd" d="M26.6667 18.8334V23C26.6667 23.6631 26.4033 24.2989 25.9344 24.7678C25.4656 25.2366 24.8297 25.5 24.1667 25.5H20.8333V18.8334H26.6667ZM19.1667 18.8334V25.5H15.8333C15.1703 25.5 14.5344 25.2366 14.0656 24.7678C13.5967 24.2989 13.3333 23.6631 13.3333 23V18.8334H19.1667ZM17.5 9.66669C17.973 9.66613 18.4407 9.76649 18.8718 9.96106C19.3029 10.1556 19.6875 10.44 20 10.795C20.3125 10.44 20.6971 10.1556 21.1282 9.96106C21.5593 9.76649 22.027 9.66613 22.5 9.66669H22.9167C23.2482 9.66669 23.5661 9.79839 23.8006 10.0328C24.035 10.2672 24.1667 10.5852 24.1667 10.9167V11.3334C24.1667 11.9409 24.0042 12.51 23.7208 13H25.8333C26.2754 13 26.6993 13.1756 27.0118 13.4882C27.3244 13.8007 27.5 14.2247 27.5 14.6667V16.3334C27.5 16.6367 27.4192 16.9217 27.2767 17.1667H20.8333V14.6667C20.8333 14.4457 20.7455 14.2337 20.5893 14.0774C20.433 13.9212 20.221 13.8334 20 13.8334C19.779 13.8334 19.567 13.9212 19.4107 14.0774C19.2545 14.2337 19.1667 14.4457 19.1667 14.6667V17.1667H12.7233C12.5767 16.9135 12.4996 16.626 12.5 16.3334V14.6667C12.5 14.2247 12.6756 13.8007 12.9882 13.4882C13.3007 13.1756 13.7246 13 14.1667 13H16.2792C15.9862 12.4935 15.8324 11.9185 15.8333 11.3334V10.9167C15.8333 10.5852 15.965 10.2672 16.1995 10.0328C16.4339 9.79839 16.7518 9.66669 17.0833 9.66669H17.5ZM17.5 11.3334C17.5 11.7754 17.6756 12.1993 17.9882 12.5119C18.3007 12.8244 18.7246 13 19.1667 13C19.1667 12.558 18.9911 12.1341 18.6785 11.8215C18.366 11.509 17.942 11.3334 17.5 11.3334V11.3334ZM22.5 11.3334C22.058 11.3334 21.6341 11.509 21.3215 11.8215C21.0089 12.1341 20.8333 12.558 20.8333 13C21.2754 13 21.6993 12.8244 22.0118 12.5119C22.3244 12.1993 22.5 11.7754 22.5 11.3334Z" fill="#FF6464"/>
</g>
<defs>
<filter id="filter0_d_390_3174" x="0" y="0" width="40" height="40" filterUnits="userSpaceOnUse" color-interpolation-filters="sRGB">
<feFlood flood-opacity="0" result="BackgroundImageFix"/>
<feColorMatrix in="SourceAlpha" type="matrix" values="0 0 0 0 0 0 0 0 0 0 0 0 0 0 0 0 0 0 127 0" result="hardAlpha"/>
<feOffset dy="2"/>
<feGaussianBlur stdDeviation="2"/>
<feComposite in2="hardAlpha" operator="out"/>
<feColorMatrix type="matrix" values="0 0 0 0 0.14902 0 0 0 0 0.152941 0 0 0 0 0.235294 0 0 0 0.2 0"/>
<feBlend mode="normal" in2="BackgroundImageFix" result="effect1_dropShadow_390_3174"/>
<feBlend mode="normal" in="SourceGraphic" in2="effect1_dropShadow_390_3174" result="shape"/>
</filter>
</defs>
</svg>
