<svg width="32" height="32" viewBox="0 0 32 32" fill="none" xmlns="http://www.w3.org/2000/svg">
<circle cx="16" cy="16" r="16" fill="#FFE3E3"/>
<path fill-rule="evenodd" clip-rule="evenodd" d="M22.6667 16.8334V21.0001C22.6667 21.6631 22.4033 22.299 21.9344 22.7678C21.4656 23.2367 20.8297 23.5001 20.1667 23.5001H16.8333V16.8334H22.6667ZM15.1667 16.8334V23.5001H11.8333C11.1703 23.5001 10.5344 23.2367 10.0656 22.7678C9.59673 22.299 9.33333 21.6631 9.33333 21.0001V16.8334H15.1667ZM13.5 7.66675C13.973 7.66619 14.4407 7.76655 14.8718 7.96112C15.3029 8.1557 15.6875 8.44001 16 8.79508C16.3125 8.44001 16.6971 8.1557 17.1282 7.96112C17.5593 7.76655 18.027 7.66619 18.5 7.66675H18.9167C19.2482 7.66675 19.5661 7.79845 19.8006 8.03287C20.035 8.26729 20.1667 8.58523 20.1667 8.91675V9.33342C20.1667 9.94092 20.0042 10.5101 19.7208 11.0001H21.8333C22.2754 11.0001 22.6993 11.1757 23.0118 11.4882C23.3244 11.8008 23.5 12.2247 23.5 12.6668V14.3334C23.5 14.6368 23.4192 14.9218 23.2767 15.1668H16.8333V12.6668C16.8333 12.4457 16.7455 12.2338 16.5893 12.0775C16.433 11.9212 16.221 11.8334 16 11.8334C15.779 11.8334 15.567 11.9212 15.4107 12.0775C15.2545 12.2338 15.1667 12.4457 15.1667 12.6668V15.1668H8.72333C8.57667 14.9135 8.49962 14.626 8.5 14.3334V12.6668C8.5 12.2247 8.6756 11.8008 8.98816 11.4882C9.30072 11.1757 9.72464 11.0001 10.1667 11.0001H12.2792C11.9862 10.4936 11.8324 9.91856 11.8333 9.33342V8.91675C11.8333 8.58523 11.965 8.26729 12.1995 8.03287C12.4339 7.79845 12.7518 7.66675 13.0833 7.66675H13.5ZM13.5 9.33342C13.5 9.77544 13.6756 10.1994 13.9882 10.5119C14.3007 10.8245 14.7246 11.0001 15.1667 11.0001C15.1667 10.5581 14.9911 10.1341 14.6785 9.82157C14.366 9.50901 13.942 9.33342 13.5 9.33342ZM18.5 9.33342C18.058 9.33342 17.6341 9.50901 17.3215 9.82157C17.0089 10.1341 16.8333 10.5581 16.8333 11.0001C17.2754 11.0001 17.6993 10.8245 18.0118 10.5119C18.3244 10.1994 18.5 9.77544 18.5 9.33342Z" fill="url(#paint0_linear_882_1269)"/>
<defs>
<linearGradient id="paint0_linear_882_1269" x1="8.5" y1="15.5834" x2="23.5" y2="15.5834" gradientUnits="userSpaceOnUse">
<stop stop-color="#EC008C"/>
<stop offset="1" stop-color="#FC6767"/>
</linearGradient>
</defs>
</svg>
