<svg width="24" height="24" viewBox="0 0 26 26" fill="none" xmlns="http://www.w3.org/2000/svg">
<path d="M26 6.00089V19.9932C25.999 20.4585 25.856 20.9125 25.59 21.2943C25.324 21.6762 24.9478 21.9678 24.5116 22.13L21.45 23.2589L18.2 24.4558L14.9805 25.6421C14.5509 25.8013 14.1034 25.9072 13.648 25.9574C13.2162 26.0094 12.7797 26.0094 12.348 25.9574C11.8939 25.9069 11.4478 25.801 11.0195 25.6421L1.4884 22.13C1.05224 21.9678 0.676007 21.6762 0.410027 21.2943C0.144047 20.9125 0.000994271 20.4585 0 19.9932L0 6.00089C0.000431277 5.88447 0.00908563 5.76823 0.0258984 5.65303C0.0966274 5.21476 0.291745 4.80601 0.588047 4.47542C0.833966 4.20189 1.14307 3.99269 1.4884 3.86604L4.11328 2.8946L7.94168 1.48643L11.0195 0.352995C12.2979 -0.117665 13.7021 -0.117665 14.9805 0.352995L24.5116 3.86401C24.8925 4.00596 25.2288 4.24679 25.4858 4.56174C25.7429 4.8767 25.9114 5.25442 25.9741 5.65608C25.9909 5.77025 25.9996 5.88548 26 6.00089Z" fill="#F3B054"/>
<path d="M25.4119 4.47549L13.003 9.0519H13L0.588027 4.47549C0.291725 4.80609 0.0966079 5.21483 0.0258789 5.65311L12.35 10.2001V25.9585C12.7818 26.0105 13.2182 26.0105 13.65 25.9585V10.197L25.9741 5.65667C25.9063 5.21643 25.7108 4.80576 25.4119 4.47549Z" fill="#FFDCAE"/>
<path d="M20.5725 6.14217L7.9432 1.48654L4.11328 2.89471L17.614 7.87432C17.7855 7.93669 17.9337 8.05038 18.0384 8.19993C18.143 8.34948 18.1991 8.52764 18.199 8.71017V24.4559L21.449 23.259V7.39951C21.4486 7.12554 21.3645 6.85824 21.2078 6.63349C21.0511 6.40873 20.8294 6.23729 20.5725 6.14217Z" fill="#EE8335"/>
<path d="M9.10013 15.7708C9.02353 15.7707 8.94754 15.7571 8.87568 15.7306L4.32568 14.0549C4.17319 13.9887 4.05182 13.8667 3.98647 13.7139C3.92112 13.561 3.91675 13.389 3.97426 13.233C4.03176 13.0771 4.14678 12.9491 4.29571 12.8753C4.44463 12.8014 4.61616 12.7874 4.77509 12.8361L9.32509 14.5119C9.46816 14.5649 9.58805 14.6666 9.66382 14.799C9.73958 14.9315 9.76641 15.0864 9.73962 15.2366C9.71283 15.3868 9.63412 15.5228 9.51724 15.6209C9.40035 15.719 9.25272 15.773 9.10013 15.7733V15.7708Z" fill="#EE8335"/>
<path d="M8.45005 18.3383C8.37328 18.3383 8.29712 18.3247 8.22509 18.2982L4.97509 17.0997C4.82261 17.0336 4.70124 16.9116 4.63588 16.7587C4.57053 16.6059 4.56616 16.4339 4.62367 16.2779C4.68118 16.122 4.7962 15.994 4.94512 15.9201C5.09405 15.8463 5.26558 15.8323 5.4245 15.881L8.6745 17.0794C8.81754 17.1325 8.9374 17.2341 9.01317 17.3665C9.08894 17.4989 9.11581 17.6537 9.08909 17.8039C9.06236 17.9541 8.98374 18.0901 8.86695 18.1882C8.75015 18.2864 8.6026 18.3404 8.45005 18.3408V18.3383Z" fill="#EE8335"/>
</svg>
