<svg width="69" height="80" viewBox="0 0 69 80" fill="none" xmlns="http://www.w3.org/2000/svg">
<path d="M13.3061 30.0608L1.86751 26.4424C0.817031 26.0923 0 25.0418 0 23.8746C0 22.2405 1.40063 20.9566 3.03471 21.3067L13.1894 22.9408V30.0608H13.3061Z" fill="#349299"/>
<path d="M54.7422 30.0608L66.1808 26.4424C67.2313 26.0923 68.0483 25.0418 68.0483 23.8746C68.0483 22.2405 66.6477 20.9566 65.0136 21.3067L54.8589 22.9408V30.0608H54.7422Z" fill="#195467"/>
<path d="M33.7311 79.8993H13.7719L8.63623 16.17H33.7311V79.8993Z" fill="#64B9CD"/>
<path d="M33.7334 79.8993H53.6926L58.945 16.17H33.7334V79.8993Z" fill="#50A4B2"/>
<path d="M19.3736 76.8632C18.79 76.8632 18.3231 76.3963 18.3231 75.9294L13.771 20.2539C13.771 19.6703 14.1212 19.2034 14.7048 19.0867C15.2884 19.0867 15.7552 19.4368 15.872 20.0204L20.4241 75.696C20.4241 76.2796 20.0739 76.8632 19.3736 76.8632C19.4903 76.8632 19.3736 76.8632 19.3736 76.8632Z" fill="#349299"/>
<path d="M24.1599 76.8645C23.5763 76.8645 23.1094 76.3976 23.1094 75.9307L20.0747 20.2552C20.0747 19.6716 20.5416 19.2047 21.0085 19.2047C21.5921 19.2047 22.0589 19.6716 22.0589 20.1385L25.0937 75.814C25.3271 76.3976 24.8602 76.8645 24.1599 76.8645C24.2766 76.8645 24.2766 76.8645 24.1599 76.8645Z" fill="#349299"/>
<path d="M29.0625 76.8632C28.4789 76.8632 28.012 76.3963 28.012 75.8127L26.4946 20.1372C26.4946 19.5536 26.9615 19.0867 27.5451 19.0867C28.1287 19.0867 28.5956 19.5536 28.5956 20.1372L30.1129 75.8127C30.1129 76.3963 29.6461 76.8632 29.0625 76.8632Z" fill="#349299"/>
<path d="M33.8479 76.8632C33.2643 76.8632 32.7974 76.3963 32.7974 75.8127V20.1372C32.7974 19.5536 33.2643 19.0867 33.8479 19.0867C34.4315 19.0867 34.8983 19.5536 34.8983 20.1372V75.8127C34.8983 76.3963 34.4315 76.8632 33.8479 76.8632Z" fill="#195467"/>
<path d="M38.6335 76.8632C38.0499 76.8632 37.583 76.3963 37.583 75.8127L39.1004 20.1372C39.1004 19.5536 39.5672 19.0867 40.1508 19.0867C40.7344 19.0867 41.2013 19.5536 41.2013 20.1372L39.684 75.8127C39.684 76.3963 39.2171 76.8632 38.6335 76.8632Z" fill="#195467"/>
<path d="M43.4182 76.8631C42.8346 76.8631 42.3677 76.3962 42.3677 75.8126L45.4024 20.1371C45.4024 19.5535 45.8693 19.0866 46.4529 19.2033C47.0365 19.2033 47.5034 19.6702 47.3866 20.2538L44.3519 75.9293C44.4687 76.3962 44.0018 76.8631 43.4182 76.8631Z" fill="#195467"/>
<path d="M48.3229 76.8647C48.2062 76.8647 48.2062 76.8647 48.3229 76.8647C47.6226 76.8647 47.2725 76.2811 47.2725 75.6975L51.8245 20.022C51.8245 19.4384 52.4081 18.9715 52.9917 19.0882C53.5753 19.0882 54.0422 19.6718 53.9255 20.2554L49.3734 75.9309C49.2567 76.5145 48.7898 76.8647 48.3229 76.8647Z" fill="#195467"/>
<path d="M40.7361 4.14809C42.2535 4.14809 43.4207 5.31529 43.4207 6.83266V8.58346C43.4207 8.70018 43.4207 8.70018 43.4207 8.8169H46.9223C46.9223 8.70018 46.9223 8.70018 46.9223 8.58346V6.83266C46.9223 3.44777 44.121 0.646484 40.7361 0.646484H33.8496V4.14809H40.7361Z" fill="#195467"/>
<path d="M24.7443 8.46674V6.83266C24.7443 5.31529 25.9115 4.14809 27.4289 4.14809H33.7317V0.646484H27.4289C24.044 0.646484 21.2427 3.44777 21.2427 6.83266V8.58346C21.2427 8.70018 21.2427 8.70018 21.2427 8.8169H24.7443C24.861 8.70018 24.7443 8.58346 24.7443 8.46674Z" fill="#349299"/>
<path d="M61.3961 16.1714C61.3961 12.0862 58.1279 8.70129 53.926 8.70129H46.8061H43.3045H33.7334V16.1714H61.3961Z" fill="#8DD8DB"/>
<path d="M24.8619 8.70129H21.3603H12.723C8.63781 8.70129 5.25293 11.9695 5.25293 16.1714V16.2881H33.8494V8.70129H24.8619Z" fill="#9ADEE5"/>
</svg>
