<svg width="27" height="27" viewBox="0 0 30 30" fill="none" xmlns="http://www.w3.org/2000/svg">
<path d="M9.25 10.4375C9.25 7.15831 11.9083 4.5 15.1875 4.5C18.4667 4.5 21.125 7.15831 21.125 10.4375C21.125 13.7167 18.4667 16.375 15.1875 16.375C11.9083 16.375 9.25 13.7167 9.25 10.4375Z" fill="#A9A9A9"/>
<path fill-rule="evenodd" clip-rule="evenodd" d="M14.1202 2H16.2548C18.0746 1.99999 19.5012 1.99999 20.6455 2.09906C21.811 2.19997 22.771 2.40898 23.6321 2.87918C24.8414 3.53953 25.8355 4.53357 26.4958 5.7429C26.966 6.604 27.175 7.56397 27.2759 8.72953C27.375 9.87377 27.375 11.3004 27.375 13.1202V17.0622C27.375 17.1359 27.375 17.1806 27.3746 17.2196C27.3477 19.7104 26.0549 21.8958 24.1129 23.1638C23.0043 23.8877 21.6828 24.3138 20.2651 24.3291C20.2263 24.3295 20.1818 24.3295 20.1088 24.3295L20.0941 24.3295L20.0926 24.3295C20.0088 24.33 19.9288 24.3641 19.8704 24.4241L19.4193 24.8928C18.6123 25.7312 17.9407 26.429 17.3343 26.9084C16.695 27.4138 16.0156 27.7699 15.1875 27.7699C14.3594 27.7699 13.68 27.4138 13.0407 26.9084C12.4343 26.429 11.7627 25.7312 10.9557 24.8927L10.5056 24.4251L10.5046 24.4241C10.4462 24.3641 10.3662 24.33 10.2824 24.3295L10.2809 24.3295L10.2662 24.3295C10.1932 24.3295 10.1487 24.3295 10.1099 24.3291C8.6922 24.3138 7.37074 23.8877 6.26211 23.1638C4.32014 21.8958 3.0273 19.7104 3.00042 17.2196C3 17.1808 3 17.1362 3 17.0631V13.1202C2.99999 11.3004 2.99999 9.87378 3.09906 8.72953C3.19997 7.56397 3.40898 6.604 3.87918 5.7429C4.53953 4.53357 5.53357 3.53953 6.7429 2.87918C7.604 2.40898 8.56397 2.19997 9.72953 2.09906C10.8738 1.99999 12.3004 1.99999 14.1202 2ZM9.89126 3.96707C8.8493 4.05728 8.18047 4.23053 7.64149 4.52483C6.74764 5.01291 6.01291 5.74764 5.52483 6.64149C5.23053 7.18047 5.05728 7.8493 4.96707 8.89126C4.87582 9.9452 4.875 11.2908 4.875 13.1648V17.0562C4.875 17.1383 4.87501 17.172 4.87531 17.1994C4.8911 18.6625 5.49718 19.9838 6.46881 20.9361C7.52895 19.3192 9.35758 18.25 11.4375 18.25H18.9375C21.0174 18.25 22.8461 19.3192 23.9062 20.9361C24.8778 19.9838 25.4839 18.6625 25.4997 17.1994C25.5 17.172 25.5 17.1383 25.5 17.0562V13.1648C25.5 11.2908 25.4992 9.9452 25.4079 8.89126C25.3177 7.8493 25.1445 7.18047 24.8502 6.64149C24.3621 5.74764 23.6274 5.01291 22.7335 4.52483C22.1945 4.23053 21.5257 4.05728 20.4837 3.96707C19.4298 3.87582 18.0842 3.875 16.2102 3.875H14.1648C12.2908 3.875 10.9452 3.87582 9.89126 3.96707Z" fill="#A9A9A9"/>
</svg>
