<svg width="25" height="25" viewBox="0 0 30 30" fill="none" xmlns="http://www.w3.org/2000/svg">
<path d="M9.0625 10C9.0625 6.72081 11.7208 4.0625 15 4.0625C18.2792 4.0625 20.9375 6.72081 20.9375 10C20.9375 13.2792 18.2792 15.9375 15 15.9375C11.7208 15.9375 9.0625 13.2792 9.0625 10Z" fill="#493B83"/>
<path fill-rule="evenodd" clip-rule="evenodd" d="M13.9327 1.5625H16.0673C17.8871 1.56249 19.3137 1.56249 20.458 1.66156C21.6235 1.76247 22.5835 1.97148 23.4446 2.44168C24.6539 3.10203 25.648 4.09607 26.3083 5.3054C26.7785 6.1665 26.9875 7.12647 27.0884 8.29203C27.1875 9.43627 27.1875 10.8629 27.1875 12.6827V16.6247C27.1875 16.6984 27.1875 16.7431 27.1871 16.7821C27.1602 19.2729 25.8674 21.4583 23.9254 22.7263C22.8168 23.4502 21.4953 23.8763 20.0776 23.8916C20.0388 23.892 19.9943 23.892 19.9213 23.892L19.9066 23.892L19.9051 23.892C19.8213 23.8925 19.7413 23.9266 19.6829 23.9866L19.2318 24.4553C18.4248 25.2937 17.7532 25.9915 17.1468 26.4709C16.5075 26.9763 15.8281 27.3324 15 27.3324C14.1719 27.3324 13.4925 26.9763 12.8532 26.4709C12.2468 25.9915 11.5752 25.2937 10.7682 24.4552L10.3181 23.9876L10.3171 23.9866C10.2587 23.9266 10.1787 23.8925 10.0949 23.892L10.0934 23.892L10.0787 23.892C10.0057 23.892 9.96124 23.892 9.92243 23.8916C8.5047 23.8763 7.18324 23.4502 6.07461 22.7263C4.13264 21.4583 2.8398 19.2729 2.81292 16.7821C2.8125 16.7433 2.8125 16.6987 2.8125 16.6256V12.6827C2.81249 10.8629 2.81249 9.43628 2.91156 8.29203C3.01247 7.12647 3.22148 6.1665 3.69168 5.3054C4.35203 4.09607 5.34607 3.10203 6.5554 2.44168C7.4165 1.97148 8.37647 1.76247 9.54203 1.66156C10.6863 1.56249 12.1129 1.56249 13.9327 1.5625ZM9.70376 3.52957C8.6618 3.61978 7.99297 3.79303 7.45399 4.08733C6.56014 4.57541 5.82541 5.31014 5.33733 6.20399C5.04303 6.74297 4.86978 7.4118 4.77957 8.45376C4.68832 9.5077 4.6875 10.8533 4.6875 12.7273V16.6187C4.6875 16.7008 4.68751 16.7345 4.68781 16.7619C4.7036 18.225 5.30968 19.5463 6.28131 20.4986C7.34145 18.8817 9.17007 17.8125 11.25 17.8125H18.75C20.8299 17.8125 22.6586 18.8817 23.7187 20.4986C24.6903 19.5463 25.2964 18.225 25.3122 16.7619C25.3125 16.7345 25.3125 16.7008 25.3125 16.6187V12.7273C25.3125 10.8533 25.3117 9.5077 25.2204 8.45376C25.1302 7.4118 24.957 6.74297 24.6627 6.20399C24.1746 5.31014 23.4399 4.57541 22.546 4.08733C22.007 3.79303 21.3382 3.61978 20.2962 3.52957C19.2423 3.43832 17.8967 3.4375 16.0227 3.4375H13.9773C12.1033 3.4375 10.7577 3.43832 9.70376 3.52957Z" fill="#493B83"/>
</svg>
