<svg width="18" height="18" viewBox="0 0 18 18" fill="none" xmlns="http://www.w3.org/2000/svg">
<path d="M7.62774 3.75C7.73979 3.74962 7.8505 3.77435 7.95173 3.82237C8.05297 3.87039 8.14216 3.94048 8.21274 4.0275L11.8352 8.5275C11.9456 8.6617 12.0059 8.83003 12.0059 9.00375C12.0059 9.17747 11.9456 9.3458 11.8352 9.48L8.08524 13.98C7.95794 14.1332 7.77501 14.2295 7.57669 14.2478C7.37837 14.266 7.18091 14.2048 7.02774 14.0775C6.87458 13.9502 6.77826 13.7673 6.75998 13.5689C6.74169 13.3706 6.80294 13.1732 6.93024 13.02L10.2827 9L7.04274 4.98C6.95103 4.86991 6.89277 4.73585 6.87486 4.59369C6.85696 4.45153 6.88014 4.30721 6.94168 4.17782C7.00323 4.04842 7.10055 3.93936 7.22213 3.86354C7.34371 3.78773 7.48447 3.74832 7.62774 3.75Z" fill="url(#paint0_linear_882_1521)"/>
<defs>
<linearGradient id="paint0_linear_882_1521" x1="13.4622" y1="26.3748" x2="6.90721" y2="25.9227" gradientUnits="userSpaceOnUse">
<stop stop-color="#FF8D8D"/>
<stop offset="1" stop-color="#F7FC0E"/>
</linearGradient>
</defs>
</svg>
