<svg width="7" height="10" viewBox="0 0 7 12" fill="none" xmlns="http://www.w3.org/2000/svg">
<path d="M1.6275 0.750005C1.73955 0.749625 1.85025 0.774354 1.95149 0.822375C2.05272 0.870397 2.14191 0.940491 2.2125 1.02751L5.835 5.52751C5.94531 5.66171 6.00562 5.83004 6.00562 6.00376C6.00562 6.17748 5.94531 6.34581 5.835 6.48001L2.085 10.98C1.9577 11.1332 1.77476 11.2295 1.57644 11.2478C1.37812 11.2661 1.18066 11.2048 1.0275 11.0775C0.874337 10.9502 0.778019 10.7673 0.759734 10.5689C0.741449 10.3706 0.802695 10.1732 0.929999 10.02L4.2825 6.00001L1.0425 1.98C0.950788 1.86992 0.89253 1.73586 0.874621 1.5937C0.856711 1.45154 0.879899 1.30722 0.941441 1.17782C1.00298 1.04843 1.1003 0.93937 1.22189 0.863553C1.34347 0.787735 1.48422 0.748332 1.6275 0.750005Z" fill="#493B83"/>
</svg>
