<svg width="25" height="25" viewBox="0 0 30 30" fill="none" xmlns="http://www.w3.org/2000/svg">
<path d="M22.8269 6.08284C22.1115 5.85732 21.3075 5.74782 20.3786 5.69051C19.317 5.625 18.0267 5.625 16.4438 5.625H12.8709C11.0002 5.62499 9.53378 5.62499 8.36223 5.73638C7.16809 5.84992 6.19031 6.08533 5.32835 6.61354C4.42571 7.16668 3.66679 7.9256 3.11365 8.82824C3.09405 8.86022 3.07486 8.89236 3.05606 8.92466C3.14624 7.24099 3.38177 6.12588 3.99697 5.24311C4.31891 4.78115 4.70859 4.37489 5.15171 4.03926C6.52375 3 8.48096 3 12.3954 3H18.6589C20.6273 3 21.6115 3 22.223 3.63752C22.6927 4.12716 22.8016 4.84599 22.8269 6.08284Z" fill="#A0A2B4"/>
<path d="M3.8596 9.28543C3 10.6882 3 12.5977 3 16.4167C3 20.2357 3 22.1452 3.8596 23.5479C4.34059 24.3328 5.00052 24.9927 5.78542 25.4737C7.18816 26.3333 9.09766 26.3333 12.9167 26.3333H16.4167C20.2357 26.3333 22.1452 26.3333 23.5479 25.4737C24.3328 24.9927 24.9927 24.3328 25.4737 23.5479C26.0383 22.6267 26.2321 21.4868 26.2986 19.7311H18.9092C16.6687 19.7311 14.8524 17.9148 14.8524 15.6743C14.8524 13.4337 16.6687 11.6174 18.9092 11.6174H26.1906C26.0737 10.6518 25.8609 9.91723 25.4737 9.28543C24.9927 8.50052 24.3328 7.84059 23.5479 7.3596C23.3245 7.22267 23.0882 7.10756 22.8333 7.01078C21.4884 6.5 19.6273 6.5 16.4167 6.5H12.9167C9.09766 6.5 7.18816 6.5 5.78542 7.3596C5.00052 7.84059 4.34059 8.50052 3.8596 9.28543Z" fill="#A0A2B4"/>
<path fill-rule="evenodd" clip-rule="evenodd" d="M26.3075 13.3674H18.9092C17.6352 13.3674 16.6024 14.4002 16.6024 15.6743C16.6024 16.9483 17.6352 17.9811 18.9092 17.9811H26.3306C26.3333 17.4979 26.3333 16.9779 26.3333 16.4167C26.3333 15.2299 26.3333 14.2275 26.3075 13.3674ZM18.9092 14.7993C18.4259 14.7993 18.0342 15.191 18.0342 15.6743C18.0342 16.1575 18.4259 16.5493 18.9092 16.5493H22.091C22.5743 16.5493 22.966 16.1575 22.966 15.6743C22.966 15.191 22.5743 14.7993 22.091 14.7993H18.9092Z" fill="#A0A2B4"/>
</svg>
