<svg width="24" height="24" viewBox="0 0 28 28" fill="none" xmlns="http://www.w3.org/2000/svg">
<path d="M22.1603 5.41621C21.4448 5.19069 20.6409 5.0812 19.712 5.02388C18.6503 4.95837 17.3601 4.95837 15.7772 4.95837H12.2042C10.3336 4.95837 8.86716 4.95836 7.69561 5.06975C6.50147 5.18329 5.52368 5.4187 4.66172 5.94691C3.75908 6.50005 3.00016 7.25897 2.44702 8.16161C2.42743 8.19359 2.40823 8.22573 2.38943 8.25803C2.47961 6.57436 2.71514 5.45925 3.33034 4.57649C3.65228 4.11452 4.04196 3.70827 4.48508 3.37263C5.85713 2.33337 7.81433 2.33337 11.7287 2.33337H17.9922C19.9607 2.33337 20.9449 2.33337 21.5564 2.9709C22.0261 3.46053 22.135 4.17936 22.1603 5.41621Z" fill="#493B83"/>
<path d="M3.19297 8.6188C2.33337 10.0215 2.33337 11.931 2.33337 15.75C2.33337 19.569 2.33337 21.4785 3.19297 22.8813C3.67396 23.6662 4.33389 24.3261 5.1188 24.8071C6.52154 25.6667 8.43104 25.6667 12.25 25.6667H15.75C19.569 25.6667 21.4785 25.6667 22.8813 24.8071C23.6662 24.3261 24.3261 23.6662 24.8071 22.8813C25.3717 21.96 25.5654 20.8202 25.6319 19.0645H18.2426C16.002 19.0645 14.1858 17.2482 14.1858 15.0076C14.1858 12.7671 16.0021 10.9508 18.2426 10.9508H25.524C25.4071 9.98522 25.1943 9.25061 24.8071 8.6188C24.3261 7.83389 23.6662 7.17396 22.8813 6.69297C22.6578 6.55605 22.4215 6.44093 22.1667 6.34415C20.8218 5.83337 18.9607 5.83337 15.75 5.83337H12.25C8.43104 5.83337 6.52154 5.83337 5.1188 6.69297C4.33389 7.17396 3.67396 7.83389 3.19297 8.6188Z" fill="#493B83"/>
<path fill-rule="evenodd" clip-rule="evenodd" d="M25.6409 12.7008H18.2426C16.9685 12.7008 15.9358 13.7336 15.9358 15.0076C15.9358 16.2817 16.9685 17.3145 18.2426 17.3145H25.664C25.6667 16.8313 25.6667 16.3113 25.6667 15.75C25.6667 14.5633 25.6667 13.5609 25.6409 12.7008ZM18.2426 14.1326C17.7593 14.1326 17.3676 14.5244 17.3676 15.0076C17.3676 15.4909 17.7593 15.8826 18.2426 15.8826H21.4244C21.9076 15.8826 22.2994 15.4909 22.2994 15.0076C22.2994 14.5244 21.9076 14.1326 21.4244 14.1326H18.2426Z" fill="#493B83"/>
</svg>
