<svg width="66" height="61" viewBox="0 0 66 61" fill="none" xmlns="http://www.w3.org/2000/svg">
<path d="M11.5199 60.9997C7.4011 60.9997 3.6946 58.9042 1.6062 55.3941C-0.482201 51.8841 -0.536565 47.663 1.46311 44.1022L22.9446 5.85236C23.9405 4.07855 25.3982 2.60046 27.1664 1.57133C28.9346 0.542207 30.9489 -0.000488281 33.0007 -0.000488281C35.0524 -0.000488281 37.0668 0.542207 38.835 1.57133C40.6032 2.60046 42.0608 4.07855 43.0567 5.85236L64.5377 44.1022C66.5379 47.663 66.4866 51.8841 64.3951 55.3941C62.3037 58.9042 58.5997 60.9997 54.4819 60.9997H11.5199Z" fill="#FFA216"/>
<path d="M6.91917 47.0988L28.4001 8.84891C30.4049 5.27953 35.5957 5.27953 37.6005 8.84891L59.0825 47.0988C61.0314 50.5673 58.4942 54.8284 54.4826 54.8284H11.5191C7.50743 54.8284 4.9713 50.5673 6.91917 47.0988Z" fill="white"/>
<g style="mix-blend-mode:multiply" opacity="0.21">
<path d="M48.8893 28.9497L39.8449 37.894L22.7202 54.8285H54.4827C58.4943 54.8285 61.0305 50.5683 59.0826 47.0989L48.8893 28.9497Z" fill="#D0D2D3"/>
</g>
<path d="M29.5588 39.1973L28.1797 24.1047V23.8202C28.1797 23.6483 28.2139 23.478 28.2805 23.3191C28.347 23.1602 28.4446 23.0159 28.5675 22.8943C28.6905 22.7727 28.8365 22.6762 28.9972 22.6104C29.1578 22.5446 29.33 22.5107 29.5039 22.5107H36.4969C36.6708 22.5107 36.843 22.5446 37.0036 22.6104C37.1643 22.6762 37.3103 22.7727 37.4332 22.8943C37.5562 23.0159 37.6537 23.1602 37.7203 23.3191C37.7868 23.478 37.8211 23.6483 37.8211 23.8202V24.1047L36.4138 39.1998C36.3846 39.5102 36.2394 39.7987 36.0064 40.0088C35.7734 40.2188 35.4695 40.3353 35.1542 40.3353H30.8184C30.5027 40.3353 30.1984 40.2186 29.9653 40.008C29.7322 39.7974 29.5872 39.5082 29.5588 39.1973ZM29.3403 46.3132V43.0943C29.3403 42.8277 29.4474 42.572 29.638 42.3835C29.8287 42.195 30.0872 42.0891 30.3568 42.0891H35.6111C35.7447 42.089 35.8769 42.115 36.0003 42.1655C36.1237 42.2159 36.2358 42.29 36.3303 42.3833C36.4247 42.4767 36.4996 42.5875 36.5507 42.7095C36.6019 42.8315 36.6282 42.9622 36.6282 43.0943V46.3132C36.6281 46.4452 36.6017 46.5759 36.5506 46.6978C36.4994 46.8198 36.4245 46.9305 36.3301 47.0238C36.2356 47.1171 36.1235 47.1911 36.0002 47.2416C35.8768 47.292 35.7446 47.318 35.6111 47.3179H30.3568C30.0873 47.3179 29.8288 47.2121 29.6382 47.0237C29.4476 46.8353 29.3404 46.5797 29.3403 46.3132Z" fill="black"/>
</svg>
