<svg width="15" height="14" viewBox="0 0 15 14" fill="none" xmlns="http://www.w3.org/2000/svg">
<path d="M13.4312 6.07204H3.14309L7.63783 1.5773C7.99704 1.21809 7.99704 0.628618 7.63783 0.269408C7.27862 -0.0898026 6.69836 -0.0898026 6.33914 0.269408L0.269408 6.33915C-0.0898026 6.69836 -0.0898026 7.27862 0.269408 7.63783L6.33914 13.7076C6.69836 14.0668 7.27862 14.0668 7.63783 13.7076C7.99704 13.3484 7.99704 12.7681 7.63783 12.4089L3.14309 7.91414H13.4312C13.9378 7.91414 14.3523 7.49967 14.3523 6.99309C14.3523 6.48651 13.9378 6.07204 13.4312 6.07204Z" fill="url(#paint0_linear_819_1818)"/>
<defs>
<linearGradient id="paint0_linear_819_1818" x1="16.3338" y1="7.29545" x2="-1.0649" y2="6.7876" gradientUnits="userSpaceOnUse">
<stop stop-color="#9C7FFF"/>
<stop offset="0.492404" stop-color="#B53DFF"/>
<stop offset="1" stop-color="#EA00FF"/>
</linearGradient>
</defs>
</svg>
