<svg width="28" height="27" viewBox="0 0 28 27" fill="none" xmlns="http://www.w3.org/2000/svg">
<path d="M6.86696 4.20695C3.53344 6.62889 1.86668 7.83986 1.21205 9.62864C1.15954 9.77213 1.1123 9.9175 1.07044 10.0645C0.548635 11.8964 1.18528 13.8558 2.45857 17.7746C3.73186 21.6934 4.36851 23.6528 5.86744 24.8281C5.98769 24.9224 6.11135 25.0122 6.23818 25.0975C6.77149 25.4558 7.35933 25.6933 8.06238 25.8507V21.5246C8.06238 18.2454 10.7207 15.5871 13.9999 15.5871C17.2791 15.5871 19.9374 18.2454 19.9374 21.5246V25.8507C20.6404 25.6933 21.2283 25.4558 21.7616 25.0975C21.8884 25.0122 22.0121 24.9224 22.1323 24.8281C23.6313 23.6528 24.2679 21.6934 25.5412 17.7746C26.8145 13.8558 27.4511 11.8964 26.9293 10.0645C26.8875 9.9175 26.8402 9.77213 26.7877 9.62864C26.1331 7.83987 24.4663 6.6289 21.1328 4.20696C17.7993 1.78502 16.1325 0.574031 14.229 0.504201C14.0763 0.4986 13.9235 0.4986 13.7708 0.504201C11.8672 0.574031 10.2005 1.78501 6.86696 4.20695Z" fill="#A9A9A9"/>
<path d="M18.0624 26.0915V21.5246C18.0624 19.2809 16.2435 17.4621 13.9999 17.4621C11.7562 17.4621 9.93738 19.2809 9.93738 21.5246V26.0915C11.0286 26.1598 12.3488 26.1598 13.9999 26.1598C15.6509 26.1598 16.9712 26.1598 18.0624 26.0915Z" fill="#A9A9A9"/>
</svg>
