<svg width="250" height="240" viewBox="0 0 275 275" fill="none" xmlns="http://www.w3.org/2000/svg">
<path d="M250.026 134.533C250.783 167.831 245.889 200.993 241.002 233.992C225.795 234.243 210.472 233.502 195.184 233.468L28.2388 233.039C23.2082 202.839 20.4264 172.309 19.9165 141.699C19.4666 114.968 20.9184 87.5223 32.1853 62.9009C64.7524 -8.16627 183.351 -25.506 228.276 44.7037C245.377 71.4551 249.331 104.059 250.026 134.533Z" fill="url(#paint0_linear_614_2444)"/>
<path d="M69.7008 256.143C101.728 256.143 127.692 249.674 127.692 241.695C127.692 233.716 101.728 227.248 69.7008 227.248C37.6734 227.248 11.71 233.716 11.71 241.695C11.71 249.674 37.6734 256.143 69.7008 256.143Z" fill="#C19AD9"/>
<path d="M198.306 256.136C235.227 256.136 265.158 248.388 265.158 238.83C265.158 229.272 235.227 221.524 198.306 221.524C161.385 221.524 131.454 229.272 131.454 238.83C131.454 248.388 161.385 256.136 198.306 256.136Z" fill="#C19AD9"/>
<path d="M138.999 249.079C175.921 249.079 205.851 239.869 205.851 228.507C205.851 217.145 175.921 207.935 138.999 207.935C102.078 207.935 72.1477 217.145 72.1477 228.507C72.1477 239.869 102.078 249.079 138.999 249.079Z" fill="#EDEBCC"/>
<path d="M133.042 273.789C158.972 273.789 179.991 267.32 179.991 259.341C179.991 251.362 158.972 244.894 133.042 244.894C107.113 244.894 86.0935 251.362 86.0935 259.341C86.0935 267.32 107.113 273.789 133.042 273.789Z" fill="#C19AD9"/>
<path d="M175.561 205.655L190.515 93.0005L107.973 115.192L124.645 222.974L175.561 205.655Z" fill="#D9A72A"/>
<path d="M190.515 93.0004L110.14 118.819L61.8828 87.9713L136.948 75.4905L147.104 78.8114L160.715 83.2621L190.515 93.0004Z" fill="#F0C04A"/>
<path d="M160.729 209.663C163.544 173.5 162.535 134.499 161.07 98.152L162.099 98.4106C154.407 92.4694 145.918 87.6359 136.88 84.0515L118.081 91.4692C126.806 94.8719 137.364 100.207 145.407 106.346L144.377 106.087C145.843 142.434 146.852 181.428 144.037 217.591L160.729 209.663Z" fill="#8FB73A"/>
<path d="M160.715 83.2622C155.092 84.4531 149.353 85.3378 143.771 86.4538C139.899 87.2296 135.666 87.6379 131.904 88.8356C125.422 90.8772 118.797 88.7676 112.233 88.298C123.28 83.3114 135.05 80.1093 147.104 78.8115L160.715 83.2622Z" fill="#8FB73A"/>
<path d="M61.8828 87.9712L84.812 200.448L124.645 222.974L107.973 115.192L61.8828 87.9712Z" fill="#BA8D1E"/>
<path d="M68.2695 91.5035C71.7389 92.4971 74.6834 95.7295 77.9415 97.6826C82.7536 100.561 87.8724 102.589 92.7732 105.107C96.597 107.067 100.4 109.061 104.19 111.13C105.935 112.083 107.714 112.661 109.043 114.451C132.565 108.843 155.903 100.561 179.541 96.308C179.841 96.2535 179.855 96.9205 179.61 97.0566C168.022 103.685 155.685 106.584 143.519 109.864C132.402 112.858 121.23 115.58 110.12 118.827C110.938 124.366 111.367 130.123 112.165 135.676C113.151 142.799 114.146 149.92 115.15 157.038C117.045 170.553 118.974 184.157 120.14 197.869C120.201 198.55 119.526 198.611 119.41 198.026C116.629 184.068 114.639 169.675 112.649 155.425C111.701 148.763 110.74 142.1 109.813 135.431C109.091 130.259 108.137 124.645 108.062 119.228C107.21 118.922 106.732 117.534 106.835 116.37C100.891 112.287 94.3136 109.565 88.2201 106.23C84.5598 104.188 81.0496 101.705 77.4098 99.6017C74.1381 97.7031 70.7028 96.4169 67.622 93.8377C66.7495 93.0891 67.3766 91.2517 68.2695 91.5035Z" fill="#FFD878"/>
<path d="M123.438 89.8291C116.411 91.3875 110.686 95.4026 103.672 96.961C97.4987 98.3174 91.5215 100.446 85.8821 103.297C86.107 103.297 80.6814 100.962 80.8927 100.881C77.0144 99.3292 77.3825 97.6007 73.4973 96.0491C84.5393 93.327 96.556 89.3459 107.796 87.5561C110.583 87.1138 113.419 86.6646 116.22 86.9981C119.022 87.3316 121.843 88.5565 123.486 90.8499L122.607 90.2034" fill="#6A872A"/>
<path d="M85.7799 167.409C88.295 180.026 90.1285 191.772 92.7186 204.355L105.819 213.133C104.824 212.378 103.876 202.497 103.536 200.639C102.686 195.948 101.832 191.261 100.973 186.579C99.2552 177.211 97.5421 167.838 95.8336 158.46C94.1704 149.345 92.5051 140.236 90.8374 131.13C89.9786 126.439 89.122 121.752 88.2677 117.07C87.6816 113.858 87.3748 107.645 85.9571 105.073C83.1898 100.057 77.2189 100.459 73.436 98.2676C74.7992 103.936 74.9696 108.632 75.8012 114.41C76.6328 120.187 77.7574 125.679 78.7389 131.307C80.8587 143.468 83.4011 155.466 85.7799 167.409Z" fill="#6A872A"/>
<path d="M143.853 59.886C143.021 65.3302 142.187 70.7744 141.351 76.2186L143.853 59.886Z" fill="#E6369F"/>
<path d="M129.702 53.7613C128.554 55.569 127.698 57.5464 127.167 59.6206C124.131 69.5869 122.077 79.8251 121.032 90.1898C122.3 90.9588 124.025 90.4348 125.074 89.3868C126.034 88.26 126.732 86.9354 127.119 85.5078L137.684 56.0138C139.729 50.277 132.408 49.93 129.702 53.7613Z" fill="#6A872A"/>
<path d="M147.86 63.9693C148.583 60.6143 148.017 55.0544 144.602 53.0809C143.185 52.2574 140.554 51.9784 138.904 51.6313C137.807 51.4 132.688 51.8831 132.163 51.4136C138.107 56.7761 134.331 66.1673 132.286 72.5098C130.241 78.8523 126.594 84.2285 124.059 90.2579C128.196 91.966 136.171 83.8542 138.666 81.2205C143.252 76.4168 146.432 70.4504 147.86 63.9693Z" fill="#8FB73A"/>
<path d="M98.151 65.2284C97.2717 62.0639 100.468 61.0227 103.018 61.5059C107.305 62.3157 111.292 65.2216 114.196 68.3452C117.781 72.1969 120.33 76.8789 122.423 81.7107C123.561 84.3715 124.543 87.5496 123.07 90.0403C118.797 88.2097 116.043 84.0857 113.603 80.1387C111.163 76.1916 108.58 71.9724 104.442 69.89C103.243 69.2775 101.941 68.8556 100.768 68.1886C99.5422 67.581 98.6028 66.5185 98.151 65.2284Z" fill="#6A872A"/>
<path d="M91.6348 70.7744C97.1967 80.0228 111.272 92.3947 122.989 89.3391C120.514 85.6303 115.539 83.7384 112.287 80.7169C108.198 76.9332 103.365 72.3124 102.063 66.6913C101.62 64.7654 101.934 62.5605 103.311 61.145C100.284 61.049 97.2686 61.57 94.4498 62.6762C92.6845 63.3567 90.8373 64.5068 90.4284 66.351C90.0671 67.9026 90.8237 69.4474 91.6348 70.7744Z" fill="#8FB73A"/>
<path d="M110.209 87.0459C112.335 87.2841 114.414 87.9374 116.52 88.3525C118.845 88.8085 121.196 89.1147 123.541 89.455C124.059 89.523 123.936 90.3941 123.418 90.3601C119.063 90.081 114.019 89.557 110.004 87.7945C109.928 87.75 109.868 87.6815 109.834 87.5996C109.801 87.5178 109.795 87.4271 109.818 87.3418C109.842 87.2564 109.893 87.1811 109.963 87.1276C110.034 87.0741 110.12 87.0454 110.209 87.0459Z" fill="#6A872A"/>
<path d="M135.189 130.769L131.747 129.612L128.632 131.463L128.666 127.836L125.94 125.448L129.402 124.359L130.841 121.038L132.94 123.985L136.553 124.325L134.392 127.231L135.189 130.769Z" fill="#FFD878"/>
<path d="M146.545 161.454L143.103 160.298L139.981 162.149L140.022 158.528L137.295 156.133L140.758 155.051L142.196 151.723L144.295 154.676L147.908 155.01L145.747 157.922L146.545 161.454Z" fill="#FFD878"/>
<path d="M142.939 206.274L139.497 205.117L136.382 206.968L136.416 203.341L133.69 200.952L137.152 199.863L138.591 196.542L140.69 199.489L144.303 199.829L142.142 202.735L142.939 206.274Z" fill="#FFD878"/>
<path d="M130.922 174.555L127.48 173.404L124.365 175.249L124.4 171.628L121.673 169.233L125.136 168.151L126.574 164.823L128.673 167.776L132.286 168.11L130.125 171.023L130.922 174.555Z" fill="#FFD878"/>
<path d="M103.181 127.231L100.632 125.638L97.9805 127.067L98.4304 123.481L96.5764 120.752L99.4051 120.133L100.911 117.023L102.213 120.221L104.994 121.024L102.97 123.624L103.181 127.231Z" fill="#D9A72A"/>
<path d="M90.333 192.044L87.7838 190.458L85.1324 191.881L85.5822 188.294L83.7283 185.572L86.5569 184.946L88.0565 181.836L89.3583 185.035L92.1461 185.838L90.1217 188.444L90.333 192.044Z" fill="#D9A72A"/>
<path d="M106.058 167.899L103.508 166.313L100.857 167.736L101.307 164.149L99.4529 161.427L102.282 160.801L103.781 157.691L105.09 160.89L107.864 161.693L105.846 164.299L106.058 167.899Z" fill="#D9A72A"/>
<path d="M83.2783 151.287L80.7223 149.695L78.0777 151.117L78.5207 147.538L76.6667 144.809L79.4954 144.183L81.0017 141.073L82.3036 144.271L85.0846 145.081L83.0602 147.681L83.2783 151.287Z" fill="#D9A72A"/>
<path d="M106.255 146.34L105.137 145.639L103.965 146.265L104.163 144.686L103.345 143.482L104.592 143.21L105.253 141.842L105.826 143.25L107.053 143.604L106.167 144.748L106.255 146.34Z" fill="#D9A72A"/>
<path d="M100.762 151.648L99.6369 150.947L98.4713 151.573L98.6622 149.994L97.8511 148.797L99.0984 148.518L99.7596 147.15L100.332 148.558L101.559 148.912L100.666 150.056L100.762 151.648Z" fill="#D9A72A"/>
<path d="M111.933 193.024L110.808 192.323L109.636 192.949L109.834 191.37L109.022 190.173L110.263 189.894L110.931 188.526L111.503 189.935L112.724 190.288L111.837 191.439L111.933 193.024Z" fill="#D9A72A"/>
<path d="M111.933 178.039L110.808 177.338L109.636 177.964L109.834 176.385L109.022 175.187L110.263 174.908L110.931 173.541L111.503 174.949L112.724 175.303L111.837 176.446L111.933 178.039Z" fill="#D9A72A"/>
<path d="M83.1897 165.592L82.0583 164.891L80.8927 165.524L81.0904 163.945L80.2793 162.741L81.5198 162.468L82.181 161.094L82.7603 162.502L83.9804 162.856L83.0943 164.006L83.1897 165.592Z" fill="#D9A72A"/>
<path d="M73.5723 112.205L72.4477 111.504L71.2821 112.137L71.4798 110.558L70.6619 109.353L71.9092 109.081L72.5704 107.707L73.1429 109.115L74.3698 109.476L73.4837 110.619L73.5723 112.205Z" fill="#D9A72A"/>
<path d="M96.1744 133.709L95.0497 133.009L93.8842 133.635L94.0818 132.056L93.2639 130.858L94.5113 130.579L95.1724 129.211L95.745 130.62L96.9718 130.974L96.0789 132.124L96.1744 133.709Z" fill="#D9A72A"/>
<path d="M74.5335 128.497L73.4088 127.796L72.2433 128.422L72.441 126.843L71.623 125.645L72.8704 125.366L73.5315 123.998L74.1041 125.407L75.331 125.761L74.4381 126.911L74.5335 128.497Z" fill="#D9A72A"/>
<path d="M121.925 106.727L118.47 106.856L115.716 108.945L115.273 106.475L112.342 105.577L115.525 103.909L116.466 101.269L118.872 102.712L122.389 101.977L120.699 104.535L121.925 106.727Z" fill="#FFD878"/>
<path d="M160.279 88.8697L157.968 88.9582L156.128 90.3533L155.828 88.6996L153.865 88.1008L155.992 86.9847L156.626 85.2153L158.234 86.1817L160.586 85.6917L159.454 87.3998L160.279 88.8697Z" fill="#FFD878"/>
<path d="M87.627 89.7816L85.3164 89.8769L83.4761 91.272L83.1762 89.6183L81.2131 89.0127L83.3397 87.9034L83.9736 86.134L85.5822 87.1004L87.9337 86.6104L86.8023 88.3185L87.627 89.7816Z" fill="#FFD878"/>
<path d="M171.451 93.3476L170.067 93.402L168.97 94.2391L168.792 93.2523L167.62 92.8916L168.895 92.2247L169.27 91.1699L170.231 91.7484L171.635 91.4557L170.96 92.4765L171.451 93.3476Z" fill="#FFD878"/>
<path d="M119.567 95.736L118.19 95.7905L117.086 96.6207L116.909 95.634L115.743 95.2801L117.011 94.6132L117.386 93.5583L118.347 94.1368L119.751 93.8442L119.076 94.865L119.567 95.736Z" fill="#FFD878"/>
<path d="M171.464 130.769L168.029 129.612L164.907 131.463L164.941 127.836L162.222 125.448L165.677 124.359L167.116 121.038L169.222 123.985L172.834 124.325L170.674 127.231L171.464 130.769Z" fill="#FFD878"/>
<path d="M178.253 161.454L174.811 160.298L171.696 162.149L171.73 158.528L169.004 156.133L172.466 155.051L173.904 151.723L176.004 154.676L179.616 155.01L177.456 157.922L178.253 161.454Z" fill="#FFD878"/>
<path d="M171.382 186.355L167.947 185.198L164.825 187.049L164.859 183.429L162.14 181.033L165.602 179.951L167.034 176.623L169.14 179.577L172.752 179.91L170.592 182.823L171.382 186.355Z" fill="#FFD878"/>
<path d="M168.922 111.558L167.702 111.15L166.598 111.81L166.611 110.524L165.644 109.673L166.87 109.292L167.382 108.108L168.125 109.156L169.406 109.278L168.643 110.306L168.922 111.558Z" fill="#FFD878"/>
<path d="M137.493 183.748L136.273 183.34L135.169 183.993L135.182 182.707L134.215 181.857L135.441 181.475L135.953 180.298L136.702 181.339L137.977 181.462L137.214 182.496L137.493 183.748Z" fill="#FFD878"/>
<path d="M182.077 134.567L180.857 134.158L179.746 134.812L179.759 133.526L178.798 132.682L180.025 132.294L180.536 131.116L181.279 132.158L182.561 132.28L181.791 133.315L182.077 134.567Z" fill="#FFD878"/>
<path d="M180.196 113.409L178.976 113.001L177.865 113.654L177.878 112.375L176.917 111.524L178.144 111.136L178.649 109.959L179.398 111.007L180.68 111.123L179.909 112.157L180.196 113.409Z" fill="#FFD878"/>
<path d="M170.803 145.693L169.59 145.285L168.479 145.938L168.493 144.652L167.525 143.802L168.752 143.42L169.263 142.243L170.013 143.284L171.294 143.407L170.524 144.441L170.803 145.693Z" fill="#FFD878"/>
<path d="M171.989 195.903L170.769 195.494L169.658 196.148L169.672 194.868L168.711 194.018L169.938 193.63L170.442 192.452L171.192 193.5L172.473 193.616L171.703 194.65L171.989 195.903Z" fill="#FFD878"/>
<path d="M132.027 144.054L130.807 143.645L129.703 144.299L129.716 143.012L128.748 142.168L129.975 141.781L130.486 140.603L131.229 141.644L132.511 141.767L131.747 142.801L132.027 144.054Z" fill="#FFD878"/>
<path d="M124.365 140.562L123.145 140.154L122.034 140.807L122.048 139.521L121.08 138.67L122.307 138.289L122.818 137.105L123.568 138.153L124.849 138.276L124.079 139.31L124.365 140.562Z" fill="#FFD878"/>
<path d="M86.1753 100.874C84.1713 99.8873 82.1538 98.9346 80.1362 97.9751C78.3368 97.1108 76.4624 95.8859 74.4789 95.5728C73.3952 95.4027 72.3591 96.6753 73.3134 97.5736C74.7925 98.9346 76.8236 99.6696 78.6231 100.561C80.6202 101.555 82.6105 102.555 84.6212 103.521C86.3934 104.365 87.927 101.752 86.1753 100.874Z" fill="#8FB73A"/>
<path d="M160.538 100.037C156.571 101.208 152.577 102.296 148.638 103.549C143.185 105.284 142.115 105.025 144.405 110.49C149.639 108.19 156.599 105.788 162.27 105.046C162.774 104.964 163.953 99.0231 160.538 100.037Z" fill="#AED164"/>
<path d="M145.863 66.5483C145.829 66.4263 145.767 66.3139 145.682 66.2197C145.597 66.1254 145.491 66.0519 145.374 66.0046C145.256 65.9573 145.129 65.9375 145.002 65.9468C144.876 65.9561 144.753 65.9943 144.643 66.0583C143.021 67.2832 142.667 69.1139 141.774 70.8968C140.544 73.362 139.088 75.7085 137.425 77.9062C135.862 79.9598 134.112 81.8643 132.197 83.5954C130.275 85.3376 127.964 86.7258 126.247 88.6857C126.141 88.7981 126.075 88.9411 126.057 89.0939C126.039 89.2467 126.07 89.4013 126.146 89.5351C126.222 89.6689 126.339 89.7748 126.48 89.8375C126.621 89.9002 126.778 89.9163 126.928 89.8835C131.897 88.5701 136.341 83.541 139.429 79.6756C141.049 77.6702 142.484 75.5223 143.716 73.2583C144.834 71.2371 146.402 68.8893 145.863 66.5483Z" fill="#AED164"/>
<path d="M142.926 59.886C142.645 59.8895 142.376 60.0025 142.178 60.2008C141.979 60.3992 141.866 60.6671 141.862 60.9476V61.1722C141.851 61.3155 141.869 61.4597 141.916 61.5957C141.963 61.7317 142.037 61.8564 142.135 61.9622C142.233 62.0679 142.351 62.1523 142.483 62.21C142.615 62.2677 142.758 62.2975 142.902 62.2975C143.046 62.2975 143.188 62.2677 143.32 62.21C143.452 62.1523 143.571 62.0679 143.668 61.9622C143.766 61.8564 143.841 61.7317 143.888 61.5957C143.935 61.4597 143.953 61.3155 143.941 61.1722C143.941 61.0973 143.941 61.0225 143.941 60.9476C143.938 60.6751 143.832 60.4139 143.643 60.2168C143.455 60.0197 143.198 59.9015 142.926 59.886Z" fill="#AED164"/>
<path d="M222.714 167.545L218.113 187.246L217.207 191.105L210.882 218.061L210.023 221.708L203.888 247.874L182.575 243.111L179.725 242.471L159.809 238.007L157.021 237.381L146.32 234.985L143.778 222.348L143.335 220.17L139.879 202.994L139.443 200.823L136.648 186.947L136.314 185.3L134.399 175.773L133.935 173.479L131.72 162.462L131.291 160.338L129.409 150.988L140.997 153.03L143.928 153.554L155.515 155.595L158.678 156.153L171.628 158.447L174.354 158.93L192.212 162.135L195.525 162.72L215.489 166.259L218.1 166.722L222.714 167.545Z" fill="#BF2525"/>
<path d="M143.914 153.581C141.263 155.384 138.529 157.072 135.96 159.025C134.494 160.134 133.083 161.305 131.679 162.489L131.25 160.366C134.272 157.651 137.529 155.21 140.983 153.07L143.914 153.581Z" fill="#D93D2A"/>
<path d="M158.678 156.194C155.27 158.746 151.8 161.264 148.454 163.925C143.682 167.77 139.068 171.873 134.331 175.786L133.867 173.493C138.223 169.485 142.898 165.755 147.499 162.067C150.13 159.944 152.789 157.752 155.501 155.636L158.678 156.194Z" fill="#D93D2A"/>
<path d="M174.314 158.97C173.216 159.767 172.126 160.563 171.055 161.373C166.911 164.512 162.76 167.633 158.603 170.737C151.303 176.181 144.009 181.625 136.607 186.94L136.273 185.293C142.96 180.067 149.735 174.949 156.517 169.831C160.661 166.71 164.814 163.598 168.977 160.495C169.856 159.814 170.735 159.134 171.608 158.453L174.314 158.97Z" fill="#D93D2A"/>
<path d="M195.491 162.72C192.567 164.571 189.602 166.354 186.855 168.253C180.643 172.526 174.491 176.877 168.397 181.305C158.725 188.328 149.237 195.596 139.838 202.987L139.402 200.816C148.01 193.854 156.817 187.144 165.752 180.604C172.032 176.031 178.353 171.553 184.715 167.171C187.187 165.474 189.67 163.795 192.165 162.135L195.491 162.72Z" fill="#D93D2A"/>
<path d="M218.066 166.728C212.954 170.716 207.242 173.983 201.864 177.617C196.102 181.496 190.408 185.468 184.783 189.533C175.111 196.542 156.421 211.895 143.737 222.361L143.294 220.183C155.474 209.765 173.005 195.276 182.077 188.634C188.011 184.283 194.039 180.057 200.16 175.956C205.129 172.628 210.125 169.049 215.455 166.279L218.066 166.728Z" fill="#D93D2A"/>
<path d="M218.113 187.253L217.207 191.112C214.712 193.153 212.19 195.195 209.675 197.236C204.44 201.501 199.192 205.757 193.93 210.003C185.751 216.618 171.021 229.214 159.802 237.979L157.014 237.353C168.104 227.751 184.572 214.637 193.358 207.526C198.783 203.13 204.211 198.74 209.641 194.358C212.299 192.221 215.114 189.519 218.113 187.253Z" fill="#D93D2A"/>
<path d="M210.854 218.067L209.995 221.715C208.953 222.484 207.951 223.232 206.962 223.995C203.782 226.512 200.601 229.008 197.42 231.48C192.485 235.305 187.632 239.429 182.52 243.09L179.671 242.45C185.124 237.687 191.135 233.433 196.82 228.99C199.901 226.58 203.009 224.226 206.124 221.83C207.685 220.667 209.253 219.292 210.854 218.067Z" fill="#D93D2A"/>
<path d="M275 147.252L221.917 167.545L195.13 162.781L188.511 161.611L176.87 159.569H176.835L170.606 158.453L155.61 155.792L152.761 155.289L144.296 153.798L141.078 153.233L128.578 151.015L154.281 142.461L166.237 138.487L190.168 130.518L202.559 132.961L209.137 134.26L221.937 136.785L229.653 138.303L241.486 140.644L249.467 142.229L275 147.252Z" fill="#F04832"/>
<path d="M231.82 162.557C225.427 163.55 218.965 163.761 212.579 164.66C211.631 164.789 211.938 166.184 212.79 166.239C219.272 166.64 225.979 165.558 232.379 164.592C233.715 164.381 233.15 162.353 231.82 162.557Z" fill="#F77261"/>
<path d="M245.064 157.657C235.63 158.623 226.195 159.59 216.757 160.556C212.04 161.032 207.323 161.516 202.6 161.972C200.139 162.21 197.638 162.55 195.102 162.795L188.484 161.625C192.839 160.597 197.461 160.447 201.905 159.984C206.621 159.501 211.345 159.039 216.062 158.569C225.718 157.607 235.378 156.661 245.043 155.731C246.311 155.609 246.291 157.535 245.064 157.657Z" fill="#F77261"/>
<path d="M266.037 148.565C250.36 151.056 234.506 152.512 218.774 154.452C210.722 155.445 202.675 156.43 194.632 157.405C188.77 158.086 182.799 159.1 176.856 159.562H176.822L170.592 158.446C178.171 156.548 186.214 155.996 193.957 155.044C201.7 154.091 209.634 153.084 217.432 152.117C233.497 150.137 249.597 147.619 265.716 146.204C267.08 146.061 267.38 148.354 266.037 148.565Z" fill="#F77261"/>
<path d="M249.467 142.23C233.445 143.491 217.473 145.294 201.55 147.64C186.153 149.926 170.939 153.152 155.61 155.806L152.761 155.302C152.747 155.13 152.799 154.959 152.907 154.824C153.014 154.689 153.169 154.6 153.34 154.574C169.324 150.253 185.907 147.687 202.28 145.292C215.316 143.377 228.401 141.837 241.533 140.671L249.467 142.23Z" fill="#F77261"/>
<path d="M229.66 138.31C222.653 139.671 215.421 140.27 208.38 141.365C200.896 142.531 193.43 143.797 185.982 145.163C178.321 146.564 170.676 148.082 163.046 149.715C156.837 151.036 150.594 152.832 144.296 153.798L141.078 153.234C141.093 153.063 141.154 152.9 141.255 152.762C141.356 152.624 141.493 152.517 141.651 152.451C148.876 149.777 156.851 148.572 164.376 147.007C171.787 145.451 179.216 143.992 186.664 142.631C194.334 141.238 202.021 139.95 209.723 138.766C213.758 138.146 217.847 137.405 221.944 136.826L229.66 138.31Z" fill="#F77261"/>
<path d="M209.102 134.26C199.335 135.832 189.581 137.405 179.793 138.847C174.718 139.596 169.635 140.322 164.546 141.025C161.24 141.474 157.73 142.216 154.274 142.447L166.23 138.473C170.774 137.833 175.318 137.175 179.862 136.499C187.427 135.37 195 134.213 202.552 132.961L209.102 134.26Z" fill="#F77261"/>
<path d="M267.605 149.892C263.679 150.634 260.352 153.036 256.665 154.493C251.212 156.643 245.439 158.154 239.891 160.025C235.569 161.486 231.266 162.983 226.981 164.517C225.011 165.197 223 165.66 221.528 166.994C194.946 162.815 168.533 156.643 141.781 153.472C141.44 153.431 141.433 153.928 141.706 154.03C154.826 158.97 168.758 161.128 182.52 163.557C195.096 165.789 207.739 167.81 220.26 170.233C219.333 174.364 218.849 178.658 217.977 182.796C216.859 188.104 215.721 193.412 214.569 198.72C212.429 208.792 210.241 218.931 208.925 229.146C208.864 229.629 209.607 229.691 209.75 229.255C212.899 218.857 215.114 208.159 217.404 197.509C218.468 192.541 219.552 187.573 220.608 182.605C221.426 178.746 222.496 174.561 222.585 170.526C223.028 170.39 223.408 170.101 223.658 169.711C223.908 169.32 224.01 168.854 223.948 168.396C230.669 165.367 238.105 163.326 244.989 160.835C249.14 159.338 253.107 157.432 257.217 155.894C260.918 154.479 264.803 153.519 268.286 151.594C269.315 151.076 268.613 149.715 267.605 149.892Z" fill="#F77261"/>
<path d="M163.053 238.823C159.87 211.868 161.009 181.938 162.665 154.846L161.506 155.037C170.61 150.458 180.18 146.869 190.052 144.332L208.953 150.246C199.081 152.783 189.511 156.372 180.407 160.951L181.566 160.76C179.944 187.825 178.771 216.06 181.988 243.015L163.053 238.823Z" fill="#D6C48B"/>
<path d="M217.895 149.137C210.473 149.668 202.975 152.077 195.648 149.742C191.395 148.381 186.61 147.932 182.227 147.054C173.366 145.285 164.192 144.026 155.508 141.61C160.504 138.276 168.731 137.581 174.545 138.024C189.532 139.188 204.201 142.949 217.895 149.137Z" fill="#E2D4A7"/>
<path d="M274.823 147.252L274.134 149.484L273.378 151.92L265.894 176.14L265.021 178.944V178.951L257.571 203.055V203.062L256.406 206.811V206.818L248.901 231.092L215.394 243.58L212.204 244.771L203.854 247.881L222.714 167.545L274.823 147.252Z" fill="#D93D2A"/>
<path d="M274.134 149.484L273.378 151.92C269.847 154.921 265.669 157.364 261.906 160.005L247.668 169.988C238.282 176.562 229.039 184.089 218.999 189.635C218.427 189.948 217.766 189.158 218.284 188.703C226.647 181.407 236.523 175.48 245.609 169.11L259.855 159.134C264.462 155.901 269.063 151.975 274.134 149.484Z" fill="#F04832"/>
<path d="M265.894 176.14L265.021 178.978C257.06 184.336 249.247 189.903 241.581 195.678C231.718 203.116 222.496 211.371 212.64 218.816C212.013 219.285 211.277 218.278 211.822 217.761C220.424 209.2 230.464 201.789 240.136 194.48C248.538 188.097 257.124 181.984 265.894 176.14Z" fill="#F04832"/>
<path d="M257.571 203.062L256.406 206.811C255.288 207.655 254.116 208.458 253.059 209.302C251.11 210.845 249.174 212.41 247.252 213.998C243.421 217.174 239.652 220.424 235.944 223.75C228.869 230.106 222.408 237.156 215.394 243.573L212.204 244.764C212.185 244.55 212.251 244.338 212.388 244.172C218.945 235.754 227.349 228.425 235.283 221.334C239.304 217.732 243.394 214.227 247.552 210.82C250.667 208.315 253.952 204.981 257.571 203.062Z" fill="#F04832"/>
<path d="M205.217 150.832L229.073 156.106C235.733 157.582 242.855 157.024 248.84 160.189C248.583 160.148 248.332 160.08 248.09 159.985L261.259 154.717C248.772 151.621 235.631 150.335 222.912 148.314C219.763 147.81 216.559 147.306 213.369 147.681C210.179 148.055 207.01 149.443 205.149 152.036L206.151 151.308" fill="#ECE1C3"/>
<path d="M247.804 206.45C244.873 215.828 242.808 225.076 239.884 234.454C234.799 236.7 224.888 240.075 225.134 239.953C226.259 239.388 227.335 232.603 227.717 231.215C228.694 227.726 229.664 224.235 230.628 220.741L236.435 199.781C238.316 192.976 240.2 186.184 242.085 179.406L244.989 168.926C245.671 166.531 245.998 161.897 247.6 159.984C250.735 156.248 257.483 156.548 261.763 154.921C260.189 159.147 260.032 162.645 259.091 166.953C258.151 171.261 256.869 175.35 255.765 179.549C253.38 188.6 250.51 197.495 247.804 206.45Z" fill="#ECE1C3"/>
<path d="M182.131 117.05C183.072 123.202 184.017 129.354 184.967 135.506L182.131 117.05Z" fill="#00B2C5"/>
<path d="M198.135 110.109C199.433 112.151 200.4 114.386 200.998 116.73C204.429 128.001 206.748 139.58 207.923 151.301C206.492 152.165 204.515 151.573 203.35 150.396C202.184 149.219 201.571 147.578 201.005 146.006C197.038 134.878 193.067 123.762 189.091 112.661C186.759 106.162 195.075 105.753 198.135 110.109Z" fill="#D6C48B"/>
<path d="M177.599 121.596C176.788 117.806 177.422 111.518 181.28 109.279C182.895 108.339 185.867 108.026 187.728 107.639C188.975 107.373 194.762 107.924 195.355 107.387C188.634 113.457 192.901 124.08 195.218 131.205C197.536 138.33 201.653 144.455 204.515 151.274C199.84 153.2 190.822 144.033 188 141.066C182.82 135.644 179.224 128.911 177.599 121.596Z" fill="#ECE1C3"/>
<path d="M233.851 123.052C234.84 119.473 231.234 118.289 228.344 118.84C223.498 119.759 218.992 123.046 215.707 126.578C211.658 130.933 208.755 136.227 206.41 141.692C205.115 144.7 204.011 148.286 205.674 151.11C210.507 149.069 213.621 144.38 216.382 139.916C219.142 135.452 222.06 130.715 226.736 128.347C228.099 127.666 229.564 127.17 230.893 126.414C232.281 125.723 233.343 124.516 233.851 123.052Z" fill="#D6C48B"/>
<path d="M241.186 129.347C234.894 139.807 218.972 153.799 205.742 150.342C208.53 146.143 214.16 144.006 217.841 140.59C222.441 136.309 227.928 131.062 229.387 124.727C229.885 122.549 229.53 120.058 227.969 118.452C231.397 118.344 234.811 118.935 238.003 120.188C239.993 120.97 242.092 122.229 242.549 124.346C242.951 126.074 242.099 127.823 241.186 129.347Z" fill="#ECE1C3"/>
<path d="M220.158 147.721C217.752 147.994 215.387 148.735 213.022 149.198C210.391 149.715 207.733 150.062 205.081 150.444C204.502 150.525 204.631 151.512 205.217 151.471C210.145 151.151 215.85 150.566 220.39 148.565C220.474 148.514 220.539 148.436 220.575 148.344C220.611 148.253 220.617 148.152 220.59 148.057C220.564 147.962 220.508 147.878 220.43 147.817C220.352 147.757 220.257 147.723 220.158 147.721Z" fill="#E2D4A7"/>
<path d="M181.211 159.637C178.703 158.324 175.697 157.991 172.95 157.358C169.835 156.636 166.7 155.779 163.537 155.316C163.284 155.27 163.023 155.32 162.805 155.456C162.587 155.593 162.428 155.806 162.36 156.054C162.291 156.301 162.318 156.566 162.435 156.794C162.552 157.023 162.751 157.2 162.992 157.29C166.025 158.297 169.201 158.923 172.309 159.665C175.036 160.345 177.912 161.386 180.748 161.339C180.944 161.33 181.133 161.26 181.286 161.137C181.439 161.014 181.55 160.846 181.602 160.657C181.653 160.468 181.643 160.267 181.573 160.084C181.503 159.9 181.376 159.744 181.211 159.637Z" fill="#ECE1C3"/>
<path d="M260.271 153.982C258.014 153.982 256.14 155.683 253.993 156.405C251.648 157.187 249.188 157.589 246.87 158.446C246.114 158.719 246.189 159.944 247.075 159.916C249.583 159.848 252.125 159.045 254.504 158.29C255.677 157.916 256.808 157.385 257.987 157.038C259.453 156.595 259.964 156.827 260.959 155.677C261.1 155.54 261.197 155.364 261.238 155.172C261.278 154.98 261.26 154.78 261.186 154.598C261.112 154.416 260.986 154.26 260.823 154.151C260.659 154.041 260.467 153.982 260.271 153.982Z" fill="#FFFCF5"/>
<path d="M234.56 129.565C231.793 134.785 228.187 138.446 223.764 142.284C223.082 142.89 223.955 143.802 224.677 143.468C229.912 141.107 234.254 135.907 236.523 130.708C237.089 129.402 235.263 128.245 234.56 129.565Z" fill="#FFFCF5"/>
<path d="M236.414 123.855C236.131 123.855 235.854 123.939 235.619 124.096C235.384 124.253 235.2 124.476 235.092 124.737C234.984 124.999 234.955 125.286 235.01 125.563C235.066 125.84 235.202 126.095 235.402 126.295C235.602 126.495 235.857 126.631 236.135 126.686C236.413 126.741 236.7 126.713 236.962 126.605C237.224 126.496 237.447 126.313 237.604 126.078C237.762 125.843 237.846 125.567 237.846 125.284C237.842 124.906 237.69 124.545 237.422 124.278C237.155 124.01 236.793 123.859 236.414 123.855Z" fill="#FFFCF5"/>
<path d="M193.174 130.266C192.54 127.19 190.549 124.509 189.847 121.358C189.084 117.915 189.166 114.485 189.363 111C189.411 110.197 188.218 110.082 188 110.81C187.036 114.253 186.912 117.877 187.639 121.378C188.218 124.475 189.343 128.966 191.933 130.987C192.051 131.097 192.201 131.166 192.361 131.184C192.521 131.202 192.682 131.168 192.822 131.087C192.961 131.006 193.07 130.882 193.133 130.734C193.197 130.587 193.211 130.422 193.174 130.266Z" fill="#FFFCF5"/>
<path d="M113.835 241.77L128.789 167.511L46.24 182.142L62.9188 253.189L113.835 241.77Z" fill="#8FB73A"/>
<path d="M129.491 167.511L75.0514 149.396L0 164.197L46.9489 182.142L129.491 167.511Z" fill="#A4CC4B"/>
<path d="M98.9961 244.41C101.811 220.592 100.809 194.868 99.3437 170.914L100.366 171.084C92.3228 167.036 83.868 163.86 75.1468 161.611L58.427 166.844C67.1493 169.087 75.6044 172.261 83.6464 176.31L82.6171 176.14C84.0826 200.101 85.0914 225.818 82.2763 249.637L98.9961 244.41Z" fill="#D93D2A"/>
<path d="M50.5 165.864C57.0638 166.334 63.6959 168.457 70.1711 166.402C73.9336 165.204 78.1663 164.796 82.0446 164.02C89.8626 162.455 97.9942 161.345 105.669 159.256C101.252 156.303 93.9795 155.683 88.8402 156.078C75.5886 157.097 62.6153 160.408 50.5 165.864Z" fill="#F04832"/>
<path d="M0.156738 164.197L23.0859 238.34L62.9188 253.189L46.24 182.142L0.156738 164.197Z" fill="#6A872A"/>
<path d="M6.5433 166.531C10.0127 167.211 12.9572 169.314 16.2153 170.614C21.0274 172.513 26.1462 173.847 31.047 175.507C34.8708 176.8 38.6741 178.113 42.4638 179.474C44.2087 180.107 45.9877 180.488 47.3169 181.666C70.839 177.971 94.1771 172.513 117.815 169.709C118.115 169.675 118.129 170.11 117.883 170.206C106.296 174.575 93.959 176.48 81.7924 178.644C70.6686 180.618 59.5039 182.408 48.3938 184.551C49.2117 188.206 49.6411 191.996 50.4386 195.657C51.4337 200.353 52.4312 205.046 53.4308 209.737C55.3257 218.645 57.2546 227.615 58.4202 236.645C58.4747 237.074 57.8067 237.135 57.6909 236.747C54.9099 227.547 52.9196 218.06 50.9294 208.669C49.9819 204.273 49.0209 199.883 48.0939 195.487C47.3714 192.085 46.4171 188.376 46.3422 184.803C45.9459 184.689 45.6039 184.437 45.3786 184.092C45.1534 183.747 45.0599 183.333 45.1153 182.925C39.1717 180.243 32.5942 178.44 26.5007 176.242C22.8268 174.895 19.3234 173.241 15.6768 171.853C12.4051 170.607 8.96981 169.757 5.88896 168.055C5.02332 167.572 5.64358 166.361 6.5433 166.531Z" fill="#B4D66D"/>
<path d="M61.7125 167.361L40.6305 172.03C34.7618 173.329 28.4434 172.853 23.1269 175.623C23.3598 175.589 23.5883 175.529 23.8085 175.446L12.1394 170.812C23.1814 168.089 34.8096 166.939 46.0492 165.15C48.837 164.7 51.6724 164.258 54.4738 164.592C57.2752 164.925 60.0971 166.15 61.7397 168.443L60.8605 167.797" fill="#F04832"/>
<path d="M24.0537 216.543C26.5825 224.859 28.4023 232.603 30.9924 240.906L44.0929 246.69C43.0977 246.193 42.1503 239.681 41.8095 238.456C40.9598 235.366 40.1032 232.277 39.2399 229.187L34.0801 210.65C32.4125 204.638 30.7471 198.632 29.0839 192.629C28.2251 189.54 27.3686 186.45 26.5143 183.361C25.9281 181.244 25.6214 177.147 24.2037 175.453C21.4364 172.146 15.4655 172.411 11.6758 170.975C13.039 174.711 13.2162 177.78 14.0409 181.619C14.8657 185.457 16.004 189.043 16.9855 192.759C19.1325 200.755 21.6749 208.69 24.0537 216.543Z" fill="#BF2525"/>
<path d="M82.1265 137.466C81.2949 142.91 80.4611 148.354 79.625 153.798L82.1265 137.466Z" fill="#E6369F"/>
<path d="M67.9696 131.341C66.8186 133.15 65.9628 135.13 65.434 137.207C62.3984 147.174 60.3439 157.412 59.2996 167.777C60.5673 168.539 62.2918 168.015 63.3415 166.974C64.2997 165.846 64.9978 164.522 65.3863 163.095C68.9034 153.254 72.4182 143.416 75.9307 133.58C78.0232 127.843 70.6824 127.496 67.9696 131.341Z" fill="#BF2525"/>
<path d="M86.1344 141.508C86.8569 138.153 86.2912 132.593 82.8763 130.62C81.4518 129.79 78.8276 129.517 77.1781 129.17C76.0739 128.939 70.9619 129.422 70.437 128.953C76.3806 134.315 72.6045 143.706 70.5597 150.049C68.5149 156.391 64.8615 161.768 62.3328 167.797C66.4701 169.498 74.4381 161.393 76.9395 158.76C81.5244 153.955 84.7043 147.989 86.1344 141.508Z" fill="#F04832"/>
<path d="M36.3908 142.795C35.5115 139.63 38.7014 138.589 41.2574 139.072C45.5447 139.882 49.5321 142.788 52.4357 145.877C56.0141 149.763 58.6179 154.479 60.6627 159.277C61.8078 161.938 62.7893 165.109 61.3443 167.606C57.0774 165.776 54.3238 161.652 51.8768 157.705C49.4299 153.758 46.8602 149.539 42.7229 147.456C41.5232 146.837 40.2214 146.422 39.049 145.755C37.8087 145.154 36.8542 144.091 36.3908 142.795Z" fill="#D93D2A"/>
<path d="M29.9087 148.354C35.4706 157.603 49.5457 169.975 61.2625 166.919C58.7951 163.203 53.8194 161.318 50.5681 158.297C46.4785 154.513 41.6459 149.892 40.3441 144.264C39.901 142.338 40.2146 140.14 41.5914 138.718C38.5638 138.624 35.5487 139.147 32.7306 140.256C30.9652 140.937 29.1181 142.08 28.7023 143.931C28.341 145.469 29.0976 146.993 29.9087 148.354Z" fill="#F04832"/>
<path d="M75.9239 170.308C73.4232 169.528 70.8143 169.149 68.1945 169.185C66.9267 169.185 64.1049 169.117 66.2724 166.742C66.8148 166.212 67.4692 165.809 68.1877 165.565C75.0992 162.754 84.2531 163.714 90.6806 167.504C94.1634 169.626 97.0247 172.626 98.9763 176.203C100.928 179.78 101.901 183.807 101.798 187.879C101.695 190.751 101.041 193.582 100.993 196.454C100.946 199.326 101.614 202.395 103.72 204.382C101.714 204.052 99.8341 203.192 98.2755 201.889C96.717 200.587 95.537 198.891 94.8589 196.978C94.9679 199.909 95.0724 202.842 95.1724 205.777C91.519 205.607 88.5949 202.374 87.4839 198.91C86.3729 195.447 86.6796 191.676 86.8023 188.022C86.925 184.368 86.8841 180.536 85.1665 177.304C83.2852 173.813 79.7 171.492 75.9239 170.308Z" fill="#BF2525"/>
<path d="M76.5849 168.43C74.0364 167.832 71.4081 167.649 68.801 167.885C67.5332 168.001 64.7114 168.123 66.6949 165.592C67.1971 165.021 67.8214 164.57 68.5216 164.272C75.2013 160.958 84.3961 161.23 91.0554 164.53C94.688 166.386 97.7668 169.164 99.9817 172.586C102.197 176.008 103.469 179.952 103.672 184.021C103.781 186.892 103.345 189.764 103.515 192.636C103.686 195.508 104.578 198.509 106.8 200.34C104.778 200.157 102.842 199.437 101.193 198.255C99.5432 197.073 98.2411 195.471 97.4216 193.616C97.7487 196.529 98.0737 199.446 98.3963 202.367C94.7361 202.47 91.5802 199.482 90.217 196.093C88.8538 192.704 88.8538 188.934 88.7311 185.28C88.6084 181.625 88.254 177.794 86.3046 174.718C84.1917 171.37 80.4292 169.321 76.5849 168.43Z" fill="#F04832"/>
<path d="M62.5235 166.273C66.3646 163.305 70.8734 161.32 75.6581 160.488C75.9948 160.32 76.3225 160.133 76.6396 159.93C77.6714 159.224 78.6223 158.407 79.475 157.494C79.7818 157.181 80.3543 157.596 80.0953 157.963C79.486 158.809 78.7662 159.568 77.9551 160.223C81.1667 159.93 84.3944 160.576 87.2453 162.081C87.6815 162.319 87.3885 163.074 86.8977 162.897C82.8259 161.318 78.3552 161.08 74.1381 162.217C72.0387 162.824 70.0098 163.652 68.0854 164.687C66.4291 165.545 64.8955 166.729 63.1097 167.307C62.5644 167.443 62.026 166.647 62.5235 166.273Z" fill="#D93D2A"/>
<path d="M48.4826 164.612C50.6092 164.85 52.6881 165.504 54.7874 165.919C57.1185 166.375 59.47 166.681 61.8147 167.014C62.3328 167.089 62.2101 167.96 61.6921 167.926C57.3366 167.647 52.2927 167.123 48.2781 165.361C48.2015 165.316 48.1417 165.248 48.1082 165.166C48.0746 165.084 48.069 164.993 48.0923 164.908C48.1156 164.823 48.1665 164.747 48.2371 164.694C48.3077 164.64 48.394 164.612 48.4826 164.612Z" fill="#BF2525"/>
<path d="M66.7973 196.705C66.4363 196.685 66.0769 196.768 65.7613 196.944C65.5396 197.076 65.3561 197.263 65.2286 197.488C65.1012 197.712 65.0342 197.965 65.0342 198.223C65.0342 198.481 65.1012 198.734 65.2286 198.959C65.3561 199.183 65.5396 199.37 65.7613 199.502C66.0769 199.679 66.4363 199.761 66.7973 199.741C66.9969 199.741 67.1946 199.701 67.379 199.625C67.5634 199.549 67.731 199.437 67.8721 199.296C68.0132 199.155 68.1252 198.988 68.2016 198.804C68.278 198.62 68.3173 198.422 68.3173 198.223C68.3173 198.024 68.278 197.826 68.2016 197.642C68.1252 197.458 68.0132 197.291 67.8721 197.15C67.731 197.009 67.5634 196.897 67.379 196.821C67.1946 196.745 66.9969 196.705 66.7973 196.705Z" fill="#B4D66D"/>
<path d="M76.5236 210.663C76.1421 210.665 75.7766 210.817 75.5062 211.085C75.2358 211.354 75.0822 211.718 75.0786 212.099V212.242C75.0786 212.621 75.2294 212.984 75.4979 213.252C75.7663 213.52 76.1304 213.671 76.51 213.671C76.8896 213.671 77.2537 213.52 77.5221 213.252C77.7905 212.984 77.9413 212.621 77.9413 212.242V212.099C77.9396 211.722 77.7904 211.361 77.5254 211.093C77.2605 210.824 76.9009 210.67 76.5236 210.663Z" fill="#B4D66D"/>
<path d="M67.6355 228.03C67.3444 228.03 67.0653 228.145 66.8595 228.351C66.6537 228.556 66.5381 228.835 66.5381 229.126C66.5381 229.416 66.6537 229.695 66.8595 229.9C67.0653 230.106 67.3444 230.221 67.6355 230.221C67.9265 230.221 68.2056 230.106 68.4114 229.9C68.6172 229.695 68.7328 229.416 68.7328 229.126C68.7328 228.835 68.6172 228.556 68.4114 228.351C68.2056 228.145 67.9265 228.03 67.6355 228.03Z" fill="#B4D66D"/>
<path d="M77.9551 237.503C75.9103 237.503 75.8762 240.722 77.9551 240.722C80.034 240.722 80.034 237.503 77.9551 237.503Z" fill="#B4D66D"/>
<path d="M109.057 232.685C109.016 232.61 108.968 232.542 108.927 232.474C108.803 232.289 108.634 232.137 108.437 232.032C108.24 231.927 108.019 231.872 107.796 231.872C107.572 231.872 107.352 231.927 107.155 232.032C106.957 232.137 106.789 232.289 106.664 232.474L106.535 232.685C106.406 232.906 106.338 233.158 106.337 233.414C106.337 233.67 106.404 233.921 106.531 234.143C106.659 234.365 106.844 234.549 107.066 234.678C107.287 234.806 107.539 234.873 107.796 234.873C108.052 234.873 108.304 234.806 108.526 234.678C108.748 234.549 108.932 234.365 109.06 234.143C109.188 233.921 109.255 233.67 109.254 233.414C109.254 233.158 109.186 232.906 109.057 232.685Z" fill="#B4D66D"/>
<path d="M115.498 216.924C113.787 216.924 113.787 219.578 115.498 219.578C117.209 219.578 117.236 216.924 115.498 216.924Z" fill="#B4D66D"/>
<path d="M108.287 209.908L108.341 209.949C107.659 209.091 106.242 209.826 106.242 210.813C106.242 211.8 107.605 212.535 108.341 211.684L108.287 211.718C108.443 211.624 108.573 211.492 108.663 211.333C108.753 211.174 108.8 210.995 108.8 210.813C108.8 210.631 108.753 210.451 108.663 210.293C108.573 210.134 108.443 210.001 108.287 209.908Z" fill="#B4D66D"/>
<path d="M116.643 188.505C116.341 188.505 116.051 188.625 115.838 188.838C115.625 189.051 115.505 189.34 115.505 189.642C115.505 189.943 115.625 190.232 115.838 190.445C116.051 190.658 116.341 190.778 116.643 190.778C116.945 190.778 117.234 190.658 117.448 190.445C117.661 190.232 117.781 189.943 117.781 189.642C117.781 189.34 117.661 189.051 117.448 188.838C117.234 188.625 116.945 188.505 116.643 188.505Z" fill="#B4D66D"/>
<path d="M109.636 184.062C109.574 183.92 109.471 183.801 109.342 183.716C109.212 183.632 109.061 183.587 108.907 183.587C108.752 183.587 108.601 183.632 108.472 183.716C108.342 183.801 108.24 183.92 108.177 184.062C108.102 184.19 108.062 184.335 108.062 184.484C108.061 184.633 108.099 184.779 108.173 184.908C108.247 185.037 108.354 185.144 108.483 185.218C108.612 185.293 108.758 185.332 108.907 185.332C109.056 185.332 109.202 185.293 109.33 185.218C109.459 185.144 109.566 185.037 109.64 184.908C109.714 184.779 109.753 184.633 109.752 184.484C109.751 184.335 109.711 184.19 109.636 184.062Z" fill="#B4D66D"/>
<path d="M38.013 190.07C38.013 189.718 37.8729 189.381 37.6237 189.132C37.3744 188.883 37.0363 188.743 36.6838 188.743C36.3313 188.743 35.9933 188.883 35.744 189.132C35.4947 189.381 35.3547 189.718 35.3547 190.07C35.3196 190.398 35.4043 190.726 35.5933 190.996C35.7744 191.219 36.0215 191.379 36.2991 191.453C36.5767 191.527 36.8707 191.511 37.1391 191.409C37.4075 191.306 37.6365 191.121 37.7934 190.881C37.9504 190.641 38.0272 190.357 38.013 190.07Z" fill="#B4D66D"/>
<path d="M44.134 204.293C42.3754 204.293 42.3686 207.016 44.134 207.016C45.8993 207.016 45.9061 204.293 44.134 204.293Z" fill="#B4D66D"/>
<path d="M43.2751 222.661C41.5779 222.661 41.5779 225.294 43.2751 225.294C44.9723 225.294 44.9859 222.661 43.2751 222.661Z" fill="#B4D66D"/>
<path d="M51.7134 243.226C51.6235 242.906 51.4409 242.62 51.1886 242.403C50.9872 242.212 50.72 242.105 50.4422 242.105C50.1644 242.105 49.8973 242.212 49.6959 242.403C49.4435 242.62 49.2609 242.906 49.171 243.226C49.1191 243.421 49.1127 243.624 49.1523 243.822C49.1918 244.019 49.2763 244.205 49.3992 244.364C49.522 244.524 49.68 244.653 49.8608 244.742C50.0417 244.831 50.2406 244.878 50.4422 244.878C50.6438 244.878 50.8427 244.831 51.0236 244.742C51.2044 244.653 51.3624 244.524 51.4852 244.364C51.6081 244.205 51.6926 244.019 51.7321 243.822C51.7717 243.624 51.7653 243.421 51.7134 243.226Z" fill="#B4D66D"/>
<path d="M24.1015 228.227V228.098C24.0292 227.851 23.8785 227.633 23.6721 227.479C23.4656 227.324 23.2145 227.24 22.9564 227.24C22.6983 227.24 22.4472 227.324 22.2407 227.479C22.0342 227.633 21.8836 227.851 21.8113 228.098C21.8113 228.139 21.8113 228.186 21.7772 228.227C21.727 228.408 21.7194 228.598 21.7549 228.783C21.7904 228.967 21.8681 229.141 21.9819 229.29C22.0957 229.439 22.2426 229.56 22.411 229.644C22.5795 229.727 22.765 229.771 22.953 229.771C23.141 229.771 23.3265 229.727 23.4949 229.644C23.6634 229.56 23.8103 229.439 23.9241 229.29C24.0379 229.141 24.1156 228.967 24.1511 228.783C24.1866 228.598 24.179 228.408 24.1287 228.227H24.1015Z" fill="#B4D66D"/>
<path d="M11.751 188.982C11.4405 189.005 11.1502 189.144 10.9384 189.372C10.7266 189.6 10.6089 189.899 10.6089 190.21C10.6089 190.521 10.7266 190.82 10.9384 191.048C11.1502 191.276 11.4405 191.415 11.751 191.438C12.0614 191.415 12.3517 191.276 12.5635 191.048C12.7753 190.82 12.893 190.521 12.893 190.21C12.893 189.899 12.7753 189.6 12.5635 189.372C12.3517 189.144 12.0614 189.005 11.751 188.982Z" fill="#B4D66D"/>
<path d="M76.5237 184.422H76.3805C74.8401 184.347 74.8333 186.892 76.3805 186.811H76.5237C76.8409 186.811 77.1452 186.685 77.3695 186.461C77.5939 186.237 77.7199 185.933 77.7199 185.616C77.7199 185.3 77.5939 184.996 77.3695 184.772C77.1452 184.548 76.8409 184.422 76.5237 184.422Z" fill="#B4D66D"/>
<path d="M53.3083 174.82C53.0387 174.82 52.7751 174.9 52.5509 175.049C52.3267 175.199 52.152 175.411 52.0488 175.66C51.9457 175.909 51.9187 176.182 51.9713 176.446C52.0239 176.71 52.1537 176.953 52.3443 177.143C52.535 177.334 52.7779 177.463 53.0423 177.516C53.3068 177.568 53.5809 177.541 53.83 177.438C54.079 177.335 54.292 177.161 54.4417 176.937C54.5915 176.713 54.6715 176.45 54.6715 176.181C54.6715 175.82 54.5279 175.474 54.2722 175.218C54.0166 174.963 53.6698 174.82 53.3083 174.82Z" fill="#B4D66D"/>
<path d="M67.0631 172.738C66.8299 172.738 66.6063 172.83 66.4414 172.995C66.2765 173.159 66.1838 173.383 66.1838 173.615C66.1838 173.848 66.2765 174.072 66.4414 174.236C66.6063 174.401 66.8299 174.493 67.0631 174.493C67.2963 174.493 67.52 174.401 67.6848 174.236C67.8497 174.072 67.9424 173.848 67.9424 173.615C67.9424 173.383 67.8497 173.159 67.6848 172.995C67.52 172.83 67.2963 172.738 67.0631 172.738Z" fill="#B4D66D"/>
<path d="M25.7918 165.571L25.7509 165.442C25.6763 165.208 25.5292 165.004 25.3306 164.859C25.1321 164.714 24.8926 164.636 24.6467 164.636C24.4008 164.636 24.1612 164.714 23.9627 164.859C23.7642 165.004 23.617 165.208 23.5425 165.442L23.5016 165.571C23.4542 165.747 23.4479 165.931 23.4832 166.109C23.5185 166.288 23.5945 166.456 23.7052 166.6C23.8159 166.744 23.9585 166.861 24.1217 166.942C24.285 167.022 24.4646 167.064 24.6467 167.064C24.8288 167.064 25.0084 167.022 25.1717 166.942C25.3349 166.861 25.4774 166.744 25.5882 166.6C25.6989 166.456 25.7749 166.288 25.8102 166.109C25.8455 165.931 25.8392 165.747 25.7918 165.571Z" fill="#B4D66D"/>
<path d="M34.8164 161.203L34.7073 161.141C34.5264 161.033 34.3197 160.974 34.1086 160.971C33.8975 160.969 33.6894 161.022 33.5056 161.126C33.3218 161.229 33.1689 161.38 33.0626 161.562C32.9562 161.744 32.9001 161.951 32.9001 162.162C32.9001 162.373 32.9562 162.58 33.0626 162.762C33.1689 162.944 33.3218 163.095 33.5056 163.199C33.6894 163.302 33.8975 163.356 34.1086 163.353C34.3197 163.35 34.5264 163.291 34.7073 163.183L34.8164 163.122C34.9783 163.019 35.1116 162.877 35.2039 162.71C35.2963 162.542 35.3447 162.354 35.3447 162.162C35.3447 161.971 35.2963 161.782 35.2039 161.615C35.1116 161.447 34.9783 161.305 34.8164 161.203Z" fill="#B4D66D"/>
<path d="M99.5142 163.87C99.4105 163.695 99.263 163.55 99.0862 163.448C98.9094 163.347 98.7093 163.293 98.5054 163.292H98.335C98.0422 163.314 97.7686 163.446 97.569 163.661C97.3694 163.876 97.2585 164.159 97.2585 164.452C97.2585 164.745 97.3694 165.028 97.569 165.243C97.7686 165.458 98.0422 165.59 98.335 165.612H98.5054C98.7093 165.611 98.9094 165.557 99.0862 165.456C99.263 165.355 99.4105 165.209 99.5142 165.034C99.6185 164.858 99.6736 164.657 99.6736 164.452C99.6736 164.247 99.6185 164.046 99.5142 163.87Z" fill="#B4D66D"/>
<path d="M110.365 166.232C110.365 166.177 110.365 166.068 110.318 165.871C110.286 165.683 110.216 165.504 110.111 165.345C110.006 165.186 109.869 165.051 109.708 164.949C109.547 164.846 109.367 164.778 109.179 164.749C108.99 164.721 108.798 164.732 108.614 164.782C108.375 164.857 108.225 165.047 108.007 165.129C108.212 164.973 108.212 164.966 108.007 165.129C107.9 165.194 107.811 165.286 107.748 165.395C107.598 165.606 107.497 165.848 107.452 166.104C107.407 166.359 107.42 166.621 107.489 166.871C107.594 167.25 107.846 167.572 108.188 167.766C108.531 167.96 108.936 168.01 109.316 167.906C109.664 167.8 109.961 167.572 110.154 167.265C110.347 166.957 110.422 166.59 110.365 166.232Z" fill="#B4D66D"/>
<path d="M103.992 264.105L93.5979 212.494L139.811 222.661L139.381 272.04L103.992 264.105Z" fill="#D6C48B"/>
<path d="M92.9707 212.358L130.159 200.21L171.962 209.704L140.063 223.212L92.9707 212.358Z" fill="#ECE1C3"/>
<path d="M113.514 266.765C111.558 250.195 112.253 231.8 113.276 215.148L112.56 215.263C118.156 212.45 124.038 210.244 130.105 208.683L141.726 212.323C135.659 213.885 129.777 216.091 124.182 218.904L124.863 218.788C123.848 235.441 123.145 252.815 125.102 269.351L113.514 266.765Z" fill="#BA8D1E"/>
<path d="M147.226 211.643C142.667 211.97 138.059 213.446 133.553 212.017C130.943 211.187 127.998 210.901 125.306 210.364C119.853 209.275 114.216 208.506 108.886 207.029C111.953 204.987 117.011 204.552 120.583 204.824C129.793 205.538 138.808 207.845 147.226 211.643Z" fill="#D9A72A"/>
<path d="M171.853 209.703L166.277 262.036L138.591 272.352L139.02 222.974L171.853 209.703Z" fill="#ECE1C3"/>
<path d="M139 212.977L151.105 218.094L150.321 267.984L157.785 265.2L160.361 214.501L144.241 210.384L139 212.977Z" fill="#F0C04A"/>
<path d="M125.238 191.908C125.815 195.691 126.397 199.473 126.983 203.252L125.238 191.908Z" fill="#00B2C5"/>
<path d="M135.08 187.668C135.878 188.928 136.471 190.306 136.839 191.751C138.945 198.681 140.37 205.799 141.092 213.004C140.625 213.224 140.1 213.288 139.594 213.186C139.088 213.084 138.629 212.822 138.284 212.439C137.605 211.652 137.113 210.721 136.846 209.717L129.505 189.22C128.094 185.232 133.199 184.987 135.08 187.668Z" fill="#BA8D1E"/>
<path d="M122.457 194.725C121.953 192.398 122.348 188.532 124.72 187.158C125.708 186.579 127.535 186.389 128.68 186.144C129.443 185.987 133.001 186.321 133.37 185.994C129.232 189.723 131.863 196.25 133.281 200.646C134.699 205.042 137.241 208.812 139 212.984C136.123 214.168 130.582 208.533 128.844 206.702C125.662 203.366 123.453 199.224 122.457 194.725Z" fill="#F0C04A"/>
<path d="M157.028 195.624C157.642 193.426 155.419 192.697 153.62 193.031C150.641 193.596 147.874 195.617 145.85 197.795C143.427 200.541 141.495 203.683 140.138 207.084C139.34 208.935 138.659 211.167 139.688 212.875C142.653 211.602 144.568 208.737 146.266 205.995C147.963 203.252 149.755 200.34 152.632 198.87C153.463 198.441 154.37 198.148 155.188 197.686C156.05 197.268 156.711 196.526 157.028 195.624Z" fill="#BA8D1E"/>
<path d="M161.54 199.489C157.675 205.92 147.908 214.522 139.729 212.419C141.446 209.833 144.909 208.526 147.172 206.424C150.001 203.797 153.368 200.578 154.267 196.672C154.449 196.006 154.464 195.307 154.312 194.634C154.16 193.961 153.845 193.336 153.395 192.813C155.491 192.756 157.577 193.119 159.529 193.882C160.756 194.365 162.038 195.154 162.324 196.434C162.624 197.482 162.099 198.557 161.54 199.489Z" fill="#F0C04A"/>
<path d="M129.552 214.747C131.29 214.204 133.103 213.939 134.923 213.964C135.81 213.964 137.752 213.923 136.287 212.269C135.91 211.901 135.456 211.619 134.958 211.446C130.152 209.5 123.793 210.167 119.349 212.807C116.926 214.279 114.935 216.364 113.578 218.851C112.221 221.338 111.545 224.138 111.619 226.969C111.688 228.963 112.144 230.936 112.178 232.93C112.212 234.924 111.742 237.061 110.297 238.442C111.686 238.206 112.987 237.604 114.065 236.699C115.144 235.793 115.96 234.617 116.432 233.291C116.357 235.332 116.282 237.374 116.213 239.416C118.756 239.3 120.787 237.068 121.557 234.652C122.327 232.236 122.116 229.616 122.014 227.078C121.912 224.539 121.959 221.878 123.152 219.633C124.434 217.183 126.928 215.57 129.552 214.747Z" fill="#BA8D1E"/>
<path d="M129.089 213.44C130.875 213.024 132.716 212.897 134.542 213.065C135.421 213.14 137.364 213.229 136 211.473C135.652 211.076 135.218 210.762 134.733 210.554C130.091 208.247 123.697 208.438 119.056 210.731C116.532 212.023 114.393 213.955 112.855 216.333C111.316 218.712 110.432 221.453 110.29 224.28C110.215 226.274 110.522 228.275 110.399 230.262C110.277 232.249 109.663 234.345 108.116 235.618C109.522 235.494 110.869 234.994 112.015 234.171C113.162 233.349 114.066 232.234 114.632 230.943L113.95 237.027C116.5 237.101 118.722 235.026 119.642 232.664C120.562 230.303 120.576 227.697 120.664 225.179C120.753 222.661 120.998 219.993 122.355 217.836C123.8 215.488 126.41 214.066 129.089 213.44Z" fill="#D9A72A"/>
<path d="M138.863 211.942C136.193 209.881 133.061 208.501 129.736 207.921C129.502 207.805 129.274 207.675 129.055 207.533C128.337 207.043 127.677 206.474 127.085 205.838C126.874 205.627 126.472 205.906 126.656 206.172C127.076 206.759 127.576 207.286 128.142 207.737C125.915 207.536 123.678 207.983 121.7 209.023C121.4 209.193 121.605 209.704 121.946 209.595C124.776 208.504 127.881 208.347 130.807 209.145C132.256 209.554 133.659 210.112 134.992 210.813C136.144 211.412 137.214 212.249 138.454 212.637C138.836 212.759 139.204 212.201 138.863 211.942Z" fill="#D9A72A"/>
<path d="M148.63 210.786C147.145 210.956 145.7 211.405 144.241 211.697C142.626 212.01 140.99 212.228 139.361 212.46C138.999 212.507 139.081 213.14 139.442 213.093C142.469 212.895 145.979 212.535 148.767 211.31C149.019 211.194 148.896 210.752 148.63 210.786Z" fill="#F0C04A"/>
<path d="M157.907 199.462C157.481 200.933 156.743 202.297 155.744 203.459C154.744 204.621 153.506 205.556 152.114 206.199C151.944 206.27 151.809 206.406 151.74 206.576C151.67 206.747 151.671 206.938 151.742 207.107C151.814 207.277 151.95 207.412 152.12 207.481C152.291 207.551 152.482 207.55 152.652 207.478C154.331 206.879 155.833 205.871 157.023 204.546C158.213 203.221 159.053 201.621 159.468 199.891C159.51 199.689 159.473 199.479 159.366 199.304C159.258 199.128 159.088 199 158.889 198.946C158.69 198.891 158.478 198.914 158.296 199.01C158.114 199.106 157.975 199.267 157.907 199.462Z" fill="#FFD878"/>
<path d="M160.272 195.943C160.24 195.901 160.203 195.863 160.163 195.828C160.019 195.687 159.826 195.608 159.625 195.608C159.423 195.608 159.23 195.687 159.086 195.828C159.047 195.863 159.01 195.901 158.977 195.943C158.848 196.071 158.759 196.235 158.723 196.414C158.687 196.592 158.704 196.777 158.774 196.946C158.843 197.114 158.961 197.258 159.113 197.359C159.264 197.461 159.442 197.515 159.625 197.515C159.807 197.515 159.985 197.461 160.137 197.359C160.288 197.258 160.406 197.114 160.476 196.946C160.545 196.777 160.563 196.592 160.527 196.414C160.49 196.235 160.402 196.071 160.272 195.943Z" fill="#FFD878"/>
<path d="M130.473 196.168C129.852 194.331 129.368 192.439 128.823 190.574C128.768 190.387 128.647 190.226 128.483 190.121C128.319 190.015 128.122 189.971 127.929 189.998C127.735 190.024 127.558 190.118 127.428 190.264C127.298 190.41 127.225 190.597 127.221 190.792C127.29 194.113 128.142 199.639 131.079 201.68C131.168 201.73 131.268 201.755 131.37 201.755C131.471 201.754 131.571 201.727 131.659 201.676C131.747 201.625 131.82 201.553 131.872 201.465C131.923 201.377 131.951 201.278 131.952 201.177C131.993 199.455 131.018 197.781 130.473 196.168Z" fill="#FFD878"/>
<path d="M127.93 187.097H127.699C127.53 187.097 127.369 187.163 127.25 187.282C127.131 187.401 127.065 187.562 127.065 187.729C127.065 187.897 127.131 188.058 127.25 188.177C127.369 188.296 127.53 188.362 127.699 188.362H127.93C128.762 188.43 128.762 187.056 127.93 187.097Z" fill="#FFD878"/>
<path d="M157.28 214.188C155.917 214.78 154.554 215.359 153.191 215.964C152.114 216.441 150.73 216.835 150.185 217.951C150.139 218.03 150.111 218.119 150.105 218.21C150.098 218.301 150.112 218.392 150.147 218.477C150.181 218.562 150.234 218.638 150.302 218.699C150.37 218.76 150.451 218.804 150.539 218.829C151.739 219.217 152.966 218.496 154.07 218.04C155.433 217.482 156.796 216.903 158.159 216.332C158.323 216.291 158.475 216.216 158.607 216.111C158.739 216.007 158.846 215.875 158.922 215.725C158.998 215.575 159.041 215.411 159.048 215.243C159.055 215.075 159.025 214.908 158.962 214.752C158.898 214.597 158.801 214.457 158.678 214.342C158.556 214.227 158.41 214.14 158.25 214.086C158.091 214.033 157.921 214.014 157.754 214.032C157.587 214.049 157.425 214.103 157.28 214.188Z" fill="#FFD878"/>
<path d="M84.7915 135.424C84.7338 135.225 84.6062 135.053 84.432 134.94C84.2578 134.827 84.0486 134.78 83.8427 134.808C83.6368 134.836 83.4479 134.937 83.3105 135.093C83.1731 135.248 83.0963 135.448 83.0943 135.655C82.992 141.95 82.2559 147.224 78.4116 152.471C78.0572 152.961 78.8206 153.492 79.2296 153.097C83.7213 148.803 86.6931 141.603 84.7915 135.424Z" fill="#F77261"/>
<path d="M81.4516 132.396C81.3719 132.131 81.2089 131.899 80.9866 131.734C80.7644 131.569 80.4948 131.48 80.2179 131.48C79.941 131.48 79.6714 131.569 79.4492 131.734C79.227 131.899 79.0639 132.131 78.9842 132.396C78.9335 132.58 78.9128 132.77 78.9229 132.961C78.9298 133.302 79.0685 133.626 79.3099 133.867C79.5513 134.108 79.8766 134.247 80.2179 134.254C80.5561 134.237 80.8759 134.096 81.1153 133.857C81.3547 133.618 81.4964 133.298 81.513 132.961C81.5195 132.771 81.4989 132.58 81.4516 132.396Z" fill="#F77261"/>
<path d="M87.0408 166.218C86.8591 166.179 86.6696 166.205 86.5049 166.291C86.3402 166.377 86.2107 166.517 86.1388 166.688C86.0669 166.859 86.0571 167.05 86.111 167.228C86.1649 167.405 86.2792 167.558 86.4342 167.661C89.2151 169.566 91.8529 171.302 93.7137 174.207C95.4245 176.895 95.8539 179.849 96.7946 182.816C96.8394 182.952 96.9261 183.071 97.0424 183.155C97.1587 183.239 97.2985 183.284 97.4421 183.284C97.5856 183.284 97.7255 183.239 97.8418 183.155C97.9581 183.071 98.0448 182.952 98.0896 182.816C99.7459 176.215 93.4479 167.661 87.0408 166.218Z" fill="#F77261"/>
<path d="M44.577 155.942C43.1252 153.989 41.4552 152.261 40.2761 150.117C39.0969 147.973 38.872 145.421 37.6451 143.38C37.5449 143.222 37.4016 143.096 37.2321 143.017C37.0626 142.938 36.874 142.909 36.6884 142.933C36.5029 142.957 36.3282 143.034 36.1849 143.154C36.0417 143.274 35.9358 143.433 35.8797 143.611C35.3822 146.102 36.7454 148.892 37.9245 151.049C39.1991 153.431 40.9645 155.813 43.3365 157.174C44.059 157.623 45.1495 156.711 44.577 155.942Z" fill="#F77261"/>
<defs>
<linearGradient id="paint0_linear_614_2444" x1="29.9123" y1="8.50456" x2="202.017" y2="253.004" gradientUnits="userSpaceOnUse">
<stop stop-color="#9853F7"/>
<stop offset="1" stop-color="#954575"/>
</linearGradient>
</defs>
</svg>
